<svg width="680" height="409" viewBox="0 0 680 409" fill="none" xmlns="http://www.w3.org/2000/svg">
<rect x="57.9305" y="0.548598" width="624.808" height="345.34" rx="40.5" transform="rotate(5.88083 57.9305 0.548598)" stroke="#FF6501"/>
<path d="M466.768 360.35C468.4 360.532 469.691 361.818 469.877 363.449L471.041 373.622C471.2 375.009 473.215 375.009 473.373 373.622L474.537 363.449C474.724 361.818 476.014 360.532 477.647 360.35L487.542 359.251C488.932 359.096 488.935 357.076 487.545 356.918L477.638 355.79C476.01 355.605 474.724 354.32 474.538 352.692L473.373 342.514C473.215 341.127 471.2 341.127 471.041 342.514L469.877 352.692C469.69 354.32 468.405 355.605 466.777 355.79L456.869 356.918C455.48 357.076 455.482 359.096 456.872 359.251L466.768 360.35Z" fill="white" stroke="#2C4075" stroke-width="2.34739"/>
<rect x="44.2305" y="14.6306" width="612.767" height="366.739" rx="38" fill="#C7F8FF"/>
<mask id="mask0_2137_6930" style="mask-type:alpha" maskUnits="userSpaceOnUse" x="44" y="14" width="613" height="368">
<rect x="44.2344" y="14.6306" width="612.767" height="366.739" rx="38" fill="#D9D9D9"/>
</mask>
<g mask="url(#mask0_2137_6930)">
<path d="M298.088 416.164L298.087 416.163C296.178 413.097 294.357 409.929 292.522 406.734C291.63 405.183 290.735 403.625 289.825 402.07C287.377 401.179 282.071 399.629 276.382 397.968C275.826 397.805 275.265 397.641 274.703 397.477C271.321 396.488 267.932 395.49 265.11 394.611C262.337 393.746 259.971 392.954 258.726 392.377L258.725 392.376C249.348 388.023 240.473 382.663 232.488 375.794C230.944 374.466 229.424 373.133 227.913 371.807C223.713 368.123 219.579 364.497 215.177 361.2C210.335 357.577 206.121 354.484 200.503 355.386C196.855 355.971 194.169 359.261 194.374 363.013C194.592 366.967 195.947 370.562 198.24 373.493C201.485 377.637 205.143 381.529 209.062 385.021L209.062 385.022C210.882 386.644 212.883 388.089 214.988 389.567C215.266 389.762 215.547 389.959 215.829 390.156C217.653 391.432 219.545 392.755 221.337 394.201L221.338 394.201C228.519 399.996 236.622 404.185 245.383 408.029C247.053 408.609 247.97 408.969 248.992 409.37C249.575 409.598 250.193 409.841 251.004 410.145L251.005 410.145L251.223 410.227C252.527 410.717 254.795 411.57 256.386 412.114C259.235 412.842 262.083 413.571 264.93 414.3C271.813 416.063 278.693 417.825 285.577 419.565L285.578 419.565C287.362 420.016 289.196 420.334 291.255 420.569C291.541 420.459 291.822 420.371 292.12 420.309C292.515 420.227 292.891 420.203 293.218 420.185C296.157 419.614 298.082 419.172 299.307 418.776C299.494 418.715 299.657 418.658 299.796 418.606C299.694 418.462 299.581 418.308 299.452 418.133C299.366 418.017 299.274 417.891 299.173 417.753C298.844 417.302 298.466 416.771 298.088 416.164ZM300.526 418.259C300.526 418.259 300.523 418.261 300.518 418.265C300.524 418.261 300.526 418.259 300.526 418.259Z" fill="white" stroke="#2C4075" stroke-width="4.11439"/>
<mask id="path-6-inside-1_2137_6930" fill="white">
<path d="M512.773 70.5023C511.715 79.188 510.237 87.551 508.352 95.8412C503.187 118.521 495.861 140.393 485.077 160.938C483.4 164.138 484.538 167.309 484.723 170.465C484.922 173.867 485.402 177.255 485.357 180.67C485.198 192.942 484.595 205.178 482.78 217.326C480.466 232.837 474.831 246.879 465.871 259.62C460.176 267.717 453.552 274.85 446.328 281.471C445.012 282.676 443.523 283.626 441.912 284.778C441.744 284.913 441.761 284.887 441.761 284.903C441.143 285.403 440.551 285.932 439.696 286.349C439.577 286.47 439.598 286.444 439.598 286.46C438.98 286.96 438.388 287.489 437.529 287.9C437.409 288.021 437.41 287.978 437.42 287.995C437.138 288.219 436.898 288.487 436.542 288.893C435.41 289.99 434.342 290.867 433.014 291.746C430.127 293.637 426.962 294.245 423.995 295.359C415.213 298.659 406.296 301.413 396.911 302.314C389.11 303.06 381.341 304.18 373.445 303.508C369.326 303.158 365.175 303.371 361.028 303.454C355.761 303.56 350.512 302.479 345.251 301.989C331.372 300.706 318.278 296.291 305.59 290.795C290.67 284.331 277.332 275.223 265.894 263.319C262.307 259.586 258.441 256.132 254.136 252.886C253.964 252.75 253.886 252.52 253.857 252.399C253.505 250.94 252.423 249.972 251.954 248.509C251.825 248.375 251.851 248.398 251.835 248.402C251.049 247.482 250.436 246.465 249.919 245.184C249.795 245.056 249.821 245.078 249.805 245.078C248.995 243.707 248.049 242.418 247.394 240.765C247.271 240.63 247.313 240.626 247.292 240.637C240.095 227.362 235.086 213.334 233.042 198.247C231.982 190.431 231.608 182.572 231.016 174.722C230.243 164.557 227.891 154.747 224.014 145.289C218.188 131.077 212.133 116.95 207.989 102.082C204.927 91.1054 202.441 80.033 201.574 68.6171C201.235 64.1377 200.541 59.6415 201.012 55.1829C201.485 50.6701 201.8 43.5818 203.916 39.2252C205.644 39.2322 205.526 42.802 205.593 44.0352C205.662 45.3877 205.625 46.7422 205.536 48.0896C204.384 65.888 206.508 83.2825 211.17 100.499C214.46 112.66 218.529 124.423 224.773 135.324C228.694 142.175 232.761 148.961 238.837 154.146C239.008 154.293 239.571 155.807 239.84 153.913C240.519 152.715 241.626 152.555 242.59 152.19C247.105 150.476 250.522 147.219 253.484 143.562C257.696 138.357 260.778 132.448 262.883 125.998C263.634 123.696 263.209 121.388 263.526 118.915C265.712 118.237 265.464 120.74 267.051 121.42C266.612 119.448 265.808 117.823 264.955 116.255C257.316 102.278 248.326 89.238 238.639 76.6694C231.845 67.8546 224.164 59.8789 216.592 51.8091C212.827 47.7938 210.667 45.2322 205.535 42.5664C205.368 41.8669 203.574 39.9191 203.916 39.236C204.032 39.0663 204.032 39.0771 204.026 39.0769C204.315 38.7934 204.614 38.5157 205.017 38.1274C205.131 38.0226 205.104 38.0326 205.115 38.0384C205.12 38.0385 206.296 37.1004 206.291 37.084C211.321 34.5569 216.349 35.4081 220.979 36.6694C236.227 40.8171 249.444 49.1073 262.229 58.2458C267.07 61.7048 271.816 65.3071 276.481 69.0098C277.27 69.6318 278.077 70.1568 278.083 71.5018C277.414 72.5051 276.496 72.5459 275.643 72.7353C274.437 73.0054 273.232 73.281 272.046 73.6331C265.147 75.6769 262.321 79.4357 263.044 87.9241C263.791 96.6844 268.606 102.659 276.354 106.011C284.244 109.422 292.455 110.967 301.138 110.554C309.316 110.162 317.514 109.852 325.689 109.417C335.631 108.886 345.586 108.661 355.531 108.434C361.598 108.294 367.676 108.735 373.759 109.202C392.314 110.632 410.293 115.513 428.583 118.512C433.259 119.281 437.964 120.111 442.788 119.318C449.811 118.167 453.207 115.273 454.473 108.123C455.363 103.076 455.931 97.9593 456.256 92.8235C456.704 85.7178 453.869 80.4149 447.85 76.842C446.723 76.1711 445.411 75.7111 444.645 74.2385C460.612 60.1563 478.246 49.4305 498.947 44.6658C502.286 43.8953 505.721 43.3013 509.126 43.2215C510.691 43.1853 512.296 44.5767 513.925 45.497C514.257 46.1476 514.158 46.6812 514.352 47.3382C514.475 47.4832 514.444 47.4822 514.455 47.4663C514.952 52.7588 514.824 58.0419 513.823 63.2805"/>
</mask>
<path d="M512.773 70.5023C511.715 79.188 510.237 87.551 508.352 95.8412C503.187 118.521 495.861 140.393 485.077 160.938C483.4 164.138 484.538 167.309 484.723 170.465C484.922 173.867 485.402 177.255 485.357 180.67C485.198 192.942 484.595 205.178 482.78 217.326C480.466 232.837 474.831 246.879 465.871 259.62C460.176 267.717 453.552 274.85 446.328 281.471C445.012 282.676 443.523 283.626 441.912 284.778C441.744 284.913 441.761 284.887 441.761 284.903C441.143 285.403 440.551 285.932 439.696 286.349C439.577 286.47 439.598 286.444 439.598 286.46C438.98 286.96 438.388 287.489 437.529 287.9C437.409 288.021 437.41 287.978 437.42 287.995C437.138 288.219 436.898 288.487 436.542 288.893C435.41 289.99 434.342 290.867 433.014 291.746C430.127 293.637 426.962 294.245 423.995 295.359C415.213 298.659 406.296 301.413 396.911 302.314C389.11 303.06 381.341 304.18 373.445 303.508C369.326 303.158 365.175 303.371 361.028 303.454C355.761 303.56 350.512 302.479 345.251 301.989C331.372 300.706 318.278 296.291 305.59 290.795C290.67 284.331 277.332 275.223 265.894 263.319C262.307 259.586 258.441 256.132 254.136 252.886C253.964 252.75 253.886 252.52 253.857 252.399C253.505 250.94 252.423 249.972 251.954 248.509C251.825 248.375 251.851 248.398 251.835 248.402C251.049 247.482 250.436 246.465 249.919 245.184C249.795 245.056 249.821 245.078 249.805 245.078C248.995 243.707 248.049 242.418 247.394 240.765C247.271 240.63 247.313 240.626 247.292 240.637C240.095 227.362 235.086 213.334 233.042 198.247C231.982 190.431 231.608 182.572 231.016 174.722C230.243 164.557 227.891 154.747 224.014 145.289C218.188 131.077 212.133 116.95 207.989 102.082C204.927 91.1054 202.441 80.033 201.574 68.6171C201.235 64.1377 200.541 59.6415 201.012 55.1829C201.485 50.6701 201.8 43.5818 203.916 39.2252C205.644 39.2322 205.526 42.802 205.593 44.0352C205.662 45.3877 205.625 46.7422 205.536 48.0896C204.384 65.888 206.508 83.2825 211.17 100.499C214.46 112.66 218.529 124.423 224.773 135.324C228.694 142.175 232.761 148.961 238.837 154.146C239.008 154.293 239.571 155.807 239.84 153.913C240.519 152.715 241.626 152.555 242.59 152.19C247.105 150.476 250.522 147.219 253.484 143.562C257.696 138.357 260.778 132.448 262.883 125.998C263.634 123.696 263.209 121.388 263.526 118.915C265.712 118.237 265.464 120.74 267.051 121.42C266.612 119.448 265.808 117.823 264.955 116.255C257.316 102.278 248.326 89.238 238.639 76.6694C231.845 67.8546 224.164 59.8789 216.592 51.8091C212.827 47.7938 210.667 45.2322 205.535 42.5664C205.368 41.8669 203.574 39.9191 203.916 39.236C204.032 39.0663 204.032 39.0771 204.026 39.0769C204.315 38.7934 204.614 38.5157 205.017 38.1274C205.131 38.0226 205.104 38.0326 205.115 38.0384C205.12 38.0385 206.296 37.1004 206.291 37.084C211.321 34.5569 216.349 35.4081 220.979 36.6694C236.227 40.8171 249.444 49.1073 262.229 58.2458C267.07 61.7048 271.816 65.3071 276.481 69.0098C277.27 69.6318 278.077 70.1568 278.083 71.5018C277.414 72.5051 276.496 72.5459 275.643 72.7353C274.437 73.0054 273.232 73.281 272.046 73.6331C265.147 75.6769 262.321 79.4357 263.044 87.9241C263.791 96.6844 268.606 102.659 276.354 106.011C284.244 109.422 292.455 110.967 301.138 110.554C309.316 110.162 317.514 109.852 325.689 109.417C335.631 108.886 345.586 108.661 355.531 108.434C361.598 108.294 367.676 108.735 373.759 109.202C392.314 110.632 410.293 115.513 428.583 118.512C433.259 119.281 437.964 120.111 442.788 119.318C449.811 118.167 453.207 115.273 454.473 108.123C455.363 103.076 455.931 97.9593 456.256 92.8235C456.704 85.7178 453.869 80.4149 447.85 76.842C446.723 76.1711 445.411 75.7111 444.645 74.2385C460.612 60.1563 478.246 49.4305 498.947 44.6658C502.286 43.8953 505.721 43.3013 509.126 43.2215C510.691 43.1853 512.296 44.5767 513.925 45.497C514.257 46.1476 514.158 46.6812 514.352 47.3382C514.475 47.4832 514.444 47.4822 514.455 47.4663C514.952 52.7588 514.824 58.0419 513.823 63.2805" fill="white"/>
<path d="M508.352 95.8412L513.367 97.0077L513.367 97.0057L508.352 95.8412ZM485.077 160.938L480.521 158.53L480.52 158.532L485.077 160.938ZM484.723 170.465L479.589 170.739L479.589 170.74L484.723 170.465ZM485.357 180.67L480.215 180.576L480.215 180.577L485.357 180.67ZM482.78 217.326L477.694 216.541L477.694 216.542L482.78 217.326ZM465.871 259.62L470.082 262.594L470.083 262.593L465.871 259.62ZM446.328 281.471L449.811 285.273L449.813 285.271L446.328 281.471ZM441.912 284.778L438.907 280.589L438.786 280.675L438.671 280.768L441.912 284.778ZM441.761 284.903L445.01 288.906L446.837 287.425L446.901 285.069L441.761 284.903ZM439.696 286.349L437.421 281.725L436.645 282.104L436.037 282.717L439.696 286.349ZM439.598 286.46L442.848 290.463L444.675 288.982L444.739 286.626L439.598 286.46ZM437.529 287.9L435.288 283.259L434.491 283.641L433.869 284.268L437.529 287.9ZM437.42 287.995L440.634 292.026L444.177 289.208L441.804 285.327L437.42 287.995ZM436.542 288.893L440.13 292.597L440.281 292.451L440.419 292.293L436.542 288.893ZM433.014 291.746L435.848 296.052L435.858 296.046L435.868 296.039L433.014 291.746ZM423.995 295.359L422.167 290.542L422.165 290.543L423.995 295.359ZM396.911 302.314L397.426 307.434L397.428 307.434L396.911 302.314ZM373.445 303.508L373.856 298.383L373.855 298.383L373.445 303.508ZM361.028 303.454L360.899 298.311L360.898 298.311L361.028 303.454ZM345.251 301.989L345.702 296.868L345.699 296.868L345.251 301.989ZM305.59 290.795L303.566 295.512L303.566 295.512L305.59 290.795ZM265.894 263.319L269.594 259.766L269.594 259.765L265.894 263.319ZM254.136 252.886L250.954 256.91L251.003 256.949L251.053 256.987L254.136 252.886ZM253.857 252.399L258.861 251.236L258.858 251.226L258.856 251.216L253.857 252.399ZM251.954 248.509L256.851 246.962L256.485 245.823L255.656 244.958L251.954 248.509ZM251.835 248.402L247.932 251.731L250.134 254.309L253.362 253.321L251.835 248.402ZM249.919 245.184L254.687 243.281L254.313 242.353L253.618 241.63L249.919 245.184ZM249.805 245.078L245.382 247.679L246.83 250.127L249.666 250.218L249.805 245.078ZM247.394 240.765L252.175 238.892L251.821 237.998L251.169 237.29L247.394 240.765ZM247.292 240.637L242.774 243.07L245.105 247.37L249.509 245.289L247.292 240.637ZM233.042 198.247L238.138 197.582L238.138 197.582L233.042 198.247ZM231.016 174.722L236.144 174.361L236.144 174.358L231.016 174.722ZM224.014 145.289L219.257 147.219L219.257 147.219L224.014 145.289ZM207.989 102.082L212.943 100.725L212.942 100.724L207.989 102.082ZM201.574 68.6171L196.446 68.9795L196.446 68.9801L201.574 68.6171ZM201.012 55.1829L206.127 55.7492L206.127 55.7445L201.012 55.1829ZM203.916 39.2252L203.911 34.082L200.693 34.0689L199.289 36.9582L203.916 39.2252ZM205.593 44.0352L210.729 43.7985L210.729 43.7901L210.728 43.7816L205.593 44.0352ZM205.536 48.0896L200.404 47.722L200.404 47.7312L205.536 48.0896ZM211.17 100.499L216.134 99.1795L216.134 99.1779L211.17 100.499ZM224.773 135.324L229.233 132.786L229.232 132.785L224.773 135.324ZM238.837 154.146L242.172 150.248L242.164 150.241L238.837 154.146ZM239.84 153.913L235.363 151.359L234.885 152.203L234.748 153.165L239.84 153.913ZM242.59 152.19L244.431 157.002L244.437 157L242.59 152.19ZM253.484 143.562L257.487 146.812L257.488 146.81L253.484 143.562ZM262.883 125.998L257.993 124.379L257.993 124.38L262.883 125.998ZM263.526 118.915L261.98 114.001L258.842 114.974L258.425 118.236L263.526 118.915ZM267.051 121.42L265.046 126.146L274.246 130.089L272.071 120.326L267.051 121.42ZM264.955 116.255L269.469 113.814L269.465 113.806L264.955 116.255ZM238.639 76.6694L242.706 73.5426L242.706 73.5425L238.639 76.6694ZM216.592 51.8091L212.849 55.3172L212.85 55.3184L216.592 51.8091ZM205.535 42.5664L200.532 43.7332L201.08 46.0362L203.183 47.1283L205.535 42.5664ZM203.916 39.236L199.664 36.3208L199.47 36.606L199.315 36.9149L203.916 39.236ZM204.026 39.0769L200.413 35.3984L191.831 43.8279L203.887 44.2175L204.026 39.0769ZM205.017 38.1274L201.529 34.3297L201.483 34.3721L201.438 34.4155L205.017 38.1274ZM205.115 38.0384L202.649 42.5392L203.736 43.1389L204.975 43.1789L205.115 38.0384ZM206.291 37.084L203.964 32.4857L200.144 34.4047L201.36 38.5184L206.291 37.084ZM220.979 36.6694L219.651 41.6313L219.653 41.6318L220.979 36.6694ZM262.229 58.2458L259.253 62.4251L259.254 62.4255L262.229 58.2458ZM276.481 69.0098L273.296 73.0319L273.303 73.0371L273.309 73.0422L276.481 69.0098ZM278.083 71.5018L282.367 74.3694L283.232 73.0705L283.225 71.5059L278.083 71.5018ZM275.643 72.7353L274.504 67.7139L274.494 67.7163L275.643 72.7353ZM272.046 73.6331L273.53 78.5651L273.532 78.5644L272.046 73.6331ZM263.044 87.9241L257.92 88.3347L257.92 88.3354L263.044 87.9241ZM276.354 106.011L274.333 110.73L274.334 110.73L276.354 106.011ZM301.138 110.554L301.408 115.691L301.41 115.691L301.138 110.554ZM325.689 109.417L325.988 114.553L325.989 114.553L325.689 109.417ZM355.531 108.434L355.674 113.576L355.676 113.576L355.531 108.434ZM373.759 109.202L374.128 104.074L374.127 104.074L373.759 109.202ZM428.583 118.512L429.393 113.437L429.39 113.436L428.583 118.512ZM442.788 119.318L441.931 114.242L441.928 114.243L442.788 119.318ZM454.473 108.123L459.537 109.045L459.537 109.042L454.473 108.123ZM456.256 92.8235L461.389 93.1747L461.389 93.1731L456.256 92.8235ZM447.85 76.842L445.236 81.2577L445.242 81.2614L447.85 76.842ZM444.645 74.2385L441.232 70.3734L438.229 73.0226L440.085 76.5927L444.645 74.2385ZM498.947 44.6658L500.125 49.6783L500.128 49.6777L498.947 44.6658ZM509.126 43.2215L508.981 38.0797L508.98 38.0797L509.126 43.2215ZM513.925 45.497L518.503 43.1769L517.794 41.7889L516.437 41.0221L513.925 45.497ZM514.352 47.3382L509.421 48.7726L509.731 49.823L510.441 50.6584L514.352 47.3382ZM514.455 47.4663L519.575 47.011L518.253 32.9423L510.224 44.5207L514.455 47.4663ZM507.668 69.8547C506.632 78.3603 505.184 86.5507 503.337 94.6766L513.367 97.0057C515.289 88.5512 516.798 80.0157 517.878 71.1498L507.668 69.8547ZM503.338 94.6747C498.247 117.03 491.053 138.463 480.521 158.53L489.634 163.347C500.669 142.322 508.128 120.011 513.367 97.0077L503.338 94.6747ZM480.52 158.532C479.089 161.261 478.939 163.897 479.069 166.009C479.131 167.02 479.266 167.999 479.368 168.755C479.478 169.576 479.556 170.175 479.589 170.739L489.857 170.192C489.797 169.177 489.664 168.196 489.561 167.435C489.45 166.609 489.37 166.003 489.335 165.427C489.269 164.364 489.388 163.814 489.635 163.344L480.52 158.532ZM479.589 170.74C479.824 174.759 480.257 177.354 480.215 180.576L490.499 180.764C490.547 177.156 490.02 172.975 489.857 170.191L479.589 170.74ZM480.215 180.577C480.057 192.737 479.46 204.716 477.694 216.541L487.866 218.112C489.729 205.64 490.339 193.147 490.499 180.763L480.215 180.577ZM477.694 216.542C475.497 231.261 470.163 244.554 461.66 256.647L470.083 262.593C479.499 249.203 485.434 234.412 487.867 218.111L477.694 216.542ZM461.66 256.646C456.225 264.372 449.867 271.233 442.843 277.671L449.813 285.271C457.237 278.468 464.126 271.061 470.082 262.594L461.66 256.646ZM442.844 277.67C441.831 278.598 440.811 279.227 438.907 280.589L444.918 288.967C446.236 288.024 448.193 286.755 449.811 285.273L442.844 277.67ZM438.671 280.768C438.66 280.777 438.667 280.771 438.687 280.756C438.713 280.736 438.738 280.718 438.729 280.724C438.726 280.727 438.704 280.742 438.678 280.762C438.656 280.778 438.594 280.825 438.518 280.886C438.45 280.941 438.294 281.07 438.113 281.251C437.934 281.431 437.621 281.769 437.33 282.261C437.005 282.811 436.779 283.43 436.677 284.09C436.588 284.672 436.623 285.135 436.633 285.265C436.66 285.627 436.61 285.09 436.62 284.737L446.901 285.069C446.911 284.711 446.86 284.171 446.888 284.532C446.898 284.661 446.933 285.122 446.843 285.704C446.742 286.363 446.516 286.981 446.191 287.53C445.901 288.021 445.59 288.358 445.412 288.536C445.232 288.717 445.077 288.844 445.011 288.897C444.937 288.957 444.878 289.002 444.858 289.016C444.845 289.026 444.835 289.033 444.829 289.038C444.823 289.042 444.819 289.045 444.818 289.046C444.812 289.05 444.837 289.032 444.86 289.015C444.886 288.995 444.916 288.973 444.948 288.949C445.013 288.899 445.081 288.846 445.154 288.787L438.671 280.768ZM438.511 280.9C438.42 280.974 438.331 281.046 438.255 281.109C438.176 281.174 438.109 281.229 438.044 281.282C437.914 281.388 437.818 281.462 437.735 281.524C437.582 281.638 437.492 281.69 437.421 281.725L441.972 290.973C443.476 290.239 444.594 289.243 445.01 288.906L438.511 280.9ZM436.037 282.717C436.018 282.736 436.006 282.748 435.99 282.764C435.984 282.769 435.964 282.79 435.943 282.811C435.93 282.824 435.864 282.891 435.786 282.977C435.752 283.014 435.479 283.308 435.215 283.736C434.887 284.269 434.365 285.343 434.467 286.788C434.508 287.379 434.645 287.824 434.69 287.968C434.71 288.033 434.734 288.101 434.723 288.069C434.72 288.06 434.699 287.998 434.675 287.919C434.542 287.479 434.44 286.927 434.457 286.294L444.739 286.626C444.756 285.989 444.654 285.434 444.52 284.992C444.496 284.912 444.475 284.85 444.472 284.84C444.461 284.807 444.484 284.875 444.504 284.939C444.549 285.083 444.685 285.527 444.727 286.117C444.772 286.765 444.694 287.397 444.514 287.982C444.35 288.519 444.13 288.92 443.98 289.163C443.718 289.588 443.448 289.878 443.419 289.91C443.316 290.024 443.208 290.129 443.271 290.066C443.284 290.053 443.315 290.022 443.356 289.981L436.037 282.717ZM436.348 282.457C436.257 282.531 436.169 282.603 436.093 282.665C436.014 282.73 435.948 282.784 435.883 282.837C435.755 282.941 435.661 283.014 435.581 283.073C435.434 283.183 435.351 283.229 435.288 283.259L439.769 292.541C441.3 291.808 442.431 290.8 442.848 290.463L436.348 282.457ZM433.869 284.268C433.909 284.228 434.39 283.722 435.208 283.335C435.457 283.217 435.762 283.098 436.119 283.007C436.303 282.959 436.461 282.93 436.581 282.911C436.605 282.907 436.624 282.904 436.626 282.904C436.639 282.902 436.604 282.907 436.569 282.913C436.542 282.917 436.419 282.937 436.263 282.972C436.171 282.992 435.719 283.091 435.189 283.342C434.858 283.5 433.014 284.389 432.429 286.708C431.821 289.12 433.119 290.827 433.393 291.173C433.78 291.662 434.171 291.964 434.24 292.019C434.365 292.118 434.468 292.189 434.481 292.198C434.559 292.253 434.348 292.11 434.145 291.942C433.693 291.567 433.323 291.13 433.037 290.662L441.804 285.327C441.515 284.855 441.142 284.416 440.689 284.04C440.486 283.871 440.273 283.727 440.352 283.782C440.364 283.791 440.467 283.862 440.592 283.961C440.661 284.015 441.052 284.318 441.439 284.807C441.713 285.152 443.011 286.86 442.403 289.271C441.818 291.591 439.974 292.48 439.643 292.637C439.113 292.889 438.661 292.987 438.569 293.008C438.414 293.043 438.29 293.063 438.264 293.067C438.228 293.073 438.193 293.078 438.207 293.076C438.209 293.076 438.228 293.073 438.252 293.069C438.373 293.05 438.533 293.02 438.718 292.972C439.078 292.88 439.387 292.759 439.643 292.638C440.488 292.239 441.028 291.694 441.189 291.532L433.869 284.268ZM434.206 283.963C433.504 284.521 432.969 285.148 432.666 285.494L440.419 292.293C440.506 292.193 440.571 292.12 440.626 292.058C440.68 291.998 440.713 291.963 440.731 291.943C440.764 291.909 440.723 291.955 440.634 292.026L434.206 283.963ZM432.955 285.19C432.026 286.09 431.201 286.764 430.16 287.452L435.868 296.039C437.483 294.97 438.794 293.891 440.13 292.597L432.955 285.19ZM430.181 287.439C429.241 288.055 428.174 288.517 426.829 288.983C425.831 289.329 423.593 290.007 422.167 290.542L425.824 300.175C427.364 299.597 428.192 299.414 430.24 298.705C431.941 298.116 433.9 297.328 435.848 296.052L430.181 287.439ZM422.165 290.543C413.541 293.784 405.116 296.357 396.394 297.194L397.428 307.434C407.476 306.47 416.884 303.535 425.826 300.174L422.165 290.543ZM396.396 297.194C388.252 297.972 381.151 299.005 373.856 298.383L373.035 308.632C381.531 309.356 389.968 308.147 397.426 307.434L396.396 297.194ZM373.855 298.383C369.384 298.003 364.822 298.233 360.899 298.311L361.157 308.596C365.528 308.508 369.268 308.312 373.036 308.633L373.855 298.383ZM360.898 298.311C358.63 298.357 356.285 298.148 353.729 297.839C351.304 297.546 348.414 297.121 345.702 296.868L344.8 307.11C347.349 307.348 349.713 307.708 352.545 308.051C355.246 308.378 358.16 308.656 361.158 308.596L360.898 298.311ZM345.699 296.868C332.59 295.655 320.065 291.471 307.614 286.077L303.566 295.512C316.491 301.112 330.154 305.756 344.803 307.111L345.699 296.868ZM307.614 286.077C293.302 279.877 280.54 271.158 269.594 259.766L262.195 266.873C274.125 279.289 288.038 288.785 303.566 295.512L307.614 286.077ZM269.594 259.765C265.82 255.839 261.749 252.201 257.218 248.784L251.053 256.987C255.134 260.063 258.794 263.334 262.195 266.874L269.594 259.765ZM257.317 248.861C258.021 249.419 258.381 250.035 258.544 250.363C258.718 250.711 258.809 251.016 258.861 251.236L248.854 253.563C248.947 253.956 249.362 255.648 250.954 256.91L257.317 248.861ZM258.856 251.216C258.466 249.602 257.689 248.368 257.327 247.779C257.105 247.418 257.008 247.262 256.919 247.098C256.848 246.966 256.842 246.934 256.851 246.962L247.058 250.057C247.52 251.5 248.284 252.664 248.572 253.132C248.956 253.758 248.896 253.737 248.859 253.583L258.856 251.216ZM255.656 244.958C255.628 244.929 255.626 244.926 255.594 244.893C255.585 244.884 255.557 244.855 255.525 244.822C255.504 244.801 255.414 244.708 255.294 244.6C255.248 244.558 254.836 244.171 254.212 243.844C253.852 243.656 253.247 243.392 252.45 243.294C251.576 243.186 250.732 243.308 249.987 243.592C249.335 243.841 248.892 244.167 248.758 244.267C248.716 244.298 248.682 244.324 248.662 244.34C248.643 244.355 248.628 244.367 248.627 244.367C248.615 244.377 248.658 244.343 248.707 244.305C248.99 244.09 249.532 243.721 250.308 243.483L253.362 253.321C254.143 253.083 254.688 252.712 254.973 252.495C255.022 252.457 255.065 252.422 255.054 252.432C255.053 252.432 255.038 252.444 255.02 252.459C255 252.474 254.966 252.5 254.925 252.531C254.791 252.631 254.349 252.956 253.698 253.205C252.954 253.488 252.111 253.61 251.238 253.502C250.442 253.404 249.838 253.141 249.48 252.953C248.859 252.628 248.451 252.244 248.411 252.208C248.244 252.057 248.103 251.904 248.173 251.977C248.173 251.978 248.216 252.022 248.252 252.06L255.656 244.958ZM255.738 245.073C255.346 244.614 255.013 244.088 254.687 243.281L245.151 247.088C245.859 248.841 246.752 250.35 247.932 251.731L255.738 245.073ZM253.618 241.63C253.598 241.609 253.585 241.596 253.569 241.579C253.563 241.573 253.544 241.553 253.524 241.531C253.511 241.518 253.45 241.455 253.371 241.379C253.336 241.346 253.068 241.083 252.678 240.82C252.231 240.517 251.182 239.91 249.702 239.934C249.06 239.944 248.57 240.075 248.366 240.133C248.313 240.149 248.271 240.162 248.246 240.17C248.232 240.174 248.222 240.177 248.215 240.179C248.209 240.181 248.204 240.183 248.203 240.183C248.191 240.187 248.247 240.169 248.313 240.149C248.719 240.028 249.278 239.916 249.945 239.937L249.666 250.218C250.337 250.24 250.899 250.127 251.307 250.005C251.373 249.986 251.43 249.967 251.418 249.971C251.418 249.971 251.413 249.972 251.406 249.974C251.4 249.977 251.389 249.98 251.376 249.984C251.351 249.992 251.309 250.005 251.256 250.02C251.053 250.078 250.564 250.209 249.923 250.219C248.445 250.243 247.398 249.636 246.953 249.336C246.566 249.075 246.302 248.815 246.273 248.787C246.17 248.688 246.074 248.586 246.134 248.649C246.148 248.663 246.179 248.695 246.22 248.739L253.618 241.63ZM254.229 242.476C253.1 240.568 252.63 240.042 252.175 238.892L242.614 242.637C243.468 244.794 244.889 246.845 245.382 247.679L254.229 242.476ZM251.169 237.29C251.278 237.409 251.669 237.842 251.985 238.539C252.073 238.732 252.13 238.89 252.159 238.972C252.191 239.065 252.136 238.903 252.086 238.775C252.085 238.774 251.796 237.945 251.076 237.162C250.628 236.674 249.951 236.129 249.013 235.793C248.078 235.457 247.22 235.451 246.586 235.536C245.999 235.615 245.557 235.779 245.341 235.867C245.113 235.96 244.942 236.049 244.879 236.082C244.484 236.291 244.987 236.026 245.075 235.984L249.509 245.289C249.602 245.244 250.109 244.977 249.716 245.185C249.654 245.218 249.483 245.307 249.255 245.4C249.04 245.487 248.598 245.651 248.011 245.73C247.378 245.816 246.521 245.809 245.586 245.474C244.648 245.137 243.971 244.592 243.523 244.105C243.108 243.654 242.866 243.229 242.749 243.006C242.626 242.771 242.548 242.578 242.515 242.495C242.465 242.368 242.411 242.207 242.444 242.302C242.474 242.388 242.533 242.553 242.624 242.754C242.956 243.484 243.387 243.986 243.62 244.239L251.169 237.29ZM251.81 238.203C244.866 225.395 240.086 211.962 238.138 197.582L227.946 198.912C230.085 214.706 235.324 229.329 242.774 243.07L251.81 238.203ZM238.138 197.582C237.106 189.968 236.75 182.4 236.144 174.361L225.887 175.083C226.465 182.744 226.859 190.894 227.946 198.912L238.138 197.582ZM236.144 174.358C235.329 163.645 232.849 153.307 228.771 143.359L219.257 147.219C222.933 156.186 225.156 165.468 225.888 175.086L236.144 174.358ZM228.771 143.359C222.894 129.021 216.985 115.229 212.943 100.725L203.036 103.44C207.281 118.671 213.483 133.133 219.257 147.219L228.771 143.359ZM212.942 100.724C209.923 89.8984 207.532 79.1916 206.702 68.254L196.446 68.9801C197.349 80.8743 199.932 92.3123 203.036 103.441L212.942 100.724ZM206.702 68.2547C206.322 63.2313 205.721 59.591 206.127 55.7492L195.898 54.6165C195.362 59.6919 196.148 65.0441 196.446 68.9795L206.702 68.2547ZM206.127 55.7445C206.392 53.2106 206.552 50.6672 206.941 47.8825C207.327 45.1177 207.851 42.9181 208.544 41.4922L199.289 36.9582C197.865 39.8889 197.173 43.4118 196.754 46.4084C196.339 49.3852 196.105 52.6423 195.897 54.6213L206.127 55.7445ZM203.922 44.3684C203.2 44.3655 202.449 44.1612 201.786 43.7496C201.164 43.3635 200.795 42.9061 200.603 42.613C200.277 42.116 200.27 41.8073 200.322 42.0858C200.357 42.2772 200.388 42.5753 200.409 42.9944C200.419 43.1941 200.426 43.3909 200.432 43.6051C200.438 43.7899 200.445 44.0573 200.458 44.2887L210.728 43.7816C210.722 43.6733 210.709 41.7393 210.433 40.255C210.29 39.486 209.985 38.2065 209.193 36.9996C208.269 35.5923 206.502 34.0926 203.911 34.082L203.922 44.3684ZM200.457 44.2719C200.513 45.3615 200.485 46.5032 200.404 47.722L210.667 48.4572C210.765 46.9812 210.812 45.4139 210.729 43.7985L200.457 44.2719ZM200.404 47.7312C199.211 66.1659 201.416 84.1301 206.207 101.82L216.134 99.1779C211.599 82.4349 209.557 65.6101 210.668 48.448L200.404 47.7312ZM206.206 101.818C209.551 114.184 213.759 126.421 220.314 137.864L229.232 132.785C223.298 122.426 219.368 111.136 216.134 99.1795L206.206 101.818ZM220.313 137.862C224.208 144.668 228.664 152.209 235.511 158.051L242.164 150.241C236.858 145.713 233.18 139.683 229.233 132.786L220.313 137.862ZM235.502 158.044C235.041 157.649 234.768 157.265 234.719 157.199C234.627 157.072 234.568 156.976 234.559 156.962C234.546 156.941 234.539 156.93 234.559 156.963C234.571 156.984 234.605 157.04 234.64 157.097C234.656 157.124 235.17 158.042 236.057 158.768C236.532 159.157 237.772 160.043 239.599 160C241.676 159.95 243.03 158.764 243.687 157.904C244.277 157.132 244.539 156.359 244.657 155.96C244.795 155.496 244.877 155.045 244.932 154.661L234.748 153.165C234.735 153.254 234.741 153.17 234.796 152.985C234.832 152.866 235.004 152.284 235.501 151.634C236.064 150.897 237.321 149.763 239.3 149.716C241.029 149.675 242.17 150.513 242.547 150.821C243.238 151.387 243.562 152.018 243.416 151.779C243.411 151.769 243.405 151.76 243.381 151.719C243.364 151.691 243.323 151.623 243.278 151.549C243.237 151.484 243.147 151.342 243.028 151.178C242.952 151.074 242.654 150.661 242.172 150.248L235.502 158.044ZM244.317 156.467C244.208 156.659 244.045 156.868 243.834 157.054C243.632 157.232 243.456 157.328 243.382 157.364C243.328 157.39 243.334 157.381 243.526 157.315C243.571 157.3 243.62 157.284 243.681 157.264C243.737 157.245 243.811 157.221 243.883 157.196C244.029 157.147 244.222 157.081 244.431 157.002L240.749 147.379C240.614 147.43 240.58 147.435 240.172 147.574C239.864 147.679 239.37 147.853 238.834 148.114C237.637 148.698 236.316 149.678 235.363 151.359L244.317 156.467ZM244.437 157C250.181 154.819 254.289 150.76 257.487 146.812L249.481 140.313C246.755 143.678 244.029 146.134 240.743 147.381L244.437 157ZM257.488 146.81C262.131 141.072 265.494 134.598 267.772 127.616L257.993 124.38C256.061 130.299 253.261 135.641 249.48 140.314L257.488 146.81ZM267.772 127.617C268.389 125.728 268.479 123.959 268.509 122.666C268.543 121.191 268.514 120.477 268.627 119.593L258.425 118.236C258.221 119.826 258.246 121.502 258.226 122.375C258.202 123.43 258.128 123.965 257.993 124.379L267.772 127.617ZM265.071 123.828C264.942 123.868 264.614 123.953 264.143 123.942C263.641 123.93 263.087 123.81 262.55 123.55C261.549 123.064 261.134 122.337 261.214 122.459C261.248 122.511 261.262 122.537 261.416 122.792C261.532 122.984 261.735 123.317 261.995 123.671C262.533 124.407 263.485 125.477 265.046 126.146L269.057 116.694C269.824 117.023 270.212 117.526 270.282 117.621C270.308 117.656 270.3 117.651 270.214 117.508C270.164 117.427 269.983 117.118 269.812 116.857C269.482 116.353 268.62 115.085 267.002 114.3C265.19 113.42 263.379 113.568 261.98 114.001L265.071 123.828ZM272.071 120.326C271.47 117.629 270.38 115.488 269.469 113.814L260.441 118.696C261.236 120.157 261.754 121.268 262.032 122.514L272.071 120.326ZM269.465 113.806C261.658 99.5215 252.501 86.2512 242.706 73.5426L234.572 79.7961C244.151 92.2248 252.974 105.034 260.445 118.704L269.465 113.806ZM242.706 73.5425C235.721 64.4803 227.83 56.2885 220.334 48.2998L212.85 55.3184C220.499 63.4693 227.969 71.229 234.572 79.7962L242.706 73.5425ZM220.335 48.3009C216.647 44.3679 213.922 41.1392 207.887 38.0046L203.183 47.1283C207.413 49.3253 209.007 51.2197 212.849 55.3172L220.335 48.3009ZM210.538 41.3997C210.442 40.9994 210.319 40.6724 210.225 40.4499C210.128 40.2183 210.029 40.0184 209.946 39.8627C209.786 39.5595 209.617 39.2876 209.494 39.0942C209.366 38.8943 209.232 38.6935 209.129 38.5403C209.016 38.371 208.929 38.2419 208.849 38.1178C208.77 37.9953 208.722 37.9169 208.695 37.8696C208.664 37.8154 208.69 37.8528 208.735 37.9598C208.769 38.0404 208.906 38.3684 208.975 38.8647C209.041 39.3465 209.1 40.3938 208.517 41.5571L199.315 36.9149C198.647 38.249 198.687 39.5066 198.787 40.2284C198.889 40.9647 199.111 41.5624 199.268 41.9326C199.578 42.6637 199.987 43.3117 200.221 43.6723C200.354 43.8781 200.489 44.0792 200.59 44.2305C200.702 44.3979 200.775 44.5081 200.834 44.5999C200.896 44.6981 200.893 44.6985 200.861 44.6384C200.86 44.6373 200.664 44.2859 200.532 43.7332L210.538 41.3997ZM208.168 42.1512C208.198 42.1065 208.188 42.1236 208.152 42.1718C208.149 42.1755 208.135 42.1948 208.149 42.1752C208.151 42.1728 208.172 42.1449 208.197 42.1102C208.209 42.0937 208.294 41.9769 208.391 41.8221C208.44 41.744 208.541 41.5783 208.649 41.3577C208.732 41.1893 208.971 40.6884 209.093 39.9942C209.214 39.309 209.344 37.6723 208.19 36.0772C207.059 34.5127 205.505 34.1205 204.907 34.0138C204.283 33.9025 203.784 33.9372 203.683 33.9435C203.539 33.9524 203.402 33.9684 203.45 33.9633C203.452 33.9631 203.477 33.9603 203.509 33.9572C203.543 33.9539 203.593 33.9495 203.653 33.9454C203.772 33.9374 203.95 33.9294 204.166 33.9364L203.887 44.2175C204.103 44.2245 204.281 44.2165 204.4 44.2084C204.513 44.2008 204.605 44.1905 204.605 44.1905C204.653 44.1853 204.516 44.2013 204.372 44.2102C204.271 44.2165 203.773 44.2512 203.149 44.1399C202.552 44.0332 200.997 43.641 199.866 42.0767C198.713 40.4816 198.843 38.845 198.963 38.1601C199.085 37.466 199.324 36.9654 199.407 36.7972C199.515 36.5769 199.616 36.4116 199.664 36.3338C199.761 36.1799 199.845 36.0642 199.856 36.0492C199.88 36.016 199.899 35.99 199.899 35.99C199.911 35.975 199.891 36.001 199.882 36.0139C199.818 36.0992 199.75 36.1958 199.664 36.3208L208.168 42.1512ZM207.64 42.7554C207.927 42.4735 208.086 42.3308 208.596 41.8393L201.438 34.4155C201.143 34.7005 200.704 35.1133 200.413 35.3984L207.64 42.7554ZM208.505 41.9251C208.655 41.7871 208.797 41.6468 208.937 41.4906C209.026 41.3923 208.898 41.5365 208.807 41.6301C208.776 41.6617 208.498 41.9556 208.083 42.2478C207.744 42.4859 206.368 43.4138 204.391 43.1239C202.446 42.8387 201.386 41.5684 201.239 41.3999C201.166 41.3159 201.11 41.2461 201.078 41.2058C201.047 41.1658 201.023 41.134 201.018 41.1279C200.994 41.0963 201.042 41.1594 201.086 41.2154C201.379 41.5855 201.88 42.1152 202.649 42.5392L207.581 33.5376C208.347 33.9602 208.847 34.4883 209.139 34.8571C209.183 34.9128 209.23 34.9756 209.206 34.9437C209.201 34.9375 209.177 34.9056 209.145 34.8655C209.113 34.8251 209.057 34.7552 208.984 34.671C208.837 34.5022 207.777 33.2316 205.832 32.9464C203.854 32.6564 202.478 33.5844 202.138 33.823C201.722 34.1156 201.444 34.4101 201.412 34.4427C201.319 34.5383 201.188 34.6857 201.272 34.5922C201.395 34.4558 201.493 34.3629 201.529 34.3297L208.505 41.9251ZM204.975 43.1789C205.611 43.1601 206.549 42.985 206.852 42.8883C207.026 42.8231 207.307 42.7022 207.415 42.65C207.617 42.5503 207.767 42.4588 207.82 42.4264C207.945 42.3498 208.039 42.2843 208.065 42.2664C208.135 42.2179 208.188 42.1778 208.202 42.1679C208.241 42.139 208.272 42.1146 208.283 42.1065C208.311 42.0849 208.338 42.0632 208.358 42.0477C208.402 42.0136 208.456 41.9703 208.515 41.9237C208.633 41.8293 208.788 41.7054 208.943 41.5811C209.095 41.459 209.259 41.3261 209.391 41.2176C209.452 41.167 209.531 41.1017 209.604 41.0388C209.633 41.0142 209.708 40.9493 209.794 40.8696C209.824 40.8419 209.94 40.7338 210.076 40.5867C210.127 40.531 210.308 40.3352 210.503 40.0573C210.591 39.932 210.808 39.6151 211.003 39.168C211.084 38.9847 211.773 37.5117 211.222 35.6496L201.36 38.5184C201.056 37.4909 201.143 36.6191 201.233 36.1301C201.326 35.6206 201.478 35.2295 201.578 35.0011C201.774 34.5545 201.99 34.2382 202.078 34.1136C202.272 33.8371 202.451 33.6431 202.501 33.5897C202.632 33.4471 202.742 33.3452 202.763 33.3253C202.804 33.2875 202.835 33.2598 202.849 33.2479C202.864 33.2341 202.876 33.2245 202.88 33.2207C202.89 33.2122 202.877 33.2229 202.829 33.2625C202.742 33.3346 202.613 33.4393 202.47 33.5537C202.331 33.666 202.191 33.7776 202.088 33.8595C202.036 33.9012 201.998 33.9313 201.976 33.9485C201.963 33.9587 201.965 33.9571 201.975 33.9492C201.977 33.948 202.001 33.9289 202.036 33.9035C202.046 33.8954 202.098 33.8566 202.167 33.809C202.192 33.7915 202.286 33.7264 202.41 33.65C202.463 33.6177 202.613 33.5264 202.815 33.4266C202.923 33.3745 203.204 33.2536 203.378 33.1884C203.681 33.0918 204.618 32.9167 205.255 32.8978L204.975 43.1789ZM208.618 41.6823C211.852 40.0574 215.251 40.4327 219.651 41.6313L222.307 31.7074C217.447 30.3835 210.79 29.0563 203.964 32.4857L208.618 41.6823ZM219.653 41.6318C233.979 45.5288 246.58 53.3668 259.253 62.4251L265.205 54.0666C252.308 44.8478 238.475 36.1055 222.305 31.7069L219.653 41.6318ZM259.254 62.4255C264.014 65.8269 268.69 69.3757 273.296 73.0319L279.665 64.9876C274.942 61.2385 270.126 57.5827 265.205 54.0662L259.254 62.4255ZM273.309 73.0422C273.392 73.1077 273.586 73.2582 273.616 73.2815C273.695 73.3435 273.734 73.3756 273.756 73.3945C273.805 73.4355 273.703 73.3567 273.563 73.1816C273.407 72.9857 273.229 72.7029 273.1 72.3443C272.973 71.9884 272.941 71.6872 272.94 71.4977L283.225 71.5059C283.217 69.6398 282.596 68.0505 281.588 66.7877C280.812 65.816 279.761 65.0631 279.652 64.9773L273.309 73.0422ZM273.799 68.6342C273.931 68.4358 274.131 68.2073 274.403 67.9991C274.671 67.7945 274.921 67.6766 275.086 67.6139C275.23 67.5593 275.304 67.5496 275.194 67.5732C275.136 67.5855 275.076 67.5972 274.951 67.6218C274.843 67.6429 274.679 67.675 274.504 67.7139L276.781 77.7567C277.175 77.6693 276.715 77.7773 277.386 77.6343C277.709 77.5656 278.214 77.4476 278.778 77.2337C280.055 76.7489 281.365 75.872 282.367 74.3694L273.799 68.6342ZM274.494 67.7163C273.296 67.9847 271.933 68.2941 270.559 68.7018L273.532 78.5644C274.531 78.2679 275.579 78.0261 276.792 77.7543L274.494 67.7163ZM270.562 68.7011C266.537 69.8935 262.793 71.8467 260.381 75.5272C258.004 79.1542 257.513 83.5624 257.92 88.3347L268.168 87.5135C267.851 83.7975 268.412 82.0821 268.992 81.1965C269.537 80.3645 270.656 79.4164 273.53 78.5651L270.562 68.7011ZM257.92 88.3354C258.843 99.159 264.998 106.691 274.333 110.73L278.376 101.292C272.214 98.6264 268.739 94.2098 268.168 87.5128L257.92 88.3354ZM274.334 110.73C282.933 114.448 291.927 116.143 301.408 115.691L300.867 105.416C292.982 105.792 285.554 104.396 278.374 101.292L274.334 110.73ZM301.41 115.691C309.502 115.303 317.813 114.988 325.988 114.553L325.389 104.281C317.215 104.716 309.131 105.02 300.865 105.416L301.41 115.691ZM325.989 114.553C335.839 114.027 345.716 113.803 355.674 113.576L355.387 103.292C345.456 103.518 335.422 103.746 325.389 104.281L325.989 114.553ZM355.676 113.576C361.451 113.443 367.287 113.861 373.391 114.33L374.127 104.074C368.066 103.608 361.745 103.145 355.386 103.292L355.676 113.576ZM373.39 114.33C382.365 115.022 391.265 116.553 400.312 118.317C409.265 120.062 418.532 122.071 427.777 123.587L429.39 113.436C420.345 111.953 411.477 110.023 402.23 108.22C393.076 106.436 383.708 104.812 374.128 104.074L373.39 114.33ZM427.774 123.587C432.257 124.324 437.836 125.349 443.647 124.393L441.928 114.243C438.092 114.873 434.26 114.238 429.393 113.437L427.774 123.587ZM443.644 124.394C447.634 123.74 451.378 122.476 454.31 119.737C457.287 116.956 458.792 113.255 459.537 109.045L449.408 107.202C448.888 110.141 448.062 111.462 447.269 112.203C446.43 112.987 444.964 113.745 441.931 114.242L443.644 124.394ZM459.537 109.042C460.465 103.78 461.053 98.4711 461.389 93.1747L451.124 92.4723C450.809 97.4475 450.26 102.373 449.408 107.205L459.537 109.042ZM461.389 93.1731C461.662 88.8432 460.946 84.7643 459.023 81.1241C457.1 77.483 454.144 74.6106 450.458 72.4225L445.242 81.2614C447.575 82.6463 449.046 84.2119 449.934 85.8918C450.821 87.5728 451.299 89.6982 451.124 92.4739L461.389 93.1731ZM450.464 72.4263C450.248 72.2978 450.045 72.1843 449.876 72.0914C449.791 72.0448 449.708 71.9997 449.635 71.9603C449.559 71.9191 449.495 71.8842 449.431 71.8495C449.168 71.7059 449.053 71.6358 448.983 71.5886C448.928 71.5512 448.96 71.5666 449.025 71.6346C449.097 71.7101 449.162 71.8003 449.205 71.8842L440.085 76.5927C441.736 79.7683 445.133 81.1965 445.236 81.2577L450.464 72.4263ZM448.058 78.1035C463.592 64.4028 480.485 54.1989 500.125 49.6783L497.77 39.6533C476.008 44.6621 457.631 55.9097 441.232 70.3734L448.058 78.1035ZM500.128 49.6777C503.304 48.9448 506.36 48.4316 509.273 48.3634L508.98 38.0797C505.083 38.171 501.269 38.8457 497.767 39.654L500.128 49.6777ZM509.272 48.3634C508.879 48.3725 508.639 48.2888 508.618 48.2816C508.607 48.2777 508.705 48.3128 508.964 48.4608C509.228 48.6122 509.514 48.7949 509.946 49.0725C510.334 49.3213 510.859 49.6589 511.413 49.9718L516.437 41.0221C516.177 40.8749 515.89 40.6934 515.47 40.4237C515.095 40.1827 514.576 39.8473 514.04 39.5403C513.075 38.9877 511.242 38.0274 508.981 38.0797L509.272 48.3634ZM509.347 47.817C509.246 47.6196 509.178 47.428 509.136 47.2668C509.097 47.1229 509.088 47.0339 509.096 47.0926C509.101 47.1307 509.105 47.1611 509.117 47.2609C509.128 47.3433 509.144 47.4703 509.166 47.612C509.21 47.9051 509.284 48.3087 509.421 48.7726L519.283 45.9038C519.323 46.0393 519.336 46.1298 519.334 46.1177C519.333 46.1068 519.329 46.0832 519.321 46.016C519.315 45.9663 519.3 45.8481 519.285 45.7378C519.213 45.2156 519.054 44.2572 518.503 43.1769L509.347 47.817ZM510.441 50.6584C510.386 50.5936 510.175 50.3413 509.956 49.9483C509.928 49.898 509.902 49.8503 509.879 49.8057C509.857 49.7623 509.84 49.7269 509.84 49.727C509.84 49.7272 509.841 49.7287 509.842 49.7306C509.843 49.7326 509.844 49.7359 509.846 49.74C509.85 49.7472 509.857 49.7626 509.867 49.7819C509.879 49.805 509.932 49.9103 510.008 50.0404C510.046 50.1066 510.276 50.5114 510.674 50.9441C510.854 51.1404 512.465 52.9382 515.171 52.5696C517.761 52.2168 518.837 50.1886 518.926 50.0315C519.185 49.576 519.313 49.1756 519.323 49.1462C519.352 49.0611 519.38 48.9688 519.366 49.0127C519.363 49.0227 519.347 49.0742 519.325 49.1393C519.222 49.4454 519.033 49.9107 518.685 50.4118L510.224 44.5207C509.873 45.0258 509.683 45.4947 509.579 45.8033C509.557 45.869 509.541 45.9211 509.537 45.9316C509.524 45.976 509.551 45.8842 509.58 45.7994C509.59 45.7703 509.718 45.3703 509.977 44.915C510.066 44.758 511.142 42.7299 513.732 42.3771C516.437 42.0086 518.048 43.8063 518.228 44.0024C518.626 44.4349 518.855 44.8395 518.894 44.9053C518.969 45.035 519.022 45.1398 519.033 45.1623C519.043 45.1813 519.051 45.1963 519.054 45.2032C519.056 45.2071 519.057 45.2102 519.058 45.212C519.059 45.2129 519.059 45.2136 519.059 45.2141C519.06 45.2146 519.06 45.2149 519.06 45.215C519.061 45.2164 519.054 45.2038 519.047 45.189C519.039 45.1729 519.029 45.1527 519.017 45.1295C518.992 45.0822 518.965 45.0312 518.935 44.9769C518.698 44.5521 518.441 44.2279 518.263 44.0181L510.441 50.6584ZM509.334 47.9216C509.794 52.8134 509.667 57.6022 508.771 62.29L518.874 64.2709C519.981 58.4815 520.11 52.7041 519.575 47.011L509.334 47.9216Z" fill="#2C4075" mask="url(#path-6-inside-1_2137_6930)"/>
<path d="M444.415 74.0141C446.393 75.1572 448.207 76.257 449.966 77.4526C454.697 80.6694 457.153 85.266 456.822 91.0089C456.465 97.1251 455.769 103.236 454.915 109.298C454.068 115.301 450.324 119.063 444.559 119.549C439.082 120.006 433.425 119.888 428 119.008C414.923 116.883 401.962 113.996 388.905 111.72C371.217 108.632 353.383 108.923 335.544 109.632C321.615 110.185 307.687 111.102 293.759 111.031C285.56 110.988 277.509 108.646 270.727 103.486C263.384 97.8968 261.108 90.1717 262.801 81.1432C263.328 78.3241 264.85 75.9709 267.428 74.9317C270.751 73.5912 274.277 72.767 277.871 71.5763C278.848 70.3498 279.922 71.3931 281.035 71.0115C282.22 70.4913 283.603 70.3353 284.132 69.5661C295.541 52.9343 311.272 43.2316 330.511 39.0108C371.66 29.9831 406.623 42.8046 437.383 70.8368C439.162 72.4669 441.92 72.9791 444.415 74.0141Z" fill="#2C4075"/>
<path d="M264.027 118.231C264.703 127.092 260.817 133.967 256.185 140.743C253.127 145.215 249.806 149.202 245.031 151.721C243.568 152.493 241.954 152.978 240.204 153.61C238.704 153.599 238.29 152.452 237.693 151.614C223.743 132.081 214.427 110.571 210.435 86.6411C208.188 73.1687 206.887 59.6076 205.528 46.0446C205.437 45.1198 205.458 45.115 206.102 43.4873C207.334 43.3753 207.954 44.3497 208.666 45.0939C224.841 62.1129 240.349 79.7014 253.257 99.5268C256.447 104.424 259.643 109.315 262.579 114.372C263.237 115.51 264.109 116.601 264.027 118.231Z" fill="#FF5757"/>
<path d="M478.91 155.912C475.198 156.167 472.54 154.492 470.525 151.786C465.233 144.674 461.575 136.708 459.152 128.149C458.789 126.874 458.789 125.496 458.491 124.006C457.775 122.649 458.599 121.77 459.054 120.852C470.407 98.0798 484.142 76.9572 500.863 57.9375C502.406 56.1816 503.658 53.9933 505.937 53.0095C507.215 53.9672 506.949 55.1842 506.791 56.3016C502.693 84.9914 496.058 112.997 485.54 139.961C483.842 144.315 482.133 148.674 480.613 153.104C480.268 154.102 480.042 155.206 478.91 155.912Z" fill="#FF5757"/>
<path d="M315.161 205.504C318.705 201.286 323.627 199.802 328.672 198.897C335.825 197.615 343.007 198.026 350.159 199.325C351.973 199.655 353.85 199.64 355.949 199.838C357.448 205.125 360.731 207.975 365.906 208.679C367.845 208.942 369.362 209.848 370.178 211.805C370.735 213.152 371.887 214.067 372.81 215.404C370.935 222.762 366.652 227.846 359.433 229.19C342.748 232.29 327.008 230.024 313.172 219.008C311.646 217.793 309.924 216.821 308.577 215.074C308.48 214.35 308.463 213.829 308.429 213.112C308.647 212.495 309.042 212.21 309.471 212.218C312.49 212.305 315.515 212.365 318.422 212.681C315.69 211.985 312.597 213.068 309.729 211.321C310.859 209.508 312.139 207.879 313.439 206.056C315.339 205.586 317.108 206.234 318.936 206.434C317.73 206.157 316.452 206.164 315.161 205.504Z" fill="#FF6501" fill-opacity="0.25"/>
<path d="M435.987 219.489C436.236 220.05 436.265 220.566 436.532 220.862C442.749 227.717 439.212 234.392 431.695 237.349C426.552 239.368 421.252 240.325 415.738 240.152C414.7 240.118 413.655 240.377 412.39 240.505C411.472 238.783 412.348 237.342 413.109 235.691C415.429 234.383 417.864 234.494 420.191 234.108C424.738 233.35 429.129 232.12 433.167 229.799C434.04 229.296 435.095 228.896 435.545 227.354C429.287 231.159 422.59 232.624 415.778 233.445C407.801 234.407 399.774 234.484 391.857 232.835C384.547 231.313 379.179 227.17 376.625 219.729C376.33 218.874 376.084 218.009 376.252 216.875C378.265 214.403 380.842 212.81 382.719 210.441C383.285 209.722 384.281 209.706 385.167 209.685C386.307 209.663 387.445 209.727 388.584 209.747C392.256 209.811 394.83 208.317 395.961 204.362C408.987 204.252 420.588 208.39 431.146 215.846C431.572 216.147 431.91 216.586 432.367 217.127C431.775 218.035 430.919 217.943 429.877 217.844C431.959 218.486 434.021 218.487 435.987 219.489Z" fill="#FF6501" fill-opacity="0.25"/>
<path d="M407.462 239.701C403.259 239.316 399.129 238.971 395.108 238.092C392.516 237.526 390.924 238.185 389.545 240.347C386.793 244.678 383.656 248.546 378.815 250.727C370.868 254.299 360.763 251.266 356.984 243.259C354.95 238.953 352.455 237.5 347.989 237.817C344.532 238.058 341.006 237.331 337.277 237.042C336.492 234.907 337.844 233.53 339.149 231.951C341.336 231.241 343.377 231.616 345.389 231.681C350.69 231.852 355.975 231.855 361.207 230.869C366.497 229.869 370.066 226.692 372.138 221.662C372.603 220.533 372.783 219.167 374.139 218.641C375.152 218.82 375.238 219.739 375.488 220.463C378.659 229.589 385.633 233.334 394.383 234.94C398.096 235.624 401.774 234.864 405.636 235.515C407.182 236.552 407.654 237.912 407.462 239.701Z" fill="#FF6501" fill-opacity="0.25"/>
<path d="M478.688 156.106C483.836 141.468 489.524 127.195 493.947 112.512C497.874 99.4882 500.524 86.0439 503.489 72.7237C504.733 67.1296 505.34 61.3793 506.21 55.6972C506.313 55.0281 506.258 54.3322 506.295 52.9561C486.511 74.2845 471.112 97.8967 458.411 123.657C457.886 124.854 457.403 125.864 456.919 126.873C456.636 126.772 456.352 126.676 456.063 126.574C456.825 123.925 457.194 121.074 458.414 118.673C463.472 108.696 468.353 98.5829 474.105 89.0294C482.615 74.8906 492.897 62.0726 504.447 50.3747C505.39 49.4236 506.967 49.1275 508.25 48.5291C508.706 49.8833 509.706 51.3147 509.528 52.5725C507.891 64.2329 506.501 75.9663 504.163 87.4847C500.069 107.634 494.029 127.21 485.748 145.993C484.234 149.431 482.426 152.74 480.672 156.067C480.308 156.76 479.59 157.263 478.623 158.295C478.654 157.173 478.666 156.729 478.688 156.106Z" fill="#2C4075"/>
<path d="M264.6 118.847C259.458 110.66 254.645 102.474 249.39 94.5979C237.202 76.3358 222.421 60.3001 207.416 44.4848C207.303 44.3673 207.124 44.3073 206.592 44.0027C206.722 46.0134 206.785 47.8049 206.965 49.5785C208.586 65.4005 210.073 81.2452 213.631 96.7827C217.672 114.456 224.809 130.744 234.87 145.705C236.668 148.377 238.461 151.054 240.395 153.828C240.86 154.83 240.737 155.278 241.062 156.183C240.888 156.33 240.714 156.481 240.546 156.628C237.956 154.022 235.447 152.144 233.291 149.2C227.132 140.813 221.928 131.811 217.925 122.116C213.653 111.761 211.075 100.914 208.509 90.0338C205.021 75.2361 204.877 60.2645 205.414 45.2173C205.452 44.2153 205.077 43.1891 204.716 42.0332C204.534 41.8864 204.541 41.8324 204.531 41.8049C206.429 42.7719 208.724 43.3612 210.174 44.8234C218.284 52.9974 226.529 61.0727 234.079 69.7763C244.342 81.6044 253.244 94.5435 261.326 108.042C263.491 111.653 265.424 115.419 267.352 119.169C267.936 120.305 268.149 121.646 268.529 122.889C268.27 123.032 268.006 123.181 267.748 123.325C266.743 121.877 265.738 120.434 264.6 118.847Z" fill="#2C4075"/>
<path d="M396.021 204.023C395.392 208.808 394.081 210.056 389.564 210.273C388.423 210.329 387.27 210.264 386.127 210.162C384.198 209.986 382.92 210.763 381.633 212.3C380.323 213.868 378.418 214.918 376.595 216.28C374.939 217.74 373.853 216.75 372.613 215.566C371.5 214.375 370.104 213.484 369.703 212.251C368.93 209.883 367.285 209.532 365.318 209.191C359.841 208.25 356.699 205.09 356.247 200.081C357.176 197.323 358.891 195.443 361.478 194.643C370.929 191.727 380.335 191.217 389.501 195.847C392.78 197.498 395.382 199.843 396.021 204.023Z" fill="#2C4075"/>
<path d="M372.444 215.616C373.654 215.752 374.859 216.084 376.244 216.389C378.658 226.255 384.255 231.534 394.924 232.73C405.477 233.912 416.06 233.793 426.345 230.589C429.098 229.729 431.696 228.344 434.352 227.177C435.108 226.843 435.824 226.427 436.561 226.055C436.776 226.312 436.997 226.574 437.213 226.83C436.289 227.847 435.544 229.336 434.408 229.787C429.773 231.638 425.047 233.302 420.279 234.759C418.205 235.397 415.932 235.372 413.533 235.701C411.084 236.663 408.786 236.762 406.23 236.23C400.943 235.739 395.76 235.897 390.823 234.821C382.455 233.005 376.589 227.88 374.304 218.761C373.959 219.336 373.642 219.7 373.508 220.129C370.975 228.106 365.303 231.838 357.412 232.168C351.511 232.417 345.596 232.226 339.43 232.254C336.698 233.12 334.396 232.005 331.834 231.515C324.741 229.383 318.253 226.462 312.547 221.89C311.437 220.997 310.278 220.163 309.605 218.59C309.15 217.214 306.522 216.95 308.311 214.91C310.016 215.946 311.617 216.925 313.047 218.116C324.467 227.579 337.699 230.436 351.977 229.493C354.171 229.347 356.365 229.141 358.527 228.777C365.886 227.54 369.816 222.396 372.444 215.616Z" fill="#2C4075"/>
<path d="M314.813 205.346C316.448 205.638 317.866 205.933 319.279 206.228C319.247 206.406 319.221 206.579 319.19 206.757C317.427 206.477 315.659 206.198 313.675 205.895C312.225 205.778 310.993 205.684 309.534 205.539C309.191 205.479 309.075 205.459 308.824 205.321C301.216 204.039 293.705 203.059 286.269 201.669C274.488 199.472 262.745 197.021 250.995 194.634C249.129 194.254 247.306 193.648 245.52 192.89C268.75 195.859 291.654 200.731 314.813 205.346Z" fill="#2C4075"/>
<path d="M309.336 211.173C312.919 211.576 316.262 212.004 319.601 212.427C319.583 212.681 319.56 212.935 319.543 213.184C316 213.07 312.462 212.955 308.664 212.881C289.68 212.214 270.951 211.505 252.218 210.791C252.228 210.391 252.24 209.984 252.256 209.583C271.22 208.824 290.146 210.483 309.336 211.173Z" fill="#2C4075"/>
<path d="M453.491 208.901C461.126 208.622 468.516 208.356 475.907 208.091C467.402 211.129 433.783 212.803 426.794 210.771C436.003 210.125 444.622 209.52 453.491 208.901Z" fill="#2C4075"/>
<path d="M309.473 218.606C315.721 224.285 322.932 228.282 331.221 230.681C332.236 232.135 332.199 233.489 331.346 235.056C323.797 232.724 316.819 229.521 311.749 223.181C310.74 221.917 310.201 220.268 309.473 218.606Z" fill="#FF6501" fill-opacity="0.25"/>
<path d="M436.305 219.653C433.366 219.173 430.649 218.711 427.932 218.249C427.939 217.962 427.947 217.675 427.955 217.388C429.291 217.366 430.622 217.344 432.198 217.308C436.626 217.793 440.816 218.28 445.006 218.785C454.695 219.949 464.384 221.125 474.068 222.294C474.062 222.544 474.06 222.793 474.053 223.042C472.641 223.127 471.213 223.395 469.817 223.269C459.476 222.311 449.141 221.277 438.807 220.244C438.041 220.159 437.285 219.864 436.305 219.653Z" fill="#2C4075"/>
<path d="M331.183 235.441C331.208 233.929 331.265 232.618 331.345 231.059C333.836 231.259 336.299 231.702 338.978 232.217C338.475 233.741 337.762 235.204 337.049 236.862C336.761 237.514 336.504 237.983 336.185 238.417C335.552 239.275 334.893 240.111 334.245 240.957C333.469 240.048 332.57 239.222 331.956 238.21C331.509 237.474 331.446 236.502 331.183 235.441Z" fill="#2C4075"/>
<path d="M406.092 236.289C408.294 235.981 410.572 235.832 413.083 235.718C412.942 237.2 412.573 238.652 412.179 240.304C412.024 240.733 411.932 241.006 411.742 241.174C410.764 242.031 409.761 242.861 408.768 243.702C408.301 242.575 407.833 241.443 407.35 240.104C406.942 238.741 406.554 237.595 406.092 236.289Z" fill="#2C4075"/>
<path d="M339.613 58.5558C344.52 52.5595 349.223 46.6434 354.159 40.9354C355.041 39.9119 356.911 39.1643 358.249 39.278C364.537 39.8066 370.812 40.5843 377.064 41.4587C382.181 42.1718 385.049 46.4509 387.755 50.0686C391.897 55.609 395.065 61.9151 398.634 67.9033C398.755 68.1025 398.694 68.415 398.736 68.8177C398.425 68.9378 398.128 69.1613 397.826 69.1624C392.99 69.2122 388.15 69.2456 383.315 69.2683C372.846 69.3095 362.378 69.2912 351.906 69.4028C346.731 69.4579 341.555 69.757 336.383 69.9261C335.539 69.953 334.693 69.8769 332.956 69.8207C335.38 65.6855 337.436 62.1946 339.613 58.5558Z" fill="#FF2E00"/>
<path d="M323.363 44.1976C333.17 42.2261 342.773 40.3294 352.381 38.4328C352.485 38.7236 352.588 39.0197 352.697 39.3107C344.011 48.3952 335.003 57.2469 330.806 70.088C330.726 70.1017 330.224 70.2374 329.715 70.2318C320.373 70.1359 311.034 69.9263 301.694 69.9498C296.61 69.9644 291.532 70.3697 286.303 70.2712C296.321 58.2093 307.757 48.3298 323.363 44.1976Z" fill="#FF2E00"/>
<path d="M411.224 80.5012C411.017 90.2231 410.507 99.6206 407.905 108.777C407.266 111.018 406.791 111.902 404.067 111.31C397.043 109.792 389.896 108.878 382.804 107.711C382.561 107.67 382.338 107.495 382.422 107.536C382.743 95.7245 383.059 84.1028 383.383 72.2101C385.687 72.0623 388.368 71.7259 391.049 71.7584C396.783 71.8244 402.513 72.1939 408.242 72.2164C410.738 72.2266 411.564 73.2619 411.377 75.6311C411.256 77.1618 411.278 78.6972 411.224 80.5012Z" fill="#FF2E00"/>
<path d="M288.179 102.999C286.693 95.4509 287.905 88.3049 289.456 81.1914C290.043 78.4882 290.71 75.8092 291.424 72.7629C300.367 72.7049 309.3 72.6411 318.541 72.5818C315.031 84.1166 313.004 95.4878 315.477 107.655C311.489 107.928 307.603 108.317 303.715 108.43C300.543 108.523 297.357 108.333 294.181 108.182C289.158 107.933 289.379 108.954 288.179 102.999Z" fill="#FF2E00"/>
<path d="M433.82 104.923C432.559 108.023 431.236 110.87 430.155 113.807C429.416 115.811 428.023 115.988 426.362 115.664C422.318 114.866 418.292 114.004 414.255 113.174C412.626 112.839 410.996 112.532 409.156 112.168C412.73 106.27 413.844 99.6251 414.067 92.7887C414.28 86.1309 414.318 79.4675 414.434 72.6765C418.439 73.1313 423.034 73.5618 427.601 74.2029C430.548 74.6126 433.449 75.3408 436.375 75.9072C437.83 76.1874 438.467 76.9238 438.248 78.5436C437.544 83.7755 437.067 89.0419 436.242 94.2537C435.679 97.7766 434.668 101.225 433.82 104.923Z" fill="#FF2E00"/>
<path d="M345.441 102.132C345.596 92.1646 345.738 82.457 345.893 72.2779C357.072 72.059 368.633 71.8361 380.454 71.6054C380.532 72.8389 380.644 73.6125 380.623 74.3819C380.366 84.4004 380.035 94.4164 379.863 104.438C379.827 106.557 379.255 107.314 377.12 107.082C373.098 106.648 369.058 106.285 365.022 106.176C359.662 106.03 354.291 106.1 348.925 106.165C345.367 106.219 345.365 106.289 345.441 102.132Z" fill="white"/>
<path d="M342.787 82.6489C342.75 90.6301 342.72 98.3404 342.691 106.23C341.197 106.393 339.398 106.693 337.583 106.775C332.063 107.025 326.532 107.112 321.017 107.433C318.559 107.575 317.628 106.911 317.75 104.182C317.961 99.5195 317.459 94.818 317.765 90.1643C318.082 85.3536 318.954 80.5772 319.688 75.8017C320.035 73.5516 321.242 72.6416 323.721 72.7055C330.199 72.866 336.688 72.6311 343.607 72.5456C343.332 75.8555 343.063 79.1221 342.787 82.6489Z" fill="#FF2E00"/>
<path d="M277.558 74.1797C281.386 73.7666 285 73.4278 289.107 73.04C283.913 84.157 281.858 95.0121 285.444 106.955C278.121 105.124 271.931 102.554 267.536 96.3659C264.386 91.9313 263.457 87.3244 264.896 82.1379C265.613 79.5635 267.062 77.5443 269.536 76.6264C272.09 75.6786 274.742 75.0268 277.558 74.1797Z" fill="#FF2E00"/>
<path d="M451.611 110.201C450.578 113.502 448.502 115.382 445.465 116.157C441.077 117.273 436.682 117.69 431.972 116.274C439.037 104.187 441.003 91.1707 440.207 77.5554C446.411 78.6236 453.933 82.9066 453.83 89.4161C453.756 94.0773 453.216 98.7289 452.767 103.373C452.552 105.594 452.058 107.791 451.611 110.201Z" fill="#FF2E00"/>
<path d="M400.682 65.345C396.804 57.2698 392.173 50.0108 385.641 44.0515C403.088 49.5881 418.851 58.1775 432.686 70.8151C422.904 70.3309 413.407 69.8667 403.911 69.3917C401.492 69.2756 401.743 66.8759 400.682 65.345Z" fill="#FF2E00"/>
<path d="M382.86 203.695C382.092 202.911 381.539 202.194 380.986 201.477C381.701 200.914 382.38 199.927 383.134 199.865C385.094 199.706 387.099 199.841 389.053 200.11C389.608 200.188 390.502 201.198 390.442 201.668C390.349 202.365 389.609 203.431 389.03 203.51C387.071 203.794 385.065 203.707 382.86 203.695Z" fill="white"/>
<path d="M271.083 270.311C271.702 270.767 272.327 270.951 272.778 271.34C286.649 283.48 303.093 290.527 320.221 295.888C357.422 307.53 393.951 304.576 429.734 289.902C432.983 288.568 435.962 286.56 439.099 284.923C440.42 284.234 441.818 283.699 443.351 283.113C445.114 281.581 446.74 280.062 448.299 278.476C451.311 275.407 454.283 272.297 457.321 268.928C457.349 268.558 457.333 268.466 457.312 268.375C453.385 271.085 449.428 273.753 445.541 276.521C432.388 285.891 417.723 291.643 402.077 294.554C391.972 296.433 381.699 297.557 371.452 298.483C351.814 300.258 332.818 296.733 314.317 290.022C301.975 285.548 289.672 280.725 279.407 272.19C271.003 265.201 263.338 257.278 255.332 249.79C253.259 247.853 251.131 245.984 248.842 244.074C251.614 250.589 256.394 255.695 261.238 260.716C264.38 263.976 267.742 267.002 271.083 270.311Z" fill="#2C4075"/>
<path d="M399.695 172.083C396.595 177.149 396.982 181.656 400.51 185.672C404.41 190.113 409.652 191.981 415.335 192.892C422.222 193.994 429.11 194.048 435.774 192.204C440.5 190.901 445.075 188.792 449.45 186.514C453.006 184.665 455.772 181.778 457.67 177.931C460.506 172.195 458.073 166.933 453.948 163.741C447.116 158.461 439.061 157.627 430.813 157.839C423.338 158.028 416.313 159.967 409.711 163.454C405.823 165.516 402.377 168.201 399.695 172.083ZM409.395 166.739C410.805 166.121 412.215 165.504 413.903 164.644C417.571 162.529 421.42 161.126 426.085 161.352C426.49 161.184 426.882 160.892 427.295 160.864C433.162 160.473 438.965 160.368 444.736 162.224C448.424 163.408 451.875 164.936 454.154 168.03C455.299 169.582 455.776 172.141 455.571 174.133C455.207 177.692 452.91 180.148 450.034 182.303C443.839 186.935 437.029 189.499 429.172 190.277C428.171 190.417 427.169 190.622 426.165 190.686C419.498 191.108 412.994 190.616 406.726 186.826C403.914 185.161 401.434 183.332 400.81 179.657C400.22 176.192 401.742 173.734 403.88 170.982C405.594 169.627 407.314 168.271 409.395 166.739Z" fill="#FF6501"/>
<path d="M321.25 155.642C319.371 154.525 317.706 153.37 315.887 152.597C308.649 149.521 301.086 147.884 293.27 148.427C287.382 148.836 281.793 150.347 277.787 155.433C275.305 158.583 275.746 165.476 278.78 169.583C283.297 175.702 289.244 179.639 296.094 182.606C302.841 185.529 309.836 187.06 316.999 186.888C323.118 186.744 329.329 185.645 333.55 180.211C336.887 175.908 336.636 171.464 333.956 167.328C330.807 162.456 326.932 158.089 321.25 155.642ZM315.931 156.547C316.294 156.403 316.804 156.023 317.007 156.148C319.966 157.985 322.954 159.776 325.79 161.803C328.897 164.023 331.308 166.914 332.41 170.716C333.46 174.341 333.084 177.781 329.734 179.891C327.369 181.384 324.706 182.664 322.007 183.263C316.738 184.426 311.386 184.426 305.879 182.551C299.966 181.81 294.813 179.03 289.806 175.999C288.336 175.111 287.308 173.466 285.698 172.134C282.053 170.274 280.431 166.662 279.297 163.144C278.365 160.246 279.358 157.023 281.926 155.058C285.15 152.585 288.968 151.472 293.473 151.115C300.097 150.488 306.396 152.3 312.671 154.037C313.844 154.355 314.71 155.846 315.931 156.547Z" fill="#FF6501"/>
<path d="M404.083 161.085C401.186 164.219 398.448 167.246 395.704 170.274C395.864 170.472 396.028 170.669 396.187 170.867C396.723 170.66 397.415 170.612 397.776 170.229C405.617 161.889 415.176 155.994 425.212 150.779C425.057 150.467 424.908 150.16 424.753 149.847C423.111 150.396 421.334 150.69 419.863 151.539C414.898 154.396 410.045 157.453 405.151 160.432C404.853 160.616 404.544 160.795 404.083 161.085Z" fill="#FF6501"/>
<path d="M316.702 145.86C315.577 145.561 314.627 145.361 313.672 145.162C313.574 145.401 313.47 145.639 313.371 145.873C323.096 150.799 331.084 157.745 337.23 167.019C336.706 161.541 328.269 150.613 316.702 145.86Z" fill="#FF6501"/>
<path d="M246.58 185.539C245.728 185.394 244.887 185.243 244.041 185.092C244.022 185.24 244.009 185.387 243.991 185.535C244.723 185.545 245.456 185.56 246.389 185.544C246.6 185.516 246.585 185.533 246.58 185.539Z" fill="#EDF1EF"/>
<path d="M307.325 201.742C307.215 201.574 306.949 201.457 306.534 201.327C306.642 201.474 306.906 201.639 307.325 201.742Z" fill="#A9D2DB"/>
<path d="M388.449 140.59C388.338 140.781 388.215 140.972 388.098 141.157C388.164 141.197 388.23 141.237 388.301 141.282C388.351 141.133 388.402 140.984 388.445 140.704C388.433 140.575 388.444 140.585 388.449 140.59Z" fill="white"/>
<path d="M234.467 40.1273C234.42 40.1082 234.382 40.0831 234.408 40.0872C234.482 40.1103 234.472 40.1217 234.467 40.1273Z" fill="white"/>
<path d="M452.893 302.253C452.958 302.173 453.017 302.094 453.082 302.014C453.036 302.044 452.989 302.074 452.921 302.181C452.893 302.258 452.893 302.253 452.893 302.253Z" fill="#2C4075"/>
<path d="M429.398 189.977C437.022 189.499 443.832 186.93 450.027 182.303C452.908 180.153 455.2 177.697 455.564 174.133C455.769 172.141 455.292 169.582 454.147 168.03C451.868 164.931 448.417 163.408 444.73 162.224C438.958 160.368 433.155 160.478 427.288 160.864C426.875 160.891 426.483 161.184 425.985 161.595C426.568 163.253 427.564 164.601 427.862 166.095C428.735 170.468 429.621 174.873 429.935 179.308C430.184 182.829 429.609 186.415 429.398 189.977Z" fill="white"/>
<path d="M429.282 190.124C429.606 186.416 430.187 182.834 429.933 179.308C429.619 174.873 428.733 170.468 427.86 166.095C427.562 164.601 426.566 163.248 425.807 161.67C421.417 161.125 417.567 162.528 413.742 164.978C413.883 167.299 414.314 169.285 414.439 171.288C414.534 172.862 414.492 174.537 414.031 176.011C413.814 176.706 412.023 177.631 411.697 177.393C410.697 176.648 409.578 175.475 409.377 174.318C408.966 171.908 409.116 169.397 409.036 166.926C407.311 168.282 405.591 169.632 403.862 171.417C404.946 176.843 406.028 181.84 407.11 186.838C412.98 190.627 419.479 191.12 426.151 190.692C427.165 190.616 428.162 190.412 429.282 190.124Z" fill="#2C4075"/>
<path d="M409.214 166.825C409.119 169.387 408.963 171.898 409.38 174.308C409.58 175.465 410.699 176.638 411.7 177.383C412.026 177.627 413.811 176.696 414.033 176.001C414.495 174.532 414.537 172.852 414.441 171.278C414.317 169.275 413.886 167.289 413.602 165.089C412.213 165.499 410.804 166.117 409.214 166.825Z" fill="#F6F7F5"/>
<path d="M406.919 186.82C406.034 181.829 404.952 176.832 403.826 171.603C401.729 173.728 400.212 176.186 400.802 179.651C401.43 183.321 403.911 185.155 406.919 186.82Z" fill="white"/>
<path d="M286.079 172.162C287.311 173.46 288.339 175.11 289.809 175.999C294.816 179.03 299.969 181.804 306.129 182.309C308.301 178.34 310.617 174.759 312.038 170.835C313.677 166.313 314.525 161.491 315.714 156.803C314.708 155.851 313.842 154.355 312.673 154.032C306.399 152.294 300.1 150.482 293.218 151.329C289.272 157.922 287.191 164.872 286.079 172.162ZM298.196 154.03C301.406 153.942 300.501 156.618 300.062 157.83C298.761 161.433 297 164.865 295.27 168.284C295.016 168.786 293.642 169.276 293.305 169.028C292.631 168.532 291.868 167.475 291.939 166.733C292.151 164.561 292.319 162.185 293.313 160.352C294.549 158.094 294.874 154.987 298.196 154.03Z" fill="#2C4075"/>
<path d="M315.813 156.678C314.514 161.497 313.671 166.319 312.032 170.835C310.61 174.76 308.29 178.34 306.278 182.247C311.377 184.426 316.73 184.426 321.998 183.263C324.698 182.67 327.361 181.384 329.726 179.891C333.07 177.782 333.452 174.341 332.402 170.716C331.3 166.914 328.889 164.023 325.782 161.803C322.951 159.781 319.958 157.985 316.999 156.148C316.791 156.024 316.286 156.403 315.813 156.678Z" fill="white"/>
<path d="M285.888 172.15C287.187 164.872 289.267 157.922 292.981 151.357C288.971 151.466 285.153 152.579 281.929 155.052C279.362 157.017 278.364 160.245 279.3 163.138C280.43 166.662 282.057 170.268 285.888 172.15Z" fill="white"/>
<path d="M298.005 153.992C294.871 154.988 294.545 158.094 293.315 160.352C292.315 162.18 292.152 164.561 291.941 166.733C291.87 167.475 292.632 168.532 293.307 169.028C293.638 169.277 295.012 168.786 295.271 168.284C297.002 164.865 298.768 161.432 300.064 157.83C300.497 156.618 301.403 153.942 298.005 153.992Z" fill="#F6F7F5"/>
<path d="M370.456 86.2354C370.768 84.8695 371.146 83.6909 371.524 82.5069C371.804 82.5873 372.077 82.6725 372.357 82.753C372.524 84.4834 372.692 86.2084 372.938 88.7761C371.78 87.6487 371.146 87.0324 370.456 86.2354Z" fill="white"/>
<path d="M443.548 353.56C444.421 353.91 445.283 354.049 446.331 354.211C449.594 351.872 448.749 348.312 449.093 344.564C451.414 345.305 453.576 345.842 455.626 346.679C463.541 349.909 471.018 353.885 476.544 360.819C477.592 362.138 478.253 363.769 479.265 365.122C479.791 365.833 480.689 366.252 481.414 366.806C481.859 365.897 482.807 364.886 482.647 364.102C482.285 362.302 481.663 360.419 480.648 358.914C475.677 351.549 468.343 347.376 460.425 344.384C457.143 343.14 453.398 343.246 449.905 342.513C448.886 342.3 447.762 341.524 447.126 340.661C441.503 333.005 433.849 329.402 424.733 328.765C423.897 328.706 423.003 329.54 422.134 329.961C422.824 330.543 423.428 331.326 424.216 331.675C427.924 333.331 431.783 334.647 435.38 336.515C437.77 337.757 440.044 339.477 441.947 341.418C445.343 344.871 444.535 349.159 443.548 353.56Z" fill="#2C4075"/>
<path d="M293.695 296.549C293.353 298.158 292.308 300.82 292.095 302.661C306.511 308.789 322.201 312.873 335.799 320.864C336.944 321.536 338.051 322.384 339.291 322.748C340.213 323.025 341.318 322.657 342.343 322.581C342.017 321.648 341.965 320.299 341.32 319.856C336.941 316.857 332.675 313.509 327.924 311.29C318.242 306.768 308.266 302.897 298.423 298.737C296.876 298.086 295.391 297.296 293.695 296.549Z" fill="#2C4075"/>
<path d="M452.902 302.256C445.497 304.031 438.114 305.908 430.674 307.544C424.006 309.015 417.239 310.034 410.597 311.601C403.751 313.211 397.058 315.399 391.111 319.416C390.67 319.71 390.214 319.995 389.847 320.373C389.364 320.871 388.966 321.451 388.789 322.693C391.456 321.884 394.097 320.985 396.791 320.278C406.275 317.801 415.804 315.485 425.268 312.922C432.954 310.844 440.611 308.627 448.186 306.175C449.943 305.604 451.333 303.848 452.897 302.446C452.902 302.25 452.902 302.256 452.902 302.256Z" fill="#2C4075"/>
<path d="M457.482 416.029C458.109 414.965 458.409 403.455 456.763 396.853C453.953 396.388 451.169 396.611 449.33 393.994C448.629 392.994 447.994 391.942 447.334 390.918C440.489 395.22 437.684 393.772 434.337 384.454C432.685 384.318 431.057 384.421 429.561 384.022C422.262 382.078 419.469 373.99 423.637 366.799C426.587 361.708 431.153 358.53 436.38 356.3C438.713 355.303 441.163 354.603 443.547 353.56C444.534 349.159 445.337 344.871 441.951 341.418C440.048 339.477 437.775 337.762 435.384 336.515C431.787 334.647 427.928 333.325 424.221 331.675C423.432 331.326 422.828 330.543 422.139 329.961C423.007 329.54 423.901 328.711 424.737 328.765C433.853 329.402 441.501 333 447.13 340.661C447.76 341.524 448.89 342.3 449.909 342.513C453.403 343.246 457.147 343.14 460.429 344.384C468.347 347.381 475.681 351.549 480.652 358.914C481.667 360.413 482.289 362.302 482.652 364.102C482.811 364.886 481.863 365.897 481.418 366.805C480.688 366.252 479.796 365.832 479.269 365.122C478.262 363.769 477.596 362.137 476.548 360.819C471.022 353.885 463.545 349.909 455.631 346.679C453.58 345.842 451.418 345.305 449.097 344.564C448.754 348.312 449.599 351.872 446.526 354.315C446.531 354.396 446.535 354.564 446.701 354.691C447.362 355.546 447.904 356.251 448.349 357.02C451.158 361.872 454.018 366.694 456.703 371.617C457.882 373.786 458.679 376.171 459.768 378.551C460.05 378.775 460.212 378.908 460.372 379.035C465.386 379.921 470.257 379.36 474.832 377.148C481.041 374.149 487.196 371.039 493.304 367.834C499.283 364.695 504.196 360.104 507.787 354.404C510.782 349.647 511.827 344.461 509.096 338.693C506.623 333.471 503.227 329.427 498.977 325.688C492.566 320.049 485.237 316.272 477.52 313.15C472.324 311.046 467.003 309.286 461.729 307.398C459.024 306.428 456.296 305.524 453.756 304.648C454.667 302.776 456.1 300.822 456.566 298.653C457.391 294.771 456.465 291.378 453.122 288.612C450.301 286.28 447.905 283.48 443.596 283.148C441.839 283.713 440.441 284.249 439.12 284.937C435.983 286.574 433.004 288.583 429.755 289.916C393.972 304.59 357.443 307.55 320.241 295.903C303.119 290.542 286.669 283.494 272.798 271.354C272.347 270.96 271.722 270.781 271.177 270.506C269.678 271.633 268.185 272.76 266.547 274.263C268.707 277.808 270.924 281.041 273.365 284.083C273.882 284.729 275.215 284.854 276.19 284.916C278.516 285.07 280.944 284.638 283.174 285.166C289.004 286.547 291 290.585 292.545 296.394C294.24 297.141 296.886 298.102 298.433 298.753C308.276 302.919 316.567 306.923 326.254 311.445C331.005 313.664 336.95 316.873 341.33 319.872C341.975 320.315 342.32 321.997 342.353 322.597C341.328 322.679 340.223 323.041 339.301 322.764C338.066 322.395 336.954 321.552 335.809 320.88C322.21 312.889 307.404 307.775 292.849 302.023C292.425 303.012 292.283 304.024 291.716 304.624C288.505 308.029 285.875 311.958 284.068 316.114C279.511 326.621 265.509 331.28 255.163 326.055C251.629 324.271 244.779 320.62 241.264 319.188C241.577 322.033 242.991 333.077 243.48 335.63C244.655 341.768 248.084 346.212 253.277 350.042C258.189 353.665 263.873 355.276 269.806 356.499C272.226 356.996 277.333 356.493 279.703 355.977C284.532 354.924 285.139 349.565 286.844 345.094C286.844 345.094 287.717 343.485 288.176 343.043C288.736 342.503 289.102 342.401 289.83 342.042C290.16 342.845 290.853 343.698 290.756 344.442C289.996 350.307 287.376 354.925 282.053 357.735C281.31 358.128 280.558 359.318 280.529 360.167C280.404 364.12 280.491 368.084 280.572 372.043C280.724 379.163 280.923 386.276 281.081 393.624C282.24 397.976 283.569 402.636 284.989 406.73C291.476 405.823 296.659 405.528 302.916 404.698C308.309 403.979 314.368 403.111 319.77 402.451C329.873 401.218 339.448 400.229 349.584 399.52C359.657 398.82 368.848 398.172 378.957 398.241C384.636 398.284 392.291 398.678 397.868 399.686C407.795 401.486 416.773 403.194 426.343 406.327C435.426 409.3 444.151 413.775 452.951 417.68C453.711 418.015 455.29 418.268 456.168 418.325C456.168 418.325 456.394 417.112 456.451 416.881C456.819 416.433 457.153 416.231 457.482 416.029ZM452.949 302.096C452.995 302.066 453.041 302.037 453.088 302.013C453.023 302.092 452.964 302.171 452.893 302.636C451.336 303.848 449.945 305.604 448.188 306.175C440.613 308.621 432.956 310.839 425.27 312.922C415.807 315.485 406.277 317.801 396.793 320.278C394.099 320.979 391.459 321.884 388.792 322.692C388.968 321.451 389.366 320.865 389.849 320.373C390.216 319.995 390.673 319.71 391.113 319.416C397.06 315.399 403.753 313.211 410.6 311.601C417.242 310.04 424.008 309.015 430.677 307.544C438.11 305.903 445.494 304.026 452.949 302.096ZM395.993 366.879C390.592 362.653 386.663 357.398 385.504 350.581C368.964 353.343 352.707 352.6 336.498 352.842C336.459 353.012 336.358 353.197 336.393 353.352C338.279 361.358 336.421 368.107 330.16 373.465C329.587 373.956 328.974 374.977 329.088 375.628C329.738 379.312 330.604 382.958 331.36 386.436C354.908 384.477 377.974 388.211 401.42 390.719C401.304 388.575 401.102 386.702 401.123 384.833C401.176 380.531 401.245 376.217 401.528 371.929C401.585 371.025 402.58 370.191 403.143 369.319C403.58 369.464 404.018 369.61 404.456 369.755C404.331 376.189 404.33 382.634 404.009 389.057C403.89 391.376 401.996 392.936 399.848 392.957C393.449 393.029 387.038 392.868 380.64 392.576C374.162 392.277 367.696 391.685 361.218 391.278C356.405 390.972 351.591 390.624 346.775 390.536C341.677 390.447 336.562 390.429 331.486 390.827C329.737 390.963 328.937 390.685 328.666 389.103C328.056 385.574 327.546 382.023 327.02 378.479C326.887 377.59 327.191 376.347 326.708 375.851C325.011 374.089 326.444 372.928 327.213 371.66C327.671 370.903 328.415 370.337 328.927 369.61C332.233 364.913 334.531 359.824 334.176 353.855C333.933 349.747 334.053 349.524 338.207 349.044C338.381 349.024 338.562 349.02 338.736 349.005C353.58 347.651 368.436 348.377 383.29 348.885C385.198 348.947 386.844 349.37 388.001 351.437C391.414 357.549 395.923 362.643 402.081 366.069C402.639 366.376 402.864 367.309 403.244 367.951C402.481 368.258 401.637 368.948 400.971 368.793C399.392 368.426 397.876 367.67 395.993 366.879Z" fill="#008AFF"/>
<path d="M293.504 296.527C292.146 290.74 288.985 286.531 283.154 285.151C280.93 284.622 278.502 285.054 276.17 284.901C275.196 284.838 273.863 284.713 273.345 284.067C270.905 281.025 268.688 277.793 266.41 274.411C263.863 271.956 261.468 269.46 258.696 267.538C255.538 265.348 251.518 264.676 249.087 267.106C246.892 269.301 246.54 272.197 247.04 274.782C247.923 279.328 249.571 283.72 250.925 288.247C241.998 296.52 233.34 305.142 241.015 319.629C242.349 320.85 243.427 321.863 244.506 322.876C248.019 324.569 251.743 325.642 255.277 327.432C265.629 332.662 281.053 327.125 285.609 316.618C287.416 312.456 288.486 308.019 291.697 304.613C292.264 304.013 292.406 302.996 292.882 301.798C293.182 299.796 293.343 298.164 293.504 296.527ZM253.898 284.377C252.991 281.037 252 277.712 251.202 274.345C250.508 271.423 251.982 269.336 254.319 269.973C255.772 270.369 257.25 271.208 258.377 272.235C260.653 274.302 262.67 276.666 264.846 278.853C267.651 281.68 270.502 284.456 273.46 287.373C268.627 292.172 267.963 297.929 269.673 303.957C271.619 310.815 276.71 312.842 283.346 311.743C279.261 322.442 264.369 326.529 257.872 322.827C258.191 320.107 258.485 317.583 258.785 314.999C265.002 313.037 266.455 310.18 264.667 303.499C263.198 298.012 259.817 293.766 256.403 289.484C255.333 288.145 254.776 286.383 253.898 284.377ZM253.504 313.671C253.757 314.038 254.174 314.385 254.233 314.783C254.451 316.373 255.211 318.456 254.527 319.437C253.857 320.4 251.589 320.732 250.154 320.498C244.994 319.647 241.637 313.472 242.848 307.414C244.121 301.05 248.201 296.632 252.862 292.684C253.253 292.354 254.524 292.406 254.819 292.765C258.166 296.877 261.217 301.201 261.677 306.779C261.957 310.184 259.785 311.803 256.648 310.503C255.368 309.973 254.291 308.895 253.007 308.398C252.373 308.155 251.156 308.404 250.763 308.897C250.406 309.35 250.547 310.597 250.93 311.195C251.481 312.062 252.442 312.668 253.504 313.671ZM274.406 303.387C274.186 300.201 273.485 296.953 273.891 293.859C274.207 291.47 275.03 288.137 277.949 287.776C283.478 287.104 290.446 291.188 289.79 298.378C289.428 302.377 286.133 306.395 282.407 307.335C279.278 308.125 276.699 306.947 274.406 303.387Z" fill="#2C4075"/>
<path d="M446.52 354.558C446.52 354.558 446.516 354.39 446.325 354.291C445.272 354.048 444.416 353.909 443.554 353.765C441.159 354.597 438.703 355.296 436.375 356.293C431.154 358.523 426.589 361.707 423.633 366.792C419.465 373.978 422.258 382.066 429.557 384.015C431.058 384.414 432.681 384.312 434.333 384.447C437.68 393.766 440.485 395.214 447.329 390.911C447.99 391.935 448.619 392.988 449.326 393.987C451.165 396.605 453.948 396.376 456.672 396.618C456.734 396.582 456.656 396.326 456.747 396.24C461.673 391.484 461.551 385.606 460.316 379.243C460.191 378.891 460.03 378.759 459.549 378.589C459.041 379.006 458.741 379.456 458.683 379.937C458.35 382.61 458.247 385.324 457.721 387.952C457.317 389.993 456.995 392.578 454.364 392.869C451.827 393.15 451.162 390.66 450.25 388.901C449.877 388.182 450.046 387.087 450.167 386.196C450.366 384.676 450.725 383.175 451.015 381.667C449.052 383.524 447.787 385.746 445.984 387.318C444.753 388.398 442.534 389.351 441.19 388.923C440.04 388.555 439.033 386.213 438.815 384.623C438.501 382.354 439.015 379.982 439.074 377.65C439.098 376.72 438.856 375.783 438.731 374.845C438.399 374.786 438.062 374.728 437.73 374.67C436.62 376.715 435.506 378.766 434.358 380.885C431.229 380.306 428.152 379.421 426.864 376.117C425.521 372.67 426.757 369.527 429.083 366.917C430.673 365.134 432.313 363.272 434.258 361.97C438.231 359.317 442.425 357.011 446.52 354.558Z" fill="#2C4075"/>
<path d="M244.509 323.136C243.427 321.863 242.348 320.851 241.104 319.809C241.406 325.597 241.444 331.491 242.453 337.208C243.632 343.9 247.679 348.893 253.325 352.552C261.017 357.543 269.293 360.005 278.421 359.1C278.838 359.056 279.271 359.12 279.93 359.145C280.172 370.387 280.414 381.53 280.556 392.886C280.565 393.146 280.673 393.195 280.934 393.311C280.909 386.266 280.709 379.148 280.563 372.033C280.482 368.074 280.395 364.11 280.521 360.156C280.549 359.308 281.302 358.123 282.044 357.725C287.361 354.909 289.987 350.297 290.747 344.431C290.845 343.688 290.151 342.834 289.821 342.032C289.093 342.396 288.241 342.62 287.676 343.16C287.212 343.608 287.086 344.424 286.835 345.083C285.136 349.554 282.594 353.369 277.76 354.428C275.39 354.944 272.719 354.705 270.3 354.208C264.367 352.985 258.868 350.479 253.956 346.851C248.762 343.021 246.654 337.291 245.478 331.147C244.985 328.595 244.822 325.981 244.509 323.136Z" fill="#2C4075"/>
<path d="M396.162 366.978C397.881 367.669 399.392 368.425 400.992 368.791C401.658 368.94 402.502 368.255 403.265 367.949C402.886 367.307 402.66 366.374 402.102 366.067C395.949 362.646 391.44 357.547 388.022 351.435C386.865 349.362 385.219 348.944 383.312 348.882C368.457 348.38 353.601 347.649 338.757 349.003C338.583 349.017 338.403 349.021 338.229 349.041C334.074 349.516 333.948 349.745 334.197 353.853C334.552 359.822 332.259 364.911 328.948 369.608C328.436 370.335 327.692 370.901 327.234 371.658C326.465 372.926 325.027 374.093 326.729 375.849C327.207 376.345 326.908 377.588 327.041 378.476C327.567 382.021 328.077 385.572 328.687 389.101C328.958 390.683 329.758 390.961 331.507 390.825C336.584 390.432 341.698 390.445 346.796 390.534C351.612 390.622 357.616 391.478 362.428 391.783C368.901 392.191 374.184 392.275 380.661 392.574C387.059 392.866 393.47 393.027 399.87 392.955C402.022 392.934 403.916 391.373 404.03 389.055C404.351 382.631 404.347 376.187 404.477 369.753C404.039 369.607 403.602 369.462 403.164 369.317C402.601 370.183 401.606 371.022 401.549 371.927C401.267 376.22 401.197 380.529 401.144 384.831C401.123 386.7 401.325 388.573 401.441 390.717C377.99 388.203 354.929 384.469 331.381 386.434C330.625 382.956 329.76 379.31 329.109 375.626C328.995 374.98 329.608 373.954 330.181 373.463C336.443 368.11 338.3 361.356 336.414 353.35C336.379 353.2 336.48 353.01 336.519 352.84C352.728 352.603 368.98 353.347 385.52 350.584C386.663 357.397 390.592 362.657 396.162 366.978Z" fill="#2C4075"/>
<path d="M446.685 354.686C442.423 357.012 438.235 359.318 434.273 361.975C432.322 363.284 430.688 365.14 429.098 366.923C426.767 369.533 425.536 372.676 426.879 376.123C428.166 379.421 431.243 380.312 434.373 380.89C435.521 378.772 436.635 376.726 437.745 374.675C438.077 374.734 438.414 374.792 438.746 374.85C438.866 375.783 439.107 376.726 439.089 377.655C439.029 379.988 438.516 382.365 438.829 384.629C439.048 386.219 440.055 388.566 441.205 388.928C442.549 389.357 444.768 388.404 445.999 387.323C447.802 385.746 449.066 383.524 451.03 381.672C450.74 383.181 450.386 384.681 450.182 386.201C450.066 387.098 449.891 388.187 450.265 388.906C451.177 390.666 451.847 393.155 454.378 392.875C457.01 392.584 457.326 389.999 457.736 387.958C458.257 385.33 458.364 382.615 458.697 379.943C458.756 379.462 459.056 379.017 459.442 378.503C458.668 376.166 457.871 373.781 456.692 371.612C454.012 366.688 451.147 361.867 448.338 357.015C447.889 356.251 447.346 355.547 446.685 354.686Z" fill="white"/>
<path d="M253.942 284.597C254.775 286.383 255.332 288.145 256.397 289.484C259.811 293.766 263.192 298.012 264.661 303.5C266.449 310.181 264.996 313.037 258.779 314.999C258.479 317.583 258.18 320.107 257.866 322.827C264.368 326.529 279.26 322.436 283.34 311.743C276.704 312.842 271.614 310.815 269.667 303.957C267.957 297.935 268.627 292.177 273.455 287.373C270.501 284.456 267.646 281.68 264.84 278.853C262.669 276.666 260.647 274.303 258.371 272.235C257.239 271.209 255.766 270.369 254.313 269.973C251.981 269.336 250.502 271.423 251.196 274.345C252.004 277.712 252.99 281.037 253.942 284.597Z" fill="white"/>
<path d="M253.368 313.532C252.441 312.669 251.48 312.062 250.923 311.191C250.546 310.597 250.399 309.345 250.756 308.892C251.149 308.399 252.361 308.15 253 308.394C254.289 308.89 255.361 309.968 256.641 310.498C259.778 311.798 261.95 310.18 261.671 306.774C261.21 301.196 258.159 296.878 254.812 292.76C254.517 292.401 253.246 292.349 252.856 292.679C248.194 296.627 244.115 301.045 242.841 307.41C241.63 313.473 244.988 319.647 250.148 320.493C251.582 320.733 253.851 320.396 254.52 319.432C255.209 318.445 254.449 316.363 254.226 314.779C254.173 314.385 253.756 314.043 253.368 313.532Z" fill="white"/>
<path d="M274.508 303.577C276.706 306.947 279.279 308.125 282.414 307.335C286.14 306.394 289.435 302.377 289.797 298.378C290.448 291.188 283.484 287.104 277.956 287.776C275.036 288.131 274.214 291.464 273.898 293.859C273.487 296.954 274.188 300.201 274.508 303.577Z" fill="white"/>
<path d="M443.533 282.723C451.784 287.247 462.014 295.863 453.977 304.159" stroke="#2C4075" stroke-width="4.11439" stroke-linecap="round"/>
<path d="M446.042 353.982C454.181 362.239 452.931 368.548 459.818 378.869" stroke="#2C4075" stroke-width="4.11439" stroke-linecap="round"/>
<path d="M271.767 270.179C268.76 271.142 267.782 272.716 266.113 276.074" stroke="#2C4075" stroke-width="4.11439" stroke-linecap="round"/>
<path d="M453.455 304.458C492.42 313.802 532.077 338.171 495.228 365.773C486.513 371.39 467.189 381.911 459.607 379.054" stroke="#2C4075" stroke-width="4.11439" stroke-linecap="round"/>
<path d="M279.765 359.23C278.037 364.281 281.028 402.717 286.089 407.486" stroke="#2C4075" stroke-width="4.11439" stroke-linecap="round"/>
</g>
<path d="M69.6226 140.463C71.5244 140.677 73.0262 142.177 73.2438 144.078L78.8247 192.839C78.8529 193.086 78.9417 193.183 79.003 193.233C79.087 193.301 79.2285 193.359 79.4081 193.359C79.5876 193.359 79.7291 193.3 79.813 193.232C79.8743 193.182 79.9629 193.085 79.9909 192.838L85.5154 144.082C85.7311 142.179 87.2336 140.677 89.1371 140.463L137.97 134.958C138.217 134.93 138.315 134.842 138.364 134.781C138.433 134.697 138.491 134.555 138.492 134.376C138.492 134.196 138.433 134.054 138.365 133.97C138.315 133.909 138.218 133.82 137.971 133.792L89.1328 128.231C87.2312 128.015 85.7311 126.514 85.5157 124.612L79.9909 75.8542C79.9629 75.6075 79.8743 75.5103 79.813 75.4605C79.7291 75.3923 79.5876 75.3335 79.4081 75.3334C79.2285 75.3333 79.087 75.3919 79.003 75.46C78.9417 75.5097 78.8529 75.6069 78.8247 75.8535L73.2436 124.617C73.0261 126.516 71.5268 128.015 69.627 128.231L20.7865 133.792C20.5396 133.82 20.4424 133.909 20.3927 133.97C20.3246 134.054 20.2659 134.196 20.266 134.376C20.2661 134.555 20.3249 134.697 20.3931 134.781C20.4429 134.842 20.5402 134.93 20.7871 134.958L69.6226 140.463Z" fill="white" stroke="#2C4075" stroke-width="3.52109"/>
<path d="M120.364 200.058C121.996 200.239 123.287 201.525 123.473 203.157L124.346 210.784C124.505 212.171 126.52 212.171 126.678 210.784L127.551 203.157C127.738 201.525 129.028 200.239 130.66 200.058L138.003 199.242C139.393 199.087 139.396 197.067 138.006 196.909L130.652 196.072C129.023 195.887 127.738 194.602 127.552 192.974L126.678 185.342C126.52 183.955 124.505 183.955 124.346 185.342L123.473 192.974C123.286 194.602 122.001 195.887 120.373 196.072L113.018 196.909C111.628 197.067 111.631 199.087 113.021 199.242L120.364 200.058Z" fill="white" stroke="#2C4075" stroke-width="2.34739"/>
<path d="M561.739 195.45C563.371 195.632 564.662 196.918 564.848 198.55L565.721 206.176C565.88 207.563 567.895 207.563 568.053 206.176L568.926 198.55C569.113 196.918 570.403 195.632 572.035 195.45L579.378 194.634C580.768 194.48 580.771 192.46 579.381 192.302L572.027 191.465C570.398 191.279 569.113 189.995 568.927 188.366L568.053 180.735C567.895 179.348 565.88 179.348 565.721 180.735L564.848 188.366C564.661 189.995 563.376 191.279 561.748 191.465L554.393 192.302C553.003 192.46 553.006 194.48 554.396 194.634L561.739 195.45Z" fill="white" stroke="#2C4075" stroke-width="2.34739"/>
<path d="M548.867 296.02C550.5 296.2 551.791 297.485 551.979 299.117L554.011 316.759C554.17 318.145 556.183 318.145 556.343 316.759L558.375 299.117C558.563 297.485 559.854 296.2 561.486 296.02L578.859 294.102C580.25 293.949 580.253 291.927 578.862 291.769L561.477 289.803C559.849 289.619 558.563 288.336 558.375 286.707L556.343 269.061C556.183 267.675 554.17 267.675 554.011 269.061L551.978 286.707C551.791 288.336 550.504 289.619 548.876 289.803L531.491 291.769C530.101 291.927 530.103 293.949 531.495 294.102L548.867 296.02Z" fill="white" stroke="#2C4075" stroke-width="2.34739"/>
<path d="M355.929 98.4131C355.877 99.0962 355.354 99.6514 354.675 99.7422C353.769 99.8636 352.984 99.1214 353.054 98.2086L353.916 86.8845C353.991 85.9107 354.737 85.1194 355.704 84.9899L360.341 84.3691C361.424 84.2241 362.28 84.2258 362.91 84.3741C363.544 84.5151 364.084 84.8616 364.529 85.4134C364.98 85.9645 365.26 86.6679 365.37 87.5238C365.527 88.7456 365.296 89.8034 364.676 90.6972C364.318 91.2086 363.824 91.6367 363.194 91.9814C362.596 92.3088 362.394 93.273 362.812 93.8078C363.337 94.4921 363.921 95.3743 364.563 96.4543C365.078 97.3222 364.518 98.4244 363.515 98.5586C362.891 98.6422 362.288 98.3092 361.995 97.7531C361.626 97.0526 361.128 96.1697 360.499 95.1045C359.98 94.2302 359.474 93.6632 358.982 93.4035C358.68 93.2512 358.185 93.2212 357.495 93.3136C356.802 93.4063 356.267 93.9733 356.214 94.6711L355.929 98.4131ZM356.59 89.6984C356.529 90.5032 357.222 91.157 358.021 91.05C359.588 90.8402 360.614 90.6064 361.099 90.3487C361.59 90.0902 361.955 89.7389 362.193 89.295C362.432 88.8511 362.522 88.4069 362.465 87.9627C362.398 87.44 362.138 87.076 361.685 86.8708C361.407 86.7485 360.839 86.7448 359.982 86.8596L358.343 87.079C357.428 87.2016 356.721 87.9516 356.652 88.874L356.59 89.6984Z" fill="#FF2E00"/>
<path d="M369.679 97.7333C368.387 97.9063 367.269 96.8491 367.367 95.5483L368.166 84.9779C368.239 84.0036 368.986 83.2116 369.953 83.0821L377.335 82.0938C378.095 81.9921 378.753 82.6136 378.695 83.3788C378.652 83.9523 378.213 84.4187 377.643 84.4949L372.355 85.203C371.582 85.3064 370.985 85.9385 370.925 86.7168C370.845 87.7579 371.74 88.6049 372.774 88.4665L376.64 87.9489C377.4 87.8471 378.058 88.4687 378.001 89.2338C377.958 89.8074 377.518 90.2737 376.949 90.35L372.139 90.9939C371.23 91.1156 370.522 91.8504 370.434 92.7645C370.312 94.0227 371.389 95.0621 372.64 94.8945L376.97 94.3148C377.731 94.2128 378.39 94.8376 378.33 95.6045C378.285 96.1761 377.846 96.6399 377.278 96.7159L369.679 97.7333Z" fill="#FF2E00"/>
<path fill-rule="evenodd" clip-rule="evenodd" d="M205.638 229.217C202.773 231.725 200.244 236.75 199.692 241.033C199.479 242.683 199.147 244.778 198.955 245.688C198.622 247.267 198.573 247.282 197.912 246.021C194.673 239.853 191.162 237.224 187.162 237.973C179.298 239.444 180.68 252.249 189.535 259.974C193.8 263.693 199.933 267 202.565 267C204.856 267 207.439 264.47 212.03 257.729C215.362 252.836 217.095 249.101 218.816 243.102C220.411 237.541 220.399 235.469 218.754 232.08C216.134 226.683 210.049 225.355 205.638 229.217Z" fill="#3F455B"/>
</svg>
