<svg width="385" height="232" viewBox="0 0 385 232" fill="none" xmlns="http://www.w3.org/2000/svg">
<rect x="32.993" y="0.548598" width="353.318" height="195.09" rx="11.5" transform="rotate(5.88083 32.993 0.548598)" stroke="#FF6501"/>
<path d="M263.868 203.465C265.299 203.624 266.428 204.753 266.592 206.182C266.623 206.455 266.731 206.603 266.84 206.691C266.964 206.791 267.146 206.858 267.352 206.858C267.559 206.858 267.74 206.791 267.864 206.691C267.973 206.603 268.081 206.455 268.113 206.182C268.276 204.753 269.405 203.624 270.837 203.465C271.104 203.435 271.244 203.331 271.328 203.228C271.424 203.11 271.489 202.936 271.488 202.735C271.488 202.535 271.423 202.36 271.326 202.24C271.24 202.135 271.098 202.029 270.831 201.999C269.403 201.836 268.276 200.708 268.113 199.282C268.082 199.008 267.973 198.861 267.864 198.773C267.74 198.672 267.559 198.605 267.352 198.605C267.145 198.605 266.964 198.672 266.84 198.773C266.731 198.861 266.623 199.008 266.591 199.282C266.428 200.708 265.302 201.836 263.874 201.999C263.606 202.029 263.464 202.135 263.379 202.24C263.281 202.36 263.216 202.535 263.216 202.735C263.216 202.936 263.28 203.11 263.376 203.228C263.46 203.331 263.601 203.435 263.868 203.465Z" fill="white" stroke="#2C4075" stroke-width="2.34739"/>
<rect x="25.043" y="8.28345" width="346.935" height="207.639" rx="12" fill="#C7F8FF"/>
<mask id="mask0_2370_12387" style="mask-type:alpha" maskUnits="userSpaceOnUse" x="25" y="8" width="347" height="208">
<rect x="25.043" y="8.28369" width="346.935" height="207.639" rx="12" fill="#D9D9D9"/>
</mask>
<g mask="url(#mask0_2370_12387)">
<path d="M168.018 236.108L168.019 236.109C168.105 236.246 168.19 236.377 168.273 236.5C167.678 236.646 166.902 236.811 165.899 237.007C165.629 237.027 165.332 237.06 165.108 237.086C165.009 237.097 164.924 237.107 164.862 237.113C164.544 237.145 164.369 237.144 164.245 237.127C163.415 237.01 162.65 236.864 161.905 236.675L161.904 236.675C158.008 235.691 154.114 234.693 150.217 233.695C148.616 233.285 147.015 232.875 145.413 232.466C144.527 232.162 143.275 231.691 142.543 231.416L142.423 231.371L142.422 231.371C141.986 231.207 141.644 231.073 141.315 230.944C140.731 230.716 140.191 230.504 139.252 230.177C134.331 228.017 129.836 225.684 125.867 222.482L125.866 222.482C124.826 221.643 123.728 220.875 122.698 220.154C122.538 220.042 122.381 219.932 122.225 219.823C121.035 218.987 119.939 218.194 118.95 217.312L118.949 217.312C116.769 215.37 114.735 213.205 112.93 210.9L168.018 236.108ZM168.018 236.108C167.018 234.501 166.072 232.867 165.133 231.233C164.066 229.378 162.44 228.027 160.494 227.442C159.201 227.054 157.766 226.635 156.293 226.205C154.972 225.819 153.621 225.425 152.316 225.036C149.69 224.253 147.196 223.479 146.109 222.974L146.109 222.974M168.018 236.108L146.109 222.974M146.109 222.974C140.743 220.483 135.646 217.407 131.052 213.456L146.109 222.974ZM131.052 213.456C130.163 212.691 129.294 211.928 128.433 211.173C126.063 209.095 123.76 207.074 121.296 205.23C118.501 203.138 116.41 201.658 113.649 202.101C112.022 202.362 110.841 203.825 110.931 205.473C111.044 207.53 111.747 209.388 112.93 210.9L131.052 213.456Z" fill="white" stroke="#2C4075" stroke-width="4.11439"/>
<mask id="path-6-inside-1_2370_12387" fill="white">
<path d="M290.324 39.9173C289.725 44.8349 288.888 49.5699 287.821 54.2636C284.897 67.1042 280.749 79.4876 274.643 91.1201C273.694 92.9315 274.338 94.727 274.443 96.5142C274.555 98.4398 274.827 100.358 274.802 102.292C274.712 109.24 274.37 116.168 273.343 123.046C272.033 131.827 268.842 139.778 263.769 146.991C260.545 151.576 256.794 155.615 252.704 159.363C251.959 160.045 251.116 160.583 250.204 161.235C250.149 161.28 250.086 161.332 250.031 161.377C249.717 161.635 249.403 161.9 248.971 162.115C248.957 162.121 248.921 162.153 248.911 162.164C248.882 162.192 248.876 162.202 248.845 162.227C248.516 162.496 248.192 162.776 247.735 162.997C247.727 163.001 247.701 163.024 247.694 163.03C247.664 163.057 247.637 163.076 247.606 163.102C247.469 163.22 247.342 163.362 247.164 163.565C246.523 164.186 245.918 164.683 245.166 165.18C243.532 166.251 241.74 166.596 240.06 167.226C235.088 169.095 230.039 170.654 224.726 171.164C220.309 171.586 215.91 172.221 211.44 171.84C209.107 171.642 206.757 171.762 204.409 171.809C201.428 171.869 198.455 171.257 195.477 170.98C187.619 170.253 180.205 167.754 173.022 164.642C164.574 160.982 157.023 155.826 150.547 149.086C148.516 146.973 146.327 145.017 143.889 143.179C143.792 143.102 143.748 142.971 143.732 142.903C143.534 142.085 142.932 141.54 142.662 140.724C142.657 140.709 142.624 140.669 142.613 140.658C142.584 140.627 142.569 140.62 142.542 140.587C142.123 140.085 141.792 139.53 141.511 138.84C141.505 138.826 141.473 138.788 141.463 138.777C141.434 138.747 141.425 138.736 141.404 138.701C140.955 137.95 140.44 137.237 140.079 136.331C140.075 136.321 140.052 136.292 140.045 136.284C140.017 136.249 139.998 136.212 139.976 136.172C135.922 128.678 133.1 120.758 131.947 112.243C131.347 107.818 131.135 103.369 130.799 98.9243C130.362 93.1688 129.03 87.6146 126.835 82.2597C123.537 74.2134 120.108 66.215 117.762 57.7973C116.029 51.5823 114.621 45.3134 114.13 38.8499C113.938 36.3138 113.545 33.7681 113.812 31.2438C113.988 29.5676 114.125 27.2638 114.537 25.1808C114.907 23.3082 116.302 23.0238 116.406 24.9322C116.445 25.698 116.424 26.4649 116.373 27.2277C115.721 37.3048 116.924 47.1532 119.563 56.9007C121.426 63.7861 123.729 70.4462 127.265 76.6182C129.485 80.497 131.787 84.3387 135.228 87.2745C135.808 87.7719 135.953 86.705 136.656 86.4138C136.887 86.3183 137.127 86.2527 137.353 86.1673C139.909 85.1968 141.844 83.3527 143.52 81.2822C145.905 78.3351 147.65 74.9896 148.842 71.3377C149.2 70.2403 149.086 69.1407 149.148 67.9847C149.17 67.5829 149.545 67.1574 149.909 67.3307C150.668 67.6921 150.898 67.6159 150.543 66.8537C150.377 66.499 150.198 66.1579 150.015 65.8215C145.69 57.9077 140.6 50.525 135.116 43.409C131.269 38.4183 126.92 33.9026 122.633 29.3336C121.014 27.6069 119.919 26.355 118.213 25.1915C117.091 24.426 114.851 23.4246 115.456 22.2151C115.48 22.1806 115.568 22.0764 115.598 22.0474C115.738 21.9122 115.888 21.7718 116.08 21.5874C116.117 21.5529 116.156 21.521 116.196 21.4894C116.221 21.4699 116.251 21.4454 116.286 21.4178C116.587 21.1775 117.05 20.8668 117.407 20.7204C120.051 19.6353 122.682 20.0984 125.117 20.7619C133.75 23.1102 141.233 27.804 148.472 32.978C151.212 34.9363 153.9 36.9759 156.541 39.0723C156.58 39.1031 156.619 39.1336 156.658 39.164C157.485 39.8082 157.086 40.9553 156.066 41.1816C155.384 41.3345 154.701 41.4905 154.03 41.6899C150.124 42.847 148.524 44.9752 148.933 49.7811C149.356 54.741 152.082 58.1235 156.469 60.0215C160.936 61.9528 165.585 62.8276 170.501 62.5935C175.131 62.3716 179.773 62.1962 184.401 61.9497C190.03 61.6496 195.667 61.5216 201.297 61.3935C204.732 61.3142 208.174 61.5635 211.618 61.8284C222.123 62.6376 232.302 65.4013 242.658 67.0992C245.305 67.5348 247.969 68.0047 250.7 67.5556C254.676 66.9043 256.599 65.2655 257.316 61.2175C257.82 58.36 258.141 55.4628 258.326 52.5551C258.579 48.532 256.974 45.5296 253.566 43.5067C252.365 42.7913 252.481 41.3829 253.545 40.4867C262.11 33.2765 271.546 27.8097 282.496 25.2893C284.387 24.853 286.332 24.5167 288.259 24.4716C288.972 24.4551 289.699 24.9614 290.437 25.4314C290.784 25.6529 291.086 25.9582 291.138 26.3664C291.155 26.5041 291.172 26.644 291.216 26.7954C291.217 26.8 291.229 26.8151 291.232 26.8188C291.252 26.8431 291.282 26.9355 291.285 26.9667C291.556 29.9325 291.48 32.8928 290.919 35.8285"/>
</mask>
<path d="M290.324 39.9173C289.725 44.8349 288.888 49.5699 287.821 54.2636C284.897 67.1042 280.749 79.4876 274.643 91.1201C273.694 92.9315 274.338 94.727 274.443 96.5142C274.555 98.4398 274.827 100.358 274.802 102.292C274.712 109.24 274.37 116.168 273.343 123.046C272.033 131.827 268.842 139.778 263.769 146.991C260.545 151.576 256.794 155.615 252.704 159.363C251.959 160.045 251.116 160.583 250.204 161.235C250.149 161.28 250.086 161.332 250.031 161.377C249.717 161.635 249.403 161.9 248.971 162.115C248.957 162.121 248.921 162.153 248.911 162.164C248.882 162.192 248.876 162.202 248.845 162.227C248.516 162.496 248.192 162.776 247.735 162.997C247.727 163.001 247.701 163.024 247.694 163.03C247.664 163.057 247.637 163.076 247.606 163.102C247.469 163.22 247.342 163.362 247.164 163.565C246.523 164.186 245.918 164.683 245.166 165.18C243.532 166.251 241.74 166.596 240.06 167.226C235.088 169.095 230.039 170.654 224.726 171.164C220.309 171.586 215.91 172.221 211.44 171.84C209.107 171.642 206.757 171.762 204.409 171.809C201.428 171.869 198.455 171.257 195.477 170.98C187.619 170.253 180.205 167.754 173.022 164.642C164.574 160.982 157.023 155.826 150.547 149.086C148.516 146.973 146.327 145.017 143.889 143.179C143.792 143.102 143.748 142.971 143.732 142.903C143.534 142.085 142.932 141.54 142.662 140.724C142.657 140.709 142.624 140.669 142.613 140.658C142.584 140.627 142.569 140.62 142.542 140.587C142.123 140.085 141.792 139.53 141.511 138.84C141.505 138.826 141.473 138.788 141.463 138.777C141.434 138.747 141.425 138.736 141.404 138.701C140.955 137.95 140.44 137.237 140.079 136.331C140.075 136.321 140.052 136.292 140.045 136.284C140.017 136.249 139.998 136.212 139.976 136.172C135.922 128.678 133.1 120.758 131.947 112.243C131.347 107.818 131.135 103.369 130.799 98.9243C130.362 93.1688 129.03 87.6146 126.835 82.2597C123.537 74.2134 120.108 66.215 117.762 57.7973C116.029 51.5823 114.621 45.3134 114.13 38.8499C113.938 36.3138 113.545 33.7681 113.812 31.2438C113.988 29.5676 114.125 27.2638 114.537 25.1808C114.907 23.3082 116.302 23.0238 116.406 24.9322C116.445 25.698 116.424 26.4649 116.373 27.2277C115.721 37.3048 116.924 47.1532 119.563 56.9007C121.426 63.7861 123.729 70.4462 127.265 76.6182C129.485 80.497 131.787 84.3387 135.228 87.2745C135.808 87.7719 135.953 86.705 136.656 86.4138C136.887 86.3183 137.127 86.2527 137.353 86.1673C139.909 85.1968 141.844 83.3527 143.52 81.2822C145.905 78.3351 147.65 74.9896 148.842 71.3377C149.2 70.2403 149.086 69.1407 149.148 67.9847C149.17 67.5829 149.545 67.1574 149.909 67.3307C150.668 67.6921 150.898 67.6159 150.543 66.8537C150.377 66.499 150.198 66.1579 150.015 65.8215C145.69 57.9077 140.6 50.525 135.116 43.409C131.269 38.4183 126.92 33.9026 122.633 29.3336C121.014 27.6069 119.919 26.355 118.213 25.1915C117.091 24.426 114.851 23.4246 115.456 22.2151C115.48 22.1806 115.568 22.0764 115.598 22.0474C115.738 21.9122 115.888 21.7718 116.08 21.5874C116.117 21.5529 116.156 21.521 116.196 21.4894C116.221 21.4699 116.251 21.4454 116.286 21.4178C116.587 21.1775 117.05 20.8668 117.407 20.7204C120.051 19.6353 122.682 20.0984 125.117 20.7619C133.75 23.1102 141.233 27.804 148.472 32.978C151.212 34.9363 153.9 36.9759 156.541 39.0723C156.58 39.1031 156.619 39.1336 156.658 39.164C157.485 39.8082 157.086 40.9553 156.066 41.1816C155.384 41.3345 154.701 41.4905 154.03 41.6899C150.124 42.847 148.524 44.9752 148.933 49.7811C149.356 54.741 152.082 58.1235 156.469 60.0215C160.936 61.9528 165.585 62.8276 170.501 62.5935C175.131 62.3716 179.773 62.1962 184.401 61.9497C190.03 61.6496 195.667 61.5216 201.297 61.3935C204.732 61.3142 208.174 61.5635 211.618 61.8284C222.123 62.6376 232.302 65.4013 242.658 67.0992C245.305 67.5348 247.969 68.0047 250.7 67.5556C254.676 66.9043 256.599 65.2655 257.316 61.2175C257.82 58.36 258.141 55.4628 258.326 52.5551C258.579 48.532 256.974 45.5296 253.566 43.5067C252.365 42.7913 252.481 41.3829 253.545 40.4867C262.11 33.2765 271.546 27.8097 282.496 25.2893C284.387 24.853 286.332 24.5167 288.259 24.4716C288.972 24.4551 289.699 24.9614 290.437 25.4314C290.784 25.6529 291.086 25.9582 291.138 26.3664C291.155 26.5041 291.172 26.644 291.216 26.7954C291.217 26.8 291.229 26.8151 291.232 26.8188C291.252 26.8431 291.282 26.9355 291.285 26.9667C291.556 29.9325 291.48 32.8928 290.919 35.8285" fill="white"/>
<path d="M287.821 54.2636L292.836 55.4301L292.836 55.4282L287.821 54.2636ZM274.643 91.1201L270.087 88.7114L270.086 88.7138L274.643 91.1201ZM274.443 96.5142L269.309 96.7881L269.309 96.7885L274.443 96.5142ZM274.802 102.292L269.659 102.197L269.659 102.199L274.802 102.292ZM273.343 123.046L268.256 122.26L268.256 122.261L273.343 123.046ZM263.769 146.991L267.98 149.965L267.981 149.965L263.769 146.991ZM252.704 159.363L256.188 163.164L256.189 163.163L252.704 159.363ZM247.164 163.565L250.752 167.269L250.902 167.123L251.04 166.965L247.164 163.565ZM245.166 165.18L248 169.487L248.01 169.48L248.02 169.474L245.166 165.18ZM240.06 167.226L238.232 162.409L238.229 162.41L240.06 167.226ZM224.726 171.164L225.241 176.284L225.243 176.284L224.726 171.164ZM211.44 171.84L211.85 166.715L211.849 166.715L211.44 171.84ZM204.409 171.809L204.28 166.667L204.279 166.667L204.409 171.809ZM195.477 170.98L195.928 165.859L195.924 165.859L195.477 170.98ZM173.022 164.642L170.998 169.36L170.998 169.36L173.022 164.642ZM150.547 149.086L154.246 145.532L154.246 145.532L150.547 149.086ZM143.889 143.179L140.708 147.204L140.757 147.242L140.807 147.28L143.889 143.179ZM143.732 142.903L148.735 141.74L148.733 141.73L148.73 141.72L143.732 142.903ZM131.947 112.243L137.043 111.579L137.043 111.578L131.947 112.243ZM130.799 98.9243L135.928 98.5635L135.927 98.5604L130.799 98.9243ZM126.835 82.2597L122.078 84.1897L122.078 84.1898L126.835 82.2597ZM117.762 57.7973L122.716 56.44L122.716 56.4388L117.762 57.7973ZM114.13 38.8499L109.002 39.2123L109.002 39.213L114.13 38.8499ZM113.812 31.2438L118.926 31.8101L118.927 31.8054L113.812 31.2438ZM116.373 27.2277L111.242 26.8601L111.241 26.8694L116.373 27.2277ZM119.563 56.9007L124.527 55.5813L124.527 55.5798L119.563 56.9007ZM127.265 76.6182L131.725 74.0802L131.724 74.0788L127.265 76.6182ZM137.353 86.1673L139.194 90.979L139.199 90.9769L137.353 86.1673ZM143.52 81.2822L147.523 84.5318L147.525 84.5302L143.52 81.2822ZM148.842 71.3377L143.952 69.7185L143.952 69.7194L148.842 71.3377ZM150.015 65.8215L154.529 63.3806L154.525 63.3724L150.015 65.8215ZM135.116 43.409L139.183 40.2822L139.183 40.2821L135.116 43.409ZM122.633 29.3336L118.89 32.8418L118.891 32.8429L122.633 29.3336ZM125.117 20.7619L123.789 25.7238L123.791 25.7243L125.117 20.7619ZM148.472 32.978L145.496 37.1572L145.496 37.1576L148.472 32.978ZM156.541 39.0723L153.356 43.0944L153.363 43.0996L153.369 43.1047L156.541 39.0723ZM154.03 41.6899L155.514 46.6219L155.516 46.6212L154.03 41.6899ZM148.933 49.7811L143.809 50.1918L143.809 50.1925L148.933 49.7811ZM156.469 60.0215L154.447 64.7403L154.449 64.7408L156.469 60.0215ZM170.501 62.5935L170.772 67.7309L170.773 67.7308L170.501 62.5935ZM184.401 61.9497L184.701 67.0857L184.701 67.0856L184.401 61.9497ZM201.297 61.3935L201.44 66.5354L201.442 66.5354L201.297 61.3935ZM211.618 61.8284L211.986 56.7003L211.986 56.7003L211.618 61.8284ZM242.658 67.0992L243.467 62.0243L243.465 62.0238L242.658 67.0992ZM250.7 67.5556L249.844 62.4799L249.841 62.4804L250.7 67.5556ZM257.316 61.2175L262.38 62.1388L262.38 62.1358L257.316 61.2175ZM258.326 52.5551L263.458 52.9063L263.458 52.9047L258.326 52.5551ZM282.496 25.2893L283.674 30.3018L283.677 30.3011L282.496 25.2893ZM288.259 24.4716L288.114 19.3297L288.113 19.3297L288.259 24.4716ZM291.285 26.9667L296.406 26.5237L291.285 26.9667ZM156.658 39.164L159.805 35.1125L156.658 39.164ZM156.066 41.1816L154.928 36.1602L154.917 36.1626L156.066 41.1816ZM115.598 22.0474L112.014 18.3409L115.598 22.0474ZM149.148 67.9847L154.284 68.2862L149.148 67.9847ZM136.656 86.4138L134.668 81.6606L136.656 86.4138ZM116.406 24.9322L121.542 24.6955L121.541 24.6871L121.541 24.6787L116.406 24.9322ZM139.976 136.172L135.456 138.602L139.976 136.172ZM141.404 138.701L145.814 136.079L141.404 138.701ZM253.566 43.5067L250.952 47.9224L250.958 47.9261L253.566 43.5067ZM253.545 40.4867L250.222 36.5448L253.545 40.4867ZM118.213 25.1915L115.331 29.436L118.213 25.1915ZM140.079 136.331L135.303 138.215L140.079 136.331ZM140.045 136.284L144.063 133.095L140.045 136.284ZM141.511 138.84L136.748 140.757L141.511 138.84ZM141.463 138.777L145.18 135.242L141.463 138.777ZM142.542 140.587L138.602 143.872L142.542 140.587ZM149.909 67.3307L147.718 71.9726L149.909 67.3307ZM150.543 66.8537L155.202 64.7003L150.543 66.8537ZM142.662 140.724L147.544 139.133L142.662 140.724ZM142.613 140.658L138.904 144.202L142.613 140.658ZM247.606 163.102L250.97 167.009L247.606 163.102ZM247.735 162.997L245.476 158.365L247.735 162.997ZM247.694 163.03L244.29 159.158L247.694 163.03ZM248.971 162.115L246.665 157.505L248.971 162.115ZM248.911 162.164L245.269 158.514L248.911 162.164ZM248.845 162.227L252.109 166.218L248.845 162.227ZM291.216 26.7954L296.154 25.383L291.216 26.7954ZM291.232 26.8188L295.205 23.5739L291.232 26.8188ZM250.204 161.235L247.199 157.046L247.078 157.133L246.963 157.226L250.204 161.235ZM250.031 161.377L253.302 165.363L250.031 161.377ZM116.08 21.5874L112.592 17.7897L112.546 17.832L112.501 17.8754L116.08 21.5874ZM290.437 25.4314L293.185 21.0983L290.437 25.4314ZM291.138 26.3664L286.036 26.9863L291.138 26.3664ZM285.219 39.2697C284.642 44.0072 283.836 48.5696 282.806 53.0991L292.836 55.4282C293.941 50.5701 294.808 45.6626 295.429 40.5649L285.219 39.2697ZM282.806 53.0971C279.956 65.6135 275.941 77.5585 270.087 88.7114L279.2 93.5287C285.557 81.4167 289.838 68.5949 292.836 55.4301L282.806 53.0971ZM270.086 88.7138C269.019 90.7493 268.927 92.6942 269.015 94.1169C269.056 94.7839 269.144 95.4194 269.2 95.8323C269.264 96.3101 269.296 96.5666 269.309 96.7881L279.577 96.2403C279.537 95.5682 279.449 94.9301 279.393 94.512C279.328 94.029 279.295 93.7673 279.281 93.5356C279.258 93.1609 279.318 93.3023 279.201 93.5264L270.086 88.7138ZM269.309 96.7885C269.457 99.3319 269.682 100.458 269.659 102.197L279.944 102.386C279.972 100.259 279.653 97.5478 279.577 96.2399L269.309 96.7885ZM269.659 102.199C269.571 109.035 269.235 115.706 268.256 122.26L278.429 123.831C279.505 116.63 279.853 109.445 279.944 102.385L269.659 102.199ZM268.256 122.261C267.064 130.252 264.174 137.453 259.558 144.018L267.981 149.965C273.51 142.102 277.001 133.403 278.429 123.83L268.256 122.261ZM259.558 144.018C256.594 148.231 253.11 151.998 249.219 155.563L256.189 163.163C260.479 159.232 264.495 154.92 267.98 149.965L259.558 144.018ZM249.22 155.562C248.778 155.967 248.404 156.185 247.199 157.046L253.21 165.424C253.829 164.981 255.14 164.124 256.188 163.164L249.22 155.562ZM246.76 157.392C246.738 157.41 246.716 157.428 246.698 157.443C246.678 157.459 246.661 157.473 246.645 157.486C246.612 157.513 246.586 157.534 246.565 157.551C246.521 157.586 246.503 157.599 246.5 157.601C246.499 157.602 246.516 157.59 246.546 157.572C246.577 157.552 246.617 157.529 246.665 157.505L251.276 166.724C252.313 166.209 253.066 165.556 253.302 165.363L246.76 157.392ZM245.581 158.236C245.535 158.274 245.482 158.317 245.45 158.343C245.412 158.375 245.384 158.398 245.359 158.418C245.309 158.458 245.29 158.472 245.286 158.475C245.285 158.476 245.304 158.462 245.339 158.44C245.375 158.418 245.422 158.392 245.476 158.365L249.994 167.629C251.099 167.095 251.907 166.384 252.109 166.218L245.581 158.236ZM244.241 159.195C243.783 159.589 243.422 160.012 243.288 160.166L251.04 166.965C251.083 166.916 251.111 166.885 251.133 166.86C251.154 166.836 251.16 166.83 251.157 166.833C251.15 166.841 251.082 166.913 250.97 167.009L244.241 159.195ZM243.576 159.862C243.139 160.286 242.777 160.58 242.313 160.887L248.02 169.474C249.059 168.786 249.907 168.087 250.752 167.269L243.576 159.862ZM242.333 160.874C242.019 161.079 241.609 161.27 240.925 161.508C240.587 161.624 239.015 162.116 238.232 162.409L241.888 172.042C242.785 171.706 242.948 171.71 244.336 171.229C245.376 170.869 246.679 170.353 248 169.487L242.333 160.874ZM238.229 162.41C233.416 164.219 228.86 165.598 224.209 166.044L225.243 176.284C231.219 175.71 236.759 173.97 241.891 172.042L238.229 162.41ZM224.211 166.044C219.451 166.499 215.72 167.045 211.85 166.715L211.029 176.964C216.1 177.396 221.167 176.673 225.241 176.284L224.211 166.044ZM211.849 166.715C209.165 166.487 206.404 166.624 204.28 166.667L204.538 176.951C207.11 176.9 209.049 176.796 211.031 176.965L211.849 166.715ZM204.279 166.667C203.154 166.69 201.949 166.586 200.534 166.415C199.249 166.26 197.499 166.005 195.928 165.859L195.026 176.101C196.433 176.232 197.658 176.422 199.35 176.627C200.911 176.816 202.683 176.989 204.539 176.951L204.279 166.667ZM195.924 165.859C188.837 165.203 181.993 162.934 175.045 159.924L170.998 169.36C178.418 172.574 186.401 175.303 195.029 176.101L195.924 165.859ZM175.045 159.924C167.206 156.528 160.23 151.76 154.246 145.532L146.848 152.64C153.815 159.892 161.942 165.437 170.998 169.36L175.045 159.924ZM154.246 145.532C152.029 143.225 149.635 141.085 146.972 139.077L140.807 147.28C143.02 148.948 145.003 150.72 146.848 152.64L154.246 145.532ZM147.071 139.154C147.812 139.742 148.199 140.397 148.381 140.764C148.574 141.151 148.677 141.494 148.735 141.74L138.728 144.067C138.809 144.408 139.19 146 140.708 147.204L147.071 139.154ZM148.73 141.72C148.42 140.433 147.807 139.47 147.603 139.138C147.302 138.648 147.452 138.853 147.544 139.133L137.78 142.316C137.974 142.903 138.209 143.383 138.404 143.741C138.582 144.066 138.779 144.38 138.845 144.487C139.059 144.836 138.846 144.556 138.733 144.087L148.73 141.72ZM146.482 137.302C146.436 137.246 146.371 137.162 146.274 136.924L136.748 140.757C137.213 141.898 137.81 142.924 138.602 143.872L146.482 137.302ZM145.814 136.079C145.669 135.835 145.522 135.601 145.411 135.424C145.29 135.231 145.202 135.09 145.121 134.954C144.965 134.693 144.895 134.549 144.854 134.447L135.303 138.215C135.868 139.632 136.823 141.038 136.993 141.323L145.814 136.079ZM144.496 133.743C140.694 126.714 138.101 119.389 137.043 111.579L126.85 112.908C128.099 122.128 131.149 130.641 135.456 138.602L144.496 133.743ZM137.043 111.578C136.47 107.355 136.277 103.197 135.928 98.5635L125.671 99.2852C125.992 103.54 126.223 108.281 126.851 112.909L137.043 111.578ZM135.927 98.5604C135.448 92.2573 133.989 86.1752 131.592 80.3296L122.078 84.1898C124.072 89.0539 125.275 94.0802 125.671 99.2882L135.927 98.5604ZM131.592 80.3297C128.242 72.1574 124.96 64.4943 122.716 56.44L112.809 59.1546C115.256 67.9358 118.832 76.2694 122.078 84.1897L131.592 80.3297ZM122.716 56.4388C121.024 50.3754 119.713 44.472 119.258 38.4869L109.002 39.213C109.529 46.1547 111.033 52.7892 112.809 59.1558L122.716 56.4388ZM119.258 38.4875C119.025 35.4074 118.725 33.7177 118.926 31.8101L108.698 30.6774C108.366 33.8186 108.851 37.2202 109.002 39.2123L119.258 38.4875ZM118.927 31.8054C119.137 29.7959 119.23 27.9815 119.582 26.2035L109.491 24.1581C109.019 26.5461 108.838 29.3393 108.697 30.6822L118.927 31.8054ZM111.27 25.1689C111.295 25.6718 111.284 26.2259 111.242 26.8601L121.505 27.5954C121.564 26.7039 121.594 25.7242 121.542 24.6955L111.27 25.1689ZM111.241 26.8694C110.548 37.5827 111.832 48.0008 114.6 58.2215L124.527 55.5798C122.015 46.3056 120.894 37.0269 121.505 27.5861L111.241 26.8694ZM114.6 58.22C116.517 65.3096 118.96 72.4435 122.806 79.1575L131.724 74.0788C128.499 68.449 126.334 62.2625 124.527 55.5813L114.6 58.22ZM122.805 79.1561C124.999 82.9892 127.69 87.5866 131.901 91.1798L138.554 83.3692C135.884 81.0908 133.971 78.0049 131.725 74.0802L122.805 79.1561ZM138.645 91.167C138.58 91.1942 138.548 91.2024 138.655 91.1668C138.687 91.1563 138.782 91.1248 138.858 91.0991C138.945 91.0695 139.062 91.0287 139.194 90.979L135.511 81.3556C135.53 81.3485 135.533 81.348 135.504 81.3577C135.464 81.3713 135.443 81.3782 135.357 81.4068C135.23 81.4491 134.964 81.5379 134.668 81.6606L138.645 91.167ZM139.199 90.9769C142.985 89.5396 145.611 86.8933 147.523 84.5318L139.518 78.0327C138.077 79.812 136.833 80.854 135.506 81.3577L139.199 90.9769ZM147.525 84.5302C150.34 81.0506 152.366 77.1392 153.732 72.9559L143.952 69.7194C142.934 72.8401 141.47 75.6196 139.516 78.0343L147.525 84.5302ZM153.731 72.9568C154.117 71.776 154.211 70.7019 154.244 69.9316C154.26 69.5576 154.264 69.1879 154.267 68.9344C154.27 68.65 154.274 68.4592 154.284 68.2862L144.013 67.6832C143.991 68.0882 143.986 68.4684 143.982 68.7496C143.978 69.0616 143.976 69.2521 143.968 69.4347C143.953 69.7776 143.925 69.8019 143.952 69.7185L153.731 72.9568ZM155.202 64.7003C154.971 64.2053 154.734 63.7576 154.529 63.3806L145.501 68.2623C145.662 68.5581 145.783 68.7927 145.883 69.0071L155.202 64.7003ZM154.525 63.3724C150.032 55.1517 144.775 47.5382 139.183 40.2822L131.048 46.5357C136.425 53.5118 141.348 60.6638 145.505 68.2705L154.525 63.3724ZM139.183 40.2821C135.145 35.0439 130.586 30.3121 126.375 25.8243L118.891 32.8429C123.255 37.493 127.393 41.7926 131.048 46.5358L139.183 40.2821ZM126.376 25.8254C124.908 24.26 123.38 22.5049 121.096 20.9469L115.331 29.436C116.458 30.2051 117.12 30.9538 118.89 32.8418L126.376 25.8254ZM119.183 25.7539C119.46 25.4861 119.257 25.6857 119.658 25.2993L112.501 17.8754C112.419 17.9547 112.344 18.0255 112.265 18.1006C112.19 18.1719 112.102 18.256 112.014 18.3409L119.183 25.7539ZM119.4 25.5283C119.431 25.5041 119.467 25.4757 119.505 25.4455L113.067 17.3902C113.036 17.4151 113.01 17.4357 112.991 17.4504L119.4 25.5283ZM119.38 25.4802C120.363 25.0766 121.556 25.1156 123.789 25.7238L126.445 15.7999C123.807 15.0812 119.74 14.1941 115.434 15.9606L119.38 25.4802ZM123.791 25.7243C131.502 27.8219 138.369 32.0635 145.496 37.1572L151.448 28.7987C144.097 23.5445 135.998 18.3986 126.443 15.7994L123.791 25.7243ZM145.496 37.1576C148.156 39.0585 150.774 41.0445 153.356 43.0944L159.725 35.0501C157.026 32.9073 154.268 30.8142 151.447 28.7983L145.496 37.1576ZM153.369 43.1047C153.424 43.1481 153.482 43.1926 153.511 43.2155L159.805 35.1125C159.757 35.0745 159.736 35.0582 159.712 35.0398L153.369 43.1047ZM154.917 36.1626C154.242 36.3138 153.403 36.5036 152.543 36.7586L155.516 46.6212C156 46.4775 156.526 46.3552 157.215 46.2006L154.917 36.1626ZM152.546 36.7579C150.017 37.507 147.328 38.8309 145.558 41.5326C143.822 44.1807 143.559 47.2606 143.809 50.1918L154.057 49.3705C153.897 47.4957 154.23 47.1086 154.169 47.2019C154.073 47.3487 154.136 47.0299 155.514 46.6219L152.546 36.7579ZM143.809 50.1925C144.408 57.2156 148.474 62.1558 154.447 64.7403L158.491 55.3027C155.69 54.0912 154.304 52.2665 154.057 49.3698L143.809 50.1925ZM154.449 64.7408C159.626 66.979 165.057 68.003 170.772 67.7309L170.23 57.4561C166.113 57.6521 162.247 56.9266 158.489 55.3022L154.449 64.7408ZM170.773 67.7308C175.317 67.5131 180.072 67.3322 184.701 67.0857L184.101 56.8137C179.474 57.0602 174.946 57.2301 170.229 57.4561L170.773 67.7308ZM184.701 67.0856C190.239 66.7904 195.796 66.6638 201.44 66.5354L201.154 56.2516C195.537 56.3794 189.822 56.5088 184.101 56.8137L184.701 67.0856ZM201.442 66.5354C204.585 66.4628 207.784 66.69 211.249 66.9565L211.986 56.7003C208.563 56.4371 204.879 56.1656 201.152 56.2516L201.442 66.5354ZM211.249 66.9564C216.199 67.3377 221.136 68.1848 226.235 69.1786C231.24 70.1543 236.574 71.3094 241.851 72.1746L243.465 62.0238C238.386 61.1912 233.453 60.1155 228.153 59.0825C222.947 58.0677 217.542 57.1283 211.986 56.7003L211.249 66.9564ZM241.848 72.1741C244.303 72.5781 247.841 73.2422 251.56 72.6308L249.841 62.4804C248.097 62.7671 246.306 62.4915 243.467 62.0243L241.848 72.1741ZM251.557 72.6313C254.023 72.2273 256.637 71.4024 258.751 69.4272C260.91 67.4104 261.909 64.7987 262.38 62.1388L252.251 60.2961C252.128 60.9912 251.985 61.3983 251.879 61.6238C251.785 61.8254 251.722 61.8818 251.71 61.8934C251.689 61.9124 251.353 62.2326 249.844 62.4799L251.557 72.6313ZM262.38 62.1358C262.922 59.0636 263.264 55.9746 263.458 52.9063L253.193 52.2039C253.019 54.951 252.717 57.6563 252.251 60.2991L262.38 62.1358ZM263.458 52.9047C263.634 50.116 263.177 47.3829 261.864 44.897C260.55 42.41 258.555 40.5003 256.174 39.0873L250.958 47.9261C251.986 48.536 252.497 49.1389 252.774 49.6647C253.052 50.1915 253.271 50.9711 253.193 52.2055L263.458 52.9047ZM256.869 44.4286C264.991 37.5912 273.713 32.5946 283.674 30.3018L281.319 20.2768C269.379 23.0249 259.23 28.9618 250.222 36.5448L256.869 44.4286ZM283.677 30.3011C285.404 29.9025 286.97 29.647 288.406 29.6134L288.113 19.3297C285.693 19.3864 283.369 19.8035 281.316 20.2774L283.677 30.3011ZM288.405 29.6134C287.951 29.6239 287.597 29.5487 287.379 29.4853C287.169 29.424 287.048 29.3619 287.04 29.3582C287.032 29.3541 287.072 29.3741 287.195 29.4501C287.253 29.4863 287.319 29.5282 287.404 29.5823C287.473 29.6266 287.594 29.7046 287.688 29.7644L293.185 21.0983C292.965 20.958 292.298 20.5135 291.637 20.18C290.954 19.8349 289.699 19.293 288.114 19.3297L288.405 29.6134ZM286.036 26.9863C286.045 27.0594 286.102 27.6026 286.278 28.2078L296.154 25.383C296.202 25.55 296.228 25.6828 296.239 25.754C296.245 25.7877 296.248 25.8086 296.248 25.8068C296.247 25.7995 296.246 25.7932 296.24 25.7464L286.036 26.9863ZM286.163 27.4098C286.398 29.9769 286.324 32.4475 285.867 34.838L295.97 36.8189C296.635 33.3381 296.714 29.888 296.406 26.5237L286.163 27.4098ZM287.258 30.0637C286.988 29.7334 286.821 29.4431 286.748 29.3128C286.661 29.1565 286.599 29.0254 286.561 28.9408C286.485 28.7728 286.435 28.6344 286.404 28.5458C286.372 28.4519 286.338 28.343 286.305 28.2186C286.291 28.1656 286.203 27.8414 286.163 27.4098L296.406 26.5237C296.343 25.8409 296.149 25.304 296.125 25.2345C296.084 25.1159 296.022 24.9479 295.935 24.7547C295.902 24.6812 295.668 24.1397 295.205 23.5739L287.258 30.0637ZM153.511 43.2155C152.214 42.205 151.633 40.4101 152.146 38.7695C152.605 37.3041 153.771 36.4168 154.928 36.1602L157.205 46.2029C159.381 45.72 161.256 44.146 161.963 41.8894C162.725 39.4577 161.93 36.7672 159.805 35.1125L153.511 43.2155ZM119.708 25.1303C119.639 25.2309 119.583 25.305 119.563 25.3318C119.536 25.367 119.515 25.3936 119.503 25.4084C119.479 25.4379 119.462 25.458 119.453 25.4687C119.444 25.4797 119.428 25.4983 119.404 25.5244C119.393 25.5376 119.372 25.5608 119.344 25.5906C119.322 25.6134 119.264 25.6757 119.183 25.7539L112.014 18.3409C111.794 18.5536 111.614 18.7696 111.597 18.7896C111.586 18.8024 111.389 19.0301 111.205 19.2998L119.708 25.1303ZM154.284 68.2862C154.222 69.4384 153.723 70.4464 152.953 71.179C152.132 71.9593 150.09 73.1016 147.718 71.9726L152.1 62.6888C149.364 61.3865 146.953 62.6549 145.848 63.705C144.793 64.7075 144.096 66.1291 144.013 67.6832L154.284 68.2862ZM131.892 91.1724C132.327 91.5448 133.029 92.0413 134.003 92.327C135.066 92.639 136.182 92.6177 137.213 92.2816C138.152 91.9755 138.8 91.4812 139.16 91.1648C139.519 90.8484 139.772 90.5444 139.886 90.4054C139.951 90.3256 140.007 90.2543 140.04 90.2116C140.091 90.1452 140.083 90.1557 140.109 90.1221C140.137 90.0858 140.098 90.1388 140.025 90.2188C139.887 90.37 139.434 90.8403 138.645 91.167L134.668 81.6606C133.527 82.133 132.793 82.8458 132.412 83.2633C132.217 83.4766 132.066 83.6687 131.988 83.7684C131.967 83.7949 131.948 83.8193 131.934 83.8372C131.918 83.8579 131.911 83.868 131.902 83.8794C131.884 83.9019 131.89 83.8939 131.906 83.8744C131.921 83.8558 132.078 83.6599 132.339 83.4303C132.6 83.2005 133.148 82.7715 133.98 82.5C134.905 82.1985 135.909 82.1812 136.851 82.4575C137.703 82.7075 138.274 83.1286 138.563 83.3766L131.892 91.1724ZM119.582 26.2035C119.567 26.277 119.491 26.6206 119.171 27.0726C118.914 27.4346 118.071 28.4459 116.425 28.7147C114.373 29.0499 112.73 27.9846 111.937 26.8702C111.3 25.9753 111.272 25.219 111.271 25.1858L121.541 24.6787C121.487 23.6912 121.246 22.2548 120.307 20.935C119.212 19.3956 117.177 18.1607 114.717 18.5625C112.663 18.8979 111.396 20.2121 110.77 21.0945C110.081 22.0669 109.691 23.1483 109.491 24.1581L119.582 26.2035ZM144.063 133.095C144.232 133.307 144.351 133.494 144.423 133.614C144.479 133.709 144.528 133.802 144.496 133.743L135.456 138.602C135.456 138.603 135.457 138.604 135.459 138.607C135.46 138.61 135.463 138.615 135.466 138.62C135.471 138.63 135.48 138.647 135.491 138.667C135.513 138.706 135.548 138.77 135.594 138.846C135.688 139.003 135.83 139.226 136.027 139.474L144.063 133.095ZM145.18 135.242C145.181 135.243 145.19 135.252 145.202 135.265C145.214 135.278 145.234 135.3 145.26 135.328C145.313 135.387 145.389 135.475 145.476 135.587C145.66 135.822 145.779 136.02 145.814 136.079L136.993 141.323C137.257 141.765 137.523 142.078 137.746 142.313L145.18 135.242ZM256.18 39.091C256.565 39.32 257.018 39.7141 257.364 40.3174C257.711 40.9225 257.861 41.5839 257.847 42.2011C257.822 43.4004 257.228 44.1261 256.869 44.4286L250.222 36.5448C248.798 37.7435 247.614 39.6215 247.564 41.9279C247.51 44.4495 248.847 46.669 250.952 47.9224L256.18 39.091ZM121.096 20.9469C120.681 20.6639 120.121 20.3312 119.902 20.1964C119.565 19.9891 119.427 19.892 119.377 19.8521C119.264 19.7625 119.683 20.0483 120.041 20.7426C120.249 21.1453 120.465 21.742 120.494 22.4898C120.523 23.2621 120.343 23.9662 120.057 24.5361L110.855 19.894C109.867 21.8674 110.121 23.9013 110.906 25.4229C111.549 26.6691 112.484 27.4798 112.996 27.8874C113.571 28.3448 114.166 28.7172 114.546 28.9508C115.043 29.2568 115.184 29.3363 115.331 29.436L121.096 20.9469ZM144.854 134.447C144.715 134.098 144.568 133.843 144.515 133.751C144.444 133.629 144.381 133.534 144.344 133.478C144.269 133.366 144.205 133.28 144.176 133.24C144.114 133.158 144.057 133.087 144.063 133.095L136.027 139.474C136.04 139.49 135.998 139.437 135.95 139.373C135.928 139.344 135.871 139.267 135.801 139.163C135.767 139.111 135.707 139.02 135.638 138.902C135.586 138.813 135.441 138.561 135.303 138.215L144.854 134.447ZM146.274 136.924C146.04 136.349 145.745 135.941 145.723 135.909C145.632 135.778 145.553 135.676 145.508 135.62C145.433 135.525 145.32 135.389 145.18 135.242L137.746 142.313C137.616 142.177 137.525 142.065 137.469 141.996C137.435 141.952 137.365 141.862 137.282 141.743C137.24 141.683 137.173 141.583 137.096 141.455C137.034 141.351 136.888 141.1 136.748 140.757L146.274 136.924ZM146.322 137.114C146.15 136.934 145.97 136.775 146.026 136.826C146.053 136.85 146.127 136.918 146.218 137.011C146.312 137.106 146.4 137.204 146.482 137.302L138.602 143.872C138.697 143.986 138.797 144.097 138.903 144.204C139.005 144.308 139.09 144.386 139.127 144.42C139.205 144.49 139.047 144.351 138.904 144.202L146.322 137.114ZM147.718 71.9726C148 72.1069 148.509 72.3383 149.114 72.4947C149.42 72.574 149.943 72.6859 150.588 72.6827C151.222 72.6796 152.319 72.5625 153.434 71.8482C156.155 70.1043 155.883 67.1995 155.784 66.5513C155.654 65.6936 155.343 65.0034 155.202 64.7003L145.883 69.0071C145.88 68.9991 145.845 68.9241 145.8 68.7979C145.761 68.6863 145.673 68.4205 145.616 68.0499C145.551 67.619 145.24 64.8536 147.854 63.1789C148.914 62.4991 149.94 62.3991 150.485 62.3964C151.041 62.3936 151.459 62.4894 151.643 62.537C152.001 62.6298 152.197 62.7353 152.1 62.6888L147.718 71.9726ZM147.544 139.133C147.316 138.444 146.985 137.958 146.959 137.919C146.858 137.762 146.767 137.641 146.716 137.574C146.632 137.466 146.497 137.297 146.322 137.114L138.904 144.202C138.799 144.092 138.724 144.003 138.696 143.97C138.656 143.922 138.611 143.867 138.564 143.805C138.523 143.751 138.442 143.644 138.348 143.5C138.301 143.427 138.225 143.307 138.142 143.153C138.073 143.027 137.915 142.726 137.78 142.316L147.544 139.133ZM244.29 159.158C244.34 159.113 244.383 159.078 244.413 159.053C244.428 159.041 244.44 159.032 244.447 159.026C244.453 159.021 244.457 159.018 244.455 159.02C244.455 159.02 244.454 159.021 244.453 159.021C244.452 159.022 244.451 159.023 244.449 159.024C244.446 159.027 244.442 159.03 244.437 159.034C244.426 159.042 244.411 159.055 244.392 159.07C244.355 159.1 244.302 159.143 244.241 159.195L250.97 167.009C250.925 167.048 250.887 167.079 250.864 167.097C250.847 167.112 250.829 167.125 250.845 167.113C250.862 167.1 250.971 167.014 251.099 166.902L244.29 159.158ZM245.476 158.365C245.152 158.522 244.918 158.679 244.842 158.73C244.735 158.802 244.652 158.864 244.605 158.9C244.509 158.972 244.435 159.033 244.403 159.061C244.336 159.117 244.272 159.173 244.29 159.158L251.099 166.902C251.124 166.88 251.076 166.923 251.026 166.965C251.001 166.985 250.936 167.04 250.848 167.106C250.804 167.14 250.724 167.199 250.621 167.269C250.567 167.305 250.492 167.354 250.401 167.409C250.314 167.461 250.174 167.542 249.994 167.629L245.476 158.365ZM246.665 157.505C246.196 157.738 245.864 157.999 245.835 158.021C245.725 158.104 245.64 158.175 245.592 158.216C245.511 158.285 245.395 158.388 245.269 158.514L252.553 165.814C252.437 165.929 252.344 166.011 252.287 166.059C252.251 166.09 252.178 166.152 252.079 166.226C252.03 166.264 251.948 166.324 251.844 166.395C251.759 166.452 251.555 166.586 251.276 166.724L246.665 157.505ZM119.505 25.4455C119.504 25.446 119.517 25.4359 119.54 25.4192C119.563 25.4028 119.585 25.3878 119.603 25.3768C119.622 25.3648 119.621 25.3662 119.599 25.378C119.587 25.3845 119.564 25.3967 119.531 25.4128C119.498 25.4286 119.447 25.4524 119.38 25.4802L115.434 15.9606C114.43 16.3724 113.531 17.0201 113.067 17.3902L119.505 25.4455ZM245.269 158.514C245.221 158.561 245.185 158.599 245.165 158.62C245.161 158.624 245.158 158.628 245.157 158.629C245.155 158.63 245.157 158.629 245.159 158.626C245.164 158.622 245.179 158.606 245.199 158.585C245.245 158.538 245.309 158.476 245.386 158.405C245.461 158.336 245.528 158.28 245.581 158.236L252.109 166.218C252.178 166.162 252.258 166.095 252.343 166.017C252.431 165.936 252.504 165.864 252.559 165.808C252.595 165.771 252.644 165.72 252.621 165.745C252.611 165.755 252.586 165.781 252.553 165.814L245.269 158.514ZM286.278 28.2078C286.421 28.6983 286.606 29.0546 286.657 29.1525C286.735 29.3031 286.806 29.4198 286.845 29.4841C286.926 29.6145 286.995 29.7142 287.027 29.7597C287.085 29.8413 287.163 29.9472 287.258 30.0637L295.205 23.5739C295.298 23.6867 295.368 23.7832 295.419 23.8552C295.448 23.8959 295.514 23.9907 295.592 24.1169C295.63 24.179 295.699 24.2937 295.777 24.4427C295.817 24.519 295.872 24.6294 295.931 24.7654C295.986 24.8918 296.074 25.1068 296.154 25.383L286.278 28.2078ZM246.963 157.226C246.892 157.283 246.765 157.387 246.76 157.392L253.302 165.363C253.407 165.276 253.406 165.277 253.446 165.244L246.963 157.226ZM119.567 25.385C119.473 25.4718 119.402 25.5273 119.4 25.5283L112.991 17.4504C112.91 17.5147 112.762 17.6341 112.592 17.7897L119.567 25.385ZM287.688 29.7644C287.554 29.6788 287.237 29.46 286.907 29.0515C286.552 28.6131 286.153 27.9147 286.036 26.9863L296.24 25.7464C295.899 23.0514 293.999 21.617 293.185 21.0983L287.688 29.7644Z" fill="#2C4075" mask="url(#path-6-inside-1_2370_12387)"/>
<path d="M251.621 41.9057C252.741 42.5529 253.768 43.1756 254.764 43.8525C257.442 45.6738 258.833 48.2762 258.645 51.5278C258.443 54.9906 258.049 58.4504 257.566 61.8827C257.086 65.2813 254.966 67.4111 251.703 67.6864C248.602 67.9454 245.398 67.8787 242.327 67.3803C234.923 66.1769 227.585 64.5428 220.193 63.2539C210.178 61.5056 200.081 61.6705 189.98 62.0718C182.094 62.3849 174.208 62.9037 166.323 62.8638C161.681 62.8397 157.123 61.5134 153.283 58.5923C149.125 55.4275 147.837 51.0537 148.795 45.942C149.094 44.3459 149.955 43.0136 151.415 42.4252C152.729 41.8951 154.099 41.5077 155.499 41.0925C156.697 40.7373 157.937 40.6109 159.119 40.2057C159.79 39.9112 160.573 39.8228 160.872 39.3874C167.332 29.9708 176.238 24.4773 187.131 22.0876C210.429 16.9763 230.224 24.2356 247.639 40.1068C248.647 41.0297 250.208 41.3197 251.621 41.9057Z" fill="#2C4075"/>
<path d="M149.491 66.9404C149.874 71.9573 147.674 75.8499 145.051 79.6859C143.32 82.2182 141.44 84.4755 138.736 85.9018C138.436 86.0601 138.125 86.197 137.803 86.3244C136.626 86.7892 135.318 86.8753 134.581 85.8412C126.683 74.7816 121.409 62.6033 119.149 49.0548C117.877 41.4271 117.14 33.7491 116.371 26.07C116.279 25.1478 117.341 24.6335 117.959 25.3262C118.022 25.396 118.084 25.4655 118.147 25.5318C127.305 35.1675 136.085 45.1257 143.393 56.3504C145.2 59.1229 147.009 61.8924 148.672 64.7555C149.044 65.4 149.538 66.0177 149.491 66.9404Z" fill="#FF5757"/>
<path d="M272.116 86.6844C271.706 87.8681 270.463 88.4404 269.26 88.0792C268.098 87.7302 267.169 86.9653 266.404 85.938C263.408 81.9112 261.337 77.4016 259.965 72.5553C259.907 72.3536 259.866 72.1473 259.833 71.9364C259.651 70.7941 259.265 69.5892 259.826 68.5816C259.855 68.5291 259.883 68.4767 259.909 68.424C266.337 55.5309 274.114 43.5717 283.581 32.8032C284.014 32.3102 284.407 31.757 284.85 31.2566C285.689 30.3094 287.114 30.6217 286.937 31.877C284.617 48.1205 280.86 63.9768 274.905 79.2432C273.944 81.7083 272.976 84.1762 272.116 86.6844Z" fill="#FF5757"/>
<path d="M180.578 116.878C179.477 116.625 179.137 115.516 180.049 114.855C181.82 113.571 183.935 112.997 186.09 112.611C190.14 111.885 194.206 112.118 198.256 112.853C200.208 113.208 201.724 114.552 203.02 116.059C204.021 117.224 205.401 117.908 207.172 118.149C208.269 118.298 209.128 118.811 209.59 119.919C210.205 121.405 210.918 122.879 210.257 124.339C208.96 127.209 206.759 129.156 203.506 129.762C194.06 131.517 185.148 130.234 177.314 123.997C176.604 123.431 175.818 122.958 175.137 122.258C174.842 121.954 174.678 121.551 174.652 121.129C174.634 120.82 174.642 120.467 174.881 120.272C174.983 120.189 175.099 120.151 175.219 120.153C176.928 120.202 178.641 120.236 180.287 120.415C179.541 120.225 178.748 120.269 177.944 120.255C176.469 120.229 176.011 118.657 176.881 117.47C177.252 116.964 177.804 116.549 178.432 116.572C179.155 116.598 179.859 116.8 180.578 116.878Z" fill="#FF6501" fill-opacity="0.25"/>
<path d="M246.735 124.214C246.809 124.249 246.868 124.31 246.897 124.387C246.996 124.659 247.025 124.901 247.158 125.047C250.678 128.928 248.675 132.708 244.419 134.381C241.507 135.525 238.506 136.066 235.385 135.968C234.231 135.931 233.06 135.396 233.492 134.328C233.497 134.315 233.502 134.302 233.508 134.289C233.739 133.729 234.172 133.259 234.747 133.067C235.797 132.716 236.87 132.718 237.906 132.547C240.48 132.117 242.966 131.421 245.253 130.107C245.864 129.754 245.479 129.37 244.843 129.677C241.815 131.138 238.634 131.782 235.407 132.171C230.891 132.716 226.346 132.76 221.864 131.826C217.725 130.964 214.686 128.619 213.24 124.405C212.888 123.385 213.374 122.334 214.161 121.602C215.036 120.788 215.957 120.072 216.69 119.147C217.01 118.74 217.575 118.73 218.076 118.719C218.722 118.706 219.366 118.742 220.011 118.754C223.371 118.813 226.51 115.589 229.828 116.143C234.967 117.001 239.698 119.093 244.108 122.207C244.327 122.361 244.504 122.58 244.728 122.847C244.77 122.898 244.767 122.983 244.726 123.034C244.612 123.173 244.631 123.628 244.808 123.662C245.462 123.787 246.107 123.916 246.735 124.214Z" fill="#FF6501" fill-opacity="0.25"/>
<path d="M230.082 133.68C230.971 134.558 229.706 135.628 228.465 135.504C226.854 135.342 225.265 135.143 223.705 134.802C222.238 134.482 221.336 134.855 220.556 136.079C218.998 138.531 217.221 140.721 214.481 141.956C209.981 143.978 204.26 142.261 202.121 137.728C200.969 135.29 199.556 134.467 197.028 134.646C195.775 134.734 194.506 134.597 193.202 134.444C191.84 134.284 190.561 133.245 191.365 132.14C191.752 131.607 192.353 131.189 193.009 131.119C193.884 131.025 194.724 131.146 195.556 131.172C198.557 131.269 201.549 131.271 204.511 130.713C207.507 130.146 209.527 128.348 210.7 125.5C210.795 125.269 210.869 125.021 210.961 124.784C211.285 123.95 212.304 123.973 212.597 124.821C214.392 129.988 218.341 132.108 223.295 133.018C225.24 133.376 227.167 133.035 229.176 133.273C229.5 133.312 229.85 133.45 230.082 133.68Z" fill="#FF6501" fill-opacity="0.25"/>
<path d="M271.022 88.4411C271.024 88.3964 271.032 88.3629 271.046 88.3208C273.955 80.0554 277.166 71.9942 279.663 63.7022C281.887 56.3286 283.387 48.7168 285.066 41.1752C285.77 38.0079 286.114 34.7523 286.606 31.5352C286.688 31.003 285.968 30.7272 285.606 31.125C274.907 42.9 266.509 55.8857 259.544 70.0123C259.285 70.6017 259.045 71.1105 258.806 71.6087C258.745 71.7365 258.599 71.7975 258.464 71.751C258.325 71.7026 258.246 71.5533 258.285 71.4111C258.67 69.9844 258.893 68.4739 259.546 67.1908C262.409 61.5419 265.173 55.8161 268.429 50.4071C273.247 42.4021 279.069 35.1448 285.608 28.5217C286.511 27.6105 288.665 28.4932 288.485 29.766C287.558 36.3679 286.771 43.0111 285.448 49.5325C283.13 60.9405 279.71 72.0242 275.021 82.6585C274.164 84.605 273.141 86.4786 272.147 88.3623C272.066 88.5161 271.955 88.6534 271.816 88.7986C271.535 89.0931 271.008 88.8493 271.022 88.4411Z" fill="#2C4075"/>
<path d="M149.814 67.2888C146.903 62.6538 144.178 58.0186 141.202 53.5596C134.302 43.22 125.933 34.141 117.438 25.1867C117.276 25.0192 116.991 25.2218 117.004 25.4537C117.058 26.378 117.097 27.2279 117.182 28.0707C118.1 37.0287 118.942 45.9996 120.957 54.7966C123.245 64.8029 127.285 74.0245 132.982 82.4953C133.972 83.967 134.96 85.4415 136.021 86.9666C136.08 87.0516 136.133 87.1412 136.172 87.2371C136.341 87.6529 136.327 87.8981 136.436 88.2712C136.464 88.3662 136.437 88.4704 136.362 88.5349C136.268 88.6162 136.127 88.6103 136.038 88.5223C134.628 87.1274 133.265 86.0813 132.088 84.4744C128.601 79.7256 125.654 74.6289 123.388 69.1397C120.969 63.2771 119.51 57.1354 118.057 50.9756C116.082 42.5974 116.001 34.1208 116.304 25.6014C116.326 25.0392 116.117 24.4635 115.915 23.8162C115.911 23.8048 115.888 23.7815 115.879 23.7735C115.839 23.7373 115.891 23.7129 115.94 23.7367C116.986 24.2455 118.213 24.585 118.999 25.3784C123.591 30.0064 128.259 34.5784 132.534 39.5062C138.345 46.203 143.385 53.5288 147.961 61.1712C149.187 63.2157 150.281 65.3481 151.373 67.4712C151.668 68.045 151.795 68.7111 151.972 69.3479C152.009 69.4823 151.952 69.6256 151.831 69.6934C151.698 69.7677 151.53 69.7284 151.443 69.603C150.925 68.8568 150.401 68.1069 149.814 67.2888Z" fill="#2C4075"/>
<path d="M223.732 113.883C224.216 114.908 224.237 116.111 223.863 117.177C223.386 118.536 222.489 118.959 220.564 119.052C219.918 119.083 219.265 119.047 218.618 118.989C217.525 118.889 216.802 119.329 216.073 120.199C215.332 121.087 214.253 121.682 213.221 122.453C212.283 123.279 211.668 122.719 210.966 122.048C210.336 121.374 209.546 120.87 209.319 120.171C208.881 118.831 207.95 118.632 206.836 118.439C204.732 118.078 203.237 117.138 202.413 115.685C201.59 114.235 201.791 112.291 203 111.156C203.46 110.724 204.013 110.403 204.662 110.202C210.013 108.551 215.339 108.263 220.528 110.884C221.907 111.578 223.074 112.49 223.732 113.883Z" fill="#2C4075"/>
<path d="M210.408 123.19C210.701 122.541 211.324 122.127 212.02 122.284C212.609 122.417 213.11 122.889 213.284 123.468C214.772 128.442 217.914 131.129 223.601 131.766C229.576 132.435 235.568 132.368 241.391 130.554C242.95 130.067 244.421 129.283 245.924 128.622C246.269 128.47 246.6 128.287 246.934 128.112C247.074 128.038 247.248 128.074 247.35 128.196C247.461 128.328 247.458 128.52 247.351 128.654C246.911 129.204 246.518 129.877 245.956 130.1C243.332 131.148 240.656 132.09 237.957 132.915C237.201 133.147 236.398 133.224 235.56 133.3C234.613 133.384 233.7 133.676 232.764 133.836C231.863 133.991 230.965 133.948 230.002 133.748C227.009 133.47 224.074 133.559 221.279 132.95C216.814 131.981 213.607 129.348 212.17 124.726C212.071 124.409 211.574 124.316 211.476 124.632C210.042 129.148 206.83 131.261 202.362 131.448C199.608 131.564 196.847 131.511 194.007 131.498C192.797 131.492 191.578 131.79 190.378 131.636C189.543 131.53 188.738 131.242 187.881 131.079C183.865 129.871 180.192 128.217 176.961 125.629C176.333 125.124 175.676 124.651 175.295 123.761C174.822 122.332 175.536 122.197 176.744 123.098C176.914 123.225 177.081 123.356 177.244 123.492C183.71 128.85 191.201 130.467 199.286 129.933C200.527 129.851 201.77 129.734 202.994 129.528C206.747 128.897 208.925 126.471 210.408 123.19Z" fill="#2C4075"/>
<path d="M178.24 116.262C179.109 116.417 179.869 116.574 180.62 116.731C180.703 116.748 180.757 116.828 180.744 116.911C180.73 116.994 180.652 117.05 180.568 117.037C179.62 116.887 178.663 116.736 177.596 116.573C176.775 116.507 176.077 116.453 175.251 116.371C174.976 116.323 174.709 116.224 174.432 116.178C170.267 115.486 166.154 114.942 162.079 114.18C155.409 112.936 148.761 111.548 142.108 110.197C141.596 110.093 141.718 109.571 142.235 109.644C154.285 111.342 166.202 113.863 178.24 116.262Z" fill="#2C4075"/>
<path d="M175.142 119.562C177.094 119.781 178.921 120.014 180.741 120.244C180.86 120.26 180.947 120.366 180.937 120.486C180.927 120.606 180.825 120.697 180.705 120.693C178.771 120.631 176.835 120.569 174.761 120.529C164.133 120.155 153.646 119.759 143.158 119.359C142.962 119.351 142.807 119.186 142.813 118.99C142.818 118.804 142.967 118.656 143.152 118.649C153.78 118.251 164.387 119.175 175.142 119.562Z" fill="#2C4075"/>
<path d="M256.76 118.275C259.002 118.193 259.143 119.41 256.904 119.554C256.139 119.603 255.368 119.646 254.602 119.683C252.017 119.808 252.019 118.607 254.601 118.426C255.319 118.376 256.038 118.326 256.76 118.275Z" fill="#2C4075"/>
<path d="M176.508 126.36C176.089 125.836 176.919 125.218 177.455 125.621C180.243 127.716 183.338 129.294 186.765 130.374C187.259 130.53 187.755 130.846 187.894 131.345C188.183 132.376 186.866 132.864 185.856 132.506C182.261 131.229 178.983 129.455 176.508 126.36Z" fill="#FF6501" fill-opacity="0.25"/>
<path d="M247.029 124.363C245.448 124.104 243.98 123.855 242.518 123.607C242.386 123.584 242.291 123.468 242.294 123.335C242.298 123.192 242.413 123.078 242.556 123.076C243.229 123.065 243.912 123.053 244.703 123.035C247.211 123.309 249.583 123.585 251.955 123.871C257.371 124.522 262.786 125.179 268.199 125.833C268.318 125.847 268.407 125.95 268.405 126.07C268.403 126.19 268.31 126.287 268.19 126.296C267.46 126.354 266.724 126.475 266.003 126.41C260.148 125.867 254.297 125.282 248.445 124.697C248.012 124.649 247.584 124.482 247.029 124.363Z" fill="#2C4075"/>
<path d="M187.572 133.575C187.534 133.393 187.511 133.207 187.515 133.02C187.516 132.975 187.517 132.929 187.518 132.884C187.546 131.752 188.485 130.889 189.605 131.063C190.812 131.25 191.543 132.49 191.05 133.603C190.978 133.768 190.904 133.935 190.831 134.106C190.668 134.475 190.523 134.74 190.342 134.986C189.789 135.736 188.59 135.817 188.061 135.044C188.021 134.987 187.983 134.929 187.947 134.869C187.734 134.517 187.675 134.069 187.572 133.575Z" fill="#2C4075"/>
<path d="M230.571 135.719C230.262 134.709 230.839 133.655 231.891 133.575C232.907 133.497 233.771 134.367 233.538 135.359C233.485 135.585 233.429 135.816 233.372 136.054C233.284 136.297 233.232 136.452 233.124 136.547C233.117 136.553 233.109 136.56 233.102 136.566C232.292 137.276 231.005 136.959 230.638 135.942C230.615 135.866 230.593 135.792 230.571 135.719Z" fill="#2C4075"/>
<path d="M192.124 33.4173C192.229 33.2416 192.347 33.0738 192.477 32.9153C195.185 29.6018 197.789 26.3332 200.518 23.1771C201.017 22.5975 202.076 22.1743 202.834 22.2387C206.394 22.538 209.947 22.9782 213.487 23.4734C216.384 23.8771 218.007 26.2998 219.539 28.3481C221.885 31.4849 223.678 35.0553 225.699 38.4457C225.861 38.7109 225.581 39.1295 225.272 39.1571C225.262 39.158 225.251 39.1585 225.241 39.1586C222.503 39.1868 219.763 39.2056 217.026 39.2185C211.098 39.2418 205.171 39.2315 199.243 39.2947C196.313 39.3259 193.382 39.4952 190.453 39.5909C189.581 39.6188 189.052 38.6122 189.494 37.8608C190.408 36.3048 191.252 34.8774 192.124 33.4173Z" fill="#FF2E00"/>
<path d="M183.085 25.0242C188.535 23.9285 193.874 22.8736 199.214 21.8195C199.386 21.7855 199.557 21.8833 199.617 22.049C199.662 22.1765 199.633 22.3192 199.54 22.4167C194.804 27.3641 189.928 32.2123 187.499 39.0919C187.372 39.4539 187.066 39.7684 186.681 39.7641C181.392 39.7099 176.104 39.5912 170.816 39.6045C167.309 39.6146 165.48 35.8217 168.07 33.4708C172.33 29.6038 177.181 26.5875 183.085 25.0242Z" fill="#FF2E00"/>
<path d="M232.827 45.5783C232.71 51.0826 232.421 56.4033 230.948 61.5874C230.586 62.856 230.318 63.357 228.775 63.0216C224.798 62.1624 220.752 61.6448 216.737 60.9838C216.615 60.9636 216.524 60.7458 216.527 60.6228C216.667 55.471 216.806 50.3809 216.946 45.2332C217.013 42.7664 218.937 40.5985 221.405 40.6283C224.651 40.6657 227.895 40.8749 231.139 40.8877C232.552 40.8934 233.02 41.4796 232.914 42.821C232.845 43.6876 232.858 44.5569 232.827 45.5783Z" fill="#FF2E00"/>
<path d="M163.166 58.316C162.325 54.0427 163.011 49.9967 163.889 45.9693C164.5 43.1569 167.027 41.1841 169.908 41.1646C170.139 41.163 170.37 41.1615 170.601 41.1599C175.432 41.1271 178.814 45.8013 178.251 50.597C178.107 51.8285 178.021 53.0661 178.005 54.3132C177.96 57.8544 175.501 61.2884 171.962 61.3912C170.166 61.4437 168.362 61.3363 166.564 61.2505C163.72 61.1095 163.845 61.6877 163.166 58.316Z" fill="#FF2E00"/>
<path d="M245.842 58.4674C245.69 59.0911 245.499 59.7051 245.25 60.2962C244.653 61.7145 244.052 63.0576 243.544 64.4355C243.126 65.5702 242.337 65.6706 241.397 65.4867C239.107 65.0351 236.828 64.5469 234.542 64.077C233.144 63.7898 232.431 62.2043 232.946 60.8774C233.967 58.2436 234.342 55.4196 234.436 52.5355C234.477 51.2411 234.507 49.9464 234.531 48.6485C234.605 44.6216 238.107 41.4524 242.098 42.0126C243.767 42.2446 245.409 42.6569 247.066 42.9775C247.89 43.1362 248.251 43.5531 248.127 44.4702C247.728 47.4324 247.458 50.4141 246.99 53.3649C246.72 55.0586 246.267 56.7221 245.842 58.4674Z" fill="#FF2E00"/>
<path d="M195.584 57.8255C195.621 55.4347 195.657 53.0703 195.692 50.7009C195.775 45.2386 200.155 40.8383 205.616 40.7323C208.325 40.6797 211.066 40.6265 213.833 40.5726C214.712 40.5555 215.527 41.2349 215.503 42.1139C215.358 47.7861 215.17 53.457 215.073 59.1308C215.052 60.3306 214.729 60.7592 213.52 60.628C211.243 60.3825 208.955 60.1766 206.67 60.115C203.636 60.0323 200.594 60.0722 197.556 60.1091C195.542 60.1391 195.541 60.179 195.584 57.8255Z" fill="white"/>
<path d="M194.081 46.7944C194.064 50.3274 194.051 53.7667 194.037 57.2339C194.031 58.8943 192.792 60.3788 191.134 60.454C188.009 60.5956 184.878 60.6448 181.755 60.8263C180.363 60.9072 179.836 60.531 179.905 58.9858C180.025 56.3462 179.74 53.6842 179.914 51.0494C180.093 48.3257 180.587 45.6214 181.003 42.9177C181.199 41.6437 181.883 41.1285 183.286 41.1647C185.115 41.21 186.945 41.1996 188.806 41.1719C191.878 41.126 194.32 43.7318 194.081 46.7944Z" fill="#FF2E00"/>
<path d="M156.836 42.0929C157.046 42.0312 157.258 41.9877 157.475 41.9645C160.214 41.6724 162.23 44.5304 161.509 47.1876C161.185 48.38 160.942 49.5757 160.788 50.7797C160.235 55.1109 155.955 59.3133 152.864 56.2104C152.372 55.7167 151.909 55.1696 151.476 54.5606C149.693 52.0498 149.167 49.4415 149.982 46.505C150.388 45.0475 151.208 43.9042 152.609 43.3845C153.959 42.8833 155.358 42.5283 156.836 42.0929Z" fill="#FF2E00"/>
<path d="M255.695 62.3935C255.11 64.2629 253.935 65.3271 252.215 65.7658C248.403 66.7359 246.519 62.5325 247.677 58.7737C248.07 57.4987 248.386 56.2091 248.632 54.9059C249.681 49.3538 257.041 44.9715 256.952 50.6259C256.91 53.265 256.604 55.8986 256.349 58.5277C256.228 59.7857 255.948 61.0293 255.695 62.3935Z" fill="#FF2E00"/>
<path d="M226.992 37.2166C226.912 37.0658 226.82 36.9144 226.746 36.7609C225.241 33.659 228.728 28.9764 231.752 30.6341C233.089 31.3674 234.404 32.1455 235.696 32.9701C239.033 35.1011 237.25 39.7134 233.303 39.518C231.762 39.4417 230.225 39.3653 228.688 39.2885C227.429 39.228 227.447 38.0757 226.992 37.2166Z" fill="#FF2E00"/>
<path d="M217.256 115.332C216.943 115.328 216.615 115.176 216.409 114.941C215.986 114.459 216.032 113.659 216.561 113.303C216.679 113.223 216.799 113.169 216.923 113.159C218.032 113.069 219.168 113.145 220.274 113.298C220.588 113.342 221.095 113.914 221.06 114.18C221.008 114.574 220.589 115.178 220.261 115.223C219.298 115.362 218.315 115.343 217.256 115.332Z" fill="white"/>
<path d="M152.857 152.43C153.275 152.837 153.742 153.181 154.241 153.483C154.313 153.527 154.381 153.573 154.442 153.627C162.296 160.5 171.606 164.49 181.304 167.526C202.366 174.117 223.048 172.444 243.308 164.136C245.147 163.381 246.834 162.244 248.61 161.317C248.757 161.24 248.905 161.167 249.056 161.096C250.325 160.5 251.57 159.833 252.59 158.871C253.01 158.475 253.418 158.075 253.819 157.667C255.511 155.943 257.181 154.196 258.887 152.305C258.913 152.277 258.931 152.197 258.933 152.159C258.939 152.036 258.812 152.023 258.712 152.093C256.557 153.578 254.389 155.042 252.257 156.56C244.81 161.865 236.507 165.122 227.649 166.77C221.928 167.834 216.111 168.47 210.31 168.994C199.191 169.999 188.436 168.004 177.961 164.204C170.973 161.671 164.008 158.94 158.196 154.108C153.438 150.151 149.098 145.665 144.565 141.426C143.658 140.578 142.61 141.413 143.346 142.413C144.707 144.263 146.301 145.946 147.909 147.612C149.492 149.254 151.173 150.791 152.857 152.43Z" fill="#2C4075"/>
<path d="M226.297 97.4294C224.542 100.298 224.761 102.85 226.758 105.123C228.966 107.638 231.934 108.695 235.151 109.211C239.051 109.835 242.951 109.866 246.724 108.821C249.399 108.084 251.99 106.89 254.467 105.6C256.48 104.553 258.046 102.918 259.121 100.741C260.726 97.4932 259.349 94.5136 257.014 92.7066C253.146 89.7171 248.585 89.2447 243.915 89.3652C239.683 89.4717 235.705 90.57 231.968 92.5439C229.766 93.7114 227.815 95.2314 226.297 97.4294ZM230.721 95.2036C231.426 94.6663 232.202 94.2309 233.008 93.8614C233.426 93.6697 233.864 93.4609 234.341 93.2179C236.219 92.1343 238.182 91.3809 240.495 91.3419C240.984 91.3336 241.435 91.1101 241.923 91.0779C245.245 90.8564 248.53 90.7967 251.798 91.8476C253.886 92.5182 255.84 93.3833 257.13 95.1348C257.778 96.0135 258.049 97.4624 257.932 98.5904C257.726 100.605 256.426 101.996 254.798 103.216C251.29 105.839 247.434 107.29 242.986 107.731C242.419 107.81 241.852 107.926 241.283 107.962C237.509 108.201 233.826 107.922 230.277 105.777C228.686 104.834 227.281 103.799 226.928 101.718C226.68 100.259 227.092 99.1155 227.818 97.9845C228.339 97.1727 229.047 96.5018 229.807 95.9086C230.103 95.6778 230.406 95.4437 230.721 95.2036Z" fill="#FF6501"/>
<path d="M181.88 88.121C180.816 87.4887 179.874 86.8345 178.844 86.3971C174.746 84.6554 170.464 83.7287 166.038 84.0361C162.705 84.2674 159.54 85.123 157.272 88.0029C155.867 89.7861 156.117 93.6889 157.835 96.0143C160.392 99.4787 163.759 101.708 167.637 103.387C171.457 105.042 175.418 105.909 179.473 105.812C182.938 105.73 186.454 105.108 188.844 102.031C190.733 99.5954 190.591 97.0793 189.074 94.7372C187.291 91.9789 185.097 89.5066 181.88 88.121ZM178.34 88.2311C178.65 88.5153 179.12 88.1871 179.478 88.4077C181.153 89.4473 182.845 90.4615 184.451 91.6093C186.21 92.8659 187.575 94.5029 188.199 96.6554C188.793 98.708 188.58 100.656 186.684 101.85C185.345 102.695 183.837 103.42 182.309 103.759C179.702 104.335 177.058 104.407 174.352 103.708C173.562 103.504 172.766 103.321 171.968 103.152C169.117 102.55 166.565 101.153 164.077 99.6469C163.568 99.3389 163.152 98.8707 162.698 98.3808C162.099 97.7365 161.322 97.2956 160.654 96.7246C159.335 95.598 158.642 93.9663 158.127 92.3687C157.6 90.7275 158.162 88.9027 159.615 87.7901C161.441 86.3905 163.602 85.76 166.154 85.5577C169.904 85.203 173.47 86.2289 177.023 87.2125C177.506 87.3434 177.897 87.8253 178.34 88.2311Z" fill="#FF6501"/>
<path d="M229.386 90.8329C228.986 91.0803 228.619 91.3778 228.301 91.724C226.891 93.2545 225.543 94.7442 224.194 96.2325C224.104 96.332 224.1 96.4821 224.185 96.5861C224.26 96.6782 224.387 96.7117 224.501 96.6794C224.763 96.6054 225.047 96.5536 225.211 96.3801C229.578 91.7346 234.887 88.4286 240.468 85.5113C240.621 85.4313 240.683 85.2436 240.607 85.0885C240.537 84.9462 240.372 84.878 240.221 84.9242C239.368 85.1847 238.471 85.3625 237.716 85.7979C234.905 87.4156 232.157 89.1467 229.386 90.8329Z" fill="#FF6501"/>
<path d="M179.309 82.5824C178.751 82.4342 178.269 82.3291 177.795 82.2294C177.678 82.2049 177.561 82.268 177.514 82.3776C177.463 82.4975 177.514 82.6356 177.63 82.6953C178.595 83.1915 179.53 83.7232 180.434 84.2914C183.696 86.342 184.885 85.5394 181.524 83.6562C180.813 83.2577 180.073 82.8963 179.309 82.5824Z" fill="#FF6501"/>
<path d="M139.498 105.051C139.568 105.042 139.564 105.041 139.494 105.029C139.091 104.96 138.691 104.888 138.289 104.817C138.224 104.805 138.162 104.851 138.155 104.917C138.148 104.985 138.201 105.047 138.27 105.048C138.643 105.053 139.025 105.059 139.498 105.051Z" fill="#EDF1EF"/>
<path d="M173.734 114.125C173.808 114.163 173.937 114.147 173.864 114.107C173.786 114.065 173.655 114.085 173.734 114.125Z" fill="#A9D2DB"/>
<path d="M219.925 79.6383C219.923 79.6029 219.917 79.6209 219.899 79.6512C219.855 79.7244 219.808 79.7974 219.763 79.8693C219.745 79.8971 219.753 79.9332 219.781 79.9504C219.813 79.9704 219.858 79.956 219.869 79.9196C219.889 79.8561 219.908 79.7825 219.926 79.673C219.927 79.6669 219.926 79.6445 219.925 79.6383Z" fill="white"/>
<path d="M132.727 22.7C132.75 22.708 132.732 22.7158 132.714 22.6998C132.712 22.6982 132.711 22.697 132.712 22.6965C132.715 22.6953 132.724 22.699 132.727 22.7Z" fill="white"/>
<path d="M256.42 171.12C256.418 171.126 256.418 171.126 256.423 171.121C256.429 171.113 256.436 171.104 256.443 171.096C256.457 171.077 256.447 171.065 256.434 171.085C256.433 171.086 256.432 171.089 256.431 171.09C256.426 171.105 256.423 171.114 256.42 171.12Z" fill="#2C4075"/>
<path d="M243.416 101.52C243.643 104.729 245.998 107.443 249.024 106.354C251.051 105.625 252.969 104.578 254.792 103.216C256.423 101.999 257.721 100.608 257.927 98.5903C258.043 97.4623 257.773 96.0134 257.125 95.1347C255.834 93.3801 253.88 92.5181 251.793 91.8475C248.525 90.7966 245.24 90.8594 241.918 91.0778C241.402 91.1118 241.292 91.817 241.517 92.2824C241.808 92.8873 242.124 93.4427 242.243 94.0391C242.737 96.5151 243.239 99.0091 243.416 101.52Z" fill="white"/>
<path d="M241.276 107.965C242.354 107.885 243.116 106.925 243.229 105.849C243.383 104.381 243.52 102.943 243.417 101.52C243.24 99.0092 242.738 96.5152 242.244 94.0392C241.906 92.3459 240.017 91.296 238.325 91.64C238.04 91.698 237.758 91.7699 237.479 91.8549C235.356 92.5001 234.508 94.7639 234.645 96.9793C234.699 97.8709 234.675 98.8189 234.414 99.6533C234.291 100.047 233.277 100.571 233.093 100.436C232.526 100.014 231.893 99.35 231.779 98.6951C231.716 98.3267 231.677 97.9541 231.651 97.579C231.566 96.3088 230.198 95.5758 229.272 96.4473C228.9 96.7962 228.716 97.3511 228.817 97.8508C229.101 99.2512 229.384 100.604 229.667 101.934C230.192 104.4 231.648 106.705 234.073 107.398C236.384 108.06 238.809 108.124 241.276 107.965Z" fill="#2C4075"/>
<path d="M232.59 94.057C232.068 94.2789 231.672 94.8115 231.652 95.3785C231.611 96.5082 231.596 97.6164 231.781 98.6893C231.895 99.3442 232.528 100.009 233.095 100.43C233.28 100.568 234.29 100.042 234.416 99.6476C234.678 98.8162 234.701 97.8651 234.647 96.9735C234.611 96.3855 234.527 95.8 234.433 95.1988C234.292 94.2928 233.433 93.6983 232.59 94.057Z" fill="#F6F7F5"/>
<path d="M227.147 102.566C227.783 104.328 229.889 103.085 229.508 101.251C229.148 99.5163 226.9 98.9878 226.853 100.758C226.845 101.062 226.867 101.38 226.924 101.715C226.976 102.02 227.051 102.303 227.147 102.566Z" fill="white"/>
<path d="M162.539 94.4888C162.11 96.3573 162.443 98.6537 164.085 99.6467C164.85 100.11 165.621 100.562 166.408 100.982C170.339 103.078 175.155 100.908 176.671 96.7231C177.333 94.8952 177.768 92.9806 178.207 91.0688C178.532 89.6521 178.432 87.5976 177.031 87.2093C175.317 86.7348 173.601 86.2506 171.845 85.9301C168.208 85.2661 164.764 87.4879 163.547 90.9766C163.144 92.1302 162.813 93.3011 162.539 94.4888ZM167.539 87.9797C168.236 87.2447 169.79 86.8755 170.099 87.8413C170.253 88.3256 170.03 88.9737 169.89 89.3597C169.154 91.3996 168.157 93.3426 167.177 95.2786C167.033 95.5628 166.255 95.8406 166.064 95.7C165.683 95.4189 165.251 94.8208 165.291 94.4006C165.411 93.171 165.506 91.8258 166.069 90.7879C166.559 89.893 166.796 88.7631 167.539 87.9797Z" fill="#2C4075"/>
<path d="M179.477 88.4078C179.062 88.1593 178.733 88.9692 178.614 89.4376C177.981 91.9216 177.51 94.3942 176.665 96.7233C175.332 100.402 176.63 104.554 180.514 104.071C181.113 103.997 181.711 103.891 182.307 103.76C183.836 103.424 185.343 102.696 186.682 101.85C188.576 100.656 188.792 98.7082 188.197 96.6556C187.573 94.503 186.208 92.8661 184.45 91.6095C182.847 90.4646 181.152 89.4475 179.477 88.4078Z" fill="white"/>
<path d="M158.516 93.4515C159.494 95.9512 162.313 94.8257 163.095 92.26C163.137 92.1206 163.181 91.9815 163.225 91.8426C164.117 89.0326 161.961 85.9931 159.622 87.7867C158.168 88.8992 157.603 90.7272 158.133 92.3652C158.25 92.7278 158.375 93.092 158.516 93.4515Z" fill="white"/>
<path d="M170.115 87.9955C169.9 86.8403 168.004 87.2574 167.309 88.2034C166.743 88.9733 166.507 89.9771 166.065 90.7879C165.5 91.8229 165.407 93.171 165.288 94.4007C165.247 94.8208 165.679 95.4189 166.061 95.7C166.248 95.8407 167.026 95.563 167.173 95.2786C168.153 93.3427 169.153 91.3995 169.887 89.3597C170.01 89.0142 170.201 88.4585 170.115 87.9955Z" fill="#F6F7F5"/>
<path d="M209.928 49.033C209.794 48.8848 209.769 48.7096 209.817 48.5164C209.953 47.9719 210.106 47.476 210.261 46.9863C210.31 46.8341 210.47 46.7492 210.624 46.7952C210.742 46.8305 210.828 46.9338 210.839 47.0564C210.886 47.5389 210.933 48.0286 210.987 48.5827C211.043 49.1594 210.318 49.4632 209.928 49.033Z" fill="white"/>
<path d="M251.348 199.106C251.227 199.726 251.526 200.344 252.148 200.457C252.48 200.517 252.857 200.445 253.1 200.212C253.497 199.831 253.746 199.404 253.904 198.943C254.551 197.054 256.108 195.527 257.958 196.282C262.439 198.111 266.673 200.362 269.802 204.288C270.395 205.034 270.769 205.958 271.342 206.724C271.82 207.37 273.19 207.107 273.264 206.307C273.27 206.252 273.268 206.199 273.257 206.147C273.052 205.128 272.7 204.061 272.125 203.209C269.311 199.039 265.158 196.677 260.675 194.983C258.817 194.279 256.697 194.338 254.719 193.923C254.142 193.803 253.505 193.363 253.146 192.875C249.962 188.54 245.629 186.5 240.467 186.14C240.431 186.137 240.395 186.137 240.359 186.14C239.64 186.199 239.515 187.495 240.175 187.787C242.274 188.725 244.459 189.47 246.495 190.527C247.849 191.231 249.136 192.205 250.213 193.303C251.859 194.977 251.761 196.996 251.348 199.106Z" fill="#2C4075"/>
<path d="M168.287 168.845C167.244 168.362 165.971 168.929 165.658 170.033C165.438 170.807 165.873 171.577 166.618 171.882C174.429 175.071 182.803 177.373 190.11 181.666C190.758 182.047 191.385 182.527 192.087 182.733C192.108 182.739 192.13 182.745 192.152 182.75C192.974 182.948 193.932 181.575 193.236 181.095C190.756 179.397 188.341 177.502 185.651 176.246C180.169 173.686 174.521 171.494 168.948 169.139C168.726 169.045 168.507 168.947 168.287 168.845Z" fill="#2C4075"/>
<path d="M256.413 171.16C256.414 171.119 256.385 171.138 256.345 171.147C252.176 172.148 248.018 173.204 243.829 174.125C240.054 174.957 236.222 175.535 232.462 176.422C228.586 177.333 224.796 178.572 221.429 180.846C221.18 181.013 220.921 181.174 220.713 181.388C220.236 181.88 220.866 182.471 221.52 182.264C222.557 181.938 223.594 181.61 224.645 181.334C230.015 179.932 235.41 178.621 240.768 177.17C245.12 175.993 249.455 174.738 253.744 173.35C254.728 173.03 255.51 172.053 256.384 171.263C256.401 171.247 256.412 171.184 256.413 171.16Z" fill="#2C4075"/>
<path d="M258.674 235.77C258.876 235.605 259.062 235.425 259.107 235.168C259.272 234.219 259.355 231.81 259.211 229.314C259.047 226.484 256.018 225.391 254.387 223.071C253.726 222.129 252.491 221.873 251.424 222.3C249.411 223.106 248.144 222.502 246.95 220.177C246.193 218.703 244.795 217.851 243.194 217.425C239.061 216.324 237.48 211.745 239.84 207.673C241.51 204.791 244.095 202.992 247.054 201.729C249.567 200.655 251.961 198.576 251.521 195.878C251.371 194.96 250.984 194.093 250.209 193.303C249.131 192.204 247.844 191.233 246.491 190.527C244.454 189.47 242.269 188.721 240.17 187.787C239.511 187.495 239.636 186.203 240.355 186.141C240.391 186.138 240.427 186.137 240.463 186.139C245.624 186.5 249.954 188.537 253.141 192.875C253.498 193.363 254.138 193.803 254.715 193.923C256.692 194.338 258.813 194.278 260.671 194.983C265.154 196.679 269.306 199.039 272.121 203.209C272.695 204.058 273.047 205.127 273.253 206.146C273.263 206.198 273.265 206.252 273.26 206.307C273.185 207.108 271.817 207.37 271.338 206.724C270.768 205.958 270.39 205.034 269.797 204.288C266.668 200.362 262.435 198.111 257.954 196.282C256.104 195.527 254.522 197.04 253.933 198.948C253.76 199.51 253.463 200.027 252.949 200.48C252.857 200.561 252.777 200.676 252.852 200.772C252.872 200.798 252.908 200.831 252.928 200.857C253.289 201.324 253.586 201.713 253.831 202.137C255.422 204.884 257.041 207.614 258.561 210.401C259.196 211.57 259.636 212.85 260.208 214.132C260.266 214.261 260.38 214.393 260.489 214.481C260.604 214.574 260.715 214.615 260.86 214.639C263.62 215.086 266.302 214.753 268.825 213.533C272.341 211.835 275.826 210.074 279.284 208.259C282.669 206.482 285.451 203.883 287.484 200.655C289.179 197.962 289.771 195.026 288.225 191.761C286.825 188.804 284.902 186.514 282.496 184.397C278.866 181.204 274.717 179.066 270.347 177.299C267.405 176.108 264.393 175.111 261.407 174.042C261.09 173.928 260.772 173.816 260.455 173.705C258.566 173.046 258.064 171.046 258.484 169.091C258.951 166.893 258.426 164.972 256.534 163.406C255.503 162.554 254.573 161.592 253.388 160.966C252.011 160.239 250.345 160.484 248.943 161.157C248.829 161.211 248.717 161.267 248.606 161.325C246.83 162.252 245.143 163.389 243.304 164.144C223.044 172.452 202.362 174.128 181.3 167.534C171.605 164.498 162.292 160.508 154.438 153.635C153.959 153.216 153.197 153.394 152.693 153.782C152.584 153.867 152.475 153.952 152.365 154.039C151.488 154.731 151.314 155.973 151.925 156.91C152.827 158.294 153.76 159.596 154.759 160.841C155.052 161.207 155.807 161.278 156.358 161.313C157.676 161.4 159.05 161.156 160.313 161.455C162.328 161.932 163.534 162.97 164.367 164.455C165.478 166.435 166.86 168.267 168.952 169.147C174.525 171.506 179.219 173.773 184.704 176.333C187.394 177.59 190.76 179.406 193.24 181.104C194.012 181.636 193.058 182.983 192.148 182.757C192.129 182.753 192.11 182.747 192.091 182.742C191.392 182.533 190.762 182.056 190.114 181.675C182.883 177.426 175.049 174.614 167.297 171.59C166.457 171.262 165.768 171.817 165.149 172.471C163.331 174.399 161.842 176.624 160.819 178.977C158.239 184.926 150.311 187.563 144.454 184.605C140.915 182.818 137.113 185.505 137.735 189.419C137.775 189.667 137.81 189.873 137.839 190.026C138.504 193.501 140.445 196.018 143.386 198.186C146.167 200.237 149.385 201.149 152.744 201.842C154.114 202.123 157.006 201.838 158.348 201.546C160.815 201.008 161.336 198.484 162.123 196.136C162.293 195.632 162.51 195.145 162.795 194.696C162.919 194.501 163.048 194.316 163.145 194.223C163.574 193.81 164.378 194.081 164.561 194.648C164.601 194.774 164.621 194.897 164.606 195.015C164.175 198.336 162.692 200.95 159.678 202.542C159.258 202.764 158.832 203.438 158.816 203.918C158.744 206.157 158.794 208.401 158.84 210.642C158.919 214.355 159.021 218.064 159.106 221.877C159.121 222.53 159.211 223.177 159.383 223.808C160.413 227.598 164.15 229.932 168.056 229.529C169.166 229.414 170.293 229.29 171.49 229.131C174.544 228.724 177.974 228.232 181.033 227.859C186.753 227.161 192.174 226.601 197.913 226.2C203.616 225.803 208.819 225.436 214.543 225.475C217.758 225.499 222.092 225.722 225.25 226.293C230.87 227.312 235.954 228.28 241.372 230.053C246.515 231.737 251.454 234.27 256.437 236.481C256.711 236.602 257.172 236.704 257.6 236.77C257.974 236.828 258.314 236.539 258.389 236.168C258.411 236.058 258.454 235.982 258.532 235.902C258.58 235.852 258.628 235.809 258.674 235.77ZM256.433 171.041C256.435 171.04 256.437 171.039 256.438 171.038C256.455 171.028 256.476 171.05 256.468 171.068C256.449 171.114 256.43 171.186 256.409 171.318C256.406 171.336 256.396 171.352 256.382 171.363C255.509 172.049 254.727 173.029 253.74 173.349C249.451 174.735 245.116 175.99 240.765 177.169C235.407 178.62 230.011 179.932 224.642 181.334C223.591 181.608 222.554 181.936 221.517 182.264C220.863 182.47 220.23 181.877 220.71 181.388C220.918 181.174 221.176 181.013 221.426 180.846C224.793 178.572 228.582 177.333 232.458 176.421C236.219 175.537 240.05 174.957 243.826 174.125C248.033 173.196 252.213 172.133 256.433 171.041ZM225.411 208.246C224.598 207.9 223.798 207.431 223.138 206.843C219.046 203.204 213.871 199.233 208.406 199.516C202.503 199.823 196.647 199.687 190.802 199.767C190.627 199.769 190.406 199.89 190.444 200.06C191.512 204.593 190.46 208.414 186.915 211.447C186.591 211.726 186.244 212.304 186.309 212.672C186.93 216.195 190.262 218.546 193.839 218.493C203.916 218.344 213.879 219.702 223.943 220.849C225.683 221.047 227.073 219.635 227.093 217.884C227.123 215.448 227.162 213.005 227.322 210.578C227.348 210.178 227.696 209.803 228 209.423C228.147 209.239 228.393 209.152 228.617 209.227C228.833 209.298 228.977 209.502 228.973 209.729C228.909 213.245 228.902 216.766 228.727 220.275C228.66 221.588 227.587 222.472 226.371 222.484C222.748 222.524 219.118 222.433 215.496 222.268C211.829 222.099 208.167 221.763 204.499 221.533C201.775 221.36 199.049 221.163 196.322 221.113C193.436 221.062 190.54 221.052 187.666 221.278C186.676 221.355 186.223 221.197 186.069 220.302C185.724 218.303 185.435 216.293 185.137 214.286C185.062 213.783 185.234 213.079 184.961 212.799C184 211.801 184.811 211.144 185.247 210.426C185.506 209.997 185.927 209.677 186.217 209.265C188.089 206.606 189.39 203.725 189.189 200.345C189.051 198.019 189.12 197.893 191.472 197.621C191.57 197.609 191.672 197.607 191.771 197.599C200.175 196.833 208.586 197.243 216.997 197.531C218.077 197.566 219.009 197.806 219.664 198.976C221.596 202.436 224.149 205.32 227.636 207.26C228.221 207.582 227.8 208.802 227.133 208.815C227.09 208.816 227.048 208.812 227.007 208.803C226.479 208.68 225.964 208.48 225.411 208.246Z" fill="#008AFF"/>
<path d="M165.986 169.567C166.124 168.402 166.071 167.286 165.64 166.194C164.694 163.798 163.005 162.086 160.303 161.446C159.044 161.147 157.669 161.392 156.349 161.305C155.798 161.269 155.043 161.198 154.75 160.833C153.624 159.429 152.581 157.953 151.536 156.419C151.06 155.72 150.517 155.069 149.912 154.479C148.795 153.389 147.691 152.331 146.456 151.474C144.668 150.235 142.391 149.854 141.015 151.23C139.773 152.472 139.573 154.112 139.856 155.576C139.886 155.729 139.918 155.883 139.95 156.036C140.908 160.507 139.595 164.902 136.968 168.639C134.838 171.67 133.877 175.149 135.824 179.676C136.198 180.544 136.853 181.338 137.544 181.983C138.16 182.558 138.804 182.998 139.581 183.325C141.217 184.013 142.904 184.567 144.52 185.385C150.381 188.346 159.114 185.211 161.693 179.262C162.716 176.906 163.322 174.393 165.14 172.466C165.251 172.348 165.333 172.203 165.404 172.035C165.723 171.281 165.889 170.381 165.986 169.567ZM144.082 161.825C143.858 161.279 143.662 160.722 143.505 160.154C143.059 158.55 142.596 156.948 142.213 155.328C141.82 153.674 142.654 152.493 143.977 152.853C144.8 153.077 145.637 153.552 146.275 154.133C147.564 155.304 148.705 156.642 149.938 157.881C152.598 160.561 152.201 165.057 152.187 168.831C152.183 169.894 152.356 170.986 152.671 172.094C153.875 176.337 157.377 181.497 153.192 182.881C151.434 183.463 149.643 183.66 148.13 183.455C146.773 183.271 146.096 181.865 146.255 180.505C146.41 179.173 147.384 178.179 148.525 177.474C150.308 176.372 150.615 174.743 149.836 171.835C149.005 168.728 147.09 166.324 145.157 163.899C144.702 163.329 144.41 162.623 144.082 161.825ZM142.945 177.091C143.331 177.417 143.855 177.723 143.928 178.224C144.052 179.124 144.482 180.303 144.095 180.858C143.716 181.404 142.432 181.591 141.62 181.459C138.698 180.977 136.797 177.481 137.483 174.051C138.204 170.448 140.513 167.947 143.153 165.711C143.374 165.524 144.093 165.554 144.26 165.757C146.155 168.085 147.883 170.533 148.144 173.692C148.302 175.62 147.072 176.536 145.296 175.8C144.571 175.5 143.961 174.89 143.234 174.609C142.876 174.471 142.186 174.612 141.964 174.891C141.762 175.147 141.842 175.853 142.059 176.192C142.267 176.521 142.58 176.783 142.945 177.091ZM157.559 173.868C155.702 173.057 155.203 170.718 155.04 168.699C154.977 167.915 154.959 167.138 155.059 166.377C155.238 165.024 155.703 163.137 157.356 162.933C160.486 162.552 164.432 164.865 164.06 168.935C163.855 171.199 161.99 173.474 159.88 174.007C159.042 174.218 158.274 174.18 157.559 173.868Z" fill="#2C4075"/>
<path d="M252.657 200.825C252.743 200.775 252.807 200.691 252.733 200.625C252.716 200.61 252.673 200.59 252.651 200.584C252.483 200.546 252.324 200.512 252.171 200.482C251.481 200.344 250.768 200.415 250.101 200.635C249.074 200.972 248.042 201.301 247.051 201.726C244.095 202.988 241.511 204.791 239.837 207.67C237.477 211.738 239.058 216.318 243.191 217.421C244.792 217.846 246.19 218.699 246.947 220.174C248.141 222.499 249.408 223.103 251.421 222.297C252.488 221.869 253.72 222.128 254.384 223.067C255.375 224.477 256.85 224.429 258.319 224.538C258.465 224.549 258.48 224.443 258.586 224.342C261.357 221.667 261.306 218.364 260.619 214.788C260.611 214.742 260.599 214.696 260.58 214.654C260.445 214.356 259.991 214.459 259.819 214.737C259.744 214.858 259.697 214.983 259.681 215.112C259.493 216.625 259.435 218.162 259.137 219.65C258.908 220.806 258.726 222.269 257.236 222.434C255.8 222.593 255.423 221.183 254.907 220.187C254.696 219.78 254.791 219.16 254.86 218.656C254.966 217.847 254.147 217.428 253.633 218.061C253.272 218.506 252.907 218.929 252.492 219.291C251.795 219.903 250.538 220.442 249.777 220.2C249.126 219.991 248.556 218.666 248.432 217.765C248.255 216.481 248.546 215.138 248.579 213.817C248.59 213.386 248.501 212.951 248.429 212.516C248.401 212.346 248.269 212.209 248.099 212.179C247.931 212.15 247.764 212.231 247.682 212.38C247.412 212.878 247.141 213.378 246.868 213.881C246.296 214.935 245.083 215.576 243.965 215.138C242.965 214.746 242.12 214.113 241.666 212.949C240.906 210.998 241.606 209.218 242.923 207.741C243.823 206.731 244.751 205.677 245.853 204.939C248.058 203.467 250.383 202.184 252.657 200.825Z" fill="#2C4075"/>
<path d="M138.457 183.269C138.436 183.063 138.345 182.858 138.206 182.704C137.603 182.027 136.564 182.541 136.603 183.445C136.709 185.948 136.826 188.463 137.259 190.92C137.927 194.709 140.218 197.535 143.415 199.607C147.77 202.433 152.455 203.827 157.624 203.314C158.101 203.264 158.486 203.715 158.496 204.195C158.627 210.27 158.756 216.302 158.832 222.443C158.838 222.607 159.046 222.499 159.045 222.335C159.026 218.46 158.917 214.548 158.837 210.637C158.79 208.395 158.741 206.151 158.812 203.913C158.828 203.432 159.255 202.761 159.675 202.536C162.685 200.942 164.172 198.33 164.602 195.01C164.606 194.978 164.608 194.947 164.607 194.915C164.595 194.17 163.401 193.775 162.863 194.29C162.601 194.543 162.53 195.005 162.388 195.379C161.425 197.91 159.986 200.07 157.249 200.669C155.908 200.961 154.395 200.826 153.026 200.545C149.666 199.852 146.553 198.434 143.772 196.38C140.831 194.211 139.638 190.967 138.972 187.488C138.711 186.138 138.614 184.758 138.457 183.269Z" fill="#2C4075"/>
<path d="M223.169 206.85C223.86 207.462 224.715 207.961 225.568 208.312C226.055 208.513 226.53 208.689 227.02 208.801C227.061 208.81 227.103 208.814 227.146 208.813C227.813 208.797 228.234 207.581 227.649 207.259C224.165 205.322 221.612 202.435 219.677 198.975C219.022 197.801 218.09 197.565 217.01 197.53C208.6 197.245 200.189 196.831 191.784 197.598C191.685 197.606 191.583 197.608 191.485 197.62C189.133 197.888 189.062 198.018 189.202 200.344C189.403 203.723 188.105 206.604 186.231 209.264C185.941 209.676 185.52 209.996 185.26 210.425C184.825 211.142 184.01 211.803 184.974 212.797C185.245 213.078 185.075 213.782 185.151 214.285C185.449 216.292 185.737 218.302 186.083 220.3C186.236 221.196 186.689 221.353 187.679 221.277C190.554 221.054 193.449 221.061 196.336 221.112C199.062 221.161 202.462 221.646 205.186 221.819C208.851 222.05 211.842 222.097 215.509 222.267C219.131 222.432 222.762 222.523 226.385 222.483C227.603 222.47 228.676 221.587 228.74 220.274C228.916 216.765 228.92 213.244 228.986 209.728C228.99 209.501 228.846 209.297 228.63 209.225C228.406 209.151 228.16 209.237 228.013 209.421C227.709 209.8 227.361 210.177 227.336 210.577C227.176 213.007 227.137 215.447 227.106 217.883C227.086 219.633 225.696 221.046 223.956 220.847C213.891 219.699 203.929 218.34 193.852 218.49C190.276 218.544 186.944 216.194 186.322 212.671C186.257 212.305 186.604 211.725 186.929 211.446C190.474 208.416 191.526 204.592 190.458 200.059C190.418 199.889 190.64 199.768 190.815 199.766C196.646 199.688 202.487 199.824 208.374 199.52C213.859 199.238 219.055 203.208 223.169 206.85Z" fill="#2C4075"/>
<path d="M253.824 202.134C253.352 201.331 252.285 201.143 251.471 201.592C249.548 202.653 247.663 203.734 245.861 204.943C244.757 205.683 243.831 206.734 242.931 207.744C241.611 209.221 240.914 211.001 241.675 212.952C242.128 214.114 242.974 214.748 243.975 215.141C245.092 215.578 246.304 214.939 246.876 213.885C247.15 213.382 247.421 212.882 247.691 212.383C247.772 212.234 247.939 212.153 248.107 212.182C248.277 212.212 248.408 212.349 248.436 212.52C248.506 212.954 248.596 213.389 248.588 213.82C248.554 215.141 248.263 216.487 248.441 217.768C248.564 218.669 249.135 219.997 249.786 220.203C250.547 220.445 251.803 219.906 252.5 219.294C252.915 218.931 253.279 218.508 253.64 218.063C254.155 217.429 254.977 217.849 254.868 218.659C254.803 219.166 254.704 219.783 254.915 220.19C255.431 221.186 255.811 222.596 257.244 222.437C258.734 222.272 258.913 220.809 259.145 219.653C259.44 218.165 259.501 216.628 259.69 215.115C259.76 214.538 260.004 213.97 259.816 213.419C259.463 212.385 259.074 211.355 258.554 210.399C257.037 207.611 255.415 204.881 253.824 202.134Z" fill="white"/>
<path d="M143.483 160.11C143.67 160.79 143.909 161.455 144.185 162.103C144.467 162.765 144.743 163.387 145.151 163.899C147.084 166.324 148.998 168.728 149.83 171.835C150.608 174.743 150.302 176.371 148.52 177.473C147.379 178.179 146.403 179.174 146.247 180.507C146.088 181.866 146.765 183.271 148.122 183.455C149.635 183.66 151.427 183.462 153.185 182.881C157.371 181.497 153.868 176.337 152.664 172.094C152.349 170.986 152.177 169.895 152.181 168.832C152.197 165.056 152.593 160.563 149.931 157.881C148.702 156.642 147.557 155.304 146.268 154.133C145.627 153.552 144.794 153.077 143.97 152.853C142.65 152.492 141.813 153.674 142.206 155.328C142.585 156.909 143.034 158.473 143.483 160.11Z" fill="white"/>
<path d="M143.921 178.221C143.844 177.65 143.218 177.322 142.778 176.951C142.491 176.709 142.233 176.474 142.051 176.189C141.837 175.853 141.754 175.144 141.956 174.888C142.179 174.609 142.865 174.468 143.227 174.606C143.957 174.887 144.563 175.497 145.288 175.797C147.064 176.533 148.294 175.617 148.136 173.689C147.875 170.53 146.148 168.086 144.253 165.754C144.086 165.551 143.366 165.521 143.145 165.708C140.506 167.944 138.196 170.445 137.475 174.049C136.789 177.481 138.69 180.977 141.612 181.456C142.424 181.592 143.708 181.401 144.087 180.855C144.477 180.297 144.047 179.118 143.921 178.221Z" fill="white"/>
<path d="M155.067 168.938C155.253 170.874 155.76 173.097 157.545 173.87C158.26 174.179 159.036 174.22 159.884 174.006C161.994 173.474 163.859 171.199 164.064 168.935C164.433 164.865 160.49 162.552 157.36 162.933C155.707 163.133 155.242 165.021 155.063 166.377C154.952 167.211 154.984 168.066 155.067 168.938Z" fill="white"/>
<path d="M251.107 160.071C255.779 162.633 261.571 167.511 257.021 172.208" stroke="#2C4075" stroke-width="4.11439" stroke-linecap="round"/>
<path d="M252.529 200.417C257.137 205.092 256.43 208.664 260.329 214.507" stroke="#2C4075" stroke-width="4.11439" stroke-linecap="round"/>
<path d="M153.856 152.969C152.154 153.515 151.6 154.406 150.655 156.307" stroke="#2C4075" stroke-width="4.11439" stroke-linecap="round"/>
<path d="M256.726 172.378C278.787 177.668 301.24 191.465 280.377 207.092C275.443 210.273 264.502 216.23 260.209 214.612" stroke="#2C4075" stroke-width="4.11439" stroke-linecap="round"/>
<path d="M158.382 203.388C157.403 206.248 159.097 228.01 161.962 230.709" stroke="#2C4075" stroke-width="4.11439" stroke-linecap="round"/>
</g>
<path d="M37.2188 78.5102C39.9884 78.8224 42.1745 81.0071 42.4913 83.7748C42.8278 86.7152 47.0717 86.6787 47.4001 83.78C47.7141 81.0093 49.9014 78.8222 52.6729 78.5098C55.5633 78.184 55.5982 73.9547 52.6681 73.6211C49.8993 73.3058 47.7143 71.1197 47.4005 68.3507C47.072 65.4515 42.8275 65.415 42.4909 68.3559C42.1744 71.1219 39.9904 73.3057 37.2236 73.6207C34.2931 73.9543 34.328 78.1843 37.2188 78.5102Z" fill="white" stroke="#2C4075" stroke-width="3.52109"/>
<path d="M67.8632 112.724C69.2249 112.876 70.2992 113.95 70.4547 115.309C70.4809 115.537 70.5691 115.651 70.6503 115.717C70.7466 115.795 70.8925 115.85 71.0639 115.85C71.2352 115.85 71.3811 115.795 71.4774 115.717C71.5587 115.651 71.6468 115.537 71.673 115.309C71.8285 113.95 72.9028 112.876 74.2645 112.724C74.4872 112.699 74.5946 112.615 74.6559 112.539C74.7296 112.448 74.7832 112.309 74.783 112.144C74.7829 111.978 74.729 111.838 74.6537 111.745C74.5907 111.667 74.4815 111.582 74.2586 111.556C72.9003 111.402 71.8286 110.329 71.6733 108.972C71.6471 108.743 71.5589 108.63 71.4777 108.564C71.3812 108.486 71.2353 108.43 71.0639 108.43C70.8924 108.43 70.7465 108.486 70.6501 108.564C70.5688 108.63 70.4806 108.743 70.4544 108.972C70.2991 110.329 69.2274 111.402 67.8691 111.556C67.6462 111.582 67.537 111.667 67.474 111.745C67.3987 111.838 67.3448 111.978 67.3447 112.144C67.3445 112.309 67.3981 112.448 67.4718 112.539C67.5331 112.615 67.6405 112.699 67.8632 112.724Z" fill="white" stroke="#2C4075" stroke-width="2.34739"/>
<path d="M317.758 110.116C319.119 110.267 320.194 111.341 320.349 112.7C320.375 112.929 320.464 113.042 320.545 113.108C320.641 113.186 320.787 113.242 320.958 113.242C321.13 113.242 321.276 113.186 321.372 113.108C321.453 113.042 321.541 112.929 321.568 112.7C321.723 111.341 322.797 110.267 324.159 110.116C324.382 110.091 324.489 110.006 324.55 109.931C324.624 109.84 324.678 109.701 324.678 109.535C324.677 109.37 324.624 109.229 324.548 109.136C324.485 109.059 324.376 108.973 324.153 108.948C322.795 108.793 321.723 107.72 321.568 106.363C321.542 106.134 321.453 106.021 321.372 105.955C321.276 105.877 321.13 105.821 320.958 105.821C320.787 105.821 320.641 105.877 320.545 105.955C320.463 106.021 320.375 106.134 320.349 106.363C320.194 107.72 319.122 108.793 317.764 108.948C317.541 108.973 317.432 109.059 317.369 109.136C317.293 109.229 317.239 109.37 317.239 109.535C317.239 109.701 317.293 109.84 317.366 109.931C317.428 110.006 317.535 110.091 317.758 110.116Z" fill="white" stroke="#2C4075" stroke-width="2.34739"/>
<path d="M310.009 167.005C311.642 167.185 312.931 168.474 313.118 170.102C313.284 171.538 315.376 171.538 315.542 170.102C315.729 168.474 317.018 167.185 318.651 167.005C320.007 166.855 320.064 164.838 318.644 164.677C317.015 164.493 315.73 163.206 315.542 161.58C315.377 160.143 313.283 160.143 313.118 161.58C312.93 163.206 311.645 164.493 310.016 164.677C308.596 164.838 308.653 166.855 310.009 167.005Z" fill="white" stroke="#2C4075" stroke-width="2.34739"/>
<path d="M201.518 55.7194C201.489 56.1061 201.192 56.4205 200.808 56.4719C200.295 56.5406 199.851 56.1204 199.89 55.6036L200.197 51.5786C200.345 49.6375 201.833 48.0603 203.761 47.8022L204.016 47.768C204.629 47.6859 205.114 47.6868 205.47 47.7708C205.83 47.8506 206.135 48.0468 206.387 48.3592C206.643 48.6712 206.801 49.0695 206.864 49.5541C206.952 50.2459 206.821 50.8448 206.47 51.3508C206.268 51.6403 205.988 51.8827 205.632 52.0779C205.293 52.2633 205.178 52.8091 205.415 53.112C205.713 53.4994 206.043 53.9989 206.406 54.6103C206.698 55.1017 206.381 55.7257 205.813 55.8017C205.46 55.8491 205.119 55.6605 204.953 55.3457C204.744 54.9491 204.462 54.4492 204.106 53.8461C203.812 53.3511 203.526 53.0301 203.247 52.8831C203.076 52.7968 202.795 52.7798 202.405 52.8321C202.012 52.8846 201.709 53.2057 201.679 53.6007L201.518 55.7194ZM201.892 50.7853C201.858 51.241 202.25 51.6111 202.702 51.5505C203.59 51.4317 204.171 51.2994 204.445 51.1535C204.724 51.0071 204.93 50.8083 205.065 50.5569C205.2 50.3056 205.251 50.0541 205.219 49.8026C205.181 49.5066 205.034 49.3006 204.777 49.1844C204.62 49.1151 204.298 49.113 203.813 49.178L202.885 49.3022C202.367 49.3717 201.966 49.7963 201.927 50.3185L201.892 50.7853Z" fill="#FF2E00"/>
<path d="M211.66 55.0189C209.712 55.2797 208.025 53.6855 208.174 51.7238L208.337 49.5585C208.442 48.165 209.511 47.0323 210.894 46.8471L213.638 46.4797C214.068 46.4221 214.44 46.7741 214.408 47.2073C214.384 47.532 214.135 47.796 213.812 47.8392L210.818 48.2401C210.381 48.2987 210.043 48.6566 210.009 49.0972C209.963 49.6866 210.47 50.1662 211.055 50.0878L213.244 49.7947C213.675 49.7372 214.047 50.0891 214.015 50.5223C213.99 50.847 213.741 51.111 213.419 51.1542L210.696 51.5188C210.181 51.5877 209.781 52.0037 209.73 52.5213C209.662 53.2336 210.271 53.8221 210.98 53.7272L213.431 53.399C213.862 53.3413 214.235 53.695 214.201 54.1292C214.175 54.4528 213.927 54.7154 213.605 54.7585L211.66 55.0189Z" fill="#FF2E00"/>
<path fill-rule="evenodd" clip-rule="evenodd" d="M116.43 129.777C114.808 131.198 113.376 134.042 113.063 136.467C112.943 137.402 112.755 138.588 112.647 139.103C112.458 139.997 112.43 140.005 112.056 139.292C110.222 135.8 108.234 134.311 105.969 134.735C101.517 135.568 102.299 142.818 107.313 147.191C109.728 149.297 113.2 151.169 114.69 151.169C115.987 151.169 117.45 149.737 120.049 145.921C121.936 143.15 122.917 141.035 123.891 137.639C124.794 134.49 124.788 133.317 123.856 131.398C122.373 128.343 118.927 127.591 116.43 129.777Z" fill="#3F455B"/>
</svg>
