<svg width="33" height="33" viewBox="0 0 33 33" fill="none" xmlns="http://www.w3.org/2000/svg">
<path d="M23.663 0H8.71795C6.40656 0.00247251 4.19056 0.921762 2.55616 2.55616C0.921762 4.19056 0.00247251 6.40656 0 8.71795V23.663C0.00247251 25.9744 0.921762 28.1904 2.55616 29.8248C4.19056 31.4592 6.40656 32.3785 8.71795 32.381H23.663C25.9744 32.3785 28.1904 31.4592 29.8248 29.8248C31.4592 28.1904 32.3785 25.9744 32.381 23.663V8.71795C32.3785 6.40656 31.4592 4.19056 29.8248 2.55616C28.1904 0.921762 25.9744 0.00247251 23.663 0ZM16.1905 23.663C14.7125 23.663 13.2678 23.2247 12.039 22.4037C10.8101 21.5826 9.85234 20.4155 9.28676 19.0501C8.72118 17.6847 8.5732 16.1822 8.86153 14.7327C9.14986 13.2831 9.86155 11.9517 10.9066 10.9066C11.9517 9.86155 13.2831 9.14986 14.7327 8.86153C16.1822 8.5732 17.6847 8.72118 19.0501 9.28676C20.4155 9.85234 21.5826 10.8101 22.4037 12.039C23.2247 13.2678 23.663 14.7125 23.663 16.1905C23.6609 18.1717 22.873 20.0712 21.4721 21.4721C20.0712 22.873 18.1717 23.6609 16.1905 23.663ZM25.5311 8.71795C25.1617 8.71795 24.8005 8.60839 24.4933 8.40311C24.186 8.19784 23.9466 7.90608 23.8052 7.56472C23.6638 7.22336 23.6268 6.84774 23.6989 6.48536C23.771 6.12298 23.9489 5.79011 24.2102 5.52885C24.4714 5.26758 24.8043 5.08966 25.1667 5.01758C25.5291 4.9455 25.9047 4.98249 26.246 5.12389C26.5874 5.26528 26.8792 5.50473 27.0844 5.81194C27.2897 6.11915 27.3993 6.48033 27.3993 6.84982C27.3993 7.34528 27.2024 7.82044 26.8521 8.17078C26.5018 8.52113 26.0266 8.71795 25.5311 8.71795ZM21.1722 16.1905C21.1722 17.1758 20.88 18.1389 20.3326 18.9582C19.7852 19.7774 19.0072 20.4159 18.0969 20.793C17.1866 21.17 16.1849 21.2687 15.2186 21.0764C14.2522 20.8842 13.3646 20.4098 12.6679 19.7131C11.9712 19.0164 11.4967 18.1287 11.3045 17.1624C11.1123 16.196 11.2109 15.1944 11.588 14.2841C11.965 13.3738 12.6036 12.5958 13.4228 12.0484C14.242 11.501 15.2052 11.2088 16.1905 11.2088C17.5117 11.2088 18.7788 11.7336 19.7131 12.6679C20.6473 13.6021 21.1722 14.8693 21.1722 16.1905Z" fill="#00DCFF"/>
</svg>
