<svg width="3645" height="548" viewBox="0 0 3645 548" fill="none" xmlns="http://www.w3.org/2000/svg">
<path d="M578.734 288V79.4H669.028C687.703 79.4 703.795 82.4793 717.304 88.638C730.813 94.598 741.243 103.24 748.594 114.564C755.945 125.888 759.62 139.397 759.62 155.092C759.62 170.588 755.945 183.998 748.594 195.322C741.243 206.447 730.813 214.99 717.304 220.95C703.795 226.91 687.703 229.89 669.028 229.89H605.554L627.01 208.732V288H578.734ZM711.344 288L659.194 212.308H710.748L763.494 288H711.344ZM627.01 214.096L605.554 191.448H666.346C681.246 191.448 692.371 188.269 699.722 181.912C707.073 175.356 710.748 166.416 710.748 155.092C710.748 143.569 707.073 134.629 699.722 128.272C692.371 121.915 681.246 118.736 666.346 118.736H605.554L627.01 95.79V214.096ZM874.157 290.384C855.879 290.384 839.787 286.808 825.881 279.656C812.173 272.504 801.544 262.769 793.995 250.452C786.445 237.936 782.671 223.731 782.671 207.838C782.671 191.746 786.346 177.541 793.697 165.224C801.246 152.708 811.477 142.973 824.391 136.02C837.304 128.868 851.906 125.292 868.197 125.292C883.891 125.292 897.997 128.669 910.513 135.424C923.227 141.98 933.26 151.516 940.611 164.032C947.961 176.349 951.637 191.15 951.637 208.434C951.637 210.222 951.537 212.308 951.339 214.692C951.14 216.877 950.941 218.963 950.743 220.95H820.517V193.832H926.307L908.427 201.878C908.427 193.534 906.738 186.283 903.361 180.124C899.983 173.965 895.315 169.197 889.355 165.82C883.395 162.244 876.441 160.456 868.495 160.456C860.548 160.456 853.495 162.244 847.337 165.82C841.377 169.197 836.708 174.065 833.331 180.422C829.953 186.581 828.265 193.931 828.265 202.474V209.626C828.265 218.367 830.152 226.115 833.927 232.87C837.9 239.426 843.363 244.492 850.317 248.068C857.469 251.445 865.813 253.134 875.349 253.134C883.891 253.134 891.341 251.843 897.699 249.26C904.255 246.677 910.215 242.803 915.579 237.638L940.313 264.458C932.962 272.802 923.724 279.259 912.599 283.828C901.473 288.199 888.659 290.384 874.157 290.384ZM1187.91 125.292C1200.62 125.292 1211.85 127.875 1221.58 133.04C1231.52 138.007 1239.26 145.755 1244.83 156.284C1250.59 166.615 1253.47 179.925 1253.47 196.216V288H1206.98V203.368C1206.98 190.455 1204.3 180.919 1198.93 174.76C1193.57 168.601 1186.02 165.522 1176.29 165.522C1169.53 165.522 1163.47 167.111 1158.11 170.29C1152.74 173.27 1148.57 177.839 1145.59 183.998C1142.61 190.157 1141.12 198.004 1141.12 207.54V288H1094.63V203.368C1094.63 190.455 1091.95 180.919 1086.59 174.76C1081.42 168.601 1073.97 165.522 1064.24 165.522C1057.48 165.522 1051.42 167.111 1046.06 170.29C1040.7 173.27 1036.52 177.839 1033.54 183.998C1030.56 190.157 1029.07 198.004 1029.07 207.54V288H982.587V127.676H1026.99V171.482L1018.64 158.668C1024.21 147.741 1032.05 139.497 1042.19 133.934C1052.52 128.173 1064.24 125.292 1077.35 125.292C1092.05 125.292 1104.87 129.067 1115.79 136.616C1126.92 143.967 1134.27 155.291 1137.84 170.588L1121.45 166.118C1126.82 153.602 1135.36 143.669 1147.08 136.318C1159 128.967 1172.61 125.292 1187.91 125.292ZM1372.59 290.384C1355.5 290.384 1340.31 286.808 1327 279.656C1313.88 272.504 1303.45 262.769 1295.71 250.452C1288.16 237.936 1284.38 223.731 1284.38 207.838C1284.38 191.746 1288.16 177.541 1295.71 165.224C1303.45 152.708 1313.88 142.973 1327 136.02C1340.31 128.868 1355.5 125.292 1372.59 125.292C1389.48 125.292 1404.58 128.868 1417.89 136.02C1431.2 142.973 1441.63 152.609 1449.18 164.926C1456.73 177.243 1460.5 191.547 1460.5 207.838C1460.5 223.731 1456.73 237.936 1449.18 250.452C1441.63 262.769 1431.2 272.504 1417.89 279.656C1404.58 286.808 1389.48 290.384 1372.59 290.384ZM1372.59 252.24C1380.34 252.24 1387.29 250.452 1393.45 246.876C1399.61 243.3 1404.48 238.234 1408.05 231.678C1411.63 224.923 1413.42 216.977 1413.42 207.838C1413.42 198.501 1411.63 190.554 1408.05 183.998C1404.48 177.442 1399.61 172.376 1393.45 168.8C1387.29 165.224 1380.34 163.436 1372.59 163.436C1364.84 163.436 1357.89 165.224 1351.73 168.8C1345.57 172.376 1340.6 177.442 1336.83 183.998C1333.25 190.554 1331.47 198.501 1331.47 207.838C1331.47 216.977 1333.25 224.923 1336.83 231.678C1340.6 238.234 1345.57 243.3 1351.73 246.876C1357.89 250.452 1364.84 252.24 1372.59 252.24ZM1557.13 290.384C1538.26 290.384 1523.56 285.616 1513.03 276.08C1502.5 266.345 1497.24 251.942 1497.24 232.87V92.214H1543.72V232.274C1543.72 239.029 1545.51 244.293 1549.09 248.068C1552.66 251.644 1557.53 253.432 1563.69 253.432C1571.04 253.432 1577.3 251.445 1582.46 247.472L1594.98 280.252C1590.21 283.629 1584.45 286.212 1577.7 288C1571.14 289.589 1564.29 290.384 1557.13 290.384ZM1472.5 167.012V131.252H1583.66V167.012H1472.5ZM1695.69 290.384C1677.42 290.384 1661.32 286.808 1647.42 279.656C1633.71 272.504 1623.08 262.769 1615.53 250.452C1607.98 237.936 1604.21 223.731 1604.21 207.838C1604.21 191.746 1607.88 177.541 1615.23 165.224C1622.78 152.708 1633.01 142.973 1645.93 136.02C1658.84 128.868 1673.44 125.292 1689.73 125.292C1705.43 125.292 1719.53 128.669 1732.05 135.424C1744.76 141.98 1754.8 151.516 1762.15 164.032C1769.5 176.349 1773.17 191.15 1773.17 208.434C1773.17 210.222 1773.07 212.308 1772.88 214.692C1772.68 216.877 1772.48 218.963 1772.28 220.95H1642.05V193.832H1747.84L1729.96 201.878C1729.96 193.534 1728.28 186.283 1724.9 180.124C1721.52 173.965 1716.85 169.197 1710.89 165.82C1704.93 162.244 1697.98 160.456 1690.03 160.456C1682.09 160.456 1675.03 162.244 1668.87 165.82C1662.91 169.197 1658.25 174.065 1654.87 180.422C1651.49 186.581 1649.8 193.931 1649.8 202.474V209.626C1649.8 218.367 1651.69 226.115 1655.46 232.87C1659.44 239.426 1664.9 244.492 1671.85 248.068C1679.01 251.445 1687.35 253.134 1696.89 253.134C1705.43 253.134 1712.88 251.843 1719.24 249.26C1725.79 246.677 1731.75 242.803 1737.12 237.638L1761.85 264.458C1754.5 272.802 1745.26 279.259 1734.14 283.828C1723.01 288.199 1710.2 290.384 1695.69 290.384ZM1936.2 163.436H2036.62V200.984H1936.2V163.436ZM1939.77 249.26H2053.31V288H1891.8V79.4H2049.44V118.14H1939.77V249.26ZM2293.77 125.292C2306.48 125.292 2317.71 127.875 2327.44 133.04C2337.38 138.007 2345.12 145.755 2350.69 156.284C2356.45 166.615 2359.33 179.925 2359.33 196.216V288H2312.84V203.368C2312.84 190.455 2310.16 180.919 2304.79 174.76C2299.43 168.601 2291.88 165.522 2282.15 165.522C2275.39 165.522 2269.33 167.111 2263.97 170.29C2258.6 173.27 2254.43 177.839 2251.45 183.998C2248.47 190.157 2246.98 198.004 2246.98 207.54V288H2200.49V203.368C2200.49 190.455 2197.81 180.919 2192.45 174.76C2187.28 168.601 2179.83 165.522 2170.1 165.522C2163.34 165.522 2157.28 167.111 2151.92 170.29C2146.56 173.27 2142.38 177.839 2139.4 183.998C2136.42 190.157 2134.93 198.004 2134.93 207.54V288H2088.45V127.676H2132.85V171.482L2124.5 158.668C2130.07 147.741 2137.91 139.497 2148.05 133.934C2158.38 128.173 2170.1 125.292 2183.21 125.292C2197.91 125.292 2210.73 129.067 2221.65 136.616C2232.78 143.967 2240.13 155.291 2243.7 170.588L2227.31 166.118C2232.68 153.602 2241.22 143.669 2252.94 136.318C2264.86 128.967 2278.47 125.292 2293.77 125.292ZM2495.76 290.384C2482.25 290.384 2470.43 287.404 2460.3 281.444C2450.17 275.484 2442.22 266.445 2436.46 254.326C2430.9 242.009 2428.12 226.513 2428.12 207.838C2428.12 188.965 2430.8 173.469 2436.16 161.35C2441.53 149.231 2449.27 140.192 2459.41 134.232C2469.54 128.272 2481.66 125.292 2495.76 125.292C2510.86 125.292 2524.37 128.769 2536.29 135.722C2548.41 142.477 2557.94 152.013 2564.9 164.33C2572.05 176.647 2575.63 191.15 2575.63 207.838C2575.63 224.725 2572.05 239.327 2564.9 251.644C2557.94 263.961 2548.41 273.497 2536.29 280.252C2524.37 287.007 2510.86 290.384 2495.76 290.384ZM2401 345.812V127.676H2445.4V160.456L2444.51 208.136L2447.49 255.518V345.812H2401ZM2487.72 252.24C2495.46 252.24 2502.32 250.452 2508.28 246.876C2514.44 243.3 2519.3 238.234 2522.88 231.678C2526.65 224.923 2528.54 216.977 2528.54 207.838C2528.54 198.501 2526.65 190.554 2522.88 183.998C2519.3 177.442 2514.44 172.376 2508.28 168.8C2502.32 165.224 2495.46 163.436 2487.72 163.436C2479.97 163.436 2473.01 165.224 2466.86 168.8C2460.7 172.376 2455.83 177.442 2452.25 183.998C2448.68 190.554 2446.89 198.501 2446.89 207.838C2446.89 216.977 2448.68 224.923 2452.25 231.678C2455.83 238.234 2460.7 243.3 2466.86 246.876C2473.01 250.452 2479.97 252.24 2487.72 252.24ZM2606.75 288V66.884H2653.23V288H2606.75ZM2772.67 290.384C2755.58 290.384 2740.38 286.808 2727.07 279.656C2713.96 272.504 2703.53 262.769 2695.78 250.452C2688.23 237.936 2684.46 223.731 2684.46 207.838C2684.46 191.746 2688.23 177.541 2695.78 165.224C2703.53 152.708 2713.96 142.973 2727.07 136.02C2740.38 128.868 2755.58 125.292 2772.67 125.292C2789.55 125.292 2804.65 128.868 2817.96 136.02C2831.27 142.973 2841.7 152.609 2849.25 164.926C2856.8 177.243 2860.58 191.547 2860.58 207.838C2860.58 223.731 2856.8 237.936 2849.25 250.452C2841.7 262.769 2831.27 272.504 2817.96 279.656C2804.65 286.808 2789.55 290.384 2772.67 290.384ZM2772.67 252.24C2780.41 252.24 2787.37 250.452 2793.53 246.876C2799.68 243.3 2804.55 238.234 2808.13 231.678C2811.7 224.923 2813.49 216.977 2813.49 207.838C2813.49 198.501 2811.7 190.554 2808.13 183.998C2804.55 177.442 2799.68 172.376 2793.53 168.8C2787.37 165.224 2780.41 163.436 2772.67 163.436C2764.92 163.436 2757.96 165.224 2751.81 168.8C2745.65 172.376 2740.68 177.442 2736.91 183.998C2733.33 190.554 2731.54 198.501 2731.54 207.838C2731.54 216.977 2733.33 224.923 2736.91 231.678C2740.68 238.234 2745.65 243.3 2751.81 246.876C2757.96 250.452 2764.92 252.24 2772.67 252.24ZM2907.55 348.196C2899.2 348.196 2890.96 346.905 2882.81 344.322C2874.67 341.739 2868.01 338.163 2862.85 333.594L2879.83 300.516C2883.41 303.695 2887.48 306.178 2892.05 307.966C2896.82 309.754 2901.49 310.648 2906.06 310.648C2912.61 310.648 2917.78 309.059 2921.55 305.88C2925.53 302.9 2929.1 297.834 2932.28 290.682L2940.63 271.014L2944.2 265.948L3001.72 127.676H3046.42L2974 297.834C2968.84 310.747 2962.88 320.879 2956.12 328.23C2949.57 335.581 2942.22 340.746 2934.07 343.726C2926.12 346.706 2917.28 348.196 2907.55 348.196ZM2934.96 294.258L2863.44 127.676H2911.42L2966.85 261.776L2934.96 294.258ZM3140.59 290.384C3122.31 290.384 3106.22 286.808 3092.31 279.656C3078.6 272.504 3067.97 262.769 3060.42 250.452C3052.88 237.936 3049.1 223.731 3049.1 207.838C3049.1 191.746 3052.78 177.541 3060.13 165.224C3067.68 152.708 3077.91 142.973 3090.82 136.02C3103.73 128.868 3118.34 125.292 3134.63 125.292C3150.32 125.292 3164.43 128.669 3176.94 135.424C3189.66 141.98 3199.69 151.516 3207.04 164.032C3214.39 176.349 3218.07 191.15 3218.07 208.434C3218.07 210.222 3217.97 212.308 3217.77 214.692C3217.57 216.877 3217.37 218.963 3217.17 220.95H3086.95V193.832H3192.74L3174.86 201.878C3174.86 193.534 3173.17 186.283 3169.79 180.124C3166.41 173.965 3161.74 169.197 3155.78 165.82C3149.82 162.244 3142.87 160.456 3134.92 160.456C3126.98 160.456 3119.93 162.244 3113.77 165.82C3107.81 169.197 3103.14 174.065 3099.76 180.422C3096.38 186.581 3094.69 193.931 3094.69 202.474V209.626C3094.69 218.367 3096.58 226.115 3100.36 232.87C3104.33 239.426 3109.79 244.492 3116.75 248.068C3123.9 251.445 3132.24 253.134 3141.78 253.134C3150.32 253.134 3157.77 251.843 3164.13 249.26C3170.68 246.677 3176.64 242.803 3182.01 237.638L3206.74 264.458C3199.39 272.802 3190.15 279.259 3179.03 283.828C3167.9 288.199 3155.09 290.384 3140.59 290.384ZM3328.58 290.384C3310.31 290.384 3294.21 286.808 3280.31 279.656C3266.6 272.504 3255.97 262.769 3248.42 250.452C3240.87 237.936 3237.1 223.731 3237.1 207.838C3237.1 191.746 3240.77 177.541 3248.12 165.224C3255.67 152.708 3265.9 142.973 3278.82 136.02C3291.73 128.868 3306.33 125.292 3322.62 125.292C3338.32 125.292 3352.42 128.669 3364.94 135.424C3377.65 141.98 3387.69 151.516 3395.04 164.032C3402.39 176.349 3406.06 191.15 3406.06 208.434C3406.06 210.222 3405.96 212.308 3405.76 214.692C3405.57 216.877 3405.37 218.963 3405.17 220.95H3274.94V193.832H3380.73L3362.85 201.878C3362.85 193.534 3361.16 186.283 3357.79 180.124C3354.41 173.965 3349.74 169.197 3343.78 165.82C3337.82 162.244 3330.87 160.456 3322.92 160.456C3314.97 160.456 3307.92 162.244 3301.76 165.82C3295.8 169.197 3291.13 174.065 3287.76 180.422C3284.38 186.581 3282.69 193.931 3282.69 202.474V209.626C3282.69 218.367 3284.58 226.115 3288.35 232.87C3292.33 239.426 3297.79 244.492 3304.74 248.068C3311.89 251.445 3320.24 253.134 3329.77 253.134C3338.32 253.134 3345.77 251.843 3352.12 249.26C3358.68 246.677 3364.64 242.803 3370 237.638L3394.74 264.458C3387.39 272.802 3378.15 279.259 3367.02 283.828C3355.9 288.199 3343.09 290.384 3328.58 290.384ZM3490.95 290.384C3477.24 290.384 3464.03 288.795 3451.32 285.616C3438.8 282.239 3428.87 278.067 3421.52 273.1L3437.01 239.724C3444.36 244.293 3453.01 248.068 3462.94 251.048C3473.07 253.829 3483 255.22 3492.74 255.22C3503.47 255.22 3511.02 253.929 3515.39 251.346C3519.96 248.763 3522.24 245.187 3522.24 240.618C3522.24 236.843 3520.45 234.062 3516.88 232.274C3513.5 230.287 3508.93 228.797 3503.17 227.804C3497.41 226.811 3491.05 225.817 3484.1 224.824C3477.34 223.831 3470.49 222.539 3463.53 220.95C3456.58 219.162 3450.22 216.579 3444.46 213.202C3438.7 209.825 3434.03 205.255 3430.46 199.494C3427.08 193.733 3425.39 186.283 3425.39 177.144C3425.39 167.012 3428.27 158.072 3434.03 150.324C3439.99 142.576 3448.54 136.517 3459.66 132.146C3470.79 127.577 3484.1 125.292 3499.59 125.292C3510.52 125.292 3521.64 126.484 3532.97 128.868C3544.29 131.252 3553.73 134.729 3561.28 139.298L3545.78 172.376C3538.03 167.807 3530.19 164.727 3522.24 163.138C3514.49 161.35 3506.94 160.456 3499.59 160.456C3489.26 160.456 3481.71 161.847 3476.94 164.628C3472.18 167.409 3469.79 170.985 3469.79 175.356C3469.79 179.329 3471.48 182.309 3474.86 184.296C3478.43 186.283 3483.1 187.872 3488.86 189.064C3494.63 190.256 3500.88 191.349 3507.64 192.342C3514.59 193.137 3521.55 194.428 3528.5 196.216C3535.45 198.004 3541.71 200.587 3547.27 203.964C3553.03 207.143 3557.7 211.613 3561.28 217.374C3564.85 222.937 3566.64 230.287 3566.64 239.426C3566.64 249.359 3563.66 258.2 3557.7 265.948C3551.74 273.497 3543.1 279.457 3531.78 283.828C3520.65 288.199 3507.04 290.384 3490.95 290.384Z" fill="black"/>
<path d="M599 503V388.52H554.72V377H656.6V388.52H612.32V503H599ZM723.419 407.6C731.099 407.6 737.819 409.1 743.579 412.1C749.459 414.98 754.019 419.42 757.259 425.42C760.619 431.42 762.299 438.98 762.299 448.1V503H749.519V449.36C749.519 439.4 746.999 431.9 741.959 426.86C737.039 421.7 730.079 419.12 721.079 419.12C714.359 419.12 708.479 420.5 703.439 423.26C698.519 425.9 694.679 429.8 691.919 434.96C689.279 440 687.959 446.12 687.959 453.32V503H675.179V369.44H687.959V434.42L685.439 429.56C688.439 422.72 693.239 417.38 699.839 413.54C706.439 409.58 714.299 407.6 723.419 407.6ZM836.96 503.9C827.12 503.9 818.48 501.86 811.04 497.78C803.6 493.58 797.78 487.88 793.58 480.68C789.38 473.36 787.28 465.02 787.28 455.66C787.28 446.3 789.26 438.02 793.22 430.82C797.3 423.62 802.82 417.98 809.78 413.9C816.86 409.7 824.78 407.6 833.54 407.6C842.42 407.6 850.28 409.64 857.12 413.72C864.08 417.68 869.54 423.32 873.5 430.64C877.46 437.84 879.44 446.18 879.44 455.66C879.44 456.26 879.38 456.92 879.26 457.64C879.26 458.24 879.26 458.9 879.26 459.62H797V450.08H872.42L867.38 453.86C867.38 447.02 865.88 440.96 862.88 435.68C860 430.28 856.04 426.08 851 423.08C845.96 420.08 840.14 418.58 833.54 418.58C827.06 418.58 821.24 420.08 816.08 423.08C810.92 426.08 806.9 430.28 804.02 435.68C801.14 441.08 799.7 447.26 799.7 454.22V456.2C799.7 463.4 801.26 469.76 804.38 475.28C807.62 480.68 812.06 484.94 817.7 488.06C823.46 491.06 830 492.56 837.32 492.56C843.08 492.56 848.42 491.54 853.34 489.5C858.38 487.46 862.7 484.34 866.3 480.14L873.5 488.42C869.3 493.46 864.02 497.3 857.66 499.94C851.42 502.58 844.52 503.9 836.96 503.9ZM991.082 503.9C981.962 503.9 973.742 501.86 966.422 497.78C959.222 493.58 953.522 487.88 949.322 480.68C945.122 473.36 943.022 465.02 943.022 455.66C943.022 446.18 945.122 437.84 949.322 430.64C953.522 423.44 959.222 417.8 966.422 413.72C973.622 409.64 981.842 407.6 991.082 407.6C1000.44 407.6 1008.72 409.64 1015.92 413.72C1023.24 417.8 1028.94 423.44 1033.02 430.64C1037.22 437.84 1039.32 446.18 1039.32 455.66C1039.32 465.02 1037.22 473.36 1033.02 480.68C1028.94 487.88 1023.24 493.58 1015.92 497.78C1008.6 501.86 1000.32 503.9 991.082 503.9ZM991.082 492.56C997.922 492.56 1003.98 491.06 1009.26 488.06C1014.54 484.94 1018.68 480.62 1021.68 475.1C1024.8 469.46 1026.36 462.98 1026.36 455.66C1026.36 448.22 1024.8 441.74 1021.68 436.22C1018.68 430.7 1014.54 426.44 1009.26 423.44C1003.98 420.32 997.982 418.76 991.262 418.76C984.542 418.76 978.542 420.32 973.262 423.44C967.982 426.44 963.782 430.7 960.662 436.22C957.542 441.74 955.982 448.22 955.982 455.66C955.982 462.98 957.542 469.46 960.662 475.1C963.782 480.62 967.982 484.94 973.262 488.06C978.542 491.06 984.482 492.56 991.082 492.56ZM1104.47 503.9C1096.43 503.9 1089.41 502.4 1083.41 499.4C1077.41 496.4 1072.73 491.9 1069.37 485.9C1066.13 479.9 1064.51 472.4 1064.51 463.4V408.5H1077.29V461.96C1077.29 472.04 1079.75 479.66 1084.67 484.82C1089.71 489.86 1096.73 492.38 1105.73 492.38C1112.33 492.38 1118.03 491.06 1122.83 488.42C1127.75 485.66 1131.47 481.7 1133.99 476.54C1136.63 471.38 1137.95 465.2 1137.95 458V408.5H1150.73V503H1138.49V477.08L1140.47 481.76C1137.47 488.72 1132.79 494.18 1126.43 498.14C1120.19 501.98 1112.87 503.9 1104.47 503.9ZM1216.23 503.9C1207.35 503.9 1200.51 501.5 1195.71 496.7C1190.91 491.9 1188.51 485.12 1188.51 476.36V387.62H1201.29V475.64C1201.29 481.16 1202.67 485.42 1205.43 488.42C1208.31 491.42 1212.39 492.92 1217.67 492.92C1223.31 492.92 1227.99 491.3 1231.71 488.06L1236.21 497.24C1233.69 499.52 1230.63 501.2 1227.03 502.28C1223.55 503.36 1219.95 503.9 1216.23 503.9ZM1171.59 419.12V408.5H1230.09V419.12H1171.59ZM1284.86 503.9C1277.06 503.9 1269.68 502.82 1262.72 500.66C1255.76 498.38 1250.3 495.56 1246.34 492.2L1252.1 482.12C1255.94 485 1260.86 487.52 1266.86 489.68C1272.86 491.72 1279.16 492.74 1285.76 492.74C1294.76 492.74 1301.24 491.36 1305.2 488.6C1309.16 485.72 1311.14 481.94 1311.14 477.26C1311.14 473.78 1310 471.08 1307.72 469.16C1305.56 467.12 1302.68 465.62 1299.08 464.66C1295.48 463.58 1291.46 462.68 1287.02 461.96C1282.58 461.24 1278.14 460.4 1273.7 459.44C1269.38 458.48 1265.42 457.1 1261.82 455.3C1258.22 453.38 1255.28 450.8 1253 447.56C1250.84 444.32 1249.76 440 1249.76 434.6C1249.76 429.44 1251.2 424.82 1254.08 420.74C1256.96 416.66 1261.16 413.48 1266.68 411.2C1272.32 408.8 1279.16 407.6 1287.2 407.6C1293.32 407.6 1299.44 408.44 1305.56 410.12C1311.68 411.68 1316.72 413.78 1320.68 416.42L1315.1 426.68C1310.9 423.8 1306.4 421.76 1301.6 420.56C1296.8 419.24 1292 418.58 1287.2 418.58C1278.68 418.58 1272.38 420.08 1268.3 423.08C1264.34 425.96 1262.36 429.68 1262.36 434.24C1262.36 437.84 1263.44 440.66 1265.6 442.7C1267.88 444.74 1270.82 446.36 1274.42 447.56C1278.14 448.64 1282.16 449.54 1286.48 450.26C1290.92 450.98 1295.3 451.88 1299.62 452.96C1304.06 453.92 1308.08 455.3 1311.68 457.1C1315.4 458.78 1318.34 461.24 1320.5 464.48C1322.78 467.6 1323.92 471.74 1323.92 476.9C1323.92 482.42 1322.36 487.22 1319.24 491.3C1316.24 495.26 1311.8 498.38 1305.92 500.66C1300.16 502.82 1293.14 503.9 1284.86 503.9ZM1377.25 503.9C1368.37 503.9 1361.53 501.5 1356.73 496.7C1351.93 491.9 1349.53 485.12 1349.53 476.36V387.62H1362.31V475.64C1362.31 481.16 1363.69 485.42 1366.45 488.42C1369.33 491.42 1373.41 492.92 1378.69 492.92C1384.33 492.92 1389.01 491.3 1392.73 488.06L1397.23 497.24C1394.71 499.52 1391.65 501.2 1388.05 502.28C1384.57 503.36 1380.97 503.9 1377.25 503.9ZM1332.61 419.12V408.5H1391.11V419.12H1332.61ZM1479.71 503V482.12L1479.17 478.7V443.78C1479.17 435.74 1476.89 429.56 1472.33 425.24C1467.89 420.92 1461.23 418.76 1452.35 418.76C1446.23 418.76 1440.41 419.78 1434.89 421.82C1429.37 423.86 1424.69 426.56 1420.85 429.92L1415.09 420.38C1419.89 416.3 1425.65 413.18 1432.37 411.02C1439.09 408.74 1446.17 407.6 1453.61 407.6C1465.85 407.6 1475.27 410.66 1481.87 416.78C1488.59 422.78 1491.95 431.96 1491.95 444.32V503H1479.71ZM1447.13 503.9C1440.05 503.9 1433.87 502.76 1428.59 500.48C1423.43 498.08 1419.47 494.84 1416.71 490.76C1413.95 486.56 1412.57 481.76 1412.57 476.36C1412.57 471.44 1413.71 467 1415.99 463.04C1418.39 458.96 1422.23 455.72 1427.51 453.32C1432.91 450.8 1440.11 449.54 1449.11 449.54H1481.69V459.08H1449.47C1440.35 459.08 1433.99 460.7 1430.39 463.94C1426.91 467.18 1425.17 471.2 1425.17 476C1425.17 481.4 1427.27 485.72 1431.47 488.96C1435.67 492.2 1441.55 493.82 1449.11 493.82C1456.31 493.82 1462.49 492.2 1467.65 488.96C1472.93 485.6 1476.77 480.8 1479.17 474.56L1482.05 483.38C1479.65 489.62 1475.45 494.6 1469.45 498.32C1463.57 502.04 1456.13 503.9 1447.13 503.9ZM1528.82 503V396.62C1528.82 388.22 1531.28 381.44 1536.2 376.28C1541.12 371.12 1548.2 368.54 1557.44 368.54C1561.04 368.54 1564.52 369.02 1567.88 369.98C1571.24 370.94 1574.06 372.44 1576.34 374.48L1572.02 384.02C1570.22 382.46 1568.12 381.32 1565.72 380.6C1563.32 379.76 1560.74 379.34 1557.98 379.34C1552.58 379.34 1548.44 380.84 1545.56 383.84C1542.68 386.84 1541.24 391.28 1541.24 397.16V411.56L1541.6 417.5V503H1528.82ZM1511.9 419.12V408.5H1570.4V419.12H1511.9ZM1589.82 503V396.62C1589.82 388.22 1592.28 381.44 1597.2 376.28C1602.12 371.12 1609.2 368.54 1618.44 368.54C1622.04 368.54 1625.52 369.02 1628.88 369.98C1632.24 370.94 1635.06 372.44 1637.34 374.48L1633.02 384.02C1631.22 382.46 1629.12 381.32 1626.72 380.6C1624.32 379.76 1621.74 379.34 1618.98 379.34C1613.58 379.34 1609.44 380.84 1606.56 383.84C1603.68 386.84 1602.24 391.28 1602.24 397.16V411.56L1602.6 417.5V503H1589.82ZM1572.9 419.12V408.5H1631.4V419.12H1572.9ZM1648.68 503V408.5H1661.46V503H1648.68ZM1655.16 387.62C1652.52 387.62 1650.3 386.72 1648.5 384.92C1646.7 383.12 1645.8 380.96 1645.8 378.44C1645.8 375.92 1646.7 373.82 1648.5 372.14C1650.3 370.34 1652.52 369.44 1655.16 369.44C1657.8 369.44 1660.02 370.28 1661.82 371.96C1663.62 373.64 1664.52 375.74 1664.52 378.26C1664.52 380.9 1663.62 383.12 1661.82 384.92C1660.14 386.72 1657.92 387.62 1655.16 387.62ZM1745.59 407.6C1753.27 407.6 1759.99 409.1 1765.75 412.1C1771.63 414.98 1776.19 419.42 1779.43 425.42C1782.79 431.42 1784.47 438.98 1784.47 448.1V503H1771.69V449.36C1771.69 439.4 1769.17 431.9 1764.13 426.86C1759.21 421.7 1752.25 419.12 1743.25 419.12C1736.53 419.12 1730.65 420.5 1725.61 423.26C1720.69 425.9 1716.85 429.8 1714.09 434.96C1711.45 440 1710.13 446.12 1710.13 453.32V503H1697.35V408.5H1709.59V434.42L1707.61 429.56C1710.61 422.72 1715.41 417.38 1722.01 413.54C1728.61 409.58 1736.47 407.6 1745.59 407.6ZM1859.31 538.82C1850.67 538.82 1842.39 537.56 1834.47 535.04C1826.55 532.52 1820.13 528.92 1815.21 524.24L1821.69 514.52C1826.13 518.48 1831.59 521.6 1838.07 523.88C1844.67 526.28 1851.63 527.48 1858.95 527.48C1870.95 527.48 1879.77 524.66 1885.41 519.02C1891.05 513.5 1893.87 504.86 1893.87 493.1V469.52L1895.67 453.32L1894.41 437.12V408.5H1906.65V491.48C1906.65 507.8 1902.63 519.74 1894.59 527.3C1886.67 534.98 1874.91 538.82 1859.31 538.82ZM1856.97 499.4C1847.97 499.4 1839.87 497.48 1832.67 493.64C1825.47 489.68 1819.77 484.22 1815.57 477.26C1811.49 470.3 1809.45 462.32 1809.45 453.32C1809.45 444.32 1811.49 436.4 1815.57 429.56C1819.77 422.6 1825.47 417.2 1832.67 413.36C1839.87 409.52 1847.97 407.6 1856.97 407.6C1865.37 407.6 1872.93 409.34 1879.65 412.82C1886.37 416.3 1891.71 421.46 1895.67 428.3C1899.63 435.14 1901.61 443.48 1901.61 453.32C1901.61 463.16 1899.63 471.5 1895.67 478.34C1891.71 485.18 1886.37 490.4 1879.65 494C1872.93 497.6 1865.37 499.4 1856.97 499.4ZM1858.23 488.06C1865.19 488.06 1871.37 486.62 1876.77 483.74C1882.17 480.74 1886.43 476.66 1889.55 471.5C1892.67 466.22 1894.23 460.16 1894.23 453.32C1894.23 446.48 1892.67 440.48 1889.55 435.32C1886.43 430.16 1882.17 426.14 1876.77 423.26C1871.37 420.26 1865.19 418.76 1858.23 418.76C1851.39 418.76 1845.21 420.26 1839.69 423.26C1834.29 426.14 1830.03 430.16 1826.91 435.32C1823.91 440.48 1822.41 446.48 1822.41 453.32C1822.41 460.16 1823.91 466.22 1826.91 471.5C1830.03 476.66 1834.29 480.74 1839.69 483.74C1845.21 486.62 1851.39 488.06 1858.23 488.06ZM2028.56 503.9C2019.2 503.9 2010.8 501.86 2003.36 497.78C1996.04 493.58 1990.28 487.88 1986.08 480.68C1981.88 473.36 1979.78 465.02 1979.78 455.66C1979.78 446.18 1981.88 437.84 1986.08 430.64C1990.28 423.44 1996.04 417.8 2003.36 413.72C2010.8 409.64 2019.2 407.6 2028.56 407.6C2036.6 407.6 2043.86 409.16 2050.34 412.28C2056.82 415.4 2061.92 420.08 2065.64 426.32L2056.1 432.8C2052.86 428 2048.84 424.46 2044.04 422.18C2039.24 419.9 2034.02 418.76 2028.38 418.76C2021.66 418.76 2015.6 420.32 2010.2 423.44C2004.8 426.44 2000.54 430.7 1997.42 436.22C1994.3 441.74 1992.74 448.22 1992.74 455.66C1992.74 463.1 1994.3 469.58 1997.42 475.1C2000.54 480.62 2004.8 484.94 2010.2 488.06C2015.6 491.06 2021.66 492.56 2028.38 492.56C2034.02 492.56 2039.24 491.42 2044.04 489.14C2048.84 486.86 2052.86 483.38 2056.1 478.7L2065.64 485.18C2061.92 491.3 2056.82 495.98 2050.34 499.22C2043.86 502.34 2036.6 503.9 2028.56 503.9ZM2127.68 503.9C2118.56 503.9 2110.34 501.86 2103.02 497.78C2095.82 493.58 2090.12 487.88 2085.92 480.68C2081.72 473.36 2079.62 465.02 2079.62 455.66C2079.62 446.18 2081.72 437.84 2085.92 430.64C2090.12 423.44 2095.82 417.8 2103.02 413.72C2110.22 409.64 2118.44 407.6 2127.68 407.6C2137.04 407.6 2145.32 409.64 2152.52 413.72C2159.84 417.8 2165.54 423.44 2169.62 430.64C2173.82 437.84 2175.92 446.18 2175.92 455.66C2175.92 465.02 2173.82 473.36 2169.62 480.68C2165.54 487.88 2159.84 493.58 2152.52 497.78C2145.2 501.86 2136.92 503.9 2127.68 503.9ZM2127.68 492.56C2134.52 492.56 2140.58 491.06 2145.86 488.06C2151.14 484.94 2155.28 480.62 2158.28 475.1C2161.4 469.46 2162.96 462.98 2162.96 455.66C2162.96 448.22 2161.4 441.74 2158.28 436.22C2155.28 430.7 2151.14 426.44 2145.86 423.44C2140.58 420.32 2134.58 418.76 2127.86 418.76C2121.14 418.76 2115.14 420.32 2109.86 423.44C2104.58 426.44 2100.38 430.7 2097.26 436.22C2094.14 441.74 2092.58 448.22 2092.58 455.66C2092.58 462.98 2094.14 469.46 2097.26 475.1C2100.38 480.62 2104.58 484.94 2109.86 488.06C2115.14 491.06 2121.08 492.56 2127.68 492.56ZM2320.1 407.6C2327.78 407.6 2334.44 409.1 2340.08 412.1C2345.84 414.98 2350.28 419.42 2353.4 425.42C2356.64 431.42 2358.26 438.98 2358.26 448.1V503H2345.48V449.36C2345.48 439.4 2343.08 431.9 2338.28 426.86C2333.6 421.7 2326.94 419.12 2318.3 419.12C2311.82 419.12 2306.18 420.5 2301.38 423.26C2296.7 425.9 2293.04 429.8 2290.4 434.96C2287.88 440 2286.62 446.12 2286.62 453.32V503H2273.84V449.36C2273.84 439.4 2271.44 431.9 2266.64 426.86C2261.84 421.7 2255.12 419.12 2246.48 419.12C2240.12 419.12 2234.54 420.5 2229.74 423.26C2224.94 425.9 2221.22 429.8 2218.58 434.96C2216.06 440 2214.8 446.12 2214.8 453.32V503H2202.02V408.5H2214.26V434.06L2212.28 429.56C2215.16 422.72 2219.78 417.38 2226.14 413.54C2232.62 409.58 2240.24 407.6 2249 407.6C2258.24 407.6 2266.1 409.94 2272.58 414.62C2279.06 419.18 2283.26 426.08 2285.18 435.32L2280.14 433.34C2282.9 425.66 2287.76 419.48 2294.72 414.8C2301.8 410 2310.26 407.6 2320.1 407.6ZM2441.69 503.9C2433.53 503.9 2426.15 502.04 2419.55 498.32C2412.95 494.48 2407.67 489.02 2403.71 481.94C2399.87 474.74 2397.95 465.98 2397.95 455.66C2397.95 445.34 2399.87 436.64 2403.71 429.56C2407.55 422.36 2412.77 416.9 2419.37 413.18C2425.97 409.46 2433.41 407.6 2441.69 407.6C2450.69 407.6 2458.73 409.64 2465.81 413.72C2473.01 417.68 2478.65 423.32 2482.73 430.64C2486.81 437.84 2488.85 446.18 2488.85 455.66C2488.85 465.26 2486.81 473.66 2482.73 480.86C2478.65 488.06 2473.01 493.7 2465.81 497.78C2458.73 501.86 2450.69 503.9 2441.69 503.9ZM2392.91 537.92V408.5H2405.15V436.94L2403.89 455.84L2405.69 474.92V537.92H2392.91ZM2440.79 492.56C2447.51 492.56 2453.51 491.06 2458.79 488.06C2464.07 484.94 2468.27 480.62 2471.39 475.1C2474.51 469.46 2476.07 462.98 2476.07 455.66C2476.07 448.34 2474.51 441.92 2471.39 436.4C2468.27 430.88 2464.07 426.56 2458.79 423.44C2453.51 420.32 2447.51 418.76 2440.79 418.76C2434.07 418.76 2428.01 420.32 2422.61 423.44C2417.33 426.56 2413.13 430.88 2410.01 436.4C2407.01 441.92 2405.51 448.34 2405.51 455.66C2405.51 462.98 2407.01 469.46 2410.01 475.1C2413.13 480.62 2417.33 484.94 2422.61 488.06C2428.01 491.06 2434.07 492.56 2440.79 492.56ZM2573.6 503V482.12L2573.06 478.7V443.78C2573.06 435.74 2570.78 429.56 2566.22 425.24C2561.78 420.92 2555.12 418.76 2546.24 418.76C2540.12 418.76 2534.3 419.78 2528.78 421.82C2523.26 423.86 2518.58 426.56 2514.74 429.92L2508.98 420.38C2513.78 416.3 2519.54 413.18 2526.26 411.02C2532.98 408.74 2540.06 407.6 2547.5 407.6C2559.74 407.6 2569.16 410.66 2575.76 416.78C2582.48 422.78 2585.84 431.96 2585.84 444.32V503H2573.6ZM2541.02 503.9C2533.94 503.9 2527.76 502.76 2522.48 500.48C2517.32 498.08 2513.36 494.84 2510.6 490.76C2507.84 486.56 2506.46 481.76 2506.46 476.36C2506.46 471.44 2507.6 467 2509.88 463.04C2512.28 458.96 2516.12 455.72 2521.4 453.32C2526.8 450.8 2534 449.54 2543 449.54H2575.58V459.08H2543.36C2534.24 459.08 2527.88 460.7 2524.28 463.94C2520.8 467.18 2519.06 471.2 2519.06 476C2519.06 481.4 2521.16 485.72 2525.36 488.96C2529.56 492.2 2535.44 493.82 2543 493.82C2550.2 493.82 2556.38 492.2 2561.54 488.96C2566.82 485.6 2570.66 480.8 2573.06 474.56L2575.94 483.38C2573.54 489.62 2569.34 494.6 2563.34 498.32C2557.46 502.04 2550.02 503.9 2541.02 503.9ZM2668.79 407.6C2676.47 407.6 2683.19 409.1 2688.95 412.1C2694.83 414.98 2699.39 419.42 2702.63 425.42C2705.99 431.42 2707.67 438.98 2707.67 448.1V503H2694.89V449.36C2694.89 439.4 2692.37 431.9 2687.33 426.86C2682.41 421.7 2675.45 419.12 2666.45 419.12C2659.73 419.12 2653.85 420.5 2648.81 423.26C2643.89 425.9 2640.05 429.8 2637.29 434.96C2634.65 440 2633.33 446.12 2633.33 453.32V503H2620.55V408.5H2632.79V434.42L2630.81 429.56C2633.81 422.72 2638.61 417.38 2645.21 413.54C2651.81 409.58 2659.67 407.6 2668.79 407.6ZM2741.15 538.82C2736.71 538.82 2732.45 538.1 2728.37 536.66C2724.41 535.22 2720.99 533.06 2718.11 530.18L2724.05 520.64C2726.45 522.92 2729.03 524.66 2731.79 525.86C2734.67 527.18 2737.85 527.84 2741.33 527.84C2745.53 527.84 2749.13 526.64 2752.13 524.24C2755.25 521.96 2758.19 517.88 2760.95 512L2767.07 498.14L2768.51 496.16L2807.39 408.5H2819.99L2772.65 514.34C2770.01 520.46 2767.07 525.32 2763.83 528.92C2760.71 532.52 2757.29 535.04 2753.57 536.48C2749.85 538.04 2745.71 538.82 2741.15 538.82ZM2766.35 505.7L2722.79 408.5H2736.11L2774.63 495.26L2766.35 505.7Z" fill="black"/>
<path d="M464 444.941V460.55C464 490.627 439.579 515 409.47 515H219.691L94.9872 390.479H409.47C439.591 390.479 464 414.864 464 444.929V444.941Z" fill="url(#paint0_linear_128_1066)"/>
<path d="M464 282.934C464 313.011 439.579 337.396 409.47 337.396H156.347C169.189 322.016 179.638 304.906 187.502 286.356C195.366 267.805 200.356 248.415 202.448 228.483H409.47C439.591 228.483 464 252.869 464 282.934Z" fill="url(#paint1_linear_128_1066)"/>
<path d="M464 105.463V121.071C464 151.148 439.579 175.522 409.47 175.522H201.161C198.624 159.061 194.055 143.008 187.502 127.543C177.209 103.241 162.491 81.4371 143.745 62.7186C139.633 58.6243 135.377 54.7101 130.976 51H409.47C439.591 51 464 75.3857 464 105.451V105.463Z" fill="url(#paint2_linear_128_1066)"/>
<path d="M156.16 206.954C156.16 293.054 86.248 362.896 0 362.896V51.0117C86.2207 51.0117 156.16 120.826 156.16 206.954Z" fill="url(#paint3_linear_128_1066)"/>
<path d="M152.056 514.739H0V362.896L152.056 514.739Z" fill="url(#paint4_linear_128_1066)"/>
<defs>
<linearGradient id="paint0_linear_128_1066" x1="279.5" y1="30.3126" x2="279.5" y2="559.641" gradientUnits="userSpaceOnUse">
<stop stop-color="#00DCFF"/>
<stop offset="1" stop-color="#00A2EA"/>
</linearGradient>
<linearGradient id="paint1_linear_128_1066" x1="310.174" y1="30.3123" x2="310.174" y2="559.641" gradientUnits="userSpaceOnUse">
<stop stop-color="#00DCFF"/>
<stop offset="1" stop-color="#00A2EA"/>
</linearGradient>
<linearGradient id="paint2_linear_128_1066" x1="297.488" y1="30.3124" x2="297.488" y2="559.641" gradientUnits="userSpaceOnUse">
<stop stop-color="#00DCFF"/>
<stop offset="1" stop-color="#00A2EA"/>
</linearGradient>
<linearGradient id="paint3_linear_128_1066" x1="78.0665" y1="-97.0607" x2="78.0665" y2="664.915" gradientUnits="userSpaceOnUse">
<stop stop-color="#FFAF45"/>
<stop offset="1" stop-color="#FF6501"/>
</linearGradient>
<linearGradient id="paint4_linear_128_1066" x1="76.0417" y1="51.0117" x2="76.0417" y2="51.0117" gradientUnits="userSpaceOnUse">
<stop stop-color="#FFAF45"/>
<stop offset="1" stop-color="#FF6501"/>
</linearGradient>
</defs>
</svg>
