<svg width="422" height="64" viewBox="0 0 422 64" fill="none" xmlns="http://www.w3.org/2000/svg">
<path d="M66.8635 33V8.89956H77.2955C79.4531 8.89956 81.3123 9.25533 82.8731 9.96687C84.4339 10.6555 85.6389 11.6539 86.4881 12.9622C87.3374 14.2705 87.762 15.8313 87.762 17.6446C87.762 19.4349 87.3374 20.9842 86.4881 22.2925C85.6389 23.5779 84.4339 24.5648 82.8731 25.2534C81.3123 25.942 79.4531 26.2863 77.2955 26.2863H69.9621L72.441 23.8418V33H66.8635ZM82.1845 33L76.1594 24.255H82.1156L88.2096 33H82.1845ZM72.441 24.4616L69.9621 21.8449H76.9857C78.7071 21.8449 79.9925 21.4777 80.8417 20.7432C81.691 19.9858 82.1156 18.9529 82.1156 17.6446C82.1156 16.3133 81.691 15.2804 80.8417 14.546C79.9925 13.8115 78.7071 13.4442 76.9857 13.4442H69.9621L72.441 10.7932V24.4616ZM100.995 33.2754C98.8833 33.2754 97.0241 32.8623 95.4174 32.036C93.8336 31.2097 92.6057 30.085 91.7335 28.6619C90.8613 27.2159 90.4252 25.5748 90.4252 23.7385C90.4252 21.8794 90.8498 20.2382 91.699 18.8152C92.5712 17.3691 93.7533 16.2445 95.2452 15.4411C96.7372 14.6148 98.4242 14.2017 100.306 14.2017C102.12 14.2017 103.749 14.5919 105.195 15.3723C106.664 16.1297 107.823 17.2314 108.673 18.6775C109.522 20.1005 109.947 21.8105 109.947 23.8074C109.947 24.014 109.935 24.255 109.912 24.5304C109.889 24.7829 109.866 25.0239 109.843 25.2534H94.7977V22.1204H107.02L104.954 23.05C104.954 22.0859 104.759 21.2482 104.369 20.5366C103.979 19.8251 103.439 19.2742 102.751 18.884C102.062 18.4709 101.259 18.2643 100.341 18.2643C99.4227 18.2643 98.6078 18.4709 97.8963 18.884C97.2077 19.2742 96.6683 19.8366 96.2781 20.5711C95.8879 21.2826 95.6928 22.1319 95.6928 23.1188V23.9451C95.6928 24.955 95.9109 25.8502 96.347 26.6306C96.806 27.388 97.4372 27.9733 98.2406 28.3865C99.0669 28.7767 100.031 28.9718 101.133 28.9718C102.12 28.9718 102.98 28.8226 103.715 28.5242C104.472 28.2258 105.161 27.7782 105.781 27.1815L108.638 30.2801C107.789 31.2441 106.722 31.9901 105.436 32.518C104.151 33.023 102.67 33.2754 100.995 33.2754ZM137.244 14.2017C138.713 14.2017 140.01 14.5 141.135 15.0968C142.282 15.6706 143.177 16.5658 143.82 17.7823C144.486 18.9758 144.818 20.5137 144.818 22.3958V33H139.447V23.2221C139.447 21.7302 139.138 20.6284 138.518 19.9169C137.898 19.2054 137.026 18.8496 135.901 18.8496C135.121 18.8496 134.421 19.0332 133.801 19.4005C133.181 19.7448 132.699 20.2727 132.355 20.9842C132.011 21.6957 131.839 22.6024 131.839 23.7041V33H126.468V23.2221C126.468 21.7302 126.158 20.6284 125.538 19.9169C124.941 19.2054 124.081 18.8496 122.956 18.8496C122.176 18.8496 121.475 19.0332 120.856 19.4005C120.236 19.7448 119.754 20.2727 119.41 20.9842C119.065 21.6957 118.893 22.6024 118.893 23.7041V33H113.522V14.4771H118.652V19.5382L117.688 18.0577C118.331 16.7953 119.238 15.8428 120.408 15.2001C121.602 14.5345 122.956 14.2017 124.471 14.2017C126.169 14.2017 127.65 14.6378 128.912 15.51C130.198 16.3592 131.047 17.6675 131.46 19.4349L129.566 18.9185C130.186 17.4724 131.173 16.3248 132.527 15.4755C133.904 14.6263 135.477 14.2017 137.244 14.2017ZM158.581 33.2754C156.607 33.2754 154.851 32.8623 153.313 32.036C151.798 31.2097 150.593 30.085 149.698 28.6619C148.826 27.2159 148.39 25.5748 148.39 23.7385C148.39 21.8794 148.826 20.2382 149.698 18.8152C150.593 17.3691 151.798 16.2445 153.313 15.4411C154.851 14.6148 156.607 14.2017 158.581 14.2017C160.532 14.2017 162.276 14.6148 163.814 15.4411C165.352 16.2445 166.557 17.3577 167.429 18.7807C168.301 20.2038 168.738 21.8564 168.738 23.7385C168.738 25.5748 168.301 27.2159 167.429 28.6619C166.557 30.085 165.352 31.2097 163.814 32.036C162.276 32.8623 160.532 33.2754 158.581 33.2754ZM158.581 28.8685C159.476 28.8685 160.279 28.6619 160.991 28.2488C161.703 27.8356 162.265 27.2503 162.678 26.4929C163.091 25.7125 163.298 24.7944 163.298 23.7385C163.298 22.6598 163.091 21.7417 162.678 20.9842C162.265 20.2268 161.703 19.6415 160.991 19.2283C160.279 18.8152 159.476 18.6086 158.581 18.6086C157.686 18.6086 156.882 18.8152 156.171 19.2283C155.459 19.6415 154.886 20.2268 154.449 20.9842C154.036 21.7417 153.83 22.6598 153.83 23.7385C153.83 24.7944 154.036 25.7125 154.449 26.4929C154.886 27.2503 155.459 27.8356 156.171 28.2488C156.882 28.6619 157.686 28.8685 158.581 28.8685ZM179.902 33.2754C177.722 33.2754 176.023 32.7246 174.807 31.6228C173.59 30.4981 172.982 28.8341 172.982 26.6306V10.38H178.353V26.5617C178.353 27.3421 178.559 27.9504 178.972 28.3865C179.386 28.7996 179.948 29.0062 180.66 29.0062C181.509 29.0062 182.232 28.7767 182.829 28.3176L184.275 32.1048C183.724 32.495 183.058 32.7934 182.278 33C181.52 33.1836 180.728 33.2754 179.902 33.2754ZM170.124 19.0217V14.8902H182.966V19.0217H170.124ZM195.911 33.2754C193.799 33.2754 191.94 32.8623 190.333 32.036C188.749 31.2097 187.521 30.085 186.649 28.6619C185.777 27.2159 185.341 25.5748 185.341 23.7385C185.341 21.8794 185.765 20.2382 186.615 18.8152C187.487 17.3691 188.669 16.2445 190.161 15.4411C191.653 14.6148 193.34 14.2017 195.222 14.2017C197.035 14.2017 198.665 14.5919 200.111 15.3723C201.58 16.1297 202.739 17.2314 203.588 18.6775C204.438 20.1005 204.862 21.8105 204.862 23.8074C204.862 24.014 204.851 24.255 204.828 24.5304C204.805 24.7829 204.782 25.0239 204.759 25.2534H189.713V22.1204H201.936L199.87 23.05C199.87 22.0859 199.675 21.2482 199.285 20.5366C198.894 19.8251 198.355 19.2742 197.666 18.884C196.978 18.4709 196.175 18.2643 195.256 18.2643C194.338 18.2643 193.523 18.4709 192.812 18.884C192.123 19.2742 191.584 19.8366 191.194 20.5711C190.804 21.2826 190.608 22.1319 190.608 23.1188V23.9451C190.608 24.955 190.827 25.8502 191.263 26.6306C191.722 27.388 192.353 27.9733 193.156 28.3865C193.983 28.7767 194.947 28.9718 196.048 28.9718C197.035 28.9718 197.896 28.8226 198.63 28.5242C199.388 28.2258 200.076 27.7782 200.696 27.1815L203.554 30.2801C202.705 31.2441 201.637 31.9901 200.352 32.518C199.067 33.023 197.586 33.2754 195.911 33.2754ZM223.697 18.6086H235.3V22.9467H223.697V18.6086ZM224.11 28.5242H237.228V33H218.567V8.89956H236.78V13.3754H224.11V28.5242ZM265.009 14.2017C266.478 14.2017 267.774 14.5 268.899 15.0968C270.047 15.6706 270.942 16.5658 271.585 17.7823C272.25 18.9758 272.583 20.5137 272.583 22.3958V33H267.212V23.2221C267.212 21.7302 266.902 20.6284 266.282 19.9169C265.663 19.2054 264.791 18.8496 263.666 18.8496C262.885 18.8496 262.185 19.0332 261.566 19.4005C260.946 19.7448 260.464 20.2727 260.12 20.9842C259.775 21.6957 259.603 22.6024 259.603 23.7041V33H254.232V23.2221C254.232 21.7302 253.922 20.6284 253.303 19.9169C252.706 19.2054 251.845 18.8496 250.721 18.8496C249.94 18.8496 249.24 19.0332 248.62 19.4005C248.001 19.7448 247.519 20.2727 247.174 20.9842C246.83 21.6957 246.658 22.6024 246.658 23.7041V33H241.287V14.4771H246.417V19.5382L245.453 18.0577C246.096 16.7953 247.002 15.8428 248.173 15.2001C249.366 14.5345 250.721 14.2017 252.235 14.2017C253.934 14.2017 255.414 14.6378 256.677 15.51C257.962 16.3592 258.811 17.6675 259.225 19.4349L257.331 18.9185C257.951 17.4724 258.938 16.3248 260.292 15.4755C261.669 14.6263 263.241 14.2017 265.009 14.2017ZM288.346 33.2754C286.785 33.2754 285.419 32.9311 284.249 32.2426C283.078 31.554 282.16 30.5096 281.494 29.1095C280.852 27.6864 280.53 25.8961 280.53 23.7385C280.53 21.558 280.84 19.7677 281.46 18.3676C282.08 16.9675 282.975 15.9231 284.145 15.2345C285.316 14.546 286.716 14.2017 288.346 14.2017C290.09 14.2017 291.651 14.6033 293.028 15.4067C294.428 16.1871 295.53 17.2888 296.333 18.7119C297.16 20.135 297.573 21.8105 297.573 23.7385C297.573 25.6895 297.16 27.3766 296.333 28.7996C295.53 30.2227 294.428 31.3244 293.028 32.1048C291.651 32.8852 290.09 33.2754 288.346 33.2754ZM277.397 39.6793V14.4771H282.527V18.2643L282.424 23.773L282.768 29.2472V39.6793H277.397ZM287.416 28.8685C288.311 28.8685 289.103 28.6619 289.792 28.2488C290.503 27.8356 291.066 27.2503 291.479 26.4929C291.915 25.7125 292.133 24.7944 292.133 23.7385C292.133 22.6598 291.915 21.7417 291.479 20.9842C291.066 20.2268 290.503 19.6415 289.792 19.2283C289.103 18.8152 288.311 18.6086 287.416 18.6086C286.521 18.6086 285.718 18.8152 285.006 19.2283C284.295 19.6415 283.732 20.2268 283.319 20.9842C282.906 21.7417 282.699 22.6598 282.699 23.7385C282.699 24.7944 282.906 25.7125 283.319 26.4929C283.732 27.2503 284.295 27.8356 285.006 28.2488C285.718 28.6619 286.521 28.8685 287.416 28.8685ZM301.168 33V7.45354H306.539V33H301.168ZM320.338 33.2754C318.364 33.2754 316.608 32.8623 315.07 32.036C313.555 31.2097 312.35 30.085 311.455 28.6619C310.583 27.2159 310.147 25.5748 310.147 23.7385C310.147 21.8794 310.583 20.2382 311.455 18.8152C312.35 17.3691 313.555 16.2445 315.07 15.4411C316.608 14.6148 318.364 14.2017 320.338 14.2017C322.289 14.2017 324.033 14.6148 325.571 15.4411C327.109 16.2445 328.314 17.3577 329.186 18.7807C330.058 20.2038 330.494 21.8564 330.494 23.7385C330.494 25.5748 330.058 27.2159 329.186 28.6619C328.314 30.085 327.109 31.2097 325.571 32.036C324.033 32.8623 322.289 33.2754 320.338 33.2754ZM320.338 28.8685C321.233 28.8685 322.036 28.6619 322.748 28.2488C323.459 27.8356 324.022 27.2503 324.435 26.4929C324.848 25.7125 325.054 24.7944 325.054 23.7385C325.054 22.6598 324.848 21.7417 324.435 20.9842C324.022 20.2268 323.459 19.6415 322.748 19.2283C322.036 18.8152 321.233 18.6086 320.338 18.6086C319.443 18.6086 318.639 18.8152 317.928 19.2283C317.216 19.6415 316.642 20.2268 316.206 20.9842C315.793 21.7417 315.586 22.6598 315.586 23.7385C315.586 24.7944 315.793 25.7125 316.206 26.4929C316.642 27.2503 317.216 27.8356 317.928 28.2488C318.639 28.6619 319.443 28.8685 320.338 28.8685ZM335.921 39.9547C334.957 39.9547 334.005 39.8055 333.064 39.5071C332.123 39.2087 331.354 38.7956 330.757 38.2677L332.719 34.446C333.132 34.8133 333.603 35.1002 334.131 35.3068C334.682 35.5133 335.221 35.6166 335.749 35.6166C336.506 35.6166 337.103 35.433 337.539 35.0658C337.998 34.7215 338.412 34.1362 338.779 33.3099L339.743 31.0375L340.156 30.4522L346.801 14.4771H351.965L343.599 34.1362C343.002 35.6281 342.314 36.7987 341.533 37.6479C340.776 38.4972 339.926 39.094 338.985 39.4383C338.067 39.7826 337.046 39.9547 335.921 39.9547ZM339.089 33.723L330.826 14.4771H336.369L342.773 29.9702L339.089 33.723ZM362.845 33.2754C360.733 33.2754 358.874 32.8623 357.268 32.036C355.684 31.2097 354.456 30.085 353.584 28.6619C352.711 27.2159 352.275 25.5748 352.275 23.7385C352.275 21.8794 352.7 20.2382 353.549 18.8152C354.421 17.3691 355.603 16.2445 357.095 15.4411C358.587 14.6148 360.274 14.2017 362.156 14.2017C363.97 14.2017 365.599 14.5919 367.045 15.3723C368.514 16.1297 369.674 17.2314 370.523 18.6775C371.372 20.1005 371.797 21.8105 371.797 23.8074C371.797 24.014 371.785 24.255 371.762 24.5304C371.739 24.7829 371.716 25.0239 371.693 25.2534H356.648V22.1204H368.87L366.804 23.05C366.804 22.0859 366.609 21.2482 366.219 20.5366C365.829 19.8251 365.29 19.2742 364.601 18.884C363.912 18.4709 363.109 18.2643 362.191 18.2643C361.273 18.2643 360.458 18.4709 359.746 18.884C359.058 19.2742 358.518 19.8366 358.128 20.5711C357.738 21.2826 357.543 22.1319 357.543 23.1188V23.9451C357.543 24.955 357.761 25.8502 358.197 26.6306C358.656 27.388 359.287 27.9733 360.091 28.3865C360.917 28.7767 361.881 28.9718 362.983 28.9718C363.97 28.9718 364.83 28.8226 365.565 28.5242C366.322 28.2258 367.011 27.7782 367.631 27.1815L370.488 30.2801C369.639 31.2441 368.572 31.9901 367.286 32.518C366.001 33.023 364.521 33.2754 362.845 33.2754ZM384.565 33.2754C382.453 33.2754 380.594 32.8623 378.988 32.036C377.404 31.2097 376.176 30.085 375.304 28.6619C374.431 27.2159 373.995 25.5748 373.995 23.7385C373.995 21.8794 374.42 20.2382 375.269 18.8152C376.141 17.3691 377.323 16.2445 378.815 15.4411C380.307 14.6148 381.994 14.2017 383.876 14.2017C385.69 14.2017 387.319 14.5919 388.765 15.3723C390.234 16.1297 391.394 17.2314 392.243 18.6775C393.092 20.1005 393.517 21.8105 393.517 23.8074C393.517 24.014 393.505 24.255 393.482 24.5304C393.459 24.7829 393.436 25.0239 393.413 25.2534H378.368V22.1204H390.59L388.524 23.05C388.524 22.0859 388.329 21.2482 387.939 20.5366C387.549 19.8251 387.01 19.2742 386.321 18.884C385.632 18.4709 384.829 18.2643 383.911 18.2643C382.993 18.2643 382.178 18.4709 381.466 18.884C380.778 19.2742 380.238 19.8366 379.848 20.5711C379.458 21.2826 379.263 22.1319 379.263 23.1188V23.9451C379.263 24.955 379.481 25.8502 379.917 26.6306C380.376 27.388 381.007 27.9733 381.811 28.3865C382.637 28.7767 383.601 28.9718 384.703 28.9718C385.69 28.9718 386.55 28.8226 387.285 28.5242C388.042 28.2258 388.731 27.7782 389.351 27.1815L392.208 30.2801C391.359 31.2441 390.292 31.9901 389.006 32.518C387.721 33.023 386.241 33.2754 384.565 33.2754ZM403.324 33.2754C401.74 33.2754 400.214 33.0918 398.745 32.7246C397.299 32.3344 396.151 31.8524 395.302 31.2785L397.092 27.4225C397.942 27.9504 398.94 28.3865 400.088 28.7308C401.258 29.0521 402.406 29.2128 403.531 29.2128C404.77 29.2128 405.642 29.0636 406.147 28.7652C406.675 28.4668 406.939 28.0537 406.939 27.5258C406.939 27.0897 406.733 26.7683 406.319 26.5617C405.929 26.3322 405.401 26.1601 404.736 26.0453C404.07 25.9305 403.336 25.8158 402.532 25.701C401.752 25.5862 400.96 25.4371 400.157 25.2534C399.353 25.0469 398.619 24.7485 397.953 24.3583C397.288 23.9681 396.748 23.4402 396.335 22.7745C395.945 22.1089 395.75 21.2482 395.75 20.1923C395.75 19.0217 396.083 17.9889 396.748 17.0937C397.437 16.1986 398.424 15.4985 399.709 14.9935C400.994 14.4656 402.532 14.2017 404.323 14.2017C405.585 14.2017 406.87 14.3394 408.179 14.6148C409.487 14.8902 410.577 15.2919 411.449 15.8198L409.659 19.6415C408.764 19.1136 407.857 18.7578 406.939 18.5742C406.044 18.3676 405.172 18.2643 404.323 18.2643C403.129 18.2643 402.257 18.425 401.706 18.7463C401.155 19.0677 400.88 19.4808 400.88 19.9858C400.88 20.4448 401.075 20.7891 401.465 21.0186C401.878 21.2482 402.418 21.4318 403.083 21.5695C403.749 21.7072 404.472 21.8335 405.252 21.9482C406.056 22.04 406.859 22.1892 407.662 22.3958C408.466 22.6024 409.189 22.9008 409.831 23.291C410.497 23.6582 411.036 24.1746 411.449 24.8403C411.863 25.483 412.069 26.3322 412.069 27.388C412.069 28.5357 411.725 29.5571 411.036 30.4522C410.348 31.3244 409.349 32.013 408.041 32.518C406.756 33.023 405.183 33.2754 403.324 33.2754Z" fill="white"/>
<path d="M69.2049 58.0098V44.7834H64.089V43.4525H75.8597V44.7834H70.7438V58.0098H69.2049ZM83.5796 46.9878C84.4669 46.9878 85.2433 47.1611 85.9088 47.5077C86.5881 47.8404 87.1149 48.3534 87.4893 49.0466C87.8775 49.7398 88.0716 50.6133 88.0716 51.6669V58.0098H86.595V51.8125C86.595 50.6618 86.3039 49.7953 85.7216 49.213C85.1532 48.6168 84.3491 48.3188 83.3092 48.3188C82.5329 48.3188 81.8535 48.4782 81.2712 48.7971C80.7028 49.1021 80.2591 49.5527 79.9403 50.1488C79.6353 50.7311 79.4828 51.4382 79.4828 52.27V58.0098H78.0062V42.579H79.4828V50.0864L79.1916 49.5249C79.5382 48.7347 80.0928 48.1177 80.8553 47.6741C81.6178 47.2166 82.5259 46.9878 83.5796 46.9878ZM96.6974 58.1137C95.5606 58.1137 94.5623 57.8781 93.7028 57.4067C92.8432 56.9214 92.1708 56.2629 91.6855 55.431C91.2003 54.5853 90.9577 53.6218 90.9577 52.5404C90.9577 51.459 91.1864 50.5024 91.644 49.6705C92.1153 48.8387 92.7531 48.187 93.5572 47.7157C94.3752 47.2304 95.2902 46.9878 96.3023 46.9878C97.3282 46.9878 98.2363 47.2235 99.0266 47.6949C99.8307 48.1524 100.462 48.804 100.919 49.6497C101.377 50.4816 101.605 51.4451 101.605 52.5404C101.605 52.6097 101.598 52.6859 101.585 52.7691C101.585 52.8385 101.585 52.9147 101.585 52.9979H92.0807V51.8957H100.794L100.212 52.3324C100.212 51.5422 100.039 50.842 99.6921 50.232C99.3593 49.6081 98.9018 49.1229 98.3195 48.7763C97.7372 48.4297 97.0648 48.2564 96.3023 48.2564C95.5536 48.2564 94.8812 48.4297 94.2851 48.7763C93.6889 49.1229 93.2245 49.6081 92.8917 50.232C92.559 50.8559 92.3926 51.5699 92.3926 52.374V52.6028C92.3926 53.4346 92.5729 54.1694 92.9333 54.8072C93.3076 55.431 93.8206 55.9232 94.4722 56.2837C95.1377 56.6303 95.8933 56.8036 96.739 56.8036C97.4045 56.8036 98.0214 56.6857 98.5899 56.4501C99.1722 56.2144 99.6713 55.8539 100.087 55.3687L100.919 56.3253C100.434 56.9076 99.8238 57.3512 99.089 57.6562C98.368 57.9612 97.5709 58.1137 96.6974 58.1137ZM114.504 58.1137C113.45 58.1137 112.5 57.8781 111.655 57.4067C110.823 56.9214 110.164 56.2629 109.679 55.431C109.194 54.5853 108.951 53.6218 108.951 52.5404C108.951 51.4451 109.194 50.4816 109.679 49.6497C110.164 48.8179 110.823 48.1662 111.655 47.6949C112.487 47.2235 113.436 46.9878 114.504 46.9878C115.585 46.9878 116.542 47.2235 117.374 47.6949C118.219 48.1662 118.878 48.8179 119.349 49.6497C119.835 50.4816 120.077 51.4451 120.077 52.5404C120.077 53.6218 119.835 54.5853 119.349 55.431C118.878 56.2629 118.219 56.9214 117.374 57.4067C116.528 57.8781 115.571 58.1137 114.504 58.1137ZM114.504 56.8036C115.294 56.8036 115.994 56.6303 116.604 56.2837C117.214 55.9232 117.693 55.4241 118.039 54.7864C118.4 54.1347 118.58 53.3861 118.58 52.5404C118.58 51.6808 118.4 50.9321 118.039 50.2944C117.693 49.6566 117.214 49.1645 116.604 48.8179C115.994 48.4574 115.301 48.2772 114.525 48.2772C113.748 48.2772 113.055 48.4574 112.445 48.8179C111.835 49.1645 111.35 49.6566 110.989 50.2944C110.629 50.9321 110.449 51.6808 110.449 52.5404C110.449 53.3861 110.629 54.1347 110.989 54.7864C111.35 55.4241 111.835 55.9232 112.445 56.2837C113.055 56.6303 113.741 56.8036 114.504 56.8036ZM127.604 58.1137C126.676 58.1137 125.864 57.9404 125.171 57.5938C124.478 57.2472 123.937 56.7273 123.549 56.0341C123.175 55.3409 122.988 54.4744 122.988 53.4346V47.0918H124.464V53.2682C124.464 54.4328 124.748 55.3132 125.317 55.9094C125.899 56.4916 126.71 56.7828 127.75 56.7828C128.513 56.7828 129.171 56.6303 129.726 56.3253C130.294 56.0064 130.724 55.5489 131.015 54.9527C131.32 54.3566 131.473 53.6426 131.473 52.8107V47.0918H132.949V58.0098H131.535V55.0151L131.764 55.5558C131.417 56.3599 130.876 56.9908 130.142 57.4483C129.421 57.8919 128.575 58.1137 127.604 58.1137ZM140.516 58.1137C139.49 58.1137 138.7 57.8365 138.145 57.2819C137.591 56.7273 137.314 55.944 137.314 54.9319V44.6794H138.79V54.8487C138.79 55.4865 138.95 55.9787 139.268 56.3253C139.601 56.6719 140.073 56.8452 140.683 56.8452C141.334 56.8452 141.875 56.658 142.305 56.2837L142.825 57.3443C142.533 57.6077 142.18 57.8018 141.764 57.9266C141.362 58.0514 140.946 58.1137 140.516 58.1137ZM135.359 48.3188V47.0918H142.118V48.3188H135.359ZM148.445 58.1137C147.544 58.1137 146.691 57.989 145.887 57.7394C145.083 57.476 144.452 57.1502 143.994 56.762L144.66 55.5974C145.104 55.9301 145.672 56.2213 146.365 56.4708C147.058 56.7065 147.786 56.8244 148.549 56.8244C149.589 56.8244 150.337 56.6649 150.795 56.3461C151.252 56.0133 151.481 55.5766 151.481 55.0359C151.481 54.6339 151.349 54.3219 151.086 54.1001C150.836 53.8644 150.504 53.6911 150.088 53.5802C149.672 53.4554 149.207 53.3514 148.694 53.2682C148.181 53.1851 147.668 53.088 147.155 52.9771C146.656 52.8662 146.199 52.7067 145.783 52.4988C145.367 52.277 145.027 51.9789 144.764 51.6045C144.514 51.2302 144.39 50.7311 144.39 50.1072C144.39 49.5111 144.556 48.9773 144.889 48.5059C145.221 48.0345 145.707 47.6671 146.344 47.4037C146.996 47.1264 147.786 46.9878 148.715 46.9878C149.422 46.9878 150.129 47.0848 150.836 47.2789C151.543 47.4592 152.126 47.7018 152.583 48.0068L151.939 49.1922C151.453 48.8595 150.933 48.6238 150.379 48.4851C149.824 48.3326 149.27 48.2564 148.715 48.2564C147.731 48.2564 147.003 48.4297 146.532 48.7763C146.074 49.109 145.845 49.5388 145.845 50.0656C145.845 50.4816 145.97 50.8074 146.22 51.0431C146.483 51.2787 146.823 51.4659 147.239 51.6045C147.668 51.7293 148.133 51.8333 148.632 51.9165C149.145 51.9997 149.651 52.1037 150.15 52.2284C150.663 52.3393 151.127 52.4988 151.543 52.7067C151.973 52.9008 152.313 53.1851 152.562 53.5594C152.826 53.9199 152.958 54.3982 152.958 54.9943C152.958 55.6321 152.777 56.1866 152.417 56.658C152.07 57.1155 151.557 57.476 150.878 57.7394C150.212 57.989 149.401 58.1137 148.445 58.1137ZM159.119 58.1137C158.093 58.1137 157.303 57.8365 156.748 57.2819C156.194 56.7273 155.916 55.944 155.916 54.9319V44.6794H157.393V54.8487C157.393 55.4865 157.552 55.9787 157.871 56.3253C158.204 56.6719 158.675 56.8452 159.285 56.8452C159.937 56.8452 160.478 56.658 160.908 56.2837L161.427 57.3443C161.136 57.6077 160.783 57.8018 160.367 57.9266C159.965 58.0514 159.549 58.1137 159.119 58.1137ZM153.962 48.3188V47.0918H160.72V48.3188H153.962ZM170.957 58.0098V55.5974L170.895 55.2023V51.1678C170.895 50.2389 170.631 49.5249 170.105 49.0258C169.592 48.5267 168.822 48.2772 167.796 48.2772C167.089 48.2772 166.417 48.395 165.779 48.6307C165.141 48.8664 164.601 49.1783 164.157 49.5665L163.491 48.4643C164.046 47.9929 164.711 47.6325 165.488 47.3829C166.264 47.1195 167.082 46.9878 167.942 46.9878C169.356 46.9878 170.444 47.3413 171.207 48.0484C171.983 48.7416 172.371 49.8022 172.371 51.2302V58.0098H170.957ZM167.193 58.1137C166.375 58.1137 165.661 57.982 165.051 57.7186C164.455 57.4413 163.997 57.067 163.679 56.5956C163.36 56.1104 163.2 55.5558 163.2 54.9319C163.2 54.3635 163.332 53.8505 163.595 53.393C163.873 52.9216 164.316 52.5473 164.926 52.27C165.55 51.9789 166.382 51.8333 167.422 51.8333H171.186V52.9355H167.464C166.41 52.9355 165.675 53.1227 165.259 53.497C164.857 53.8713 164.656 54.3358 164.656 54.8903C164.656 55.5142 164.899 56.0133 165.384 56.3877C165.869 56.762 166.548 56.9492 167.422 56.9492C168.254 56.9492 168.968 56.762 169.564 56.3877C170.174 55.9995 170.618 55.4449 170.895 54.724L171.228 55.743C170.95 56.4639 170.465 57.0393 169.772 57.4691C169.093 57.8989 168.233 58.1137 167.193 58.1137ZM176.631 58.0098V45.7192C176.631 44.7487 176.916 43.9654 177.484 43.3693C178.052 42.7731 178.87 42.475 179.938 42.475C180.354 42.475 180.756 42.5305 181.144 42.6414C181.532 42.7523 181.858 42.9256 182.122 43.1613L181.622 44.2635C181.414 44.0833 181.172 43.9516 180.895 43.8684C180.617 43.7713 180.319 43.7228 180 43.7228C179.376 43.7228 178.898 43.8961 178.565 44.2427C178.233 44.5893 178.066 45.1023 178.066 45.7816V47.4453L178.108 48.1316V58.0098H176.631ZM174.677 48.3188V47.0918H181.435V48.3188H174.677ZM183.678 58.0098V45.7192C183.678 44.7487 183.963 43.9654 184.531 43.3693C185.1 42.7731 185.918 42.475 186.985 42.475C187.401 42.475 187.803 42.5305 188.191 42.6414C188.579 42.7523 188.905 42.9256 189.169 43.1613L188.67 44.2635C188.462 44.0833 188.219 43.9516 187.942 43.8684C187.664 43.7713 187.366 43.7228 187.047 43.7228C186.424 43.7228 185.945 43.8961 185.613 44.2427C185.28 44.5893 185.113 45.1023 185.113 45.7816V47.4453L185.155 48.1316V58.0098H183.678ZM181.724 48.3188V47.0918H188.482V48.3188H181.724ZM190.479 58.0098V47.0918H191.955V58.0098H190.479ZM191.228 44.6794C190.922 44.6794 190.666 44.5754 190.458 44.3675C190.25 44.1595 190.146 43.91 190.146 43.6188C190.146 43.3277 190.25 43.0851 190.458 42.891C190.666 42.683 190.922 42.579 191.228 42.579C191.533 42.579 191.789 42.6761 191.997 42.8702C192.205 43.0643 192.309 43.3069 192.309 43.598C192.309 43.903 192.205 44.1595 191.997 44.3675C191.803 44.5754 191.546 44.6794 191.228 44.6794ZM201.675 46.9878C202.562 46.9878 203.339 47.1611 204.004 47.5077C204.683 47.8404 205.21 48.3534 205.585 49.0466C205.973 49.7398 206.167 50.6133 206.167 51.6669V58.0098H204.69V51.8125C204.69 50.6618 204.399 49.7953 203.817 49.213C203.249 48.6168 202.444 48.3188 201.405 48.3188C200.628 48.3188 199.949 48.4782 199.367 48.7971C198.798 49.1021 198.355 49.5527 198.036 50.1488C197.731 50.7311 197.578 51.4382 197.578 52.27V58.0098H196.102V47.0918H197.516V50.0864L197.287 49.5249C197.634 48.7347 198.188 48.1177 198.951 47.6741C199.713 47.2166 200.621 46.9878 201.675 46.9878ZM214.814 62.1482C213.815 62.1482 212.859 62.0026 211.944 61.7115C211.029 61.4203 210.287 61.0044 209.719 60.4637L210.467 59.3407C210.98 59.7982 211.611 60.1587 212.36 60.4221C213.122 60.6994 213.926 60.838 214.772 60.838C216.158 60.838 217.177 60.5122 217.829 59.8606C218.481 59.2229 218.806 58.2247 218.806 56.866V54.1417L219.014 52.27L218.869 50.3984V47.0918H220.283V56.6788C220.283 58.5643 219.819 59.9438 218.89 60.8172C217.975 61.7046 216.616 62.1482 214.814 62.1482ZM214.543 57.5938C213.503 57.5938 212.568 57.372 211.736 56.9284C210.904 56.4708 210.245 55.84 209.76 55.0359C209.289 54.2318 209.053 53.3098 209.053 52.27C209.053 51.2302 209.289 50.3152 209.76 49.5249C210.245 48.7208 210.904 48.0969 211.736 47.6533C212.568 47.2096 213.503 46.9878 214.543 46.9878C215.514 46.9878 216.387 47.1888 217.164 47.5909C217.94 47.9929 218.557 48.5891 219.014 49.3794C219.472 50.1696 219.701 51.1332 219.701 52.27C219.701 53.4069 219.472 54.3704 219.014 55.1607C218.557 55.9509 217.94 56.554 217.164 56.97C216.387 57.3859 215.514 57.5938 214.543 57.5938ZM214.689 56.2837C215.493 56.2837 216.207 56.1173 216.831 55.7846C217.455 55.438 217.947 54.9666 218.307 54.3704C218.668 53.7604 218.848 53.0603 218.848 52.27C218.848 51.4798 218.668 50.7866 218.307 50.1904C217.947 49.5943 217.455 49.1298 216.831 48.7971C216.207 48.4505 215.493 48.2772 214.689 48.2772C213.899 48.2772 213.185 48.4505 212.547 48.7971C211.923 49.1298 211.431 49.5943 211.07 50.1904C210.724 50.7866 210.55 51.4798 210.55 52.27C210.55 53.0603 210.724 53.7604 211.07 54.3704C211.431 54.9666 211.923 55.438 212.547 55.7846C213.185 56.1173 213.899 56.2837 214.689 56.2837ZM234.368 58.1137C233.287 58.1137 232.316 57.8781 231.457 57.4067C230.611 56.9214 229.945 56.2629 229.46 55.431C228.975 54.5853 228.732 53.6218 228.732 52.5404C228.732 51.4451 228.975 50.4816 229.46 49.6497C229.945 48.8179 230.611 48.1662 231.457 47.6949C232.316 47.2235 233.287 46.9878 234.368 46.9878C235.297 46.9878 236.136 47.168 236.884 47.5285C237.633 47.889 238.222 48.4297 238.652 49.1506L237.55 49.8993C237.175 49.3447 236.711 48.9357 236.156 48.6723C235.602 48.4089 234.999 48.2772 234.347 48.2772C233.571 48.2772 232.871 48.4574 232.247 48.8179C231.623 49.1645 231.131 49.6566 230.77 50.2944C230.41 50.9321 230.23 51.6808 230.23 52.5404C230.23 53.4 230.41 54.1486 230.77 54.7864C231.131 55.4241 231.623 55.9232 232.247 56.2837C232.871 56.6303 233.571 56.8036 234.347 56.8036C234.999 56.8036 235.602 56.6719 236.156 56.4085C236.711 56.145 237.175 55.743 237.55 55.2023L238.652 55.9509C238.222 56.658 237.633 57.1987 236.884 57.573C236.136 57.9335 235.297 58.1137 234.368 58.1137ZM245.82 58.1137C244.767 58.1137 243.817 57.8781 242.971 57.4067C242.139 56.9214 241.481 56.2629 240.995 55.431C240.51 54.5853 240.268 53.6218 240.268 52.5404C240.268 51.4451 240.51 50.4816 240.995 49.6497C241.481 48.8179 242.139 48.1662 242.971 47.6949C243.803 47.2235 244.753 46.9878 245.82 46.9878C246.902 46.9878 247.858 47.2235 248.69 47.6949C249.536 48.1662 250.194 48.8179 250.666 49.6497C251.151 50.4816 251.394 51.4451 251.394 52.5404C251.394 53.6218 251.151 54.5853 250.666 55.431C250.194 56.2629 249.536 56.9214 248.69 57.4067C247.844 57.8781 246.888 58.1137 245.82 58.1137ZM245.82 56.8036C246.61 56.8036 247.311 56.6303 247.921 56.2837C248.531 55.9232 249.009 55.4241 249.356 54.7864C249.716 54.1347 249.896 53.3861 249.896 52.5404C249.896 51.6808 249.716 50.9321 249.356 50.2944C249.009 49.6566 248.531 49.1645 247.921 48.8179C247.311 48.4574 246.617 48.2772 245.841 48.2772C245.065 48.2772 244.371 48.4574 243.761 48.8179C243.151 49.1645 242.666 49.6566 242.306 50.2944C241.945 50.9321 241.765 51.6808 241.765 52.5404C241.765 53.3861 241.945 54.1347 242.306 54.7864C242.666 55.4241 243.151 55.9232 243.761 56.2837C244.371 56.6303 245.058 56.8036 245.82 56.8036ZM268.05 46.9878C268.938 46.9878 269.707 47.1611 270.359 47.5077C271.024 47.8404 271.537 48.3534 271.898 49.0466C272.272 49.7398 272.459 50.6133 272.459 51.6669V58.0098H270.983V51.8125C270.983 50.6618 270.705 49.7953 270.151 49.213C269.61 48.6168 268.841 48.3188 267.842 48.3188C267.094 48.3188 266.442 48.4782 265.887 48.7971C265.347 49.1021 264.924 49.5527 264.619 50.1488C264.328 50.7311 264.182 51.4382 264.182 52.27V58.0098H262.706V51.8125C262.706 50.6618 262.428 49.7953 261.874 49.213C261.319 48.6168 260.543 48.3188 259.545 48.3188C258.81 48.3188 258.165 48.4782 257.611 48.7971C257.056 49.1021 256.626 49.5527 256.321 50.1488C256.03 50.7311 255.885 51.4382 255.885 52.27V58.0098H254.408V47.0918H255.822V50.0448L255.593 49.5249C255.926 48.7347 256.46 48.1177 257.195 47.6741C257.943 47.2166 258.824 46.9878 259.836 46.9878C260.903 46.9878 261.811 47.2582 262.56 47.7989C263.309 48.3257 263.794 49.1229 264.016 50.1904L263.434 49.9617C263.752 49.0743 264.314 48.3603 265.118 47.8196C265.936 47.2651 266.913 46.9878 268.05 46.9878ZM282.099 58.1137C281.156 58.1137 280.304 57.8989 279.541 57.4691C278.779 57.0254 278.169 56.3946 277.711 55.5766C277.267 54.7448 277.046 53.7327 277.046 52.5404C277.046 51.3481 277.267 50.3429 277.711 49.5249C278.155 48.6931 278.758 48.0623 279.52 47.6325C280.283 47.2027 281.142 46.9878 282.099 46.9878C283.139 46.9878 284.068 47.2235 284.886 47.6949C285.718 48.1524 286.369 48.804 286.841 49.6497C287.312 50.4816 287.548 51.4451 287.548 52.5404C287.548 53.6495 287.312 54.62 286.841 55.4518C286.369 56.2837 285.718 56.9353 284.886 57.4067C284.068 57.8781 283.139 58.1137 282.099 58.1137ZM276.463 62.0442V47.0918H277.877V50.3776L277.732 52.5612L277.94 54.7656V62.0442H276.463ZM281.995 56.8036C282.771 56.8036 283.465 56.6303 284.075 56.2837C284.685 55.9232 285.17 55.4241 285.53 54.7864C285.891 54.1347 286.071 53.3861 286.071 52.5404C286.071 51.6947 285.891 50.9529 285.53 50.3152C285.17 49.6774 284.685 49.1783 284.075 48.8179C283.465 48.4574 282.771 48.2772 281.995 48.2772C281.219 48.2772 280.519 48.4574 279.895 48.8179C279.285 49.1783 278.799 49.6774 278.439 50.3152C278.092 50.9529 277.919 51.6947 277.919 52.5404C277.919 53.3861 278.092 54.1347 278.439 54.7864C278.799 55.4241 279.285 55.9232 279.895 56.2837C280.519 56.6303 281.219 56.8036 281.995 56.8036ZM297.339 58.0098V55.5974L297.276 55.2023V51.1678C297.276 50.2389 297.013 49.5249 296.486 49.0258C295.973 48.5267 295.204 48.2772 294.178 48.2772C293.471 48.2772 292.798 48.395 292.16 48.6307C291.523 48.8664 290.982 49.1783 290.538 49.5665L289.873 48.4643C290.427 47.9929 291.093 47.6325 291.869 47.3829C292.646 47.1195 293.464 46.9878 294.323 46.9878C295.737 46.9878 296.826 47.3413 297.588 48.0484C298.365 48.7416 298.753 49.8022 298.753 51.2302V58.0098H297.339ZM293.575 58.1137C292.757 58.1137 292.043 57.982 291.432 57.7186C290.836 57.4413 290.379 57.067 290.06 56.5956C289.741 56.1104 289.582 55.5558 289.582 54.9319C289.582 54.3635 289.713 53.8505 289.977 53.393C290.254 52.9216 290.698 52.5473 291.308 52.27C291.932 51.9789 292.763 51.8333 293.803 51.8333H297.567V52.9355H293.845C292.791 52.9355 292.056 53.1227 291.64 53.497C291.238 53.8713 291.037 54.3358 291.037 54.8903C291.037 55.5142 291.28 56.0133 291.765 56.3877C292.25 56.762 292.93 56.9492 293.803 56.9492C294.635 56.9492 295.349 56.762 295.945 56.3877C296.555 55.9995 296.999 55.4449 297.276 54.724L297.609 55.743C297.332 56.4639 296.846 57.0393 296.153 57.4691C295.474 57.8989 294.614 58.1137 293.575 58.1137ZM308.337 46.9878C309.224 46.9878 310 47.1611 310.666 47.5077C311.345 47.8404 311.872 48.3534 312.246 49.0466C312.634 49.7398 312.828 50.6133 312.828 51.6669V58.0098H311.352V51.8125C311.352 50.6618 311.061 49.7953 310.479 49.213C309.91 48.6168 309.106 48.3188 308.066 48.3188C307.29 48.3188 306.61 48.4782 306.028 48.7971C305.46 49.1021 305.016 49.5527 304.697 50.1488C304.392 50.7311 304.24 51.4382 304.24 52.27V58.0098H302.763V47.0918H304.177V50.0864L303.949 49.5249C304.295 48.7347 304.85 48.1177 305.612 47.6741C306.375 47.2166 307.283 46.9878 308.337 46.9878ZM316.697 62.1482C316.184 62.1482 315.692 62.065 315.22 61.8986C314.763 61.7323 314.368 61.4827 314.035 61.15L314.721 60.0478C314.999 60.3112 315.297 60.5122 315.616 60.6509C315.948 60.8034 316.316 60.8796 316.718 60.8796C317.203 60.8796 317.619 60.741 317.965 60.4637C318.326 60.2003 318.666 59.7289 318.984 59.0496L319.692 57.4483L319.858 57.2195L324.35 47.0918H325.806L320.336 59.3199C320.031 60.027 319.692 60.5885 319.317 61.0044C318.957 61.4203 318.562 61.7115 318.132 61.8779C317.702 62.0581 317.224 62.1482 316.697 62.1482ZM319.608 58.3217L314.576 47.0918H316.115L320.565 57.1155L319.608 58.3217Z" fill="white"/>
<path d="M53.6063 53.164V55.099C53.6063 58.8277 50.7848 61.8494 47.3062 61.8494H25.3802L10.9727 46.4121H47.3062C50.7862 46.4121 53.6063 49.4353 53.6063 53.1625V53.164Z" fill="url(#paint0_linear_666_4198)"/>
<path d="M53.605 33.0805C53.605 36.8092 50.7835 39.8323 47.3049 39.8323H18.0605C19.5442 37.9256 20.7515 35.8044 21.66 33.5047C22.5685 31.2049 23.1451 28.801 23.3868 26.3301H47.3049C50.7849 26.3301 53.605 29.3532 53.605 33.0805Z" fill="url(#paint1_linear_666_4198)"/>
<path d="M53.6065 11.078V13.0131C53.6065 16.7418 50.785 19.7635 47.3064 19.7635H23.2397C22.9466 17.7227 22.4187 15.7326 21.6616 13.8154C20.4724 10.8027 18.772 8.09954 16.6062 5.77896C16.1311 5.27137 15.6393 4.78612 15.1309 4.32617H47.3064C50.7864 4.32617 53.6065 7.34933 53.6065 11.0766V11.078Z" fill="url(#paint2_linear_666_4198)"/>
<path d="M18.0419 23.6607C18.0419 34.3347 9.9646 42.9932 0 42.9932V4.32812C9.96144 4.32812 18.0419 12.9832 18.0419 23.6607Z" fill="url(#paint3_linear_666_4198)"/>
<path d="M17.5677 61.8186H0V42.9941L17.5677 61.8186Z" fill="url(#paint4_linear_666_4198)"/>
<defs>
<linearGradient id="paint0_linear_666_4198" x1="32.2902" y1="1.76136" x2="32.2902" y2="67.3837" gradientUnits="userSpaceOnUse">
<stop stop-color="#00DCFF"/>
<stop offset="1" stop-color="#00A2EA"/>
</linearGradient>
<linearGradient id="paint1_linear_666_4198" x1="35.8328" y1="1.76226" x2="35.8328" y2="67.3846" gradientUnits="userSpaceOnUse">
<stop stop-color="#00DCFF"/>
<stop offset="1" stop-color="#00A2EA"/>
</linearGradient>
<linearGradient id="paint2_linear_666_4198" x1="34.3687" y1="1.76147" x2="34.3687" y2="67.3838" gradientUnits="userSpaceOnUse">
<stop stop-color="#00DCFF"/>
<stop offset="1" stop-color="#00A2EA"/>
</linearGradient>
<linearGradient id="paint3_linear_666_4198" x1="9.01935" y1="-14.0288" x2="9.01935" y2="80.4354" gradientUnits="userSpaceOnUse">
<stop stop-color="#FFAF45"/>
<stop offset="1" stop-color="#FF6501"/>
</linearGradient>
<linearGradient id="paint4_linear_666_4198" x1="8.78541" y1="4.32905" x2="8.78541" y2="4.32905" gradientUnits="userSpaceOnUse">
<stop stop-color="#FFAF45"/>
<stop offset="1" stop-color="#FF6501"/>
</linearGradient>
</defs>
</svg>
