<svg width="206" height="206" viewBox="0 0 206 206" fill="none" xmlns="http://www.w3.org/2000/svg">
<g clip-path="url(#clip0_629_4270)">
<path d="M136.299 69.1104L136.057 68.746C136.558 68.413 136.839 67.9002 136.839 67.514C136.839 66.8261 137.196 66.2508 137.778 66.1073C138.385 65.9576 138.945 66.3428 139.191 66.9916L138.754 67.1568M136.299 69.1104L162.069 74.5366M136.299 69.1104L136.057 68.746C134.03 70.0918 133.197 72.6556 133.197 76.6227V80.0005M136.299 69.1104L145.761 69.8436C144.051 68.4921 142.127 67.7623 140.276 67.7623C139.495 67.7623 138.893 67.5229 138.754 67.1568M138.754 67.1568L139.191 66.9916C139.193 66.9979 139.236 67.0794 139.447 67.1632C139.644 67.2418 139.928 67.2956 140.276 67.2956C142.25 67.2956 144.273 68.0728 146.051 69.4773C146.051 69.4774 146.051 69.4774 146.051 69.4774L147.354 70.507L149.484 69.9477L149.603 70.399L149.484 69.9477C151.029 69.5421 152.877 69.3405 154.572 69.3381C156.252 69.3357 157.847 69.5287 158.857 69.9564C159.225 70.1119 159.67 70.2561 160.09 70.361C160.518 70.4679 160.883 70.5249 161.099 70.5249C161.313 70.5249 161.515 70.5338 161.688 70.569C161.86 70.6039 162.065 70.6768 162.218 70.8551C162.376 71.0397 162.41 71.2583 162.407 71.439C162.404 71.6145 162.364 71.8068 162.314 72.0003C162.271 72.1657 162.256 72.5206 162.293 72.9947C162.329 73.452 162.408 73.9669 162.522 74.4241M138.754 67.1568C138.381 66.1694 137.305 66.4346 137.305 67.514C137.305 68.0941 136.912 68.7383 136.315 69.1347C134.495 70.3433 133.664 72.6898 133.664 76.6227V80.1548M162.522 74.4241L162.069 74.5366M162.522 74.4241C162.522 74.4241 162.522 74.424 162.522 74.424L162.069 74.5366M162.522 74.4241C163.123 76.8403 162.469 79.1344 160.543 81.8648L159.535 83.2931M162.069 74.5366C162.625 76.7737 162.043 78.9284 160.161 81.5959L159.082 83.1265L159.535 83.2931M159.535 83.2931L160.064 83.4873M159.535 83.2931L159.257 83.6879L159.903 83.9254M160.064 83.4873L160.064 83.4874L159.903 83.9254M160.064 83.4873L159.903 83.9254M160.064 83.4873L159.903 83.9254M133.664 80.1548L133.289 79.8766L133.197 80.0005M133.664 80.1548H133.197V80.0005M133.664 80.1548L133.197 80.0005M133.197 80.0005L131.102 82.823C124.502 91.7148 121.694 102.607 120.513 123.442C120.003 132.438 119.604 137.596 118.312 151.884L118.776 151.926L118.312 151.884C116.646 170.308 116.083 179.647 115.845 192.789L116.312 192.797L115.845 192.789C115.746 198.283 115.708 201.449 115.759 203.242C115.785 204.13 115.833 204.718 115.919 205.091C115.96 205.274 116.022 205.459 116.133 205.605C116.268 205.78 116.459 205.879 116.676 205.879C116.857 205.879 117.028 205.813 117.167 205.682C117.29 205.565 117.369 205.414 117.424 205.269C117.534 204.981 117.609 204.557 117.673 203.974C117.801 202.793 117.895 200.781 118.009 197.456C118.363 187.189 119.273 171.53 120.242 159.027C121.738 139.741 122.209 132.88 122.639 124.096C123.466 107.175 125.194 98.1741 129.051 90.3889C131.133 86.1853 132.53 84.144 135.432 81.0539L135.109 80.75L135.432 81.0539C139.676 76.5347 144.463 73.5745 149.672 72.2244L149.555 71.7727L149.672 72.2244C152.946 71.3758 155.493 71.291 157.259 71.8591C158.134 72.1405 158.809 72.5793 159.295 73.1593C159.781 73.7392 160.1 74.4852 160.223 75.4148C160.379 76.5938 160.257 77.5913 159.749 78.6774C159.233 79.7834 158.308 81.0008 156.815 82.5943C155.932 83.5362 155.267 84.3158 154.856 84.8913C154.654 85.1744 154.494 85.4337 154.407 85.6524C154.365 85.7585 154.324 85.8948 154.328 86.0395C154.332 86.2027 154.398 86.4092 154.602 86.5369C154.602 86.537 154.602 86.5371 154.603 86.5372L154.85 86.1415M133.197 80.0005L167.642 95.7407M154.85 86.1415C155.1 86.2981 155.843 86.022 156.501 85.5288C159.612 83.1984 164.877 87.4966 165.53 92.8981L165.783 94.9999L167.709 95.2789M154.85 86.1415C154.561 85.9607 155.399 84.7876 157.155 82.9134L154.85 86.1415ZM167.709 95.2789L167.642 95.7407M167.709 95.2789L167.642 95.7407L167.642 95.7407M167.709 95.2789C170.124 95.6288 171.905 96.8495 173.458 99.2186C175.343 102.095 175.745 103.806 175.695 108.734C175.654 112.846 175.516 113.593 173.835 118.826C172.837 121.934 171.905 125.386 171.765 126.497C171.613 127.7 171.836 131.213 172.316 135.176L171.852 135.232C171.612 133.243 171.435 131.366 171.338 129.831C171.242 128.311 171.22 127.091 171.302 126.439C171.449 125.278 172.395 121.785 173.391 118.683L173.391 118.683C174.233 116.061 174.678 114.595 174.921 113.275C175.163 111.963 175.208 110.784 175.229 108.73L175.229 108.729C175.254 106.271 175.164 104.659 174.848 103.314C174.535 101.983 173.993 100.887 173.067 99.4745L173.067 99.4744C171.575 97.1973 169.903 96.0683 167.642 95.7407M167.897 93.1359C167.846 93.134 167.794 93.1328 167.743 93.1326C167.814 93.1329 167.868 93.1529 167.897 93.1671C167.926 93.1812 167.942 93.1945 167.944 93.1969C167.948 93.2002 167.934 93.1878 167.903 93.144C167.901 93.1414 167.899 93.1387 167.897 93.1359ZM142.518 70.2197L142.518 70.2197C143.244 70.5758 143.76 70.8519 144.096 71.0855C144.263 71.202 144.365 71.2941 144.424 71.3641C144.453 71.3992 144.465 71.422 144.471 71.4336C144.46 71.4585 144.411 71.5501 144.186 71.7211C143.893 71.9434 143.425 72.2077 142.752 72.5521C141.41 73.2381 138.949 74.9058 137.263 76.2637C137.263 76.2637 137.263 76.2637 137.263 76.2637L134.984 78.0996V76.1367C134.984 73.2367 135.837 71.246 137.139 70.2405C138.417 69.2532 140.266 69.1151 142.518 70.2197Z" fill="#3F455B" stroke="#3F455B" stroke-width="0.933312"/>
<path fill-rule="evenodd" clip-rule="evenodd" d="M148.969 26.7611C147.26 28.2821 145.751 31.329 145.421 33.9262C145.295 34.9268 145.097 36.1972 144.982 36.749C144.783 37.7061 144.754 37.7154 144.36 36.9508C142.427 33.2109 140.333 31.6168 137.947 32.0705C133.255 32.9626 134.08 40.7271 139.363 45.4112C141.906 47.6665 145.565 49.6719 147.136 49.6719C148.502 49.6719 150.043 48.1376 152.782 44.0505C154.77 41.0835 155.804 38.8182 156.83 35.1808C157.782 31.8085 157.775 30.5523 156.793 28.4973C155.23 25.2248 151.6 24.4195 148.969 26.7611Z" fill="#3F455B"/>
<path fill-rule="evenodd" clip-rule="evenodd" d="M100.28 34.7101C99.8689 35.1605 97.8988 36.3091 95.6185 37.4278C93.123 38.6524 91.2777 40.6583 89.7214 43.8388C88.1125 47.1268 87.771 49.4783 88.5137 52.1556C89.2579 54.8383 91.0509 56.9639 93.5886 58.1718C97.0685 59.8281 101.056 59.4119 104.044 57.0801C105.426 56.002 106.173 55.0696 106.936 53.4749C108.32 50.5795 108.19 47.4812 106.481 42.5885C105.637 40.1709 105.289 39.4066 104.469 38.1673C103.184 36.2242 101.345 34.1523 100.968 34.2233C100.806 34.2537 100.497 34.4728 100.28 34.7101ZM50.3244 56.8146C43.3406 60.0646 38.0742 63.7818 33.7145 68.5384C20.564 82.8861 18.3018 104.605 28.2224 121.269C32.3182 128.149 38.0355 133.239 45.3876 136.553C53.2857 140.112 61.2534 141.602 67.1118 140.615C76.488 139.034 82.2012 131.61 85.3469 116.918C86.136 113.233 86.3669 112.629 87.4142 111.512C88.1515 110.726 88.258 110.674 90.9798 109.772C97.2374 107.698 100.859 105.435 103.703 101.823C108.307 95.9755 109.18 86.9672 106.02 77.9085C105.163 75.4488 104.193 73.215 104.013 73.2854C103.952 73.3095 103.011 76.152 101.922 79.602C99.645 86.8176 97.7942 90.9813 96.0233 92.8722C94.7012 94.2842 92.8431 95.0979 91.1818 94.9928C86.0763 94.67 82.6789 87.6314 84.4318 81.0087C84.7012 79.9903 85.1208 75.5512 85.6853 67.7436L86.534 56.0093L85.5478 55.5256C84.0576 54.7946 80.7136 53.6953 78.4626 53.1965C73.2344 52.0377 67.4369 52.0195 61.627 53.1437C59.2126 53.6107 52.58 55.765 50.3244 56.8146ZM53.8431 66.656C56.1276 66.6416 58.3188 67.7075 59.932 69.6179C60.5374 70.3347 60.7794 70.824 61.1941 72.1703C61.6299 73.5851 61.6824 74.0537 61.5433 75.2822C61.1507 78.7501 58.5275 81.5491 55.0779 82.1811C51.6223 82.8142 48.3855 81.3085 46.6162 78.2451C45.4026 76.1434 45.4145 73.0976 46.6452 70.8879C48.1545 68.1779 50.7094 66.6756 53.8431 66.656ZM88.9289 60.3293L88.6924 63.7084L89.5435 64.1312C90.0118 64.3636 91.3961 64.8653 92.6199 65.246C96.3562 66.4082 99.9315 66.6871 102.169 65.9912L103.253 65.654L104.502 61.7731C105.189 59.6388 105.705 57.8708 105.649 57.8445C105.593 57.8181 105.219 58.0571 104.819 58.3754C103.825 59.165 100.785 60.3861 99.3642 60.5663C97.1975 60.841 95.1785 60.4814 92.9853 59.4301C91.7336 58.8301 90.6833 58.1668 90.1932 57.6669C89.7611 57.226 89.3531 56.8846 89.2866 56.9079C89.2202 56.9311 89.0592 58.4706 88.9289 60.3293ZM42.2872 85.2936C43.9984 85.4447 46.0135 86.3676 47.252 87.5675C48.591 88.8649 49.563 91.1618 49.5506 93.0003C49.5295 96.1563 47.7319 98.905 44.7842 100.289C40.274 102.406 34.4746 99.4124 33.7488 94.5924C33.2798 91.4785 34.3099 88.9136 36.8419 86.8912C38.0801 85.9022 40.6476 85.149 42.2872 85.2936ZM87.7076 77.2948C87.3952 81.6604 87.1432 85.6003 87.1475 86.0498C87.1516 86.4994 87.3997 87.5657 87.6987 88.4195C88.3132 90.1746 89.0098 90.9873 90.3125 91.4685C92.2342 92.1791 94.6534 90.6407 96.0075 87.8472C96.4522 86.93 101.248 72.1952 101.266 71.6905C101.271 71.5445 100.801 71.4674 100.084 71.4966C97.2744 71.6114 93.7983 71.0516 90.36 69.9305C89.2998 69.5849 88.3972 69.3145 88.3539 69.3296C88.3106 69.3448 88.0198 72.9292 87.7076 77.2948ZM42.5132 106.074C45.1528 105.601 47.805 106.457 49.7636 108.413C50.6893 109.337 50.8428 109.597 51.3927 111.169C51.9426 112.74 51.9846 113.039 51.8372 114.339C51.0698 121.112 43.0978 124.024 38.2307 119.308C37.2531 118.361 37.1486 118.183 36.5172 116.378C35.8986 114.61 35.8575 114.345 36.0024 113.068C36.2789 110.631 37.7095 108.404 39.8424 107.091C41.0474 106.348 41.1059 106.326 42.5132 106.074ZM64.8103 115.647C71.2493 116.257 74.1874 123.965 69.7779 128.68C65.3063 133.461 57.2318 131.239 56.1121 124.919C55.5758 121.892 56.7393 119.036 59.3059 117.081C59.7109 116.772 60.6172 116.372 61.6563 116.044C63.099 115.587 63.5627 115.529 64.8103 115.647Z" fill="#3F455B"/>
<path d="M142.2 188.076C134.2 199.809 123.312 197.41 118.867 194.743L122.472 146.077C121.27 145.188 121.8 141.544 133.534 134.078C145.267 126.611 149.978 142.522 150.866 151.411C151.311 158.744 150.2 176.343 142.2 188.076Z" fill="#3F455B" stroke="#3F455B" stroke-width="2.66661"/>
<path d="M162.939 153.482C166.719 158.88 171.67 157.647 173.673 156.355L171.513 133.659C172.053 133.231 171.772 131.534 166.331 128.167C160.89 124.8 158.905 132.281 158.592 136.443C158.466 139.873 159.16 148.083 162.939 153.482Z" fill="#3F455B" stroke="#3F455B" stroke-width="2.66661"/>
</g>
<defs>
<clipPath id="clip0_629_4270">
<rect width="205.329" height="205.329" fill="white" transform="translate(0.203125 0.0830078)"/>
</clipPath>
</defs>
</svg>
