<svg width="206" height="206" viewBox="0 0 206 206" fill="none" xmlns="http://www.w3.org/2000/svg">
<g clipPath="url(#clip0_629_4259)">
<path d="M109.921 64.8432L109.921 64.8431C110.103 64.5028 110.272 64.2182 110.439 64.0318C110.524 63.9375 110.629 63.8455 110.758 63.7923C110.899 63.7339 111.052 63.7303 111.199 63.7892C111.332 63.8428 111.438 63.939 111.523 64.0387C111.609 64.1405 111.691 64.267 111.772 64.4106C111.932 64.6972 112.11 65.0936 112.319 65.5935C112.582 66.2217 112.858 66.6381 113.234 66.9545C113.613 67.2742 114.12 67.5142 114.884 67.7426C117.024 68.3827 119.143 70.3804 120.784 72.9117C122.432 75.4528 123.635 78.589 123.907 81.5864L124.131 84.0475L125.449 83.1544L125.449 83.1544C129.13 80.6611 133.955 80.8225 137.827 83.5315L137.636 83.8046L137.827 83.5315C138.87 84.262 139.403 84.5931 139.875 84.7009C140.323 84.803 140.749 84.7105 141.626 84.4215L141.731 84.738L141.627 84.4215C143.549 83.788 145.981 83.9458 148.192 84.632C150.4 85.3176 152.453 86.5515 153.586 88.141L153.319 88.3315L153.586 88.1411C153.888 88.5645 154.164 88.9824 154.366 89.3162C154.466 89.4825 154.551 89.6321 154.611 89.7533C154.641 89.8135 154.668 89.8718 154.688 89.9246C154.704 89.9651 154.732 90.0441 154.732 90.1292C154.732 90.1254 154.732 90.1268 154.734 90.1344C154.737 90.1493 154.744 90.1879 154.762 90.2591C154.786 90.3521 154.821 90.474 154.867 90.6173C154.957 90.9034 155.082 91.2635 155.221 91.6272L155.594 92.6068L158.184 91.1476C160.217 90.0024 161.97 89.431 163.717 89.3694L163.717 89.3694C164.365 89.3467 165.091 89.2339 165.736 89.0696C166.39 88.9029 166.922 88.693 167.205 88.4949L167.205 88.4949C167.581 88.2319 167.931 88.0451 168.244 87.9425C168.549 87.8422 168.861 87.809 169.129 87.9156C169.422 88.0323 169.588 88.2849 169.639 88.5866C169.688 88.8726 169.639 89.2139 169.52 89.5884C169.446 89.8228 169.46 90.1276 169.612 90.5147C169.763 90.9021 170.043 91.3498 170.463 91.8482C172.216 93.9284 173.002 96.1201 172.753 98.9698C172.506 101.791 171.244 105.243 168.96 109.867L168.661 109.719L168.96 109.867C167.106 113.619 166.061 115.866 165.2 118.485C164.338 121.109 163.659 124.113 162.55 129.382C161.689 133.472 160.487 138.391 159.878 140.316C159.586 141.237 159.321 142.051 159.081 142.79C157.866 146.523 157.269 148.357 156.956 152.455C156.641 156.58 156.616 162.971 156.566 175.785C156.556 178.32 156.545 181.107 156.531 184.177C156.387 215.14 155.748 241.991 154.914 252.08C154.772 253.794 154.653 254.843 154.454 255.462C154.352 255.777 154.215 256.03 154.001 256.196C153.78 256.368 153.527 256.409 153.284 256.409C152.961 256.409 152.653 256.321 152.416 256.162C152.195 256.013 152.007 255.778 151.987 255.479C151.969 255.468 151.94 255.452 151.89 255.432C151.723 255.366 151.435 255.304 150.981 255.253C150.081 255.154 148.635 255.111 146.468 255.111C143.708 255.111 142.167 255.09 140.909 254.863C139.636 254.633 138.662 254.193 137.036 253.399C133.26 251.555 129.914 248.356 128.135 244.874C126.367 241.415 125.408 236.734 125.138 231.435C124.868 226.13 125.288 220.182 126.297 214.171C128.314 202.157 132.693 189.844 138.678 181.899C140.617 179.325 143.061 177.029 145.48 175.374C147.886 173.727 150.315 172.681 152.217 172.681H153.693L153.373 165.296C153.151 160.183 153.18 156.637 153.693 153.106C154.206 149.576 155.201 146.074 156.897 141.047C158.448 136.448 160.213 130.358 160.819 127.521C161.71 123.344 162.351 120.689 163.205 118.241C164.06 115.791 165.126 113.557 166.857 110.218C169.415 105.284 170.756 101.76 170.978 99.0489C171.088 97.7019 170.921 96.5642 170.493 95.5563C170.066 94.5474 169.369 93.6485 168.392 92.7918C167.494 92.0053 167.025 91.646 166.423 91.4771C165.804 91.3034 165.018 91.3231 163.458 91.4223C162.143 91.5058 161.25 91.6337 160.469 91.8915C159.692 92.1478 159.008 92.5393 158.123 93.1788C157.125 93.8999 156.611 94.3418 156.286 94.882C155.961 95.423 155.806 96.0938 155.626 97.3314C155.337 99.3158 154.502 101.722 153.45 103.892C152.4 106.057 151.112 108.032 149.894 109.13C147.956 110.879 145.029 112.081 142.65 112.087C142.424 112.088 142.099 112.181 141.755 112.357C141.415 112.531 141.092 112.769 140.865 113.019L140.865 113.019C140.551 113.366 140.266 113.636 140.01 113.82C139.766 113.996 139.495 114.132 139.223 114.112C138.903 114.09 138.703 113.87 138.596 113.613C138.495 113.368 138.453 113.044 138.448 112.67L138.448 112.67C138.445 112.423 138.326 112.026 138.104 111.571C137.886 111.126 137.588 110.666 137.266 110.302C136.961 109.955 136.742 109.713 136.553 109.546C136.368 109.382 136.239 109.314 136.119 109.289C135.997 109.264 135.842 109.273 135.587 109.347C135.33 109.422 135.008 109.553 134.558 109.74L134.558 109.74C133.512 110.176 131.871 110.533 130.879 110.533C129.795 110.533 129.153 110.851 128.8 111.414C128.539 111.832 128.25 112.148 127.948 112.351C127.647 112.553 127.313 112.653 126.987 112.588C126.654 112.522 126.396 112.297 126.229 111.983C126.066 111.675 125.984 111.272 125.984 110.799C125.984 110.04 125.557 109.092 124.982 108.582L124.982 108.582C122.727 106.579 121.848 103.575 121.835 98.3899C121.83 96.4333 121.862 95.2041 121.981 94.4628C122.039 94.0962 122.126 93.7999 122.275 93.5911C122.354 93.4807 122.453 93.3918 122.574 93.3327C122.694 93.2743 122.819 93.2538 122.937 93.2538C123.189 93.2538 123.421 93.3482 123.593 93.5789C123.745 93.7816 123.834 94.0682 123.895 94.4188C124.018 95.1268 124.057 96.2923 124.062 98.1288C124.071 101.878 124.609 104.417 125.75 106.016C126.87 107.585 128.617 108.309 131.23 108.309C132.206 108.309 132.828 108.233 133.408 107.99C133.994 107.745 134.568 107.316 135.423 106.544L135.646 106.792L135.423 106.544C136.893 105.219 137.926 103.835 138.634 102.154C139.345 100.469 139.736 98.4677 139.896 95.8983C140.02 93.9112 140.054 92.7929 139.912 91.8633C139.772 90.9464 139.459 90.1979 138.845 88.9552L138.845 88.9552C137.981 87.2076 136.98 85.9578 135.803 85.1437C134.629 84.3323 133.257 83.9371 131.618 83.9371C130.951 83.9371 130.173 84.0271 129.458 84.1736C128.738 84.3212 128.112 84.5202 127.737 84.7245C126.729 85.2733 125.785 85.9366 125.097 86.5423C124.752 86.8457 124.48 87.1279 124.296 87.368C124.204 87.488 124.14 87.5912 124.099 87.6758C124.057 87.7633 124.05 87.8124 124.05 87.83C124.05 88.1114 123.9 88.3433 123.704 88.494C123.508 88.6447 123.251 88.7292 122.981 88.7292C122.713 88.7292 122.503 88.588 122.351 88.3802C122.208 88.1846 122.1 87.912 122.011 87.5805C121.831 86.9128 121.694 85.8802 121.567 84.4012M109.921 64.8432L121.899 84.3726M109.921 64.8432C109.762 65.1396 109.619 65.4866 109.516 65.8089C109.418 66.1164 109.345 66.4327 109.341 66.6713M109.921 64.8432L89.2247 97.3039M121.567 84.4012L121.899 84.3726M121.567 84.4012C121.567 84.4012 121.567 84.4012 121.567 84.4012L121.899 84.3726M121.567 84.4012C121.119 79.2056 120.057 75.4799 118.34 73.0601C116.639 70.6646 114.277 69.5206 111.123 69.5233C109.315 69.5248 107.777 70.0161 106.478 71.0187C105.174 72.0249 104.087 73.5638 103.219 75.697C101.479 79.9729 100.649 86.5565 100.649 95.7494C100.649 97.7119 100.603 99.5263 100.53 100.87C100.493 101.54 100.449 102.099 100.4 102.501C100.375 102.701 100.348 102.871 100.318 103C100.303 103.063 100.285 103.127 100.262 103.184C100.25 103.212 100.234 103.246 100.212 103.28C100.191 103.311 100.153 103.362 100.088 103.402L100.087 103.403C100.011 103.45 99.9332 103.463 99.8847 103.467C99.8312 103.472 99.7774 103.47 99.7286 103.466C99.6306 103.457 99.5168 103.434 99.3954 103.403C99.1505 103.341 98.8342 103.238 98.4719 103.103C97.7451 102.832 96.8047 102.427 95.8238 101.951L95.8238 101.951C92.7786 100.475 89.8714 99.6433 87.4183 99.4664C84.9566 99.2888 83.0027 99.7725 81.7987 100.86L81.7987 100.86C81.5682 101.069 81.2454 101.509 80.9125 102.078C80.5847 102.637 80.2647 103.289 80.0327 103.896L80.0327 103.896C78.9128 106.823 79.2629 110.449 80.7914 113.98C82.3179 117.506 85.0065 120.903 88.5045 123.353C90.8306 124.981 91.85 126.055 92.2451 127.484C92.4412 128.193 92.4922 129.429 92.4263 131.103C92.3599 132.791 92.1722 134.967 91.8694 137.584C91.2637 142.818 90.1952 149.833 88.7055 158.277L88.3773 158.219M121.899 84.3726C120.999 73.9406 117.624 69.1843 111.123 69.19C103.632 69.1962 100.316 77.3477 100.316 95.7494C100.316 99.6657 100.134 102.982 99.9126 103.119C99.691 103.255 97.9167 102.595 95.9692 101.651C89.823 98.6716 84.1749 98.264 81.5753 100.613C81.0344 101.102 80.1998 102.526 79.7214 103.777C77.4005 109.843 81.2159 118.656 88.3133 123.626C90.6331 125.25 91.5624 126.266 91.9239 127.573C92.6462 130.185 91.3555 141.338 88.3773 158.219M88.3773 158.219L88.7055 158.277C84.2154 183.722 83.3916 190.703 82.395 211.706C81.8389 223.425 82.0506 245.271 82.7911 252.799L82.4593 252.831M88.3773 158.219C83.8853 183.675 83.0594 190.671 82.062 211.69C81.5056 223.418 81.7167 245.281 82.4593 252.831M163.729 89.7025C165.079 89.6553 166.729 89.2348 167.396 88.7681C168.834 87.7625 169.648 88.0864 169.202 89.4876C168.993 90.1464 169.339 91.0325 170.208 92.063L163.729 89.7025ZM163.729 89.7025C162.051 89.7617 160.35 90.3099 158.348 91.438L155.714 92.9218L163.729 89.7025ZM82.4593 252.831L82.7911 252.799C82.8661 253.562 82.9205 254.155 82.9428 254.612C82.9647 255.062 82.958 255.414 82.8941 255.679C82.8247 255.966 82.6782 256.186 82.4153 256.303C82.195 256.402 81.9265 256.409 81.6761 256.409C81.2242 256.409 80.8313 256.275 80.5158 255.972C80.2107 255.68 80.0077 255.257 79.8666 254.735M82.4593 252.831C82.7599 255.89 82.7152 256.076 81.6761 256.076C80.9143 256.076 80.4551 255.635 80.1884 254.648M79.8666 254.735L123.816 84.2612L123.576 81.6165C123.043 75.7456 118.848 69.2762 114.788 68.0619C113.223 67.5937 112.562 67.0367 112.012 65.7222C111.175 63.723 110.948 63.6322 110.214 65.0006C109.918 65.553 109.675 66.3125 109.674 66.6878C109.673 67.0636 108.626 67.8003 107.347 68.3251C101.017 70.9244 98.172 78.5733 98.1205 93.1366L98.0948 100.367L97.762 100.215M79.8666 254.735C79.8298 254.599 79.8028 254.333 79.7787 253.993C79.7535 253.638 79.7296 253.166 79.707 252.591C79.6619 251.442 79.6219 249.874 79.589 248.003C79.5231 244.261 79.4855 239.296 79.492 234.012C79.528 204.78 80.7774 189.607 85.4027 162.264C88.5808 143.476 89.5817 136.044 89.5817 131.322V127.871L86.9732 125.569C82.4766 121.602 80.8226 119.647 79.1886 116.316C77.15 112.162 76.4547 108.377 77.1234 104.859L80.1884 254.648M79.8666 254.735C79.8666 254.735 79.8666 254.735 79.8666 254.735L80.1884 254.648M80.1884 254.648C79.9757 253.863 79.8124 244.577 79.8254 234.013C79.8613 204.798 81.1093 189.644 85.7314 162.319C88.9077 143.542 89.915 136.078 89.915 131.322V127.72L87.1937 125.319C82.7115 121.364 81.0942 119.444 79.4878 116.169C77.4712 112.059 76.7993 108.349 77.4509 104.921C77.8596 102.77 77.8056 102.003 77.1774 101.046M77.1774 101.046C75.9662 99.2016 76.2163 98.8226 78.6043 98.8808C79.8196 98.9104 81.9398 98.5169 83.3153 98.006C85.4521 97.2128 86.3044 97.1588 89.1703 97.6328C91.0149 97.9375 93.7773 98.7603 95.3088 99.4601L97.7607 100.58L97.762 100.215M77.1774 101.046L76.8987 101.229C76.5941 100.765 76.3647 100.369 76.2412 100.038C76.1212 99.7157 76.0674 99.363 76.2629 99.0665C76.4493 98.7836 76.7921 98.6653 77.1493 98.6063C77.5224 98.5447 78.0122 98.5329 78.6124 98.5475C79.7777 98.5759 81.8555 98.1926 83.1993 97.6936L83.1993 97.6935C84.278 97.2931 85.0613 97.068 85.9482 97.0115C86.828 96.9555 87.7905 97.0667 89.2247 97.3039M77.1774 101.046L89.2247 97.3039M97.762 100.215L95.4473 99.1569C93.8863 98.4437 91.0952 97.6129 89.2247 97.3039M97.762 100.215L97.7872 93.1354C97.813 85.8389 98.5377 80.24 100.067 76.1282C101.6 72.0049 103.95 69.3596 107.221 68.0168L107.221 68.0168C107.842 67.762 108.4 67.458 108.798 67.178C108.998 67.0373 109.147 66.9095 109.243 66.8042C109.322 66.7171 109.338 66.6744 109.341 66.6713M89.2247 97.3039L89.1706 97.631L89.2246 97.3039C89.2247 97.3039 89.2247 97.3039 89.2247 97.3039ZM109.341 66.6713C109.341 66.6765 109.341 66.6817 109.341 66.6869C109.341 66.6766 109.342 66.6713 109.341 66.6711C109.341 66.6711 109.341 66.6712 109.341 66.6713ZM138.781 112.665C138.802 114.109 139.389 114.151 140.618 112.795C141.135 112.224 142.05 111.755 142.649 111.754C144.936 111.748 147.786 110.583 149.671 108.882C152.012 106.772 154.732 101.163 155.296 97.2834C155.656 94.816 155.938 94.3472 157.928 92.9087C159.726 91.6093 160.79 91.2578 163.437 91.0896C166.522 90.8934 166.83 90.9796 168.611 92.5411C172.634 96.0671 172.272 100.498 167.153 110.371C163.693 117.044 162.928 119.238 161.145 127.59C160.535 130.446 158.766 136.549 157.213 141.154C153.825 151.198 153.263 155.068 153.706 165.281L154.027 172.681L138.781 112.665ZM152.007 255.495C152.006 255.495 152.004 255.493 152.002 255.489C152.006 255.493 152.008 255.495 152.007 255.495ZM155.301 92.7723L154.909 91.7458L155.301 92.7723ZM125.636 83.4303L124.166 84.4268L125.636 83.4303ZM138.433 106.919L138.433 106.919C138.815 106.377 139.819 104.521 140.666 102.802L140.666 102.802C142.739 98.5965 143.204 94.2535 142.006 90.1373C141.642 88.8895 141.465 88.1493 141.439 87.679C141.426 87.4497 141.452 87.3145 141.489 87.2277C141.523 87.1482 141.577 87.0836 141.678 87.0152L141.491 86.7393L141.678 87.0152C141.765 86.9563 141.918 86.8945 142.151 86.8439C142.378 86.7944 142.659 86.7603 142.983 86.7427C143.63 86.7073 144.425 86.7387 145.262 86.828C146.944 87.0076 148.736 87.4146 149.797 87.9402L149.945 87.6415L149.797 87.9402C151.177 88.6242 152.139 89.4096 152.793 90.4121C153.449 91.4165 153.815 92.6686 153.952 94.3192C154.091 95.9852 153.781 98.0857 153.144 100.173C152.508 102.257 151.554 104.301 150.426 105.854C149.038 107.767 146.905 109.082 144.765 109.607C142.618 110.135 140.528 109.856 139.175 108.682C138.862 108.41 138.632 108.196 138.467 108.016C138.3 107.835 138.221 107.707 138.186 107.611C138.134 107.468 138.152 107.318 138.433 106.919Z" fill="#3F455B" stroke="#3F455B" strokeWidth="0.666651"/>
<path d="M135.734 46.0063L120.771 38.7363L135.734 31.4664C136.505 31.0917 136.994 30.3095 136.994 29.452C136.994 27.7765 135.222 26.6943 133.732 27.4599L116.18 36.4752C115.332 36.9106 114.799 37.7834 114.799 38.7363C114.799 39.6892 115.332 40.5621 116.18 40.9975L133.732 50.0128C135.222 50.7783 136.994 49.6962 136.994 48.0207C136.994 47.1632 136.505 46.381 135.734 46.0063ZM146.76 56.2051L156.86 18.3609C157.212 17.0419 156.218 15.7477 154.853 15.7477C153.912 15.7477 153.089 16.3803 152.846 17.2895L142.745 55.1336C142.393 56.4526 143.387 57.7468 144.753 57.7468C145.694 57.7468 146.517 57.1142 146.76 56.2051ZM163.864 31.4664L178.826 38.7363L163.864 46.0063C163.093 46.381 162.603 47.1632 162.603 48.0207C162.603 49.6962 164.375 50.7783 165.866 50.0128L183.417 40.9975C184.265 40.5621 184.798 39.6892 184.798 38.7363C184.798 37.7834 184.265 36.9105 183.417 36.4752L165.866 27.4599C164.375 26.6943 162.603 27.7765 162.603 29.452C162.603 30.3095 163.093 31.0917 163.864 31.4664Z" fill="#3F455B" stroke="#3F455B" strokeWidth="0.666651"/>
<path fillRule="evenodd" clipRule="evenodd" d="M32.2286 85.5558C31.611 85.7122 31.34 86.5875 31.34 88.427V90.0235L29.8422 90.5564L28.3445 91.089L27.0149 89.6472C26.1494 88.7085 25.5009 88.2056 25.1566 88.2068C24.5786 88.2087 21.9445 90.231 21.3317 91.1437C20.9123 91.7682 21.0054 91.9628 22.7605 94.1283L23.4677 95.0011L22.6609 96.2997C21.9229 97.4878 21.7816 97.5974 21.0028 97.588C20.5343 97.5824 19.7181 97.4988 19.1887 97.4023C17.3646 97.0692 17.2024 97.2758 16.6497 100.636C16.3759 102.302 16.386 102.402 16.8667 102.782C17.1442 103.001 18.0453 103.296 18.8692 103.437C19.6933 103.579 20.5049 103.829 20.6731 103.993C20.8411 104.157 21.009 104.91 21.0461 105.667L21.1137 107.043L19.6916 107.896C17.6151 109.142 17.5782 109.261 18.6512 111.297C19.1497 112.243 19.835 113.271 20.1741 113.582L20.7908 114.147L22.696 113.14L24.6012 112.132L25.7858 113.213L26.9701 114.294L26.3878 115.964C26.0678 116.883 25.8058 117.815 25.8058 118.037C25.8058 118.778 30.3001 120.443 31.0551 119.981C31.278 119.845 31.7537 119.005 32.1119 118.115C32.4705 117.224 32.7953 116.422 32.8338 116.332C32.8725 116.242 33.6572 116.242 34.5778 116.332L36.2516 116.495L36.887 118.127C37.2364 119.025 37.696 119.866 37.9082 119.997C38.1859 120.168 38.7851 120.081 40.0505 119.686C43.4764 118.617 43.571 118.47 42.5447 115.81L41.9591 114.292L42.8792 113.481C44.2666 112.258 44.6025 112.231 46.3939 113.191C47.2549 113.653 48.1076 114.031 48.2886 114.031C48.6146 114.031 49.9051 112.289 50.6921 110.787C51.4308 109.377 51.3014 109.19 48.2229 107.223C47.6959 106.886 47.6827 106.805 47.9195 105.373C48.0557 104.548 48.2104 103.832 48.2636 103.78C48.3167 103.728 49.0514 103.578 49.8962 103.446C52.6679 103.013 52.8459 102.668 52.0695 99.2416L51.6705 97.481H49.2968H46.9233L46.2043 96.2445L45.4854 95.0079L46.3112 94.0144C46.7655 93.468 47.3454 92.6665 47.5999 92.2334L48.0631 91.4461L46.4996 90.0378C45.6396 89.2634 44.6511 88.4862 44.3032 88.3106C43.6906 88.0016 43.6227 88.0399 42.1679 89.5179L40.6653 91.0447L39.1604 90.5559L37.6556 90.0674L37.5468 88.0493C37.4102 85.5096 37.2667 85.3814 34.6026 85.4187C33.5359 85.4337 32.4678 85.4955 32.2286 85.5558ZM36.8365 98.049C40.1407 99.6934 41.0118 103.734 38.6193 106.318C37.4005 107.634 36.2258 108.163 34.5379 108.157C32.7578 108.15 31.4396 107.568 30.3229 106.295C27.2904 102.839 29.8301 97.599 34.5379 97.5986C35.4371 97.5983 36.252 97.7582 36.8365 98.049Z" fill="#3F455B"/>
<path fillRule="evenodd" clipRule="evenodd" d="M56.5441 44.5022C55.6653 44.7776 55.3422 46.0759 55.4845 48.7606L55.6079 51.0907L53.4886 51.9829L51.3696 52.8748L49.3402 50.8721C48.0191 49.5681 47.0449 48.8838 46.5483 48.9119C45.7148 48.9588 42.0717 52.1117 41.2583 53.4907C40.7017 54.4341 40.851 54.711 43.5501 57.7374L44.6377 58.9572L43.5744 60.9142C42.6018 62.7045 42.4065 62.8753 41.2823 62.9212C40.6061 62.9487 39.4224 62.8892 38.6514 62.7888C35.9944 62.4421 35.7765 62.756 35.2391 67.7027C34.973 70.1548 34.9953 70.2997 35.7181 70.8172C36.1353 71.1157 37.4579 71.4775 38.6572 71.6214C39.8569 71.765 41.0469 72.0679 41.3022 72.2942C41.5572 72.5205 41.8577 73.6074 41.9697 74.7092L42.1736 76.712L40.1884 78.0658C37.2895 80.0424 37.2456 80.2199 38.9507 83.1094C39.743 84.4517 40.811 85.8999 41.3241 86.3276L42.2573 87.1055L44.9276 85.4897L47.5978 83.8736L49.3901 85.3607L51.182 86.8476L50.4712 89.3294C50.0806 90.6942 49.7748 92.0754 49.7919 92.3985C49.8493 93.4812 56.4608 95.5677 57.5141 94.8358C57.825 94.62 58.4462 93.3574 58.8941 92.0302C59.3424 90.7033 59.7489 89.5074 59.7974 89.3732C59.8464 89.239 60.9782 89.1791 62.313 89.2399L64.7399 89.3508L65.7828 91.684C66.3562 92.9675 67.0842 94.1599 67.4004 94.3342C67.8141 94.5624 68.6716 94.3898 70.4663 93.7168C75.3253 91.8943 75.4504 91.673 73.7643 87.8689L72.8021 85.6984L74.0666 84.4447C75.9733 82.554 76.4557 82.4879 79.1139 83.7529C80.3915 84.361 81.6508 84.8471 81.9118 84.8332C82.382 84.8083 84.1087 82.1682 85.1278 79.9153C86.0842 77.8008 85.8831 77.5379 81.2904 74.9025C80.5043 74.4515 80.479 74.334 80.7097 72.2253C80.8424 71.012 81.0101 69.9541 81.0828 69.8744C81.1555 69.7946 82.2035 69.5188 83.4119 69.2617C87.3763 68.4177 87.6065 67.9011 86.2215 62.9597L85.5098 60.4206L82.0859 60.6021L78.6624 60.7835L77.5297 59.034L76.397 57.284L77.5113 55.771C78.1243 54.9387 78.8988 53.7247 79.2325 53.0731L79.8397 51.8885L77.4755 49.9527C76.1751 48.8882 74.6892 47.8294 74.1738 47.5997C73.2662 47.1957 73.1713 47.2567 71.1872 49.525L69.1378 51.8682L66.9294 51.2699L64.721 50.672L64.4081 47.7349C64.0145 44.0386 63.7977 43.8625 59.9578 44.1206C58.4203 44.2241 56.8845 44.3958 56.5441 44.5022ZM64.1569 62.3837C69.0502 64.5311 70.6191 70.3615 67.368 74.3152C65.7118 76.3294 64.0583 77.1918 61.6231 77.3115C59.0549 77.438 57.1086 76.6891 55.3994 74.9168C50.7579 70.1044 54.016 62.2625 60.8065 61.9019C62.1035 61.8329 63.2914 62.0039 64.1569 62.3837Z" fill="#3F455B"/>
<path d="M107.137 181.83C98.1657 192.838 87.5214 189.519 83.3206 186.483L91.0617 138.302C89.9402 137.314 90.779 133.728 103.106 127.289C115.433 120.85 118.77 137.104 118.898 146.036C118.716 153.381 116.108 170.822 107.137 181.83Z" fill="#3F455B"/>
<path d="M91.0626 136.746L91.0617 138.302M91.0617 138.302L83.3206 186.483C87.5214 189.519 98.1657 192.838 107.137 181.83C116.108 170.822 118.716 153.381 118.898 146.036C118.77 137.104 115.433 120.85 103.106 127.289C90.779 133.728 89.9402 137.314 91.0617 138.302Z" stroke="#3F455B" strokeWidth="2.66661"/>
</g>
<defs>
<clipPath id="clip0_629_4259">
<rect width="205.329" height="205.329" fill="white" transform="translate(0.46875 0.0830078)"/>
</clipPath>
</defs>
</svg>
