<svg width="207" height="206" viewBox="0 0 207 206" fill="none" xmlns="http://www.w3.org/2000/svg">
<g clipPath="url(#clip0_629_4245)">
<path d="M149.008 61.5447L149.008 61.5447C151.145 61.1277 153.951 61.4453 156.557 62.2138C159.16 62.9816 161.628 64.2187 163.066 65.6965C163.296 65.9331 163.542 66.1569 163.75 66.3254C163.855 66.4099 163.946 66.4775 164.019 66.5252C164.073 66.561 164.104 66.5769 164.116 66.5828C164.127 66.5825 164.162 66.5823 164.229 66.5734C164.321 66.5614 164.442 66.538 164.585 66.5037C164.871 66.4352 165.224 66.3281 165.574 66.1992C166.884 65.7154 168.168 65.6686 169.524 66.0983C170.868 66.5244 172.265 67.4136 173.822 68.7696L149.008 61.5447ZM149.008 61.5447C148.223 61.698 147.757 61.7964 147.174 62.1185C146.612 62.4285 145.941 62.9465 144.709 63.905C142.691 65.4753 141.469 66.5665 140.849 67.6327C140.205 68.7399 140.225 69.7889 140.548 71.1915C140.804 72.2975 141.078 73.0856 141.67 73.9654C142.252 74.8303 143.136 75.7742 144.582 77.2102L144.817 76.9738M149.008 61.5447L144.817 76.9738M144.817 76.9738L144.582 77.2102C147.823 80.4291 149.188 82.1649 149.742 83.6699L149.742 83.6699C150.93 86.9007 149.007 90.8638 144.376 94.0779C141.138 96.3248 137.655 97.6615 134.529 97.8786C132.553 98.0159 128.772 97.3939 125.598 96.3901L125.497 96.7079M144.817 76.9738L125.497 96.7079M125.497 96.7079L125.598 96.3901C120.376 94.7389 117.971 94.1963 116.131 94.3046L116.151 94.6374M125.497 96.7079L116.151 94.6374M116.151 94.6374L116.131 94.3046C115.599 94.336 115.133 94.3247 114.761 94.2774C114.379 94.2288 114.129 94.1466 113.999 94.0618C113.762 93.9072 113.515 93.7938 113.264 93.7808C112.99 93.7668 112.754 93.8736 112.569 94.0741C112.397 94.2608 112.274 94.5228 112.176 94.8292C112.077 95.1402 111.996 95.526 111.926 95.9849C111.863 96.399 111.787 96.7875 111.717 97.0782C111.681 97.2244 111.648 97.34 111.621 97.4199C111.612 97.4469 111.604 97.4668 111.598 97.4807C111.487 97.5913 111.42 97.7474 111.377 97.8736C111.32 98.0363 111.273 98.2369 111.234 98.4589C111.155 98.9045 111.1 99.4735 111.072 100.08C111.017 101.29 111.064 102.698 111.255 103.639C111.522 104.961 112.311 106.607 113.316 108.143C114.323 109.683 115.569 111.149 116.78 112.101L116.98 111.847L116.78 112.101L117.84 112.935M116.151 94.6374L117.84 112.935M117.84 112.935L117.37 116.427C116.549 122.523 115.842 126.105 114.448 131.224C109.539 149.25 99.6204 167.815 85.4153 185.542C80.8554 191.232 74.9687 198.237 72.0965 201.393L69.477 204.271L69.288 204.478L69.4604 204.7L93.8858 236.091C105.623 251.176 111.733 259.022 114.939 263.053C116.539 265.065 117.423 266.135 117.923 266.681C118.165 266.945 118.343 267.115 118.484 267.201C118.552 267.243 118.667 267.3 118.805 267.284C118.967 267.264 119.058 267.159 119.099 267.099L119.099 267.099C119.101 267.098 119.109 267.087 119.13 267.061C119.151 267.035 119.18 267.001 119.216 266.958C119.288 266.874 119.388 266.759 119.513 266.618C119.762 266.337 120.106 265.952 120.521 265.492C121.351 264.573 122.462 263.354 123.654 262.059C140.071 244.214 151.824 227.151 161.144 207.626C171.519 185.891 176.879 165.427 179.37 138.062C179.756 133.815 180.36 128.777 180.71 126.867C181.713 121.385 182.239 117.638 182.319 113.684C182.399 109.733 182.034 105.586 181.27 99.3075C180.866 95.994 180.298 90.1583 180.007 86.3431C179.45 79.0551 179.155 77.2633 178.044 74.7823L178.044 74.7822C177.617 73.8309 176.871 72.5988 176.084 71.4776C175.301 70.3604 174.455 69.3206 173.822 68.7696L117.84 112.935ZM111.586 97.5053C111.586 97.5052 111.587 97.5027 111.59 97.4986C111.588 97.5034 111.586 97.5054 111.586 97.5053ZM175.524 74.6806L175.524 74.6806C176.49 76.4992 177.077 78.0419 177.41 79.9761C177.744 81.9197 177.823 84.27 177.754 87.7093C177.647 93.0209 177.805 95.9233 178.473 100.904C180.585 116.659 180.636 119.984 178.95 126.215C178.537 127.742 178.074 129.735 177.922 130.65C177.848 131.093 177.755 131.554 177.664 131.939C177.571 132.335 177.488 132.621 177.438 132.734C177.335 132.965 177.058 133.287 176.616 133.661C176.186 134.026 175.632 134.412 175.025 134.776C173.803 135.507 172.405 136.123 171.393 136.307C169.206 136.705 166.934 135.778 164.276 133.243C163.325 132.336 162.403 131.4 162.214 131.159L162.214 131.159C161.985 130.865 161.582 130.713 160.98 130.596C160.361 130.475 159.433 130.377 158.046 130.267L158.019 130.599L158.046 130.267C151.318 129.731 148.3 130.068 144.615 131.83C142.797 132.699 141.643 133.105 140.747 133.12C139.893 133.134 139.235 132.792 138.406 132C137.82 131.44 137.199 131.125 136.452 131.027L135.474 130.899L135.33 130.88L135.219 130.973L132.927 132.868L133.116 133.097L132.927 132.868L130.866 134.573L130.654 134.366L130.654 134.366C130.589 134.304 130.483 134.131 130.375 133.862C130.272 133.606 130.184 133.305 130.137 133.025C130.054 132.535 129.98 132.183 129.808 131.89C129.633 131.591 129.374 131.383 129.016 131.126C128.532 130.779 128.125 130.536 127.54 130.661C127.275 130.718 126.991 130.846 126.66 131.032C126.327 131.218 125.925 131.475 125.421 131.806L124.073 132.69L121.652 130.438L119.167 128.125L120.001 122.001L119.693 121.959L120.001 122.001C120.472 118.546 120.853 114.897 120.842 113.902L120.842 113.902L120.822 112.147L120.82 112.011L120.723 111.914L119.028 110.231C118.105 109.314 116.614 107.652 115.722 106.544C114.832 105.439 114.289 104.617 113.972 103.835C113.658 103.062 113.558 102.308 113.589 101.324C113.617 100.437 113.718 99.8304 113.925 99.3514C114.129 98.8812 114.446 98.5065 114.961 98.1061C115.415 97.7524 115.755 97.5137 116.107 97.3664C116.449 97.2235 116.819 97.16 117.336 97.1939C118.406 97.2641 120.026 97.7404 123.148 98.718L123.247 98.3999L123.148 98.718C128.398 100.362 131.709 100.81 135.611 100.377C139.333 99.9653 143.738 97.6625 147.258 94.3305C150.536 91.2272 152.041 88.8726 152.475 86.0192C152.727 84.3678 152.578 82.8578 151.963 81.3599C151.351 79.8683 150.285 78.4071 148.733 76.8377C147.168 75.2559 145.9 73.853 144.97 72.6808C144.032 71.4993 143.459 70.5805 143.252 69.9621C142.898 68.9101 142.973 68.1118 143.47 67.4156C143.987 66.6895 144.997 66.0232 146.647 65.3485L146.52 65.04L146.647 65.3485C151.765 63.2548 156.656 63.9562 160.876 67.3821C161.994 68.2902 162.844 69.2398 164.888 71.8961C166.066 73.4264 166.728 74.3109 167.197 75.0543C167.661 75.7897 167.938 76.3905 168.338 77.3595L168.338 77.3595C169.125 79.2639 169.584 80.3484 169.898 80.9619C170.054 81.2662 170.188 81.4833 170.326 81.6296C170.481 81.7937 170.642 81.8695 170.822 81.8932C171.106 81.9305 171.344 81.8106 171.509 81.6115C171.662 81.4267 171.753 81.1764 171.803 80.9112C171.906 80.3756 171.869 79.6544 171.689 78.8814C171.125 76.4634 169.262 72.7975 167.362 70.341C167.081 69.9786 166.885 69.7002 166.763 69.4825C166.635 69.254 166.62 69.146 166.624 69.1072C166.625 69.0973 166.627 69.0936 166.633 69.0868C166.641 69.076 166.665 69.0527 166.724 69.0228C166.846 68.9596 167.052 68.9009 167.376 68.8424C168.714 68.6007 170.202 69.0295 171.642 70.0476C173.081 71.0644 174.448 72.6547 175.524 74.6806Z" fill="#3F455B" stroke="#3F455B" strokeWidth="0.666651"/>
<path fillRule="evenodd" clipRule="evenodd" d="M107.719 28.0539C102.862 28.7324 99.0149 32.8892 98.0325 38.5188C97.112 43.7942 99.4341 50.799 103.404 54.7229C105.348 56.6442 106.818 57.3473 108.902 57.3534C110.281 57.3573 111.165 57.1022 112.513 56.3122C113.493 55.7376 115.548 53.6482 116.402 52.3579C118.154 49.7087 119.384 46.4985 119.837 43.3871C120.079 41.7258 119.933 38.7719 119.533 37.2587C119.089 35.5791 117.969 33.3327 116.937 32.0526C115.452 30.2102 113.197 28.7239 111.181 28.2579C110.162 28.0225 108.602 27.9304 107.719 28.0539ZM98.9899 55.0283C90.0987 57.5318 86.2314 60.3368 84.4515 65.5729C83.7856 67.5321 83.4162 70.608 83.4029 74.3031L83.3984 75.5552L84.0936 76.5247C85.2001 78.0676 86.2257 79.2414 87.799 80.7659C95.7614 88.4808 107.115 91.2156 117.918 88.0207C121.989 86.8166 126.355 84.2976 129.712 81.2166C130.812 80.2068 132.426 78.4337 133.32 77.2513L134.064 76.2679L134.002 73.2401C133.933 69.904 133.763 68.6033 133.156 66.7683C131.376 61.3949 127.1 58.0499 118.241 55.1004C117.196 54.7525 116.32 54.4886 116.295 54.514C116.269 54.5395 115.063 57.707 113.615 61.5528C112.167 65.3987 110.944 68.5826 110.899 68.6281C110.853 68.6735 110.816 67.1529 110.816 65.249V61.7874L111.238 60.6309C111.47 59.9949 111.698 59.3773 111.745 59.2586C111.825 59.0568 111.651 59.0426 109.1 59.0426C107.599 59.0426 106.37 59.0679 106.37 59.0988C106.37 59.1296 106.592 59.7776 106.864 60.5389L107.358 61.9228V65.1727C107.358 66.9952 107.31 68.4227 107.248 68.4227C107.187 68.4227 106.399 66.6871 105.497 64.5658C101.641 55.5036 101.213 54.5371 101.046 54.5177C100.952 54.5068 100.026 54.7366 98.9899 55.0283Z" fill="#3F455B"/>
<path fillRule="evenodd" clipRule="evenodd" d="M57.507 16.2453C54.6955 16.6781 52.4975 19.1201 51.9732 22.3933C51.482 25.4605 52.8855 29.5045 55.2199 31.7482C56.3629 32.8468 57.221 33.2428 58.4298 33.2294C59.2295 33.2205 59.7406 33.0654 60.5161 32.5963C61.0799 32.2552 62.2546 31.0267 62.7394 30.2714C63.7344 28.7207 64.4214 26.8488 64.6593 25.0405C64.7863 24.075 64.6774 22.363 64.4333 21.4885C64.1624 20.518 63.4946 19.2241 62.8856 18.49C62.0092 17.4334 60.6895 16.5896 59.5164 16.3356C58.9237 16.2073 58.0178 16.1665 57.507 16.2453ZM52.662 31.9611C47.5254 33.485 45.305 35.1432 44.3151 38.1945C43.9447 39.3362 43.7553 41.1232 43.7775 43.2665L43.785 43.9928L44.1961 44.5494C44.8503 45.4354 45.4546 46.1079 46.3795 46.9793C51.0601 51.3896 57.667 52.884 63.907 50.9436C66.2587 50.2123 68.7708 48.7159 70.6928 46.9018C71.3227 46.3072 72.2441 45.2657 72.7533 44.5727L73.1768 43.9963L73.1163 42.2407C73.0496 40.3063 72.9405 39.5533 72.5732 38.4939C71.4976 35.3917 68.9905 33.4862 63.8281 31.8472C63.2192 31.6538 62.7091 31.5079 62.6947 31.5228C62.6801 31.5378 62.0063 33.3847 61.1974 35.627C60.3884 37.8693 59.7053 39.7259 59.6792 39.7526C59.6532 39.7793 59.6194 38.8977 59.604 37.7934L59.576 35.7857L59.8111 35.1115C59.9405 34.7408 60.0679 34.3807 60.0942 34.3115C60.139 34.1938 60.0379 34.1869 58.5586 34.2076C57.6876 34.2197 56.9752 34.2443 56.9755 34.2622C56.9757 34.2801 57.1099 34.6541 57.2737 35.0935L57.5714 35.8922L57.5977 37.7771C57.6124 38.8342 57.5959 39.6625 57.56 39.663C57.5249 39.6635 57.0538 38.6632 56.5131 37.4401C54.2035 32.2153 53.9474 31.6582 53.8507 31.6483C53.7957 31.6427 53.2607 31.7835 52.662 31.9611Z" fill="#3F455B"/>
<path fillRule="evenodd" clipRule="evenodd" d="M33.507 66.9113C30.6955 67.3441 28.4975 69.7862 27.9732 73.0593C27.482 76.1265 28.8855 80.1705 31.2199 82.4142C32.3629 83.5128 33.221 83.9088 34.4298 83.8954C35.2295 83.8866 35.7406 83.7314 36.5161 83.2623C37.0799 82.9212 38.2546 81.6927 38.7394 80.9374C39.7344 79.3867 40.4214 77.5148 40.6593 75.7065C40.7863 74.741 40.6774 73.029 40.4333 72.1545C40.1624 71.184 39.4946 69.8901 38.8856 69.156C38.0092 68.0994 36.6895 67.2556 35.5164 67.0016C34.9237 66.8733 34.0178 66.8326 33.507 66.9113ZM28.662 82.6271C23.5254 84.151 21.305 85.8092 20.3151 88.8605C19.9447 90.0022 19.7553 91.7892 19.7775 93.9325L19.785 94.6588L20.1961 95.2155C20.8503 96.1014 21.4546 96.7739 22.3795 97.6454C27.0601 102.056 33.667 103.55 39.907 101.61C42.2587 100.878 44.7708 99.3819 46.6928 97.5678C47.3227 96.9732 48.2441 95.9318 48.7533 95.2387L49.1768 94.6623L49.1163 92.9067C49.0496 90.9723 48.9405 90.2193 48.5732 89.1599C47.4976 86.0578 44.9905 84.1523 39.8281 82.5132C39.2192 82.3198 38.7091 82.1739 38.6947 82.1888C38.6801 82.2038 38.0063 84.0507 37.1974 86.293C36.3884 88.5353 35.7053 90.3919 35.6792 90.4186C35.6532 90.4453 35.6194 89.5637 35.604 88.4594L35.576 86.4517L35.8111 85.7775C35.9405 85.4068 36.0679 85.0467 36.0942 84.9775C36.139 84.8598 36.0379 84.853 34.5586 84.8736C33.6876 84.8857 32.9752 84.9104 32.9755 84.9282C32.9757 84.9461 33.1099 85.3202 33.2737 85.7595L33.5714 86.5582L33.5977 88.4432C33.6124 89.5002 33.5959 90.3285 33.56 90.329C33.5249 90.3295 33.0538 89.3293 32.5131 88.1062C30.2035 82.8813 29.9474 82.3242 29.8507 82.3143C29.7957 82.3087 29.2607 82.4495 28.662 82.6271Z" fill="#3F455B"/>
<path fillRule="evenodd" clipRule="evenodd" d="M76.173 102.909C73.3615 103.342 71.1635 105.784 70.6392 109.057C70.148 112.125 71.5515 116.169 73.8859 118.412C75.029 119.511 75.8871 119.907 77.0958 119.893C77.8955 119.885 78.4066 119.729 79.1821 119.26C79.7459 118.919 80.9207 117.691 81.4054 116.935C82.4004 115.385 83.0874 113.513 83.3253 111.705C83.4523 110.739 83.3434 109.027 83.0993 108.153C82.8284 107.182 82.1606 105.888 81.5516 105.154C80.6752 104.097 79.3555 103.254 78.1824 103C77.5897 102.871 76.6839 102.831 76.173 102.909ZM71.3281 118.625C66.1914 120.149 63.971 121.807 62.9811 124.859C62.6107 126 62.4213 127.787 62.4435 129.931L62.451 130.657L62.8621 131.214C63.5163 132.099 64.1207 132.772 65.0455 133.643C69.7261 138.054 76.3331 139.548 82.573 137.608C84.9247 136.876 87.4369 135.38 89.3588 133.566C89.9887 132.971 90.9101 131.93 91.4193 131.237L91.8428 130.66L91.7823 128.905C91.7156 126.97 91.6065 126.217 91.2392 125.158C90.1636 122.056 87.6565 120.15 82.4941 118.511C81.8852 118.318 81.3752 118.172 81.3607 118.187C81.3461 118.202 80.6723 120.049 79.8634 122.291C79.0544 124.533 78.3713 126.39 78.3452 126.417C78.3192 126.443 78.2854 125.562 78.27 124.457L78.242 122.45L78.4771 121.776C78.6065 121.405 78.7339 121.045 78.7602 120.976C78.805 120.858 78.704 120.851 77.2246 120.872C76.3536 120.884 75.6412 120.908 75.6415 120.926C75.6417 120.944 75.7759 121.318 75.9397 121.758L76.2374 122.556L76.2637 124.441C76.2784 125.498 76.2619 126.327 76.2261 126.327C76.1909 126.328 75.7198 125.327 75.1791 124.104C72.8695 118.879 72.6134 118.322 72.5167 118.312C72.4617 118.307 71.9268 118.448 71.3281 118.625Z" fill="#3F455B"/>
<path d="M90.0648 65.3308L75.3984 53.3311" stroke="#3F455B" strokeWidth="3.99991" strokeLinecap="round"/>
<path d="M91.0836 74.0727L59.3984 81.0244" stroke="#3F455B" strokeWidth="3.99991" strokeLinecap="round"/>
<path d="M101.261 71.9964L91 102.77" stroke="#3F455B" strokeWidth="3.99991" strokeLinecap="round"/>
</g>
<defs>
<clipPath id="clip0_629_4245">
<rect width="205.329" height="205.329" fill="white" transform="translate(0.734375)"/>
</clipPath>
</defs>
</svg>
