<svg width="206" height="206" viewBox="0 0 206 206" fill="none" xmlns="http://www.w3.org/2000/svg">
<g clip-path="url(#clip0_629_4304)">
<path fill-rule="evenodd" clip-rule="evenodd" d="M113.348 75.8054C113.348 76.821 113.045 77.0153 111.036 77.2883C107.071 77.8263 104.856 78.7055 102.703 80.5964L100.625 82.4215L98.9949 81.1907C96.8208 79.5491 94.1153 78.6402 91.3238 78.614C89.3736 78.5957 88.9459 78.4073 88.4619 77.356C88.1487 76.6761 87.5507 76.1198 87.1326 76.1198C86.655 76.1198 86.3728 76.5792 86.3728 77.356C86.3728 78.6783 85.8882 79.2074 82.3764 81.7213C80.0185 83.4089 77.2025 87.5062 76.3753 90.4528C76.107 91.4086 75.8867 93.3628 75.8852 94.7958C75.8822 97.3957 75.8792 97.4007 74.5085 97.0382C73.7532 96.839 72.5308 96.7134 71.7929 96.7593C70.7594 96.8241 70.4147 96.5937 70.2943 95.758C70.2079 95.1612 69.7568 94.601 69.2917 94.5134C68.6623 94.3948 68.3551 94.8329 68.0908 96.2278C67.889 97.2934 67.2301 98.495 66.5632 99.0142C65.9188 99.5166 64.7728 100.968 64.0175 102.24C62.7496 104.375 62.6457 104.951 62.6662 109.744C62.6852 114.258 62.8955 115.532 64.2757 119.497C66.1535 124.892 68.1263 128.882 71.4777 134.062L73.934 137.858L73.5983 154.83C73.382 165.761 73.4684 175.41 73.8406 181.938C74.8552 199.728 77.6327 230.683 78.6877 235.963L78.9605 237.326L115.512 237.199C150 237.079 152.059 237.023 151.994 236.205C151.955 235.728 151.667 229.498 151.352 222.36C150.276 197.952 149.24 185.94 146.802 169.576C144.738 155.72 141.247 139.915 138.119 130.265L136.837 126.309L138.579 122.848C140.966 118.103 141.957 113.851 141.977 108.261C142.001 101.189 140.182 95.892 136.292 91.7152C135.213 90.5556 134.329 89.2561 134.329 88.8264C134.329 87.7935 133.318 87.2065 132.845 87.9646C132.59 88.3715 131.769 88.4591 130.276 88.2375C128.18 87.926 128.018 87.7786 126.685 84.9695C125.087 81.6031 121.96 78.9562 118.421 77.9751C116.901 77.5533 116.037 76.9634 115.536 76.0046C114.652 74.3125 113.348 74.1934 113.348 75.8054ZM116.618 87.7178C118.973 90.0488 117.924 93.8231 114.62 94.9026C111.693 95.8584 109.395 94.0674 109.368 90.8083C109.335 86.9395 113.876 85.0036 116.618 87.7178ZM92.2365 89.7323C94.6233 91.3873 93.8835 96.342 91.0925 97.3923C87.4183 98.7748 84.6633 93.0958 87.5991 90.1902C89.0014 88.8017 90.6584 88.638 92.2365 89.7323ZM132.524 98.9093C134.456 100.414 135.474 102.637 135.111 104.557C134.171 109.518 127.73 110.435 125.563 105.916C124.499 103.695 124.941 101.368 126.803 99.3959C128.523 97.5728 130.582 97.3977 132.524 98.9093ZM115.49 103.45C118.153 105.46 119.097 107.834 119.073 112.464C119.058 115.601 118.805 116.932 117.851 118.892C116.414 121.848 110.897 127.459 108.103 128.806C105.345 130.137 100.868 130.059 97.6526 128.623C91.642 125.941 88.3705 121.45 87.9743 115.335C87.5262 108.422 90.2303 104.76 96.049 104.404C98.7141 104.24 99.3615 104.385 101.043 105.521C102.106 106.239 103.017 106.76 103.068 106.678C104.531 104.339 105.173 103.664 106.735 102.824C109.344 101.421 113.165 101.694 115.49 103.45ZM79.1518 108.98C80.5775 110.391 80.8213 113.349 79.6488 115.006C78.4604 116.685 76.171 117.4 74.3601 116.657C71.711 115.571 70.7079 112.477 72.1251 109.765C72.9914 108.106 73.4864 107.858 76.0296 107.805C77.4114 107.777 78.2586 108.096 79.1518 108.98Z" fill="#3F455B"/>
<path fill-rule="evenodd" clip-rule="evenodd" d="M142.939 10.7665C141.255 10.6495 139.018 11.5578 137.924 12.8029C136.771 14.1157 136.907 13.6958 133.343 26.9616C129.756 40.3132 129.86 39.8208 130.249 41.5293C130.477 42.5297 131.195 43.8324 131.912 44.5451C132.962 45.5883 133.31 45.7309 137.735 46.9308C141.363 47.9148 141.809 48.06 141.974 48.3104C142.076 48.4644 142.763 50.126 143.501 52.0028C145.423 56.8886 145.407 56.8551 145.97 57.0064C146.548 57.1618 146.325 57.3079 150.3 54.1686C152.062 52.777 153.644 51.5691 153.815 51.4845C154.096 51.3447 154.497 51.4303 158.156 52.4128C160.645 53.081 162.393 53.4944 162.726 53.4934C164.332 53.4882 166.277 52.6531 167.335 51.5141C168.525 50.2329 168.419 50.5574 171.959 37.3887C173.959 29.9502 175.198 25.1496 175.234 24.7051C175.322 23.6149 174.96 22.0206 174.4 21.0407C173.816 20.0167 172.626 18.9163 171.602 18.453C170.699 18.0445 143.776 10.8248 142.939 10.7665ZM150.551 24.876C151.45 25.3569 152.075 25.9975 152.688 27.0674C153.019 27.644 153.342 28.2826 153.406 28.4863L153.523 28.8569L153.832 28.6007C154.462 28.0777 155.748 27.3474 156.422 27.1303C157.462 26.7947 158.724 26.8533 159.574 27.2766C161.492 28.2324 162.513 30.1667 162.162 32.178C161.795 34.2809 160.231 35.8864 156.205 38.2926C153.846 39.7024 150.514 41.4524 150.211 41.4405C149.915 41.4288 148.274 38.878 146.38 35.4827C144.899 32.8297 144.25 31.1163 144.134 29.5592C143.929 26.7951 145.724 24.65 148.395 24.4662C149.39 24.3977 149.803 24.4762 150.551 24.876Z" fill="#3F455B"/>
<path fill-rule="evenodd" clip-rule="evenodd" d="M26.5673 46.2755C24.8601 47.5012 23.4377 50.149 23.3784 52.2116C23.3159 54.3864 23.1125 53.8759 30.2359 69.4249C37.4053 85.0742 37.1144 84.5191 38.8443 85.8482C39.8573 86.6264 41.5811 87.3043 42.835 87.4177C44.6703 87.5836 45.1173 87.4438 50.3121 85.0786C54.5724 83.1391 55.1153 82.9239 55.4724 83.0328C55.6919 83.1 57.6708 84.1469 59.8698 85.3595C65.5944 88.5159 65.5519 88.497 66.2119 88.1946C66.8897 87.8841 66.7921 88.2013 68.1086 82.0335C68.692 79.2995 69.2484 76.8851 69.3448 76.6683C69.5038 76.3104 69.9557 76.0743 74.2444 74.1086C77.1612 72.7718 79.1658 71.779 79.4836 71.5139C81.0193 70.2327 82.22 67.8871 82.3294 65.9545C82.4526 63.7805 82.6085 64.176 75.5394 48.7393C71.5462 40.0196 68.9205 34.4326 68.6018 33.9779C67.82 32.8629 66.2055 31.6227 64.8908 31.1278C63.5169 30.6106 61.5018 30.5011 60.1522 30.8704C58.962 31.1963 27.4166 45.6659 26.5673 46.2755ZM45.0747 53.7536C46.3189 53.5001 47.4269 53.6177 48.8651 54.1559C49.6402 54.4459 50.4574 54.8013 50.6809 54.9456L51.0875 55.2078L51.1798 54.717C51.3684 53.715 52.0213 51.9929 52.4943 51.2497C53.225 50.1014 54.4814 49.155 55.632 48.8858C58.2299 48.2783 60.746 49.3211 62.0074 51.5282C63.3263 53.8357 63.1024 56.6176 61.1548 62.123C60.0137 65.3486 58.2099 69.6735 57.9102 69.9027C57.617 70.1269 54.0177 68.985 49.5037 67.2354C45.9766 65.8684 43.9925 64.742 42.6446 63.3411C40.2516 60.8545 40.2679 57.3721 42.6831 55.073C43.5822 54.2171 44.0403 53.9643 45.0747 53.7536Z" fill="#3F455B"/>
</g>
<defs>
<clipPath id="clip0_629_4304">
<rect width="205.329" height="205.329" fill="white"/>
</clipPath>
</defs>
</svg>
