<svg width="207" height="206" viewBox="0 0 207 206" fill="none" xmlns="http://www.w3.org/2000/svg">
<g clip-path="url(#clip0_629_4281)">
<path fill-rule="evenodd" clip-rule="evenodd" d="M140.207 17.4738C138.657 17.6049 135.801 18.0938 134.056 18.5268C124.773 20.8301 117.34 26.1622 113.277 33.4313C112.295 35.1894 111.213 38.1 110.719 40.314C110.122 42.9898 110.119 47.5759 110.714 50.2557C111.763 54.9807 113.835 58.8059 117.439 62.6684C119.907 65.3147 120.099 65.5575 120.756 66.8611C121.576 68.4894 121.642 68.9287 122.071 75.6356C122.417 81.0299 122.437 81.1322 123.141 81.1322C123.731 81.1322 124.439 80.7308 129.373 77.5966C136.234 73.2391 136.256 73.2307 140.653 73.1324L143.131 73.0771L143.289 72.8121C143.543 72.3874 143.479 71.9649 142.928 70.4092C142.062 67.9631 141.712 66.106 141.708 63.9457C141.697 57.2686 145.061 51.3221 151.084 47.3714C155.31 44.5988 160.35 43.1618 165.84 43.1642C168.701 43.1654 170.77 43.4476 174.441 44.3378C175.289 44.5432 176.077 44.7113 176.192 44.7113C176.494 44.7113 177.018 44.3344 177.241 43.9572C177.477 43.5575 177.481 42.8457 177.253 41.5025C176.505 37.0884 174.7 33.1027 171.825 29.512C170.921 28.3837 168.364 25.8748 167.146 24.9201C161.952 20.8515 154.773 18.1084 147.897 17.5646C146.071 17.4202 141.481 17.366 140.207 17.4738ZM163.313 46.1001C158.973 46.6522 155.162 48.1482 151.911 50.5765C150.904 51.3284 149.147 53.0627 148.408 54.0336C144.508 59.1603 143.867 65.7971 146.742 71.2793C148.964 75.5164 153.199 79.0309 158.021 80.6407C160.961 81.6221 163.46 81.9915 167.18 81.9942C170.524 81.9967 170.682 82.0447 173.675 83.9644C176.673 85.8871 177.839 86.5576 178.401 86.6821C178.886 86.7892 178.959 86.7805 179.452 86.5573C180.039 86.2921 180.411 85.8793 180.594 85.2905C180.674 85.0347 180.729 83.8654 180.759 81.7579C180.803 78.7132 180.812 78.5906 181.03 78.1021C181.368 77.3488 181.858 76.6632 182.847 75.5645C183.335 75.0214 183.914 74.3637 184.133 74.1027C185.405 72.5879 186.817 69.7156 187.386 67.4847C187.578 66.7287 187.599 66.4063 187.601 64.0689C187.603 61.8804 187.576 61.3723 187.423 60.7276C186.914 58.578 185.857 56.2041 184.677 54.5574C183.877 53.4423 181.52 51.0856 180.419 50.3008C177.146 47.9684 173.585 46.6262 169.277 46.101C167.814 45.9227 164.711 45.9222 163.313 46.1001Z" fill="#3F455B"/>
<path fill-rule="evenodd" clip-rule="evenodd" d="M86.12 37.8144C86.4906 38.5083 86.8202 39.278 86.8521 39.5247C86.8841 39.7714 87.3704 40.057 87.9334 40.1591C89.8709 40.5107 93.6424 44.2227 94.8665 46.9818C96.6317 50.9628 99.2447 64.22 99.2035 68.9908C99.1854 71.1384 99.2275 72.9507 99.2969 73.0174C99.3668 73.0841 100.457 72.5095 101.721 71.74C103.594 70.6004 104.661 70.3133 107.492 70.1879C109.402 70.1039 111.834 69.9204 112.896 69.7812C114.582 69.5596 114.847 69.6825 114.985 70.7467C115.072 71.4174 114.996 72.1565 114.818 72.3895C114.639 72.6229 114.625 74.0244 114.787 75.5046C115.147 78.7932 114.307 81.316 110.437 88.5682C103.661 101.268 103.264 107.616 108.144 125.269C112.592 141.357 123.973 193.5 126.497 209.352L128.24 220.3L91.911 225.006L55.5812 229.713L54.9772 227.557C51.2126 214.122 46.4498 173.721 45.3455 145.858C44.5572 125.959 43.9182 122.013 38.9525 106.371C36.419 98.3918 31.9523 78.454 31.1755 71.6582C30.8416 68.7369 31.6149 65.9351 33.0371 64.9159C33.7231 64.4237 33.8831 63.7184 33.6604 62.1651C33.4954 61.0166 33.4765 59.9253 33.618 59.7403C34.1539 59.0425 35.6691 59.8894 36.4232 61.3087C36.8921 62.1912 37.5773 62.7355 38.1294 62.664C39.4525 62.4926 43.6712 63.9378 44.8852 64.9778C46.2565 66.153 46.9131 65.9985 48.1972 64.2006C50.2125 61.3778 52.4166 60.2872 57.4131 59.6398C60.7158 59.2119 62.795 58.6402 64.8908 57.5826C67.7038 56.1639 71.1531 55.614 73.3854 56.2286C74.1103 56.4281 74.2971 56.039 74.3628 54.1939C74.4669 51.2669 75.2483 48.1275 76.5449 45.4314C77.644 43.1437 80.8566 40.3025 82.5983 40.0769C83.3168 39.9838 83.7712 39.4133 83.999 38.318C84.4129 36.3309 85.2242 36.138 86.12 37.8144ZM81.2379 43.2134C78.0599 45.2667 75.6294 50.9433 75.7746 55.9764C75.8297 57.8969 75.7267 58.048 74.3063 58.1269C69.2467 58.409 67.8955 58.7103 65.1762 60.161C62.6747 61.4952 61.6561 61.7528 58.3308 61.8892C55.9468 61.9872 53.8899 62.3389 53.0526 62.7912C51.0143 63.8929 48.0575 67.1763 48.4491 67.9033C49.22 69.3351 47.8148 69.0781 44.9644 67.2663C40.2458 64.2669 36.4526 64.1058 34.372 66.8172C33.3237 68.1835 32.7405 72.048 33.3664 73.4802C33.6185 74.0559 34.6647 79.3866 35.6919 85.3266C37.2433 94.2978 38.0699 97.6632 40.5723 105.201C44.3628 116.617 45.6375 121.549 46.4865 128.082C47.0361 132.312 47.3847 133.548 48.38 134.792C49.6524 136.383 52.2289 137.614 53.8167 137.388C55.8323 137.102 59.1245 134.438 61.549 131.132C63.0425 129.095 64.5372 127.598 65.1557 127.518C65.7367 127.442 67.3431 128.036 68.7256 128.837C70.1082 129.638 71.7429 130.385 72.3585 130.497C73.9175 130.78 75.9091 129.253 77.5902 126.487C79.2576 123.743 80.0586 123.491 81.5683 125.237C82.1768 125.941 84.0262 127.577 85.6769 128.871C88.1418 130.804 89.1086 131.234 91.0818 131.275C94.5235 131.346 96.7472 129.679 98.3853 125.8C100.811 120.058 101.817 118.386 102.522 118.932C102.881 119.21 103.36 119.413 103.587 119.384C103.814 119.354 103.613 116.354 103.142 112.716C101.826 102.558 102.659 98.5899 108.331 88.0093C113.723 77.9497 114.293 74.6022 110.978 72.4647C107.76 70.3893 102.202 71.9459 98.2346 76.0338C96.4227 77.9007 95.2483 78.0597 96.4431 76.2759C97.9565 74.0166 94.7904 51.3375 92.3872 47.2216C89.4759 42.235 85.1568 40.6824 81.2379 43.2134Z" fill="#3F455B"/>
</g>
<defs>
<clipPath id="clip0_629_4281">
<rect width="205.329" height="205.329" fill="white" transform="translate(0.9375 0.0830078)"/>
</clipPath>
</defs>
</svg>
