<svg width="206" height="206" viewBox="0 0 206 206" fill="none" xmlns="http://www.w3.org/2000/svg">
<g clip-path="url(#clip0_629_4289)">
<mask id="path-1-outside-1_629_4289" maskUnits="userSpaceOnUse" x="107.668" y="52.4141" width="73" height="166" fill="black">
<rect fill="white" x="107.668" y="52.4141" width="73" height="166"/>
<path fill-rule="evenodd" clip-rule="evenodd" d="M141.351 54.5342C141.512 55.373 141.207 56.0035 140.117 57.089C138.374 58.8234 137.544 61.5765 137.808 64.7446L138.001 67.0624L136.51 66.7841C132.928 66.115 128.484 69.5649 126.881 74.2595C126.103 76.5378 125.976 76.6754 124.921 76.3795C124.301 76.2054 122.601 76.0717 121.144 76.0827C119.071 76.0977 117.968 76.3852 116.08 77.4017C111.259 79.9969 109.155 84.5258 109.564 91.4243C109.855 96.3312 110.751 98.9458 113.024 101.516L114.776 103.497L113.684 110.883C111.415 126.233 109.622 145.95 108.919 163.28C108.233 180.193 108.957 196.825 111.043 212.025C111.686 216.703 111.89 217.41 112.599 217.41C113.58 217.41 113.58 217.42 112.77 211.661C111.904 205.501 110.89 193.259 110.534 184.656C109.895 169.205 111.578 140.059 114.484 116.291C115.09 111.334 115.644 106.685 115.715 105.959C115.857 104.503 115.743 104.518 119.906 105.371C121.964 105.792 122.777 106.181 123.183 106.935C124.005 108.465 124.898 108.192 124.898 106.41C124.898 105.189 125.142 104.756 126.113 104.254C128.607 102.962 130.64 99.7161 130.64 97.0259C130.64 95.1684 129.767 92.9894 129.024 92.9894C128.512 92.9894 128.437 93.3851 128.663 94.8892C129.262 98.8619 127.16 102.29 123.361 103.538C120.221 104.57 115.824 102.798 113.738 99.6598C110.747 95.1604 110.332 87.2542 112.852 82.7927C114.608 79.6848 117.367 77.9429 120.941 77.6857C122.371 77.5824 124.045 77.6241 124.661 77.778C125.712 78.0409 125.781 78.2295 125.781 80.8279C125.781 88.3652 130.071 93.4172 136.48 93.4265C137.868 93.4287 138.235 93.6401 138.825 94.7762C139.701 96.4622 140.533 96.242 140.72 94.2745C140.826 93.1627 141.219 92.5401 142.224 91.8903C144.472 90.4382 145.215 88.4975 145.215 84.0747C145.215 77.1801 143.428 70.8249 140.824 68.4574C139.703 67.4383 139.433 66.7903 139.199 64.5701C138.206 55.1106 146.507 53.6887 154.406 61.966C157.01 64.6954 161.071 70.4249 160.611 70.7203C160.524 70.7766 159.658 71.2101 158.686 71.684C157.714 72.158 155.407 74.0445 153.559 75.8761C149.186 80.2093 146.865 84.626 146.611 89.0981C146.497 91.1187 146.602 92.1102 146.932 92.1102C147.202 92.1102 147.423 91.5241 147.423 90.8079C147.423 87.5875 150.82 81.3858 154.756 77.4179C161.373 70.7489 167.7 70.2763 168.848 76.3654C169.053 77.4562 168.802 78.8877 167.973 81.3462C166.224 86.5323 165.546 89.8099 165.539 93.113C165.533 95.4453 165.686 96.1536 166.239 96.3646C167.281 96.763 167.721 95.7302 167.772 92.7696C167.862 87.456 168.601 92.5441 169.273 103.101C170.024 114.903 170.532 120.372 171.457 126.623C174.804 149.226 175.916 160.462 177.27 185.316C177.958 197.942 177.911 213.671 177.177 216.421C176.967 217.206 177.096 217.41 177.8 217.41C178.601 217.41 178.722 217.011 179.031 213.344C179.581 206.835 179.35 186.927 178.584 174.764C177.685 160.474 176.487 148.593 174.784 137.066C172.024 118.377 171.326 112.323 170.885 103.248C170.564 96.624 170.162 92.792 169.493 89.9519C168.594 86.1428 168.583 85.8218 169.25 82.9034C170.145 78.9879 170.137 75.8897 169.226 73.6251C168.688 72.2855 168.632 71.702 169.006 71.3301C169.633 70.7058 169.663 69.2484 169.05 69.2484C168.798 69.2484 168.136 69.546 167.579 69.9096C166.86 70.3787 165.984 70.4917 164.566 70.2983C162.762 70.052 162.479 69.8472 161.675 68.2082C158.496 61.7246 151.52 55.9564 146.082 55.3154C144.795 55.1638 143.617 54.7285 143.173 54.2409C142.064 53.0209 141.09 53.1779 141.351 54.5342ZM140.062 69.681C141.864 71.8133 142.964 75.4496 143.492 81.0222C144.298 89.5316 143.038 91.4507 136.646 91.4507C133.331 91.4507 132.852 91.3386 131.374 90.2161C128.93 88.3608 127.873 85.9454 127.638 81.6803C127.413 77.607 128.161 74.5593 130.063 71.786C131.753 69.3244 133.513 68.3853 136.453 68.3765C138.69 68.3699 139.069 68.5071 140.062 69.681Z"/>
</mask>
<path fill-rule="evenodd" clip-rule="evenodd" d="M141.351 54.5342C141.512 55.373 141.207 56.0035 140.117 57.089C138.374 58.8234 137.544 61.5765 137.808 64.7446L138.001 67.0624L136.51 66.7841C132.928 66.115 128.484 69.5649 126.881 74.2595C126.103 76.5378 125.976 76.6754 124.921 76.3795C124.301 76.2054 122.601 76.0717 121.144 76.0827C119.071 76.0977 117.968 76.3852 116.08 77.4017C111.259 79.9969 109.155 84.5258 109.564 91.4243C109.855 96.3312 110.751 98.9458 113.024 101.516L114.776 103.497L113.684 110.883C111.415 126.233 109.622 145.95 108.919 163.28C108.233 180.193 108.957 196.825 111.043 212.025C111.686 216.703 111.89 217.41 112.599 217.41C113.58 217.41 113.58 217.42 112.77 211.661C111.904 205.501 110.89 193.259 110.534 184.656C109.895 169.205 111.578 140.059 114.484 116.291C115.09 111.334 115.644 106.685 115.715 105.959C115.857 104.503 115.743 104.518 119.906 105.371C121.964 105.792 122.777 106.181 123.183 106.935C124.005 108.465 124.898 108.192 124.898 106.41C124.898 105.189 125.142 104.756 126.113 104.254C128.607 102.962 130.64 99.7161 130.64 97.0259C130.64 95.1684 129.767 92.9894 129.024 92.9894C128.512 92.9894 128.437 93.3851 128.663 94.8892C129.262 98.8619 127.16 102.29 123.361 103.538C120.221 104.57 115.824 102.798 113.738 99.6598C110.747 95.1604 110.332 87.2542 112.852 82.7927C114.608 79.6848 117.367 77.9429 120.941 77.6857C122.371 77.5824 124.045 77.6241 124.661 77.778C125.712 78.0409 125.781 78.2295 125.781 80.8279C125.781 88.3652 130.071 93.4172 136.48 93.4265C137.868 93.4287 138.235 93.6401 138.825 94.7762C139.701 96.4622 140.533 96.242 140.72 94.2745C140.826 93.1627 141.219 92.5401 142.224 91.8903C144.472 90.4382 145.215 88.4975 145.215 84.0747C145.215 77.1801 143.428 70.8249 140.824 68.4574C139.703 67.4383 139.433 66.7903 139.199 64.5701C138.206 55.1106 146.507 53.6887 154.406 61.966C157.01 64.6954 161.071 70.4249 160.611 70.7203C160.524 70.7766 159.658 71.2101 158.686 71.684C157.714 72.158 155.407 74.0445 153.559 75.8761C149.186 80.2093 146.865 84.626 146.611 89.0981C146.497 91.1187 146.602 92.1102 146.932 92.1102C147.202 92.1102 147.423 91.5241 147.423 90.8079C147.423 87.5875 150.82 81.3858 154.756 77.4179C161.373 70.7489 167.7 70.2763 168.848 76.3654C169.053 77.4562 168.802 78.8877 167.973 81.3462C166.224 86.5323 165.546 89.8099 165.539 93.113C165.533 95.4453 165.686 96.1536 166.239 96.3646C167.281 96.763 167.721 95.7302 167.772 92.7696C167.862 87.456 168.601 92.5441 169.273 103.101C170.024 114.903 170.532 120.372 171.457 126.623C174.804 149.226 175.916 160.462 177.27 185.316C177.958 197.942 177.911 213.671 177.177 216.421C176.967 217.206 177.096 217.41 177.8 217.41C178.601 217.41 178.722 217.011 179.031 213.344C179.581 206.835 179.35 186.927 178.584 174.764C177.685 160.474 176.487 148.593 174.784 137.066C172.024 118.377 171.326 112.323 170.885 103.248C170.564 96.624 170.162 92.792 169.493 89.9519C168.594 86.1428 168.583 85.8218 169.25 82.9034C170.145 78.9879 170.137 75.8897 169.226 73.6251C168.688 72.2855 168.632 71.702 169.006 71.3301C169.633 70.7058 169.663 69.2484 169.05 69.2484C168.798 69.2484 168.136 69.546 167.579 69.9096C166.86 70.3787 165.984 70.4917 164.566 70.2983C162.762 70.052 162.479 69.8472 161.675 68.2082C158.496 61.7246 151.52 55.9564 146.082 55.3154C144.795 55.1638 143.617 54.7285 143.173 54.2409C142.064 53.0209 141.09 53.1779 141.351 54.5342ZM140.062 69.681C141.864 71.8133 142.964 75.4496 143.492 81.0222C144.298 89.5316 143.038 91.4507 136.646 91.4507C133.331 91.4507 132.852 91.3386 131.374 90.2161C128.93 88.3608 127.873 85.9454 127.638 81.6803C127.413 77.607 128.161 74.5593 130.063 71.786C131.753 69.3244 133.513 68.3853 136.453 68.3765C138.69 68.3699 139.069 68.5071 140.062 69.681Z" fill="#3F455B"/>
<path d="M141.351 54.5342L140.434 54.7103L140.434 54.7103L141.351 54.5342ZM137.808 64.7446L138.738 64.6671L138.738 64.6671L137.808 64.7446ZM138.001 67.0624L137.83 67.9799L139.033 68.2044L138.931 66.985L138.001 67.0624ZM136.51 66.7841L136.338 67.7016L136.338 67.7016L136.51 66.7841ZM126.881 74.2595L127.764 74.5612L127.764 74.5611L126.881 74.2595ZM124.921 76.3795L124.669 77.2781L124.669 77.2781L124.921 76.3795ZM121.144 76.0827L121.15 77.016L121.151 77.016L121.144 76.0827ZM116.08 77.4017L116.523 78.2235L116.523 78.2234L116.08 77.4017ZM109.564 91.4243L110.496 91.3691L110.496 91.3691L109.564 91.4243ZM113.024 101.516L113.723 100.898L113.723 100.898L113.024 101.516ZM114.776 103.497L115.699 103.634L115.762 103.204L115.475 102.879L114.776 103.497ZM113.684 110.883L112.761 110.747L112.761 110.747L113.684 110.883ZM108.919 163.28L109.852 163.318L109.852 163.318L108.919 163.28ZM111.043 212.025L110.119 212.152L110.119 212.152L111.043 212.025ZM112.77 211.661L111.846 211.791H111.846L112.77 211.661ZM110.534 184.656L111.467 184.618L111.467 184.618L110.534 184.656ZM114.484 116.291L115.411 116.404L115.411 116.404L114.484 116.291ZM115.715 105.959L116.644 106.05L116.644 106.05L115.715 105.959ZM119.906 105.371L119.719 106.286L119.719 106.286L119.906 105.371ZM123.183 106.935L124.005 106.493L124.005 106.493L123.183 106.935ZM126.113 104.254L126.542 105.083L126.542 105.082L126.113 104.254ZM128.663 94.8892L127.74 95.0282L127.74 95.0283L128.663 94.8892ZM123.361 103.538L123.07 102.651L123.07 102.651L123.361 103.538ZM113.738 99.6598L112.96 100.176L112.961 100.177L113.738 99.6598ZM112.852 82.7927L112.04 82.3335L112.04 82.3336L112.852 82.7927ZM120.941 77.6857L121.008 78.6166L121.008 78.6166L120.941 77.6857ZM124.661 77.778L124.888 76.8726L124.887 76.8725L124.661 77.778ZM136.48 93.4265L136.482 92.4931H136.482L136.48 93.4265ZM138.825 94.7762L137.997 95.2064L137.997 95.2064L138.825 94.7762ZM140.72 94.2745L141.65 94.363L141.65 94.3628L140.72 94.2745ZM142.224 91.8903L141.718 91.1064L141.718 91.1064L142.224 91.8903ZM140.824 68.4574L141.452 67.7669L141.452 67.7669L140.824 68.4574ZM139.199 64.5701L138.271 64.6675L138.271 64.6676L139.199 64.5701ZM154.406 61.966L153.73 62.6103L153.73 62.6103L154.406 61.966ZM160.611 70.7203L160.107 69.9349L160.104 69.9366L160.611 70.7203ZM153.559 75.8761L154.215 76.5391L154.215 76.5391L153.559 75.8761ZM146.611 89.0981L145.679 89.0452L145.679 89.0454L146.611 89.0981ZM154.756 77.4179L154.093 76.7606L154.093 76.7606L154.756 77.4179ZM168.848 76.3654L169.765 76.1927L169.765 76.1925L168.848 76.3654ZM167.973 81.3462L168.857 81.6445L168.857 81.6444L167.973 81.3462ZM165.539 93.113L166.472 93.1151V93.115L165.539 93.113ZM166.239 96.3646L166.572 95.4929L166.572 95.4927L166.239 96.3646ZM167.772 92.7696L168.705 92.7855V92.7854L167.772 92.7696ZM169.273 103.101L170.204 103.042V103.042L169.273 103.101ZM171.457 126.623L172.381 126.486L172.381 126.486L171.457 126.623ZM177.27 185.316L176.338 185.367V185.367L177.27 185.316ZM177.177 216.421L178.078 216.662L178.078 216.662L177.177 216.421ZM179.031 213.344L178.101 213.265L178.101 213.265L179.031 213.344ZM178.584 174.764L179.516 174.706V174.706L178.584 174.764ZM174.784 137.066L173.861 137.202V137.202L174.784 137.066ZM170.885 103.248L169.953 103.293V103.294L170.885 103.248ZM169.493 89.9519L170.401 89.7378L170.401 89.7377L169.493 89.9519ZM169.25 82.9034L168.34 82.6955L168.34 82.6956L169.25 82.9034ZM169.226 73.6251L168.36 73.9731L168.361 73.9732L169.226 73.6251ZM169.006 71.3301L169.664 71.9916L169.006 71.3301ZM167.579 69.9096L167.069 69.1277L167.069 69.1279L167.579 69.9096ZM164.566 70.2983L164.439 71.223L164.439 71.223L164.566 70.2983ZM161.675 68.2082L160.837 68.6191L160.837 68.6191L161.675 68.2082ZM146.082 55.3154L146.192 54.3885L146.192 54.3885L146.082 55.3154ZM143.173 54.2409L142.482 54.8686L142.483 54.8692L143.173 54.2409ZM140.062 69.681L140.775 69.0785L140.775 69.0784L140.062 69.681ZM143.492 81.0222L142.563 81.1102L142.563 81.1102L143.492 81.0222ZM131.374 90.2161L131.939 89.4728L131.939 89.4728L131.374 90.2161ZM127.638 81.6803L126.706 81.7317L126.706 81.7318L127.638 81.6803ZM130.063 71.786L129.294 71.2579L129.294 71.258L130.063 71.786ZM136.453 68.3765L136.45 67.4432H136.45L136.453 68.3765ZM140.434 54.7103C140.48 54.9488 140.461 55.1101 140.363 55.3131C140.241 55.5644 139.985 55.9027 139.458 56.4275L140.775 57.7504C141.338 57.1897 141.78 56.6701 142.043 56.1251C142.33 55.5317 142.383 54.9584 142.267 54.358L140.434 54.7103ZM139.458 56.4275C137.467 58.4099 136.598 61.466 136.878 64.8221L138.738 64.6671C138.49 61.687 139.282 59.2369 140.775 57.7504L139.458 56.4275ZM136.878 64.8221L137.071 67.1399L138.931 66.985L138.738 64.6671L136.878 64.8221ZM138.172 66.145L136.681 65.8667L136.338 67.7016L137.83 67.9799L138.172 66.145ZM136.681 65.8667C134.539 65.4665 132.267 66.3091 130.381 67.7732C128.48 69.2487 126.859 71.4353 125.998 73.9579L127.764 74.5611C128.506 72.3891 129.908 70.5034 131.526 69.2476C133.158 67.9805 134.898 67.4326 136.338 67.7016L136.681 65.8667ZM125.998 73.9578C125.802 74.5308 125.658 74.9375 125.534 75.2326C125.473 75.378 125.424 75.4807 125.383 75.5531C125.363 75.5885 125.347 75.6131 125.336 75.6296C125.324 75.646 125.319 75.6521 125.319 75.6513C125.355 75.6125 125.449 75.564 125.526 75.5609C125.535 75.5605 125.517 75.5624 125.45 75.5498C125.385 75.5373 125.298 75.5158 125.173 75.4809L124.669 77.2781C124.922 77.349 125.261 77.4396 125.6 77.426C126.022 77.4091 126.394 77.2393 126.69 76.9183C126.938 76.6507 127.11 76.3008 127.256 75.9544C127.407 75.5922 127.571 75.1273 127.764 74.5612L125.998 73.9578ZM125.174 75.4809C124.767 75.3666 124.105 75.2851 123.42 75.2313C122.71 75.1755 121.894 75.1437 121.137 75.1494L121.151 77.016C121.851 77.0107 122.614 77.0403 123.273 77.0921C123.958 77.1459 124.456 77.2182 124.669 77.2781L125.174 75.4809ZM121.137 75.1494C120.059 75.1572 119.181 75.236 118.307 75.4635C117.436 75.6905 116.614 76.0539 115.638 76.58L116.523 78.2234C117.434 77.7329 118.108 77.4444 118.778 77.2698C119.446 77.0957 120.156 77.0232 121.15 77.016L121.137 75.1494ZM115.638 76.5799C113.066 77.9646 111.184 79.8888 110.015 82.4059C108.852 84.907 108.422 87.93 108.632 91.4795L110.496 91.3691C110.297 88.0201 110.714 85.3294 111.707 83.1926C112.693 81.0718 114.274 79.434 116.523 78.2235L115.638 76.5799ZM108.632 91.4795C108.93 96.5072 109.865 99.3526 112.325 102.134L113.723 100.898C111.637 98.539 110.779 96.1553 110.496 91.3691L108.632 91.4795ZM112.325 102.134L114.076 104.115L115.475 102.879L113.723 100.898L112.325 102.134ZM113.852 103.361L112.761 110.747L114.607 111.02L115.699 103.634L113.852 103.361ZM112.761 110.747C110.487 126.132 108.691 145.883 107.987 163.242L109.852 163.318C110.554 146.017 112.344 126.333 114.607 111.02L112.761 110.747ZM107.987 163.242C107.298 180.204 108.025 196.892 110.119 212.152L111.968 211.898C109.89 196.758 109.167 180.181 109.852 163.318L107.987 163.242ZM110.119 212.152C110.436 214.465 110.657 215.889 110.9 216.731C111.019 217.143 111.179 217.554 111.462 217.86C111.809 218.236 112.23 218.344 112.599 218.344V216.477C112.586 216.477 112.626 216.475 112.687 216.499C112.756 216.525 112.806 216.565 112.833 216.593C112.858 216.62 112.794 216.562 112.693 216.213C112.496 215.531 112.293 214.263 111.968 211.898L110.119 212.152ZM112.599 218.344C112.703 218.344 112.872 218.345 113.031 218.326C113.199 218.306 113.452 218.255 113.694 218.082C114.215 217.712 114.278 217.101 114.289 216.723C114.302 216.285 114.247 215.681 114.149 214.876C114.049 214.057 113.896 212.967 113.694 211.532L111.846 211.791C112.049 213.235 112.199 214.304 112.296 215.102C112.395 215.915 112.431 216.388 112.423 216.667C112.413 217.007 112.342 216.754 112.612 216.561C112.73 216.478 112.828 216.471 112.811 216.473C112.785 216.476 112.74 216.477 112.599 216.477V218.344ZM113.694 211.532C112.834 205.41 111.822 193.2 111.467 184.618L109.602 184.695C109.959 193.317 110.974 205.592 111.846 211.791L113.694 211.532ZM111.467 184.618C110.83 169.237 112.508 140.146 115.411 116.404L113.558 116.178C110.649 139.972 108.959 169.173 109.602 184.695L111.467 184.618ZM115.411 116.404C116.016 111.455 116.571 106.79 116.644 106.05L114.786 105.868C114.716 106.579 114.165 111.213 113.558 116.178L115.411 116.404ZM116.644 106.05C116.663 105.851 116.674 105.721 116.69 105.606C116.705 105.491 116.717 105.463 116.713 105.473C116.703 105.498 116.663 105.582 116.566 105.654C116.477 105.722 116.408 105.727 116.432 105.723C116.524 105.711 116.769 105.718 117.358 105.818C117.915 105.914 118.668 106.07 119.719 106.286L120.093 104.457C119.062 104.246 118.268 104.081 117.672 103.979C117.107 103.882 116.591 103.816 116.173 103.875C115.942 103.907 115.681 103.984 115.445 104.162C115.202 104.345 115.059 104.577 114.975 104.793C114.897 104.992 114.862 105.195 114.84 105.355C114.818 105.515 114.802 105.703 114.786 105.868L116.644 106.05ZM119.719 106.286C121.82 106.716 122.186 107.052 122.361 107.377L124.005 106.493C123.369 105.31 122.108 104.869 120.093 104.457L119.719 106.286ZM122.361 107.377C122.598 107.818 122.878 108.205 123.21 108.474C123.536 108.738 124.045 108.983 124.622 108.807C125.178 108.637 125.472 108.172 125.617 107.792C125.769 107.396 125.831 106.921 125.831 106.41H123.965C123.965 106.595 123.953 106.747 123.935 106.87C123.916 106.993 123.893 107.076 123.874 107.125C123.865 107.149 123.858 107.162 123.856 107.166C123.854 107.169 123.858 107.162 123.871 107.147C123.884 107.132 123.907 107.109 123.942 107.085C123.977 107.061 124.022 107.038 124.076 107.022C124.129 107.005 124.183 106.998 124.234 106.999C124.283 107 124.324 107.008 124.352 107.016C124.38 107.024 124.396 107.033 124.401 107.035C124.405 107.038 124.4 107.035 124.386 107.024C124.357 107 124.305 106.95 124.235 106.859C124.167 106.769 124.089 106.649 124.005 106.493L122.361 107.377ZM125.831 106.41C125.831 105.833 125.896 105.624 125.954 105.521C126.002 105.435 126.11 105.306 126.542 105.083L125.683 103.425C125.144 103.704 124.645 104.042 124.328 104.605C124.022 105.148 123.965 105.767 123.965 106.41H125.831ZM126.542 105.082C127.968 104.344 129.214 103.078 130.102 101.66C130.989 100.244 131.573 98.5898 131.573 97.0259H129.706C129.706 98.1521 129.274 99.4662 128.52 100.669C127.769 101.869 126.751 102.872 125.683 103.425L126.542 105.082ZM131.573 97.0259C131.573 95.9688 131.329 94.8423 130.977 93.9642C130.802 93.5269 130.582 93.1061 130.319 92.7764C130.092 92.4919 129.656 92.0561 129.024 92.0561V93.9228C128.763 93.9228 128.715 93.7594 128.861 93.9415C128.97 94.0783 129.108 94.3183 129.244 94.658C129.515 95.3337 129.706 96.2254 129.706 97.0259H131.573ZM129.024 92.0561C128.789 92.0561 128.443 92.0995 128.135 92.347C127.823 92.5977 127.7 92.9357 127.649 93.2014C127.56 93.6715 127.632 94.3077 127.74 95.0282L129.586 94.7501C129.531 94.3836 129.497 94.1059 129.483 93.8948C129.468 93.6744 129.478 93.5767 129.483 93.5492C129.487 93.5279 129.465 93.6731 129.304 93.8026C129.146 93.9288 129.002 93.9228 129.024 93.9228V92.0561ZM127.74 95.0283C128.272 98.5538 126.433 101.546 123.07 102.651L123.653 104.425C127.887 103.033 130.252 99.1699 129.586 94.75L127.74 95.0283ZM123.07 102.651C121.763 103.081 120.112 102.945 118.503 102.297C116.902 101.651 115.44 100.535 114.515 99.1431L112.961 100.177C114.121 101.922 115.902 103.261 117.805 104.028C119.702 104.793 121.819 105.027 123.653 104.425L123.07 102.651ZM114.515 99.1431C113.136 97.0691 112.317 94.1428 112.16 91.1631C112.003 88.1792 112.519 85.28 113.665 83.2517L112.04 82.3336C110.665 84.7669 110.128 88.0516 110.296 91.261C110.465 94.4747 111.348 97.7511 112.96 100.176L114.515 99.1431ZM113.665 83.2518C115.266 80.4174 117.745 78.8514 121.008 78.6166L120.874 76.7548C116.99 77.0343 113.95 78.9522 112.04 82.3335L113.665 83.2518ZM121.008 78.6166C121.691 78.5672 122.437 78.5524 123.083 78.5684C123.757 78.5852 124.237 78.634 124.435 78.6835L124.887 76.8725C124.469 76.7681 123.804 76.7192 123.129 76.7024C122.427 76.6849 121.62 76.7009 120.874 76.7548L121.008 78.6166ZM124.435 78.6834C124.558 78.7144 124.643 78.7382 124.706 78.7601C124.736 78.7706 124.757 78.779 124.771 78.7852C124.785 78.7914 124.79 78.7946 124.789 78.7942C124.752 78.7711 124.731 78.727 124.739 78.7489C124.764 78.8176 124.801 78.9799 124.822 79.3473C124.843 79.7028 124.848 80.1751 124.848 80.8279H126.715C126.715 80.1815 126.71 79.6558 126.686 79.237C126.662 78.83 126.615 78.4415 126.491 78.1054C126.351 77.7226 126.116 77.4195 125.77 77.206C125.478 77.0257 125.145 76.937 124.888 76.8726L124.435 78.6834ZM124.848 80.8279C124.848 84.7685 125.97 88.1452 128.016 90.5543C130.073 92.9767 133.011 94.3548 136.479 94.3598L136.482 92.4931C133.54 92.4889 131.129 91.3363 129.439 89.3461C127.737 87.3426 126.715 84.4246 126.715 80.8279H124.848ZM136.479 94.3598C137.171 94.3609 137.382 94.425 137.486 94.485C137.574 94.5356 137.71 94.6545 137.997 95.2064L139.653 94.346C139.35 93.7618 139.008 93.207 138.418 92.8673C137.844 92.5369 137.178 92.4942 136.482 92.4931L136.479 94.3598ZM137.997 95.2064C138.24 95.6743 138.517 96.0852 138.836 96.3761C139.145 96.657 139.655 96.9603 140.27 96.7977C140.852 96.6437 141.163 96.1616 141.324 95.7927C141.497 95.396 141.598 94.9049 141.65 94.363L139.791 94.1861C139.771 94.4015 139.743 94.5813 139.71 94.7279C139.677 94.876 139.642 94.9796 139.613 95.0473C139.582 95.1176 139.567 95.1277 139.584 95.1091C139.605 95.0865 139.672 95.025 139.792 94.9932C139.85 94.9778 139.908 94.973 139.962 94.9766C140.014 94.9801 140.055 94.9912 140.082 95.0011C140.132 95.0193 140.134 95.0331 140.093 94.9955C140.053 94.9596 139.992 94.8929 139.913 94.7812C139.835 94.6709 139.748 94.5274 139.653 94.346L137.997 95.2064ZM141.65 94.3628C141.693 93.9008 141.789 93.6217 141.924 93.4071C142.063 93.1872 142.292 92.9575 142.731 92.6742L141.718 91.1064C141.151 91.4729 140.681 91.8795 140.345 92.4112C140.007 92.9483 139.853 93.5364 139.791 94.1863L141.65 94.3628ZM142.731 92.6743C143.997 91.8565 144.887 90.8602 145.434 89.4301C145.963 88.0474 146.148 86.3175 146.148 84.0747H144.282C144.282 86.2548 144.095 87.7066 143.691 88.763C143.305 89.7719 142.7 90.472 141.718 91.1064L142.731 92.6743ZM146.148 84.0747C146.148 80.5521 145.692 77.1538 144.895 74.3158C144.106 71.5111 142.948 69.127 141.452 67.7669L140.196 69.148C141.304 70.1554 142.342 72.1326 143.098 74.821C143.844 77.4761 144.282 80.7027 144.282 84.0747H146.148ZM141.452 67.7669C140.941 67.3024 140.703 66.9939 140.54 66.6043C140.361 66.1751 140.244 65.5793 140.128 64.4726L138.271 64.6676C138.388 65.781 138.523 66.6194 138.818 67.3241C139.129 68.0683 139.586 68.5934 140.196 69.148L141.452 67.7669ZM140.128 64.4726C139.892 62.2327 140.221 60.5837 140.856 59.4713C141.476 58.385 142.425 57.7423 143.626 57.5367C146.109 57.1113 149.865 58.5595 153.73 62.6103L155.081 61.3217C151.048 57.0952 146.704 55.1157 143.311 55.6968C141.573 55.9944 140.139 56.9635 139.235 58.5456C138.346 60.1017 138.01 62.1777 138.271 64.6675L140.128 64.4726ZM153.73 62.6103C154.99 63.9301 156.627 66.0052 157.896 67.7956C158.53 68.6901 159.057 69.4919 159.392 70.0763C159.564 70.3748 159.665 70.5822 159.71 70.7019C159.736 70.7697 159.722 70.753 159.716 70.6838C159.715 70.6808 159.664 70.2189 160.107 69.9349L161.115 71.5057C161.615 71.1848 161.586 70.6435 161.575 70.5228C161.559 70.3359 161.502 70.1631 161.456 70.0406C161.357 69.7798 161.196 69.4698 161.011 69.147C160.633 68.4886 160.068 67.6321 159.419 66.7162C158.121 64.8856 156.426 62.7312 155.081 61.3217L153.73 62.6103ZM160.104 69.9366C160.131 69.9192 160.113 69.9311 159.983 69.9983C159.878 70.0519 159.735 70.1244 159.562 70.211C159.217 70.3839 158.76 70.6093 158.277 70.8452L159.095 72.5229C159.583 72.2848 160.046 72.0565 160.398 71.8801C160.574 71.7921 160.724 71.716 160.837 71.6577C160.924 71.6129 161.047 71.5496 161.118 71.504L160.104 69.9366ZM158.277 70.8452C157.682 71.1352 156.787 71.7906 155.86 72.5484C154.909 73.3264 153.848 74.2757 152.902 75.2131L154.215 76.5391C155.118 75.6449 156.135 74.7352 157.042 73.9935C157.974 73.2316 158.718 72.7068 159.095 72.5229L158.277 70.8452ZM152.902 75.2131C148.426 79.6476 145.95 84.2687 145.679 89.0452L147.543 89.151C147.78 84.9833 149.945 80.771 154.215 76.5391L152.902 75.2131ZM145.679 89.0454C145.621 90.0661 145.615 90.8815 145.677 91.4607C145.707 91.7397 145.759 92.0405 145.871 92.2976C145.969 92.5216 146.273 93.0435 146.932 93.0435V91.1768C147.151 91.1768 147.331 91.2678 147.446 91.3727C147.544 91.4615 147.579 91.5433 147.582 91.5498C147.585 91.5578 147.557 91.4845 147.533 91.2631C147.488 90.8414 147.486 90.1507 147.543 89.1509L145.679 89.0454ZM146.932 93.0435C147.362 93.0435 147.661 92.807 147.82 92.6273C147.981 92.4459 148.084 92.2365 148.152 92.0572C148.29 91.692 148.357 91.2499 148.357 90.8079H146.49C146.49 91.0821 146.446 91.2911 146.406 91.398C146.384 91.4548 146.381 91.4366 146.425 91.3875C146.467 91.34 146.636 91.1768 146.932 91.1768V93.0435ZM148.357 90.8079C148.357 89.4437 149.107 87.2617 150.432 84.8415C151.737 82.4592 153.519 79.9896 155.419 78.0752L154.093 76.7606C152.056 78.8141 150.173 81.4292 148.795 83.9449C147.438 86.4226 146.49 88.9517 146.49 90.8079H148.357ZM155.418 78.0753C158.663 74.8052 161.699 73.2041 163.922 73.0381C165.006 72.9571 165.86 73.2163 166.498 73.7431C167.145 74.2762 167.672 75.1679 167.931 76.5383L169.765 76.1925C169.45 74.5184 168.756 73.1857 167.686 72.3032C166.609 71.4145 165.252 71.0669 163.783 71.1766C160.902 71.3919 157.466 73.3617 154.093 76.7606L155.418 78.0753ZM167.931 76.5381C168.087 77.3663 167.918 78.5886 167.088 81.048L168.857 81.6444C169.686 79.1868 170.02 77.5461 169.765 76.1927L167.931 76.5381ZM167.088 81.048C165.325 86.2755 164.613 89.6627 164.605 93.111L166.472 93.115C166.479 89.9571 167.122 86.7892 168.857 81.6445L167.088 81.048ZM164.605 93.1109C164.603 94.2683 164.636 95.1242 164.767 95.7309C164.834 96.043 164.94 96.3559 165.129 96.6278C165.333 96.9213 165.6 97.1198 165.906 97.2366L166.572 95.4927C166.601 95.5039 166.642 95.5348 166.662 95.5633C166.667 95.5701 166.631 95.5206 166.592 95.3377C166.509 94.9544 166.469 94.29 166.472 93.1151L164.605 93.1109ZM165.906 97.2364C166.305 97.3891 166.806 97.4636 167.302 97.2347C167.784 97.0124 168.065 96.5924 168.236 96.1928C168.562 95.4272 168.68 94.2585 168.705 92.7855L166.838 92.7538C166.813 94.2413 166.685 95.0693 166.519 95.4607C166.442 95.6395 166.415 95.5881 166.52 95.5399C166.638 95.4851 166.694 95.5393 166.572 95.4929L165.906 97.2364ZM168.705 92.7854C168.716 92.1288 168.737 91.6522 168.764 91.3354C168.778 91.1747 168.792 91.0757 168.802 91.0233C168.807 90.9965 168.808 91.0011 168.8 91.0248C168.799 91.0268 168.763 91.1462 168.651 91.2737C168.588 91.3448 168.468 91.4576 168.278 91.5247C168.069 91.5987 167.85 91.5898 167.662 91.5204C167.36 91.4086 167.232 91.1789 167.225 91.1672C167.177 91.0875 167.179 91.0519 167.207 91.1594C167.252 91.3285 167.311 91.6416 167.38 92.1181C167.655 94.0048 168.006 97.8829 168.341 103.161L170.204 103.042C169.868 97.7626 169.514 93.818 169.228 91.8497C169.157 91.3625 169.085 90.9598 169.011 90.6805C168.98 90.5636 168.925 90.3707 168.824 90.2028C168.79 90.1469 168.637 89.8904 168.309 89.7694C168.109 89.6954 167.878 89.6863 167.657 89.7646C167.455 89.8359 167.323 89.9574 167.249 90.0417C167.113 90.1955 167.055 90.3591 167.033 90.4235C167.004 90.5096 166.984 90.5949 166.97 90.6672C166.942 90.8131 166.921 90.9865 166.905 91.1746C166.872 91.5553 166.85 92.082 166.838 92.7538L168.705 92.7854ZM168.341 103.161C169.093 114.97 169.603 120.47 170.534 126.759L172.381 126.486C171.461 120.274 170.955 114.836 170.204 103.042L168.341 103.161ZM170.534 126.759C173.876 149.332 174.986 160.539 176.338 185.367L178.202 185.265C176.847 160.385 175.731 149.12 172.381 126.486L170.534 126.759ZM176.338 185.367C176.681 191.661 176.841 198.731 176.823 204.569C176.815 207.488 176.761 210.092 176.665 212.132C176.567 214.213 176.428 215.607 176.275 216.18L178.078 216.662C178.292 215.86 178.434 214.256 178.53 212.22C178.628 210.143 178.681 207.51 178.69 204.575C178.708 198.704 178.547 191.598 178.202 185.265L176.338 185.367ZM176.275 216.18C176.217 216.398 176.166 216.633 176.154 216.861C176.143 217.087 176.166 217.406 176.356 217.708C176.56 218.031 176.861 218.188 177.115 218.262C177.35 218.331 177.595 218.344 177.8 218.344V216.477C177.733 216.477 177.687 216.475 177.656 216.471C177.625 216.468 177.622 216.466 177.637 216.47C177.653 216.475 177.7 216.49 177.759 216.53C177.822 216.573 177.885 216.634 177.935 216.712C178.032 216.865 178.017 216.986 178.019 216.953C178.02 216.922 178.032 216.837 178.078 216.662L176.275 216.18ZM177.8 218.344C178.055 218.344 178.464 218.319 178.84 218.042C179.209 217.771 179.386 217.376 179.493 217.023C179.698 216.347 179.811 215.209 179.961 213.422L178.101 213.265C177.943 215.146 177.84 216.041 177.707 216.482C177.645 216.687 177.623 216.621 177.734 216.539C177.852 216.452 177.946 216.477 177.8 216.477V218.344ZM179.961 213.422C180.516 206.844 180.282 186.882 179.516 174.706L177.653 174.823C178.417 186.972 178.645 206.826 178.101 213.265L179.961 213.422ZM179.516 174.706C178.615 160.395 177.415 148.488 175.708 136.93L173.861 137.202C175.559 148.699 176.754 160.553 177.653 174.823L179.516 174.706ZM175.708 136.93C172.948 118.246 172.256 112.229 171.818 103.203L169.953 103.294C170.396 112.416 171.1 118.508 173.861 137.202L175.708 136.93ZM171.818 103.203C171.496 96.575 171.092 92.6683 170.401 89.7378L168.584 90.1661C169.233 92.9158 169.632 96.6731 169.953 103.293L171.818 103.203ZM170.401 89.7377C169.946 87.8055 169.745 86.8712 169.717 86.0615C169.69 85.2795 169.823 84.5838 170.16 83.1112L168.34 82.6956C168.01 84.1415 167.815 85.0655 167.852 86.1258C167.887 87.1585 168.142 88.2892 168.584 90.1661L170.401 89.7377ZM170.16 83.1114C171.072 79.119 171.106 75.7991 170.092 73.277L168.361 73.9732C169.167 75.9803 169.217 78.8569 168.34 82.6955L170.16 83.1114ZM170.092 73.277C169.826 72.615 169.724 72.2413 169.703 72.0253C169.694 71.9301 169.706 71.909 169.7 71.9286C169.691 71.9579 169.672 71.9834 169.664 71.9916L168.347 70.6686C167.915 71.0985 167.791 71.6396 167.845 72.2041C167.893 72.7077 168.088 73.2955 168.36 73.9731L170.092 73.277ZM169.664 71.9916C170.198 71.4596 170.413 70.678 170.426 70.0748C170.433 69.7663 170.39 69.3971 170.224 69.0665C170.044 68.7086 169.659 68.3151 169.05 68.3151V70.1817C168.929 70.1817 168.804 70.1419 168.702 70.0679C168.61 70.0009 168.569 69.9303 168.556 69.9052C168.537 69.8674 168.563 69.9015 168.56 70.0354C168.557 70.1549 168.533 70.2946 168.486 70.423C168.438 70.5544 168.383 70.6332 168.347 70.6686L169.664 71.9916ZM169.05 68.3151C168.84 68.3151 168.641 68.3696 168.511 68.4107C168.36 68.4582 168.202 68.5215 168.046 68.5914C167.735 68.7314 167.388 68.92 167.069 69.1277L168.088 70.6915C168.327 70.5356 168.59 70.3936 168.812 70.2939C168.923 70.244 169.012 70.21 169.074 70.1904C169.156 70.1643 169.134 70.1817 169.05 70.1817V68.3151ZM167.069 69.1279C166.628 69.4155 166.025 69.5554 164.692 69.3735L164.439 71.223C165.943 71.428 167.091 71.3419 168.089 70.6913L167.069 69.1279ZM164.692 69.3735C163.761 69.2464 163.473 69.1495 163.292 69.0192C163.112 68.8885 162.928 68.6435 162.513 67.7972L160.837 68.6191C161.226 69.4119 161.586 70.0887 162.199 70.5318C162.812 70.9753 163.567 71.1039 164.439 71.223L164.692 69.3735ZM162.513 67.7973C160.858 64.4217 158.23 61.2573 155.32 58.8516C152.425 56.4576 149.157 54.7381 146.192 54.3885L145.973 56.2423C148.446 56.5338 151.384 58.0189 154.131 60.2901C156.864 62.5497 159.313 65.5111 160.837 68.6191L162.513 67.7973ZM146.192 54.3885C145.613 54.3204 145.07 54.1893 144.635 54.0286C144.171 53.8573 143.934 53.6903 143.863 53.6126L142.483 54.8692C142.856 55.2791 143.43 55.5736 143.988 55.7796C144.575 55.9964 145.264 56.1588 145.973 56.2423L146.192 54.3885ZM143.864 53.6133C143.539 53.2554 143.193 52.9638 142.839 52.7663C142.5 52.5771 142.063 52.4254 141.6 52.5C141.069 52.5856 140.68 52.9408 140.499 53.4082C140.339 53.8227 140.352 54.2838 140.434 54.7103L142.267 54.3581C142.219 54.1064 142.256 54.0393 142.24 54.081C142.229 54.1111 142.196 54.1748 142.123 54.2364C142.048 54.2999 141.964 54.332 141.897 54.3429C141.783 54.3611 141.782 54.3142 141.929 54.3964C142.061 54.4701 142.253 54.6165 142.482 54.8686L143.864 53.6133ZM139.349 70.2835C140.956 72.1839 142.038 75.5693 142.563 81.1102L144.421 80.9342C143.89 75.3299 142.773 71.4427 140.775 69.0785L139.349 70.2835ZM142.563 81.1102C142.763 83.2213 142.829 84.8742 142.731 86.1708C142.632 87.4711 142.372 88.3301 141.988 88.9153C141.269 90.0098 139.847 90.5174 136.646 90.5174V92.384C139.837 92.384 142.24 91.932 143.548 89.9397C144.178 88.9813 144.481 87.7651 144.592 86.3123C144.703 84.8558 144.624 83.0778 144.421 80.9342L142.563 81.1102ZM136.646 90.5174C134.961 90.5174 134.127 90.4846 133.534 90.3456C133.011 90.2231 132.65 90.0127 131.939 89.4728L130.81 90.9595C131.577 91.542 132.194 91.9488 133.108 92.163C133.953 92.3607 135.016 92.384 136.646 92.384V90.5174ZM131.939 89.4728C130.832 88.6324 130.062 87.6877 129.533 86.4776C128.995 85.2495 128.684 83.7019 128.57 81.6289L126.706 81.7318C126.827 83.9239 127.162 85.7165 127.823 87.2262C128.492 88.7539 129.473 89.9446 130.81 90.9595L131.939 89.4728ZM128.57 81.629C128.354 77.7164 129.07 74.8837 130.833 72.314L129.294 71.258C127.251 74.235 126.473 77.4976 126.706 81.7317L128.57 81.629ZM130.833 72.3141C131.624 71.1616 132.383 70.436 133.228 69.9849C134.073 69.5344 135.085 69.314 136.455 69.3099L136.45 67.4432C134.881 67.4479 133.543 67.7014 132.35 68.3381C131.158 68.9741 130.192 69.9488 129.294 71.2579L130.833 72.3141ZM136.455 69.3099C137.606 69.3065 138.09 69.3493 138.407 69.4638C138.658 69.5545 138.866 69.7121 139.349 70.2836L140.775 69.0784C140.265 68.476 139.788 67.9781 139.041 67.7084C138.361 67.4624 137.536 67.44 136.45 67.4432L136.455 69.3099Z" fill="#3F455B" mask="url(#path-1-outside-1_629_4289)"/>
<path d="M153.417 180.016C161.417 191.749 172.306 189.349 176.75 186.682L173.145 138.017C174.347 137.128 173.817 133.484 162.084 126.017C150.351 118.551 145.64 134.461 144.751 143.35C144.306 150.683 145.417 168.283 153.417 180.016Z" fill="#3F455B" stroke="#3F455B" stroke-width="2.66661"/>
<path fill-rule="evenodd" clip-rule="evenodd" d="M63.2841 29.2389C58.3903 32.4002 46.0111 40.3329 31.7731 49.4311C26.4937 52.8048 21.9326 55.7538 21.6375 55.9842C21.059 56.4355 21.1149 57.284 21.7394 57.5351C21.9275 57.6107 24.726 57.6456 27.9584 57.6125C41.7882 57.4709 50.26 57.381 59.3796 57.2787C64.7215 57.2189 69.58 57.1721 70.1764 57.1749C75.6586 57.199 77.6104 57.0626 78.3617 56.6032C79.0385 56.1892 95.2339 45.8273 108.42 37.3717C110.975 35.7333 115.611 32.763 118.722 30.7707C121.833 28.7785 124.473 27.0122 124.589 26.8456C124.973 26.2923 124.555 25.5524 123.824 25.4919C123.451 25.4609 118.02 25.4938 111.755 25.5652C105.49 25.6365 96.8293 25.7317 92.5085 25.7766C88.1879 25.8214 81.0869 25.896 76.7287 25.9422C72.3704 25.9884 68.5385 26.1185 68.213 26.2317C67.8875 26.3447 65.6695 27.6979 63.2841 29.2389ZM27.3907 67.8053L29.54 75.0083L29.2335 77.2824C28.8414 80.1913 29.0836 81.6158 30.1107 82.4412C31.7946 83.7943 33.468 83.7924 34.8788 82.4357C36.6111 80.7701 36.3972 78.9809 34.1624 76.4473L32.7417 74.8365L30.5585 67.7509L28.3753 60.6653L27.0027 60.6807C26.2477 60.689 25.5426 60.6749 25.4357 60.6492C25.3289 60.6232 26.2085 63.8437 27.3907 67.8053ZM105.988 42.5263C89.9803 52.8565 79.1857 59.6574 78.4469 59.8778C77.7187 60.0951 68.3502 60.2716 47.5761 60.4595C46.1902 60.4719 44.9817 60.5039 44.8902 60.5302C44.7988 60.5568 46.094 65.1659 47.7685 70.7726L50.8128 80.9669L51.6594 81.9194C54.6249 85.2552 63.4959 86.1094 75.4774 84.213C79.3159 83.6054 93.2263 79.5345 96.3896 78.0932C106.81 73.3446 112.836 69.1198 115.088 64.9829C116.376 62.619 116.459 63.1401 112.841 50.995C111.08 45.084 109.567 40.2768 109.478 40.3128C109.39 40.3487 107.819 41.3447 105.988 42.5263Z" fill="#3F455B"/>
<path d="M35.5241 112.976C31.8887 111.365 29.4795 108.581 27.9173 104.98C26.7658 102.326 27.2942 101.051 29.8298 99.8459C31.1679 99.2098 32.5205 98.283 34.0453 99.022C34.7488 99.3643 35.5758 99.961 35.8486 100.658C36.8738 103.281 38.4503 105.498 40.7102 106.842C42.3068 107.794 44.3456 107.912 46.1805 108.43C48.2538 109.017 50.3587 109.517 52.3802 110.268C56.6933 111.876 57.9626 116.374 55.2317 120.245C54.4679 121.329 53.5346 122.299 52.5956 123.225C51.1081 124.697 49.9595 124.237 49.4656 122.111C49.2072 121.002 48.9286 119.851 48.406 118.87C47.2689 116.738 45.0778 116.311 43.1022 115.602C40.6154 114.714 38.1143 113.885 35.5241 112.976Z" fill="#3F455B"/>
<path d="M73.0122 146.398C75.8214 145.381 77.683 143.623 78.8902 141.348C79.7799 139.673 79.3717 138.867 77.4123 138.106C76.3783 137.704 75.3332 137.119 74.1549 137.586C73.6113 137.802 72.9722 138.179 72.7614 138.619C71.9693 140.275 70.7511 141.675 69.0048 142.525C67.771 143.125 66.1956 143.2 64.7777 143.527C63.1756 143.898 61.5491 144.214 59.987 144.688C56.6541 145.704 55.6734 148.545 57.7836 150.99C58.3738 151.674 59.095 152.287 59.8206 152.872C60.97 153.802 61.8575 153.511 62.2392 152.168C62.4389 151.468 62.6541 150.741 63.058 150.121C63.9367 148.774 65.6298 148.505 67.1564 148.057C69.078 147.497 71.0107 146.972 73.0122 146.398Z" fill="#3F455B"/>
<path d="M41.1666 135.898C43.3148 134.711 44.7384 132.66 45.6615 130.006C46.3419 128.051 46.0297 127.111 44.5314 126.223C43.7407 125.755 42.9415 125.072 42.0405 125.616C41.6247 125.868 41.1361 126.308 40.9749 126.821C40.3691 128.754 39.4375 130.388 38.1021 131.379C37.1587 132.079 35.9539 132.166 34.8696 132.548C33.6445 132.981 32.4007 133.349 31.2062 133.903C28.6575 135.088 27.9075 138.402 29.5212 141.254C29.9726 142.053 30.524 142.767 31.0789 143.45C31.9579 144.535 32.6366 144.196 32.9284 142.629C33.0812 141.812 33.2457 140.964 33.5546 140.241C34.2265 138.67 35.5212 138.355 36.6886 137.833C38.1581 137.179 39.636 136.568 41.1666 135.898Z" fill="#3F455B"/>
<path d="M45.1351 169.23C43.1522 168.043 41.838 165.992 40.986 163.338C40.3579 161.383 40.6461 160.444 42.0291 159.555C42.759 159.087 43.4968 158.404 44.3285 158.948C44.7122 159.2 45.1633 159.64 45.3121 160.153C45.8713 162.086 46.7312 163.72 47.9639 164.711C48.8348 165.411 49.9469 165.498 50.9477 165.88C52.0786 166.313 53.2267 166.681 54.3294 167.235C56.682 168.42 57.3743 171.734 55.8847 174.586C55.4681 175.385 54.959 176.099 54.4469 176.782C53.6355 177.867 53.009 177.528 52.7396 175.961C52.5986 175.144 52.4467 174.296 52.1616 173.573C51.5414 172.002 50.3463 171.687 49.2686 171.165C47.9122 170.511 46.5479 169.9 45.1351 169.23Z" fill="#3F455B"/>
<path d="M79.1607 108.221C80.9181 106.193 81.5913 103.838 81.5132 101.254C81.456 99.3492 80.7682 98.7551 78.8753 98.7979C77.8763 98.8205 76.7853 98.6762 76.0663 99.5641C75.735 99.9745 75.4011 100.571 75.4341 101.063C75.5598 102.912 75.2326 104.686 74.2385 106.148C73.5364 107.183 72.3258 107.857 71.3542 108.707C70.2571 109.669 69.1155 110.588 68.0968 111.63C65.925 113.858 66.4387 116.884 69.2143 118.353C69.9911 118.765 70.8383 119.058 71.677 119.325C73.0065 119.751 73.5757 119.139 73.2681 117.74C73.1083 117.01 72.9486 116.25 72.9865 115.517C73.0698 113.923 74.2848 113.021 75.2876 112.017C76.5512 110.756 77.8401 109.525 79.1607 108.221Z" fill="#3F455B"/>
</g>
<defs>
<clipPath id="clip0_629_4289">
<rect width="205.329" height="205.329" fill="white" transform="translate(0.671875 0.0830078)"/>
</clipPath>
</defs>
</svg>
