<svg width="50" height="50" viewBox="0 0 50 50" fill="none" xmlns="http://www.w3.org/2000/svg">
<circle cx="25" cy="25" r="24" transform="matrix(-1 0 0 1 50 0)" fill="white" stroke="#FF6501" stroke-width="2"/>
<path d="M38 24C38.5523 24 39 24.4477 39 25C39 25.5523 38.5523 26 38 26V24ZM12.2929 25.7071C11.9024 25.3166 11.9024 24.6834 12.2929 24.2929L18.6569 17.9289C19.0474 17.5384 19.6805 17.5384 20.0711 17.9289C20.4616 18.3195 20.4616 18.9526 20.0711 19.3431L14.4142 25L20.0711 30.6569C20.4616 31.0474 20.4616 31.6805 20.0711 32.0711C19.6805 32.4616 19.0474 32.4616 18.6569 32.0711L12.2929 25.7071ZM38 26H13V24H38V26Z" fill="#FF6501"/>
</svg>
