<svg width="47" height="49" viewBox="0 0 47 49" fill="none" xmlns="http://www.w3.org/2000/svg">
<path d="M35.5945 12.4639C34.5412 13.007 33.6229 13.7942 32.9107 14.7643C32.1986 15.7345 31.7117 16.8615 31.4879 18.058L31.3421 18.0666C31.0858 16.308 30.3784 14.6529 29.2937 13.2742C28.209 11.8954 26.7868 10.8437 25.1757 10.2288C23.5646 9.61385 21.8236 9.45829 20.1346 9.77835C18.4457 10.0984 16.8706 10.8824 15.574 12.0483L15.2708 11.823C15.9652 10.0304 16.0047 8.03706 15.3819 6.21645C14.7591 4.39585 13.5167 2.873 11.8876 1.93329C10.2585 0.993583 8.3545 0.701529 6.5324 1.11186C4.7103 1.52219 3.0952 2.60674 1.98977 4.16225C0.884347 5.71777 0.364483 7.63747 0.527607 9.56159C0.690731 11.4857 1.52565 13.2822 2.87588 14.6143C4.22611 15.9464 5.99898 16.7228 7.86224 16.7979C9.72549 16.873 11.5512 16.2416 12.9973 15.0222L13.2397 15.2011C12.1792 17.4513 11.9795 20.0337 12.681 22.43C13.3824 24.8262 14.933 26.859 17.0214 28.12L15.2927 32.9246C13.4275 32.8421 11.5972 33.4669 10.1449 34.6821C8.69261 35.8972 7.7179 37.6192 7.40345 39.5254C7.08901 41.4316 7.4564 43.3912 8.43678 45.0369C9.41717 46.6827 10.9433 47.9016 12.7291 48.4653C14.5149 49.029 16.4379 48.8988 18.1377 48.0991C19.8375 47.2994 21.1974 45.8851 21.9626 44.1212C22.7279 42.3572 22.8459 40.3648 22.2946 38.5172C21.7433 36.6696 20.5605 35.0937 18.9678 34.0847L20.6543 29.4018C22.9642 29.7076 25.3025 29.1311 27.2317 27.78C29.1609 26.429 30.5487 24.396 31.1353 22.0617L31.7161 22.0262C32.1986 23.5693 33.1255 24.9224 34.3722 25.9039C35.6189 26.8854 37.1257 27.4482 38.6902 27.5167C40.2547 27.5852 41.8019 27.1561 43.1241 26.2871C44.4463 25.4181 45.4801 24.1507 46.0867 22.6553C46.6932 21.1599 46.8434 19.508 46.5172 17.9216C46.1909 16.3352 45.4038 14.8901 44.2616 13.7806C43.1193 12.6711 41.6766 11.9502 40.1273 11.7149C38.578 11.4795 36.9962 11.7409 35.5945 12.4639V12.4639ZM4.72036 10.6366C4.38216 9.93316 4.25293 9.14165 4.349 8.36214C4.44507 7.58263 4.76213 6.85013 5.26009 6.25728C5.75805 5.66443 6.41455 5.23785 7.14656 5.03149C7.87856 4.82512 8.65321 4.84824 9.37253 5.09792C10.0919 5.3476 10.7235 5.81262 11.1877 6.43419C11.6519 7.05575 11.9277 7.80594 11.9803 8.58989C12.0329 9.37384 11.8599 10.1563 11.4832 10.8384C11.1064 11.5205 10.5429 12.0716 9.8638 12.4219C8.95319 12.8917 7.89972 12.9675 6.93514 12.6327C5.97055 12.2979 5.17388 11.5799 4.72036 10.6366ZM16.6766 44.4172C15.9976 44.7675 15.2334 44.9014 14.4809 44.8019C13.7284 44.7023 13.0213 44.3739 12.4489 43.8581C11.8766 43.3423 11.4648 42.6622 11.2656 41.904C11.0663 41.1457 11.0887 40.3433 11.3297 39.5982C11.5707 38.8531 12.0197 38.1987 12.6197 37.7179C13.2198 37.2371 13.944 36.9514 14.7008 36.8969C15.4576 36.8424 16.213 37.0216 16.8715 37.4119C17.53 37.8021 18.0619 38.3859 18.4001 39.0893C18.8536 40.0326 18.9268 41.1238 18.6036 42.123C18.2804 43.1221 17.5872 43.9474 16.6766 44.4172ZM24.4256 24.884C23.3098 25.4568 22.0448 25.6391 20.8204 25.4036C19.596 25.1681 18.4785 24.5275 17.6356 23.578C16.7927 22.6285 16.2699 21.4213 16.1458 20.1378C16.0217 18.8543 16.303 17.5637 16.9473 16.4599L17.4605 15.7136C18.0105 15.035 18.6996 14.492 19.4777 14.1241C20.2558 13.7562 21.1032 13.5726 21.9584 13.5867C22.8137 13.6008 23.6551 13.8122 24.4215 14.2056C25.1878 14.599 25.8599 15.1644 26.3888 15.8607C26.9176 16.557 27.29 17.3667 27.4787 18.2308C27.6674 19.095 27.6678 19.9918 27.4797 20.8562C27.2917 21.7205 26.92 22.5305 26.3916 23.2272C25.8633 23.924 25.1917 24.4899 24.4256 24.884V24.884ZM40.7244 23.1337C40.0454 23.484 39.2812 23.6179 38.5287 23.5184C37.7762 23.4189 37.0691 23.0904 36.4967 22.5746C35.9244 22.0588 35.5126 21.3788 35.3134 20.6205C35.1141 19.8622 35.1365 19.0598 35.3775 18.3147C35.6185 17.5696 36.0675 16.9152 36.6675 16.4344C37.2676 15.9536 37.9918 15.6679 38.7486 15.6134C39.5054 15.5589 40.2608 15.7381 40.9193 16.1284C41.5778 16.5186 42.1097 17.1024 42.4479 17.8058C42.9014 18.7491 42.9746 19.8403 42.6514 20.8395C42.3282 21.8387 41.635 22.6639 40.7244 23.1337Z" fill="#FFB280"/>
</svg>
