<svg width="31" height="32" viewBox="0 0 31 32" fill="none" xmlns="http://www.w3.org/2000/svg">
<path d="M15.5694 13.251C14.5521 13.251 13.5765 12.8324 12.8572 12.0873C12.1378 11.3422 11.7337 10.3315 11.7337 9.27777C11.7337 8.224 12.1378 7.21339 12.8572 6.46826C13.5765 5.72312 14.5521 5.30451 15.5694 5.30451C16.5867 5.30451 17.5623 5.72312 18.2817 6.46826C19.001 7.21339 19.4051 8.224 19.4051 9.27777C19.4051 10.3315 19.001 11.3422 18.2817 12.0873C17.5623 12.8324 16.5867 13.251 15.5694 13.251V13.251ZM11.6928 20.2029C11.9557 19.352 12.4728 18.6097 13.1695 18.0829C13.8661 17.5562 14.7063 17.2724 15.5688 17.2724C16.4313 17.2724 17.2715 17.5562 17.9681 18.0829C18.6648 18.6097 19.1818 19.352 19.4448 20.2029C19.5295 20.5433 19.7414 20.8348 20.0337 21.0134C20.326 21.192 20.6748 21.243 21.0033 21.1552C21.3319 21.0674 21.6134 20.8479 21.7858 20.5452C21.9582 20.2424 22.0074 19.8811 21.9226 19.5407C20.2464 12.9888 10.8886 12.9914 9.21748 19.5407C9.17132 19.7105 9.15835 19.888 9.17934 20.0631C9.20033 20.2381 9.25485 20.407 9.3397 20.5599C9.42455 20.7128 9.53803 20.8466 9.67347 20.9534C9.80891 21.0603 9.9636 21.138 10.1284 21.1821C10.2933 21.2262 10.465 21.2358 10.6334 21.2102C10.8019 21.1847 10.9637 21.1245 11.1094 21.0333C11.2551 20.9421 11.3818 20.8217 11.482 20.6791C11.5821 20.5365 11.6538 20.3746 11.6928 20.2029V20.2029ZM15.5809 31.3492C14.9501 31.3496 14.3412 31.1097 13.8702 30.6751L9.07811 26.4952H5.34085C3.98445 26.4952 2.68362 25.9371 1.7245 24.9436C0.765387 23.9501 0.226563 22.6026 0.226562 21.1975V5.30451C0.226563 3.89948 0.765387 2.552 1.7245 1.55849C2.68362 0.564983 3.98445 0.00683594 5.34085 0.00683594L25.798 0.00683594C27.1544 0.00683594 28.4552 0.564983 29.4143 1.55849C30.3734 2.552 30.9123 3.89948 30.9123 5.30451V21.1975C30.9123 22.6026 30.3734 23.9501 29.4143 24.9436C28.4552 25.9371 27.1544 26.4952 25.798 26.4952H22.1502L17.2316 30.7069C16.7759 31.1232 16.1885 31.3518 15.5809 31.3492V31.3492ZM5.34085 2.65568C4.66265 2.65568 4.01223 2.93475 3.53267 3.4315C3.05312 3.92826 2.7837 4.602 2.7837 5.30451V21.1975C2.7837 21.9001 3.05312 22.5738 3.53267 23.0706C4.01223 23.5673 4.66265 23.8464 5.34085 23.8464H9.54607C9.84736 23.8464 10.139 23.9566 10.3695 24.1576L15.5426 28.6739L20.8768 24.1497C21.106 23.9536 21.394 23.8463 21.6912 23.8464H25.798C26.4762 23.8464 27.1266 23.5673 27.6062 23.0706C28.0857 22.5738 28.3551 21.9001 28.3551 21.1975V5.30451C28.3551 4.602 28.0857 3.92826 27.6062 3.4315C27.1266 2.93475 26.4762 2.65568 25.798 2.65568H5.34085Z" fill="white"/>
</svg>
