<svg width="24" height="25" viewBox="0 0 24 25" fill="none" xmlns="http://www.w3.org/2000/svg">
<path d="M11.5303 0.220703C9.25869 0.220703 7.03811 0.918462 5.14936 2.22574C3.2606 3.53302 1.7885 5.39111 0.919197 7.56504C0.0498983 9.73897 -0.17755 12.1311 0.265615 14.4389C0.708779 16.7468 1.80265 18.8666 3.40891 20.5305C5.01516 22.1944 7.06166 23.3275 9.2896 23.7865C11.5175 24.2456 13.8269 24.01 15.9255 23.1095C18.0242 22.209 19.818 20.6841 21.08 18.7276C22.342 16.7712 23.0156 14.471 23.0156 12.1179C23.0123 8.96362 21.8012 5.9395 19.648 3.70908C17.4948 1.47866 14.5754 0.224115 11.5303 0.220703V0.220703ZM21.1014 12.1179C21.1025 14.0608 20.5491 15.9607 19.5107 17.5787L18.3698 16.3959C18.2803 16.303 18.2301 16.1772 18.2301 16.046V15.0922C18.2301 14.3034 17.9275 13.5468 17.3891 12.9891C16.8506 12.4313 16.1203 12.1179 15.3587 12.1179H12.4874C12.2335 12.1179 11.9901 12.0135 11.8106 11.8275C11.6311 11.6416 11.5303 11.3894 11.5303 11.1265V10.6308C11.5303 10.4993 11.5807 10.3732 11.6704 10.2802C11.7602 10.1873 11.8819 10.135 12.0088 10.135C12.6434 10.135 13.252 9.8739 13.7008 9.40908C14.1495 8.94425 14.4016 8.31382 14.4016 7.65646V6.66502C14.4016 6.53355 14.452 6.40746 14.5418 6.3145C14.6315 6.22153 14.7532 6.1693 14.8802 6.1693H16.2C16.834 6.16744 17.4417 5.90666 17.8912 5.44358L18.2521 5.0698C19.1548 5.98993 19.8717 7.08702 20.3609 8.29709C20.8501 9.50717 21.1018 10.806 21.1014 12.1179ZM2.00605 13.0727L5.02861 16.2036C5.29459 16.4809 5.61109 16.7007 5.95973 16.8503C6.30838 16.9999 6.68223 17.0763 7.0596 17.0751H9.61605C9.86989 17.0751 10.1133 17.1795 10.2928 17.3655C10.4723 17.5514 10.5732 17.8036 10.5732 18.0665V21.9817C8.37199 21.7489 6.3163 20.7346 4.75481 19.1108C3.19331 17.487 2.22215 15.3537 2.00605 13.0727V13.0727ZM12.4874 21.9817V18.0665C12.4874 17.2777 12.1849 16.5211 11.6464 15.9634C11.1079 15.4056 10.3776 15.0922 9.61605 15.0922H7.0596C6.93376 15.0923 6.80914 15.0667 6.69286 15.0169C6.57658 14.967 6.47094 14.8939 6.38197 14.8017L2.11516 10.3819C2.38906 8.76904 3.04522 7.25185 4.02477 5.96644C5.00431 4.68103 6.2766 3.66763 7.72747 3.01715C9.17834 2.36668 10.7624 2.09948 12.3376 2.23954C13.9127 2.3796 15.4296 2.92252 16.7523 3.81961L16.5379 4.04169C16.4478 4.13372 16.3266 4.18566 16.2 4.18644H14.8802C14.2456 4.18644 13.637 4.44757 13.1882 4.9124C12.7395 5.37722 12.4874 6.00766 12.4874 6.66502V7.65646C12.4874 7.78793 12.437 7.91401 12.3472 8.00698C12.2575 8.09994 12.1358 8.15217 12.0088 8.15217C11.3742 8.15217 10.7656 8.41331 10.3169 8.87813C9.86815 9.34296 9.61605 9.97339 9.61605 10.6308V11.1265C9.61605 11.9153 9.91857 12.6718 10.457 13.2296C10.9955 13.7874 11.7259 14.1008 12.4874 14.1008H15.3587C15.6126 14.1008 15.856 14.2052 16.0355 14.3912C16.215 14.5771 16.3158 14.8293 16.3158 15.0922V16.046C16.3176 16.7027 16.5694 17.3322 17.0164 17.7978L18.2961 19.1234C16.7374 20.7436 14.6845 21.7537 12.4874 21.9817V21.9817Z" fill="white"/>
</svg>
