<svg width="44" height="39" viewBox="0 0 44 39" fill="none" xmlns="http://www.w3.org/2000/svg">
<path d="M41.0137 13.7014C40.1743 12.6994 39.1369 11.8959 37.9717 11.3454C36.8065 10.7948 35.5407 10.51 34.26 10.5103H27.1197L27.7211 6.72592C27.9339 5.39324 27.6772 4.02573 26.9977 2.87281C26.3183 1.71988 25.2613 0.858368 24.0198 0.445401C22.7782 0.0324348 21.4346 0.095533 20.2342 0.623187C19.0338 1.15084 18.0565 2.10789 17.4805 3.31978L14.0545 10.5103H9.2C6.82718 10.5133 4.55237 11.491 2.87453 13.229C1.1967 14.967 0.252842 17.3234 0.25 19.7813L0.25 29.0522C0.252842 31.5101 1.1967 33.8665 2.87453 35.6045C4.55237 37.3425 6.82718 38.3202 9.2 38.3231H33.007C35.1612 38.314 37.2407 37.5041 38.8671 36.0409C40.4935 34.5777 41.5589 32.5583 41.8693 30.3501L43.1312 21.0792C43.309 19.7641 43.2119 18.4248 42.8465 17.1519C42.4812 15.879 41.8561 14.7023 41.0137 13.7014ZM3.83 29.0522V19.7813C3.83 18.306 4.39577 16.8911 5.40284 15.8479C6.40991 14.8047 7.77579 14.2187 9.2 14.2187H12.78V34.6148H9.2C7.77579 34.6148 6.40991 34.0287 5.40284 32.9855C4.39577 31.9423 3.83 30.5275 3.83 29.0522ZM39.5781 20.5582L38.3143 29.8291C38.1296 31.153 37.4922 32.3642 36.5182 33.2424C35.5443 34.1207 34.2983 34.6076 33.007 34.6148H16.36V13.7255C16.5287 13.5732 16.6683 13.3896 16.7717 13.1841L20.69 4.96073C20.8369 4.68618 21.0447 4.45167 21.2961 4.27647C21.5476 4.10126 21.8356 3.99037 22.1365 3.95291C22.4374 3.91544 22.7426 3.95247 23.027 4.06095C23.3113 4.16943 23.5668 4.34626 23.7724 4.57692C23.9483 4.78875 24.0768 5.03818 24.1489 5.30741C24.221 5.57663 24.2348 5.85903 24.1895 6.13443L23.2443 12.0678C23.2029 12.3329 23.2175 12.6042 23.2872 12.8629C23.3569 13.1216 23.48 13.3615 23.648 13.5661C23.816 13.7706 24.0249 13.9349 24.2603 14.0476C24.4956 14.1603 24.7518 14.2187 25.0111 14.2187H34.26C35.0286 14.2186 35.7883 14.3894 36.4877 14.7196C37.1872 15.0498 37.81 15.5317 38.3141 16.1326C38.8183 16.7336 39.192 17.4397 39.4101 18.2032C39.6282 18.9667 39.6854 19.7698 39.5781 20.5582Z" fill="#FF6502"/>
</svg>
