<svg width="37" height="38" viewBox="0 0 37 38" fill="none" xmlns="http://www.w3.org/2000/svg">
<g clip-path="url(#clip0_629_4319)">
<path d="M18.6978 37.7988C15.1322 37.7988 11.6467 36.7036 8.68204 34.6516C5.71738 32.5997 3.4067 29.6831 2.04222 26.2709C0.677733 22.8586 0.320721 19.1038 1.01633 15.4813C1.71194 11.8589 3.42893 8.53143 5.95017 5.91978C8.47141 3.30813 11.6837 1.52958 15.1807 0.809025C18.6778 0.088473 22.3026 0.458287 25.5967 1.8717C28.8909 3.28512 31.7065 5.67865 33.6874 8.74962C35.6683 11.8206 36.7256 15.4311 36.7256 19.1245C36.7205 24.0756 34.8195 28.8224 31.4397 32.3233C28.0599 35.8243 23.4775 37.7935 18.6978 37.7988ZM18.6978 3.56259C15.7265 3.56259 12.8219 4.47528 10.3513 6.18525C7.88078 7.89521 5.95522 10.3257 4.81815 13.1692C3.68107 16.0128 3.38357 19.1418 3.96324 22.1605C4.54291 25.1792 5.97373 27.9521 8.07477 30.1285C10.1758 32.3048 12.8527 33.787 15.7669 34.3874C18.6811 34.9879 21.7018 34.6797 24.4469 33.5019C27.192 32.324 29.5384 30.3294 31.1891 27.7703C32.8399 25.2111 33.721 22.2024 33.721 19.1245C33.7166 14.9986 32.1324 11.043 29.316 8.12558C26.4995 5.20813 22.6808 3.56712 18.6978 3.56259ZM12.6885 22.2369C12.454 22.2358 12.2226 22.2916 12.0127 22.3998C11.8028 22.5079 11.6202 22.6655 11.4796 22.8598C11.339 23.0542 11.2442 23.2799 11.2029 23.519C11.1616 23.7581 11.1749 24.0038 11.2418 24.2366C11.78 25.8667 12.7807 27.2906 14.1128 28.3221C15.445 29.3535 17.0466 29.9446 18.7083 30.0179C20.3707 29.9499 21.974 29.3609 23.3062 28.3286C24.6383 27.2963 25.6365 25.8694 26.1688 24.2366C26.229 24.0041 26.2373 23.7606 26.1933 23.5243C26.1493 23.288 26.054 23.0651 25.9147 22.8725C25.7753 22.6799 25.5956 22.5226 25.389 22.4125C25.1824 22.3024 24.9544 22.2424 24.7221 22.2369H12.6885ZM9.68386 16.0121C9.68386 17.5683 11.0284 17.5683 12.6885 17.5683C14.3486 17.5683 15.6931 17.5683 15.6931 16.0121C15.6931 15.1867 15.3766 14.395 14.8131 13.8113C14.2496 13.2277 13.4854 12.8997 12.6885 12.8997C11.8916 12.8997 11.1274 13.2277 10.5639 13.8113C10.0004 14.395 9.68386 15.1867 9.68386 16.0121ZM21.7024 16.0121C21.7024 17.5683 23.047 17.5683 24.7071 17.5683C26.3671 17.5683 27.7117 17.5683 27.7117 16.0121C27.7117 15.1867 27.3951 14.395 26.8317 13.8113C26.2682 13.2277 25.5039 12.8997 24.7071 12.8997C23.9102 12.8997 23.1459 13.2277 22.5825 13.8113C22.019 14.395 21.7024 15.1867 21.7024 16.0121Z" fill="#FF6502"/>
</g>
<defs>
<clipPath id="clip0_629_4319">
<rect width="36.0557" height="37.3486" fill="white" transform="translate(0.669922 0.450195)"/>
</clipPath>
</defs>
</svg>
