<svg xmlns="http://www.w3.org/2000/svg" width="121" height="121" fill="none">
  <g clip-path="url(#a)">
    <path fill="#3F455B" fill-rule="evenodd" d="M64.447 121c.233-10.604.605-15.826 1.448-24.606.831-8.122 1.178-12.753 1.158-21.421 1.892-12.422 5.21-19.396 14.763-21.711 4.75-.155 4.632 2.605 1.158 6.079-.71 1.331-.29 2.026 1.158 1.158 2.027-.678 4.053.868 4.053 4.92 6.479.848 5.227 6.517 3.108 16.112l-.213.968c-3.213-3.068-6.08-2.895-6.659 2.605.294 9.831 2.895 13.317 8.106 11.87-.064 10.242.26 15.216.868 24.026h1.448c-.025-11.999-.2-18.805-1.158-31.264-.62-2.98-.716-4.697-.579-7.816-.008-1.719.072-2.648.868-4.053 1.902-8.77 1.272-12.115-4.052-14.184-.685-2.624-1.517-3.744-4.053-4.921l.218-.28c.996-1.266 1.618-2.057.94-4.352v-.868c.134-.908-.096-1.122-.869-1.158-2.47-1.096-3.989-1.102-6.947 0-1.223-1.219-2.071-1.657-4.053-1.737-.624-.547-1.447-.58-1.447.579-1.9 1.56-2.061 3.037-1.737 6.079-4.134 5.67-5.838 9.158-6.08 16.79C63.743 92.942 63.103 103.278 63 121h1.447ZM73.5 55.548c1.473-1.379 2.422-2.014 4.343-2.895-2.128-1.304-3.18-1.46-4.343 1.158-.123.619-.08 1.013-.005 1.692l.005.045Z" clip-rule="evenodd"/>
    <path fill="#3F455B" stroke="#3F455B" stroke-width="2" d="M75.636 111.489c-3.99 5.975-9.42 4.753-11.636 3.395l1.798-24.786c-.6-.453-.335-2.309 5.516-6.111 5.852-3.803 8.201 4.3 8.644 8.827.222 3.735-.332 12.699-4.322 18.675Z"/>
    <path fill="#3F455B" fill-rule="evenodd" d="M87.665 15.72c-1.007.897-1.896 2.693-2.09 4.223a27.69 27.69 0 0 1-.259 1.663c-.117.564-.134.57-.367.12-1.138-2.204-2.373-3.144-3.779-2.877-2.764.526-2.279 5.102.835 7.862 1.499 1.33 3.655 2.511 4.58 2.511.806 0 1.714-.904 3.328-3.313 1.171-1.748 1.78-3.083 2.385-5.227.56-1.987.557-2.727-.022-3.938-.92-1.929-3.06-2.403-4.61-1.023Z" clip-rule="evenodd"/>
    <rect width="119" height="119" x="1" y="1" stroke="#FF6501" stroke-width="2" rx="14"/>
    <path fill="#3F455B" fill-rule="evenodd" d="M58.976 20.407c-.243.265-1.404.942-2.747 1.601-1.471.722-2.558 1.904-3.475 3.778-.949 1.938-1.15 3.324-.712 4.901.438 1.581 1.495 2.834 2.99 3.546 2.051.976 4.4.73 6.162-.644.814-.635 1.255-1.184 1.704-2.124.815-1.706.74-3.532-.268-6.416-.498-1.424-.703-1.875-1.186-2.605-.757-1.145-1.84-2.366-2.063-2.324-.095.018-.278.147-.405.287Zm-29.44 13.026c-4.115 1.915-7.218 4.106-9.787 6.909-7.75 8.455-9.083 21.254-3.237 31.074 2.414 4.054 5.783 7.054 10.116 9.006 4.654 2.098 9.35 2.976 12.802 2.394 5.525-.931 8.892-5.306 10.746-13.964.465-2.172.6-2.528 1.218-3.186.434-.463.497-.494 2.101-1.025 3.688-1.223 5.822-2.556 7.498-4.685 2.713-3.446 3.227-8.754 1.365-14.093-.505-1.449-1.077-2.765-1.183-2.724-.036.014-.59 1.69-1.232 3.722-1.342 4.253-2.432 6.706-3.476 7.82-.779.833-1.874 1.312-2.853 1.25-3.009-.19-5.01-4.338-3.978-8.24.16-.6.406-3.217.739-7.818l.5-6.915-.581-.285c-.878-.43-2.849-1.078-4.175-1.372-3.081-.683-6.498-.694-9.922-.031-1.422.275-5.33 1.544-6.66 2.163Zm2.074 5.8c1.347-.009 2.638.62 3.589 1.745.356.422.499.71.743 1.504.257.834.288 1.11.206 1.834a4.672 4.672 0 0 1-3.81 4.065c-2.036.373-3.944-.514-4.986-2.32-.715-1.238-.709-3.033.017-4.335.89-1.597 2.395-2.482 4.241-2.493Zm20.676-3.729-.139 1.991.502.25c.276.137 1.091.432 1.813.657 2.201.684 4.308.849 5.627.439l.638-.2.737-2.286c.404-1.258.709-2.3.676-2.315-.033-.016-.254.125-.49.313-.585.465-2.377 1.185-3.214 1.29-1.277.163-2.467-.05-3.76-.669-.737-.353-1.356-.744-1.645-1.039-.254-.26-.495-.46-.534-.447-.039.014-.134.92-.21 2.016ZM24.801 50.216c1.008.089 2.196.633 2.925 1.34.79.764 1.362 2.118 1.355 3.201-.013 1.86-1.072 3.48-2.809 4.295-2.658 1.248-6.075-.516-6.503-3.357-.276-1.835.33-3.346 1.823-4.538.73-.583 2.242-1.027 3.209-.941Zm26.766-4.714c-.184 2.572-.333 4.894-.33 5.16.002.264.148.892.325 1.396.362 1.034.772 1.513 1.54 1.796 1.132.42 2.558-.487 3.356-2.134.262-.54 3.088-9.223 3.099-9.52.003-.087-.275-.132-.697-.115-1.656.068-3.704-.262-5.73-.923-.625-.203-1.157-.363-1.182-.354-.026.009-.197 2.121-.381 4.694Zm-26.633 16.96c1.555-.28 3.118.225 4.272 1.378.546.544.636.698.96 1.624.325.926.35 1.102.262 1.868-.452 3.991-5.15 5.707-8.018 2.928-.576-.558-.638-.663-1.01-1.726-.364-1.042-.388-1.198-.303-1.95.163-1.437 1.006-2.75 2.263-3.524.71-.437.744-.45 1.574-.599Zm13.14 5.64c3.794.36 5.525 4.903 2.927 7.681-2.635 2.818-7.394 1.508-8.053-2.216-.316-1.784.37-3.467 1.882-4.62.238-.181.772-.417 1.385-.61.85-.27 1.123-.304 1.858-.234Z" clip-rule="evenodd"/>
  </g>
  <defs>
    <clipPath id="a">
      <path fill="#fff" d="M0 0h121v121H0z"/>
    </clipPath>
  </defs>
</svg>
