<svg xmlns="http://www.w3.org/2000/svg" width="121" height="121" fill="none">
  <g clip-path="url(#a)">
    <path fill="#3F455B" fill-rule="evenodd" d="M58.985 120.709c.447-9.668.992-14.893 2.911-23.584 1.242-6.123 1.792-9.59 1.747-16.013-4.798-4.121-6.603-6.672-6.114-12.229v-.873c-.869-1.805-.79-2.385 1.164-2.038.97-.06 1.575-.195 2.912-.874 2.579-.025 3.943.214 6.114 1.456.44-10.871 1.538-15.098 6.115-16.887.611-2.118 1.052-2.22 2.038-.291.329.617.817.858 2.038 1.165 3.122 2.781 3.522 4.577 3.785 7.86l.065-.037c2.52-1.462 3.953-2.294 7.505.329.61.35.888.16 1.365-.291 3.806-.298 5.475.428 7.078 4.367l.018-.013c1.436-1.047 2.247-1.639 4.35-1.443.675.038 1.056-.072 1.746-.582 1.232-.572 1.256-.109 1.165.873 1.077.952 1.443 1.734 1.747 3.494-.169 3.076-.564 4.706-2.329 7.28-2.094 5.012-2.905 8.306-4.076 14.557-1.723 4.303-2.078 6.95-2.038 11.937.557 9.502.41 14.119 0 22.128H83.44c4.35-12.054 7.114-16.497 13.103-16.887-.535-6.319-.445-9.718 1.455-15.14 1.372-4.359 2.003-6.844 2.912-11.355l1.456-3.785c2.005-3.457 3.119-5.396 2.911-9.026-1.007-2.405-4.367-3.203-7.279-.291-1.124 6.088-2.78 7.79-6.987 8.735-.466 0-.97.582-1.165.873-1.13.096-1.271-.169-1.165-.873-.132-.826-.336-1.13-.873-1.456-1.296.609-1.992.7-3.203.582-1.582 1.57-2.08 1.416-2.329-.582-2.264-2.158-2.183-4.206-2.038-7.858v-.003c.242-.944 1.165-.874 1.456 0-.023 5.109.522 6.55 2.329 6.987h2.038c3.022-1.913 3.7-3.836 3.494-8.443-2.023-4.35-4.95-4.659-7.861-2.038-.486.925-1.456.873-1.456-.582-.457-5.077-1.141-7.13-3.785-8.153-4.26-1.28-5.532 2.038-6.114 5.823-.847 4.038-.94 6.43-.874 10.773-.723.856-1.67.325-3.494-.874-6.527-1.834-9.025 1.165-5.24 8.735 1.252 1.788 2.22 2.458 4.076 3.494.915 1.474.888 2.305.582 3.785 5.73-3.97 8.79-5.8 11.646-2.33 2.793 5.013 2.98 8.21 2.038 14.267-4.79 18.138-10.481 19.799-17.76 16.887-.55 3.062-.703 4.954-.874 8.444h-1.455Zm31.79-60.19c1.151 4.376.33 6.447-2.038 9.9 1.623 1.26 2.664 1.2 4.659.291 2.836-2.845 3.661-4.694 2.912-8.735-1.647-2.366-3.064-2.456-5.824-2.038l.292.583Z" clip-rule="evenodd"/>
    <rect width="119" height="119" x="1" y="1" stroke="#FF6501" stroke-width="2" rx="14"/>
    <path fill="#3F455B" stroke="#3F455B" stroke-width=".5" d="m68.616 34.594-8.296-3.987 8.296-3.988a1.313 1.313 0 1 0-1.164-2.354l-9.896 5.029a1.473 1.473 0 0 0 0 2.626l9.896 5.029a1.313 1.313 0 1 0 1.164-2.355Zm15.768-7.975 8.296 3.988-8.296 3.987a1.313 1.313 0 1 0 1.164 2.355l9.896-5.029a1.473 1.473 0 0 0 0-2.626l-9.896-5.029a1.313 1.313 0 1 0-1.164 2.354Zm-3.856-7.318a1.23 1.23 0 1 0-2.375-.641L72.476 39.7a1.23 1.23 0 1 0 2.376.64l5.676-21.04Z"/>
    <path fill="#3F455B" fill-rule="evenodd" d="M18.717 50.37c-.364.091-.524.607-.524 1.691v.941l-.882.314-.883.314-.784-.85c-.51-.553-.892-.85-1.095-.849-.34.002-1.892 1.193-2.254 1.731-.247.368-.192.483.842 1.759l.417.514-.475.766c-.435.7-.518.764-.977.759a7.767 7.767 0 0 1-1.07-.11c-1.074-.196-1.17-.074-1.496 1.906-.161.982-.155 1.04.128 1.264.164.13.695.303 1.18.387.486.083.964.23 1.063.327.1.097.198.54.22.987l.04.81-.838.503c-1.224.734-1.245.805-.613 2.005.294.557.697 1.163.897 1.346l.364.333 1.122-.593 1.123-.594.698.637.698.637-.343.984c-.189.541-.343 1.09-.343 1.221 0 .437 2.649 1.418 3.093 1.146.132-.08.412-.575.623-1.1.212-.525.403-.998.426-1.05.022-.053.485-.053 1.027 0l.987.096.374.962c.206.529.477 1.024.602 1.101.164.1.517.05 1.262-.183 2.02-.63 2.075-.716 1.47-2.284l-.345-.895.542-.477c.818-.721 1.016-.737 2.072-.171.507.272 1.01.494 1.116.494.192 0 .953-1.026 1.416-1.911.436-.831.36-.941-1.455-2.1-.31-.199-.318-.247-.178-1.09.08-.486.171-.909.202-.94.032-.03.465-.119.962-.196 1.634-.255 1.739-.459 1.281-2.478l-.235-1.037H27.377l-.424-.729-.424-.729.487-.585a9.92 9.92 0 0 0 .76-1.05l.272-.464-.921-.83c-.507-.456-1.09-.914-1.294-1.017-.361-.182-.401-.16-1.259.711l-.885.9-.887-.288-.887-.288-.064-1.19c-.08-1.496-.165-1.572-1.735-1.55-.629.01-1.258.046-1.399.081Zm2.715 7.361c1.948.97 2.46 3.35 1.051 4.873-.718.776-1.41 1.088-2.405 1.084-1.05-.004-1.826-.347-2.484-1.097-1.787-2.037-.29-5.125 2.484-5.125.53 0 1.01.094 1.354.265Z" clip-rule="evenodd"/>
    <path fill="#3F455B" fill-rule="evenodd" d="M33.047 26.176c-.518.162-.708.928-.624 2.51l.072 1.373-1.248.525-1.25.526-1.195-1.18c-.779-.768-1.353-1.172-1.645-1.155-.492.027-2.638 1.886-3.118 2.698-.328.556-.24.72 1.35 2.503l.642.718-.627 1.154c-.573 1.055-.688 1.155-1.35 1.182a11.083 11.083 0 0 1-1.551-.078c-1.566-.204-1.694-.019-2.01 2.896-.158 1.445-.144 1.53.281 1.836.246.175 1.026.389 1.732.474.707.084 1.409.263 1.56.396.15.133.326.774.393 1.423l.12 1.18-1.17.798c-1.709 1.165-1.734 1.27-.73 2.972.467.791 1.097 1.645 1.399 1.897l.55.458 1.573-.952 1.574-.952 1.056.876 1.056.876-.419 1.463c-.23.804-.41 1.618-.4 1.808.034.638 3.93 1.868 4.55 1.437.184-.127.55-.871.814-1.654.264-.782.504-1.486.532-1.565.03-.08.696-.115 1.483-.079l1.43.065.614 1.375c.338.757.767 1.46.954 1.562.244.135.749.033 1.806-.364 2.864-1.074 2.938-1.204 1.944-3.446l-.567-1.279.745-.739c1.124-1.114 1.408-1.153 2.974-.407.753.358 1.495.644 1.65.636.276-.014 1.294-1.57 1.895-2.898.563-1.246.445-1.4-2.262-2.954-.463-.266-.478-.335-.342-1.578.078-.715.177-1.338.22-1.385.043-.047.66-.21 1.372-.361 2.337-.498 2.472-.802 1.656-3.714l-.42-1.496-2.017.107-2.018.107-.667-1.031-.668-1.032.657-.891c.361-.49.818-1.206 1.014-1.59l.358-.698-1.393-1.14c-.766-.628-1.642-1.252-1.946-1.387-.535-.239-.59-.203-1.76 1.134l-1.207 1.38-1.302-.352-1.301-.352-.185-1.73c-.232-2.179-.36-2.283-2.622-2.13-.906.06-1.811.161-2.012.224Zm4.486 10.538c2.884 1.265 3.809 4.701 1.893 7.03-.976 1.188-1.95 1.696-3.386 1.767-1.513.074-2.66-.367-3.667-1.412-2.736-2.835-.816-7.457 3.186-7.67.764-.04 1.464.06 1.974.285Z" clip-rule="evenodd"/>
  </g>
  <defs>
    <clipPath id="a">
      <path fill="#fff" d="M0 0h121v121H0z"/>
    </clipPath>
  </defs>
</svg>
