<svg xmlns="http://www.w3.org/2000/svg" width="121" height="121" fill="none">
  <g clip-path="url(#a)">
    <path fill="#3F455B" stroke="#3F455B" stroke-width=".587" d="M87.586 35.47c1.298-.253 2.991-.06 4.557.402 1.563.461 3.056 1.207 3.932 2.107l-8.49-2.51Zm0 0c-.47.092-.761.153-1.124.353-.344.19-.753.505-1.486 1.076-1.204.937-1.95 1.6-2.331 2.255-.402.692-.386 1.347-.19 2.196.154.668.321 1.151.684 1.69.354.526.889 1.096 1.752 1.954 1.94 1.926 2.74 2.95 3.063 3.827m-.368-13.351.368 13.351m0 0c.688 1.87-.416 4.199-3.173 6.112-1.925 1.336-3.992 2.127-5.84 2.256-1.163.08-3.411-.288-5.304-.886-3.118-.986-4.572-1.317-5.693-1.25l.017.29m19.993-6.522-19.992 6.523m0 0-.018-.292a4.453 4.453 0 0 1-.801-.016c-.224-.028-.356-.075-.416-.114a1.006 1.006 0 0 0-.486-.183.608.608 0 0 0-.49.206 1.29 1.29 0 0 0-.255.486c-.061.193-.11.429-.153.705a7.95 7.95 0 0 1-.124.646 2.31 2.31 0 0 1-.06.211.734.734 0 0 0-.14.256c-.036.104-.065.229-.09.364a7.977 7.977 0 0 0-.097.982c-.034.726-.005 1.577.11 2.15.164.807.643 1.802 1.246 2.725.606.926 1.357 1.811 2.092 2.389l.181-.23m-.5-10.285.5 10.284m0 0-.181.23.59.466-.273 2.034.29.04-.29-.04c-.49 3.64-.912 5.778-1.744 8.834-2.93 10.76-8.853 21.848-17.338 32.436-2.726 3.401-6.243 7.588-7.958 9.472l-1.566 1.72-.167.183m28.637-55.375-28.637 55.375m0 0 .152.195m-.152-.195.152.195m0 0 14.602 18.766c7.016 9.017 10.669 13.708 12.585 16.118.957 1.202 1.487 1.845 1.789 2.174.144.157.258.268.355.328a.397.397 0 0 0 .253.062.343.343 0 0 0 .242-.151m-29.826-37.297 65.071-77.76m0 0c.672 1.5.849 2.587 1.181 6.942.174 2.279.514 5.766.755 7.745.457 3.754.676 6.239.628 8.608-.048 2.371-.363 4.617-.963 7.896l-.289-.053.289.053c-.209 1.137-.569 4.145-.8 6.683-1.49 16.369-4.697 28.613-10.904 41.618-5.576 11.681-12.608 21.889-22.428 32.563a292.291 292.291 0 0 0-2.474 2.724 18.51 18.51 0 0 0-.239.277v.001m35.244-115.058c-.258-.576-.708-1.318-1.18-1.99m1.18 1.99-1.18-1.99M69.802 158.494l-.242-.165.242.165Zm33.57-115.036c-.638-1.2-1.446-2.139-2.292-2.737-.847-.599-1.711-.843-2.48-.705a1.432 1.432 0 0 0-.363.1l-.003.001c.008.025.025.07.066.143.069.124.183.286.35.502 1.142 1.477 2.263 3.68 2.604 5.142.109.47.134.915.069 1.252a1.02 1.02 0 0 1-.196.461.538.538 0 0 1-.495.202.57.57 0 0 1-.353-.186 1.851 1.851 0 0 1-.271-.421c-.19-.371-.466-1.024-.936-2.16-.238-.578-.401-.931-.675-1.364-.277-.44-.67-.966-1.375-1.881-1.222-1.588-1.724-2.148-2.383-2.683-2.495-2.026-5.383-2.44-8.411-1.202l-.111-.271.11.271c-.982.402-1.564.792-1.857 1.204-.275.385-.323.828-.118 1.437.118.353.452.892 1.011 1.597.554.697 1.309 1.533 2.243 2.477.933.943 1.58 1.827 1.951 2.734.375.913.465 1.833.313 2.835-.265 1.736-1.182 3.162-3.148 5.023l-.201-.213.201.213c-2.114 2.002-4.766 3.39-7.017 3.64-2.35.26-4.342-.01-7.489-.996-1.871-.586-2.827-.866-3.452-.907-.297-.02-.503.017-.692.096-.198.083-.392.219-.664.43-.299.233-.477.445-.59.707-.117.27-.177.62-.194 1.145-.018.58.041 1.017.222 1.463.185.455.502.937 1.033 1.596a32.38 32.38 0 0 0 1.969 2.196l1.013 1.006.086.085.001.12.012 1.05c.007.602-.222 2.791-.503 4.855l-.492 3.612 1.45 1.35 1.393 1.296.744-.489c.301-.197.544-.353.746-.466.2-.112.38-.194.553-.231.392-.084.665.085.956.294l-.17.238 27.835-33.86Zm0 0c.573 1.08.921 1.993 1.118 3.137.198 1.153.245 2.55.204 4.606-.064 3.18.031 4.92.43 7.901 1.263 9.42 1.291 11.39.288 15.095-.247.913-.525 2.109-.617 2.66a12.26 12.26 0 0 1-.152.764c-.056.238-.104.4-.13.459m-1.141-34.622 1.141 34.621m0 0c-.053.118-.204.3-.466.521a7.27 7.27 0 0 1-.939.658c-.726.435-1.55.796-2.139.903-1.265.23-2.594-.3-4.173-1.806l-.203.212c-.564-.54-1.128-1.11-1.252-1.268-.176-.225-.69-.325-2.35-.457-4.009-.32-5.77-.115-7.927.916-2.17 1.037-2.906 1.049-3.936.065-.323-.309-.656-.475-1.056-.528l-.585-.076 25.026.86Zm-4.617-39.885c.821.26 1.668.8 2.603 1.615l-2.603-1.615Zm0 0a3.6 3.6 0 0 0-2.422.061l2.422-.061Zm3.971 3.251c-.469-.67-.98-1.298-1.368-1.636l1.368 1.636ZM65.151 57.013l.001-.002v.002Zm32.323-18.757a5.365 5.365 0 0 1-.58.18 2.048 2.048 0 0 1-.237.043 1.979 1.979 0 0 1-.181-.132 4.795 4.795 0 0 1-.401-.368l1.399.277Z"/>
    <path fill="#3F455B" fill-rule="evenodd" d="M63.047 16.532c-2.862.4-5.13 2.85-5.708 6.167-.543 3.11.826 7.237 3.165 9.55 1.146 1.132 2.012 1.546 3.24 1.55.812.002 1.334-.148 2.128-.614.578-.339 1.789-1.57 2.292-2.33a13.302 13.302 0 0 0 2.024-5.287c.143-.979.056-2.72-.18-3.611-.26-.99-.92-2.314-1.529-3.068-.875-1.086-2.204-1.962-3.392-2.236-.6-.14-1.52-.193-2.04-.12Zm-5.144 15.896c-5.24 1.476-7.519 3.129-8.568 6.214-.392 1.155-.61 2.967-.617 5.145l-.003.738.41.571c.652.91 1.256 1.601 2.183 2.5C56 52.141 62.691 53.753 69.057 51.87c2.4-.71 4.972-2.194 6.95-4.01a21.075 21.075 0 0 0 2.127-2.337l.438-.58-.037-1.784c-.04-1.965-.14-2.732-.498-3.813-1.049-3.167-3.569-5.138-8.79-6.876-.615-.205-1.132-.36-1.146-.346-.015.015-.726 1.882-1.58 4.148-.853 2.267-1.573 4.143-1.6 4.17-.027.026-.049-.87-.049-1.992v-2.04l.249-.681a66.8 66.8 0 0 1 .298-.809c.048-.119-.055-.127-1.558-.127-.885 0-1.609.015-1.609.033 0 .018.131.4.291.849l.291.815v1.915c0 1.074-.028 1.916-.065 1.916-.035 0-.5-1.023-1.032-2.273-2.272-5.34-2.524-5.91-2.622-5.922-.056-.006-.601.13-1.212.301ZM33.458 9.573c-1.657.255-2.952 1.694-3.261 3.623-.29 1.808.537 4.19 1.913 5.513.673.647 1.179.88 1.891.873.472-.005.773-.097 1.23-.373.332-.201 1.024-.925 1.31-1.37a7.717 7.717 0 0 0 1.131-3.083c.075-.569.011-1.578-.133-2.093-.16-.572-.553-1.335-.912-1.767-.516-.623-1.294-1.12-1.985-1.27-.35-.075-.883-.1-1.184-.053Zm-2.856 9.261c-3.027.899-4.335 1.876-4.918 3.674-.219.673-.33 1.726-.317 2.989l.004.428.242.328c.386.522.742.918 1.287 1.432 2.758 2.599 6.652 3.48 10.33 2.336 1.385-.431 2.865-1.313 3.998-2.382.371-.35.914-.964 1.214-1.372l.25-.34-.036-1.035c-.04-1.14-.103-1.584-.32-2.208-.634-1.828-2.111-2.95-5.153-3.917-.36-.114-.66-.2-.668-.19-.009.008-.406 1.096-.883 2.418-.476 1.321-.879 2.415-.894 2.431-.016.016-.036-.504-.045-1.155l-.016-1.183.138-.397.167-.471c.027-.07-.033-.074-.905-.062-.513.008-.933.022-.933.032 0 .011.08.232.176.49l.175.471.016 1.11c.009.624-.001 1.112-.022 1.112-.02 0-.299-.589-.617-1.31-1.361-3.079-1.512-3.407-1.57-3.413-.032-.003-.347.08-.7.184ZM19.313 39.43c-1.657.255-2.952 1.694-3.261 3.623-.29 1.808.538 4.19 1.913 5.513.674.648 1.18.88 1.892.873.471-.005.772-.097 1.23-.373.332-.201 1.024-.925 1.31-1.37a7.717 7.717 0 0 0 1.13-3.083c.076-.569.011-1.578-.132-2.093-.16-.572-.553-1.334-.912-1.767-.517-.623-1.295-1.12-1.986-1.27-.35-.075-.883-.1-1.184-.053Zm-2.855 9.261c-3.027.899-4.336 1.876-4.919 3.674-.218.673-.33 1.726-.317 2.989l.005.428.242.328a9.95 9.95 0 0 0 1.287 1.432c2.758 2.599 6.651 3.48 10.328 2.336 1.386-.431 2.867-1.313 4-2.382.37-.35.913-.964 1.214-1.372l.25-.34-.036-1.035c-.04-1.14-.104-1.583-.32-2.208-.634-1.828-2.112-2.95-5.154-3.917-.359-.114-.66-.2-.668-.19-.009.008-.405 1.097-.882 2.418-.477 1.321-.88 2.415-.895 2.431-.015.016-.035-.504-.044-1.154l-.017-1.184.139-.397c.076-.218.151-.43.167-.471.026-.07-.034-.074-.905-.062-.514.008-.933.022-.933.033 0 .01.079.23.175.49l.176.47.015 1.111c.01.623 0 1.111-.022 1.111-.02 0-.298-.589-.617-1.31-1.36-3.079-1.512-3.407-1.569-3.413-.032-.003-.347.08-.7.184ZM44.458 60.645c-1.657.255-2.953 1.694-3.261 3.622-.29 1.808.537 4.191 1.913 5.513.673.648 1.179.881 1.891.873.472-.005.773-.096 1.23-.373.332-.2 1.024-.925 1.31-1.37a7.717 7.717 0 0 0 1.131-3.082c.075-.57.011-1.578-.133-2.094-.16-.572-.553-1.334-.912-1.767-.516-.622-1.294-1.12-1.985-1.27-.35-.075-.883-.099-1.184-.053Zm-2.856 9.26c-3.027.899-4.335 1.876-4.918 3.674-.219.673-.33 1.726-.317 2.99l.004.427.242.328c.386.522.742.919 1.287 1.432 2.758 2.6 6.652 3.48 10.33 2.336 1.385-.43 2.865-1.313 3.998-2.382.371-.35.914-.964 1.214-1.372l.25-.34-.036-1.034c-.04-1.14-.103-1.584-.32-2.208-.634-1.829-2.111-2.951-5.153-3.917-.36-.114-.66-.2-.668-.191-.009.008-.406 1.097-.883 2.418-.476 1.322-.879 2.416-.894 2.431-.016.016-.036-.503-.045-1.154l-.016-1.183.138-.398.167-.471c.027-.07-.033-.073-.905-.061-.513.007-.933.021-.933.032 0 .01.08.23.176.49l.175.47.016 1.111c.009.623-.001 1.111-.022 1.112-.02 0-.299-.59-.617-1.31-1.361-3.08-1.512-3.408-1.57-3.413-.032-.004-.347.08-.7.184Z" clip-rule="evenodd"/>
    <rect width="119" height="119" x="1" y="1" stroke="#FF6501" stroke-width="2" rx="14"/>
    <path stroke="#3F455B" stroke-linecap="round" stroke-width="3" d="m67 49-11-9M54.5 44.5 26 51.77M57.4 45 49 74"/>
  </g>
  <defs>
    <clipPath id="a">
      <path fill="#fff" d="M0 0h121v121H0z"/>
    </clipPath>
  </defs>
</svg>
