<svg xmlns="http://www.w3.org/2000/svg" width="121" height="121" fill="none">
  <g clip-path="url(#a)">
    <rect width="121" height="121" fill="#3F455B" rx="20"/>
    <rect width="121" height="120" fill="#fff" rx="7.403"/>
    <path fill="#3F455B" fill-rule="evenodd" d="M66.798 44.672c0 .598-.18.713-1.363.874-2.337.317-3.642.835-4.91 1.95L59.3 48.57l-.96-.726a7.635 7.635 0 0 0-4.521-1.518c-1.15-.01-1.401-.122-1.687-.741-.184-.401-.537-.729-.783-.729-.281 0-.448.27-.448.729 0 .779-.285 1.09-2.355 2.572-1.39.995-3.049 3.409-3.536 5.145-.158.564-.288 1.715-.29 2.56 0 1.532-.003 1.535-.81 1.321a6.071 6.071 0 0 0-1.6-.164c-.61.038-.813-.098-.884-.59-.05-.352-.317-.682-.59-.734-.372-.07-.553.189-.708 1.01-.12.629-.508 1.337-.9 1.643-.38.296-1.056 1.151-1.5 1.9-.748 1.259-.81 1.598-.797 4.423.011 2.66.135 3.41.948 5.747 1.107 3.18 2.27 5.53 4.245 8.583l1.447 2.238-.198 10c-.127 6.442-.076 12.128.143 15.976.598 10.483 2.235 28.725 2.856 31.836l.161.804 21.54-.075c20.324-.071 21.537-.104 21.499-.586-.023-.281-.193-3.952-.379-8.159-.634-14.384-1.244-21.462-2.68-31.105-1.218-8.166-3.275-17.48-5.118-23.166l-.755-2.331 1.026-2.04c1.407-2.796 1.99-5.302 2.002-8.596.015-4.168-1.057-7.29-3.35-9.75-.635-.684-1.156-1.45-1.156-1.703 0-.609-.596-.955-.875-.508-.15.24-.634.291-1.514.161-1.235-.184-1.33-.27-2.116-1.926-.942-1.984-2.784-3.544-4.87-4.122-.895-.248-1.405-.596-1.7-1.16-.52-.998-1.29-1.068-1.29-.118Zm1.927 7.02c1.388 1.373.77 3.598-1.178 4.234-1.724.563-3.078-.492-3.095-2.413-.02-2.28 2.657-3.42 4.273-1.821Zm-14.368 1.187c1.406.975.97 3.895-.675 4.514-2.165.815-3.788-2.532-2.058-4.244.826-.819 1.803-.915 2.733-.27Zm23.74 5.408c1.14.887 1.74 2.197 1.525 3.328-.554 2.923-4.35 3.464-5.626.801-.627-1.309-.366-2.68.73-3.842 1.014-1.075 2.228-1.178 3.372-.287ZM68.06 60.962c1.57 1.185 2.125 2.584 2.111 5.313-.009 1.849-.158 2.632-.72 3.788-.847 1.741-4.098 5.048-5.744 5.842-1.625.784-4.264.738-6.159-.108-3.542-1.58-5.47-4.227-5.703-7.83-.264-4.075 1.33-6.232 4.758-6.442 1.57-.097 1.953-.011 2.943.658.627.423 1.163.73 1.194.682.862-1.379 1.24-1.776 2.16-2.271 1.538-.827 3.79-.666 5.16.368Zm-21.414 3.26c.84.831.984 2.574.293 3.55-.7.99-2.05 1.411-3.117.974-1.561-.64-2.152-2.463-1.317-4.062.51-.977.802-1.124 2.301-1.155.814-.017 1.314.171 1.84.693ZM84.23 6.344c-.992-.069-2.31.467-2.955 1.2-.68.774-.6.527-2.7 8.344-2.113 7.868-2.052 7.578-1.823 8.585.135.59.558 1.357.98 1.777.62.615.824.699 3.432 1.406 2.138.58 2.4.665 2.498.813.06.09.465 1.07.9 2.176 1.133 2.879 1.123 2.86 1.455 2.948.34.092.21.178 2.552-1.672 1.038-.82 1.97-1.532 2.07-1.582.166-.082.403-.032 2.559.547 1.467.394 2.497.638 2.693.637.947-.003 2.092-.495 2.716-1.166.701-.755.639-.564 2.725-8.324 1.178-4.384 1.909-7.213 1.93-7.475.052-.642-.162-1.582-.491-2.16-.345-.602-1.046-1.251-1.649-1.524-.533-.24-16.398-4.495-16.892-4.53Zm4.486 8.315c.53.283.898.66 1.26 1.291.195.34.385.716.423.837l.069.218.182-.151c.371-.308 1.13-.739 1.526-.866.613-.198 1.357-.164 1.857.086 1.13.563 1.733 1.703 1.525 2.888-.216 1.24-1.138 2.185-3.51 3.603-1.39.831-3.354 1.862-3.532 1.855-.175-.006-1.141-1.51-2.258-3.51-.872-1.564-1.255-2.574-1.323-3.491-.121-1.629.936-2.893 2.511-3.002.586-.04.83.006 1.27.242ZM15.656 27.27c-1.006.722-1.844 2.283-1.88 3.498-.036 1.282-.156.98 4.042 10.144 4.225 9.222 4.053 8.895 5.073 9.678.597.459 1.613.858 2.352.925 1.081.098 1.345.015 4.406-1.378 2.51-1.143 2.83-1.27 3.04-1.206.13.04 1.296.657 2.592 1.371 3.374 1.86 3.349 1.849 3.738 1.67.399-.182.342.005 1.117-3.63.344-1.611.672-3.034.729-3.162.093-.21.36-.35 2.887-1.508 1.719-.788 2.9-1.373 3.088-1.53.905-.754 1.612-2.136 1.677-3.275.072-1.281.164-1.048-4.002-10.145-2.353-5.139-3.9-8.431-4.088-8.699-.46-.657-1.412-1.388-2.187-1.68-.81-.304-1.997-.369-2.792-.151-.702.192-19.291 8.719-19.792 9.078Zm10.906 4.407c.734-.15 1.387-.08 2.234.237.457.17.939.38 1.07.465l.24.155.054-.29c.111-.59.496-1.605.775-2.043.43-.677 1.17-1.234 1.849-1.393 1.53-.358 3.014.257 3.757 1.557.777 1.36.645 3-.502 6.244-.673 1.9-1.736 4.45-1.913 4.584-.172.133-2.293-.54-4.953-1.572-2.079-.805-3.248-1.469-4.043-2.294-1.41-1.466-1.4-3.518.023-4.873.53-.504.8-.653 1.41-.777Z" clip-rule="evenodd"/>
  </g>
  <rect width="119" height="119" x="1" y="1" stroke="#FF6501" stroke-width="2" rx="19"/>
  <defs>
    <clipPath id="a">
      <rect width="121" height="121" fill="#fff" rx="20"/>
    </clipPath>
  </defs>
</svg>
