<svg xmlns="http://www.w3.org/2000/svg" width="121" height="121" fill="none">
  <g clip-path="url(#a)">
    <path fill="#3F455B" fill-rule="evenodd" d="M82.072 10.248c-.913.077-2.597.365-3.625.62-5.47 1.358-9.85 4.5-12.245 8.783-.579 1.037-1.216 2.752-1.508 4.056-.352 1.577-.353 4.28-.002 5.86.618 2.783 1.839 5.038 3.962 7.314 1.455 1.56 1.568 1.702 1.955 2.47.483.96.522 1.22.775 5.172.204 3.178.216 3.239.63 3.239.349 0 .766-.237 3.674-2.084 4.043-2.568 4.055-2.573 6.647-2.63l1.46-.033.093-.156c.15-.25.112-.5-.212-1.416-.51-1.442-.718-2.536-.72-3.81-.006-3.934 1.976-7.438 5.525-9.767 2.491-1.633 5.461-2.48 8.696-2.479 1.686 0 2.905.167 5.069.692.499.12.964.22 1.032.22.178 0 .486-.222.618-.445.139-.235.141-.655.007-1.446-.441-2.601-1.504-4.95-3.199-7.066-.533-.665-2.04-2.143-2.757-2.706-3.061-2.398-7.291-4.014-11.344-4.335-1.076-.085-3.78-.117-4.531-.053Zm13.616 16.87c-2.558.325-4.803 1.206-6.719 2.637-.593.443-1.629 1.465-2.064 2.037-2.299 3.022-2.677 6.933-.982 10.163 1.31 2.497 3.805 4.568 6.646 5.517 1.733.578 3.206.796 5.398.798 1.97.001 2.064.03 3.827 1.16 1.767 1.134 2.454 1.529 2.786 1.602.285.063.328.058.619-.073.345-.157.565-.4.673-.747.047-.15.079-.84.097-2.082.026-1.794.031-1.866.16-2.154.199-.444.488-.848 1.07-1.495.288-.32.629-.708.758-.862.75-.892 1.582-2.585 1.917-3.9.114-.445.126-.635.127-2.013.001-1.29-.015-1.589-.105-1.969-.3-1.267-.923-2.666-1.618-3.636-.471-.657-1.861-2.046-2.51-2.508-1.928-1.375-4.026-2.166-6.566-2.475-.862-.105-2.69-.106-3.514 0ZM50.2 22.235c.218.409.412.862.43 1.008.02.145.306.313.638.374 1.142.207 3.364 2.394 4.086 4.02 1.04 2.346 2.58 10.159 2.556 12.97-.011 1.266.014 2.334.055 2.373.04.04.683-.3 1.428-.753 1.104-.671 1.733-.84 3.4-.914 1.127-.05 2.56-.158 3.186-.24.993-.13 1.15-.058 1.23.569.052.395.007.83-.098.968-.105.138-.114.963-.018 1.836.212 1.938-.283 3.424-2.564 7.698-3.993 7.484-4.226 11.225-1.35 21.628 2.62 9.48 9.327 40.208 10.815 49.55l1.027 6.451-21.409 2.774-21.409 2.774-.356-1.271c-2.218-7.918-5.025-31.725-5.676-48.145-.465-11.727-.841-14.052-3.767-23.27-1.493-4.702-4.125-16.451-4.583-20.456-.197-1.722.259-3.373 1.097-3.973.404-.29.498-.706.367-1.621-.097-.677-.108-1.32-.025-1.43.316-.41 1.209.089 1.653.925.276.52.68.84 1.006.799.78-.101 3.265.75 3.98 1.363.809.693 1.196.602 1.953-.458 1.187-1.663 2.486-2.306 5.43-2.688 1.947-.252 3.172-.588 4.407-1.212 1.658-.836 3.69-1.16 5.006-.798.427.118.537-.111.576-1.199a13.341 13.341 0 0 1 1.286-5.163c.648-1.349 2.54-3.023 3.567-3.156.423-.055.691-.391.825-1.036.244-1.171.723-1.285 1.25-.297Zm-2.878 3.181c-1.872 1.21-3.305 4.556-3.22 7.522.033 1.131-.027 1.22-.864 1.267-2.982.166-3.778.344-5.38 1.199-1.475.786-2.075.938-4.035 1.018-1.405.058-2.617.265-3.11.532-1.201.649-2.944 2.584-2.713 3.012.454.844-.374.692-2.053-.375-2.781-1.768-5.017-1.863-6.243-.265-.617.805-.961 3.083-.592 3.927.148.339.765 3.48 1.37 6.98.914 5.288 1.402 7.27 2.876 11.713 2.234 6.727 2.985 9.634 3.485 13.484.324 2.492.53 3.22 1.116 3.953.75.938 2.268 1.663 3.204 1.53 1.188-.168 3.128-1.738 4.557-3.686.88-1.2 1.76-2.083 2.125-2.13.343-.044 1.29.305 2.104.777.815.472 1.778.913 2.14.979.92.166 2.093-.733 3.084-2.364.982-1.617 1.454-1.765 2.344-.736.359.415 1.448 1.379 2.421 2.142 1.453 1.139 2.023 1.392 3.185 1.416 2.029.042 3.339-.94 4.304-3.226 1.43-3.384 2.023-4.37 2.438-4.048.212.164.494.284.628.266.133-.017.015-1.785-.263-3.929-.775-5.986-.284-8.324 3.058-14.56 3.178-5.928 3.514-7.9 1.56-9.16-1.896-1.223-5.171-.306-7.51 2.103-1.067 1.1-1.76 1.194-1.055.143.892-1.331-.974-14.696-2.39-17.122-1.716-2.938-4.261-3.853-6.57-2.362Z" clip-rule="evenodd"/>
    <rect width="119" height="119" x="1" y="1" stroke="#FF6501" stroke-width="2" rx="14"/>
  </g>
  <defs>
    <clipPath id="a">
      <path fill="#fff" d="M0 0h121v121H0z"/>
    </clipPath>
  </defs>
</svg>
