<svg xmlns="http://www.w3.org/2000/svg" width="121" height="121" fill="none">
  <g clip-path="url(#a)">
    <path fill="#3F455B" fill-rule="evenodd" d="M65.607 121c-1.252-9.495-.66-41.584 2.64-59.075-5.204-6.691-3.96-18.152 6.931-16.502 1.51-4.334 2.833-5.803 6.6-5.61-.223-2.752-.061-4.11 1.65-5.61l.33-.66c-.063-1.632.99-1.981 1.981-.99.415.334.879.47 1.98.659 5.062 1.887 6.757 3.996 9.241 8.25.632.366 1.047.468 1.98.33 2.108-1.157 2.64-.33 1.98 1.65.974 2.958.775 4.424 0 6.931-.226 1.245-.143 1.962.33 3.3.718 3.212.797 4.93.66 7.921.373 6.669.916 10.22 1.981 16.502 2.137 16.747 3.076 26.138 2.97 42.904h-1.98c.077-4.03.053-6.279-.33-10.231-9.847 4.561-19.802-6.271-19.142-26.073 2.934-13.644 7.26-14.85 16.171-6.93-1.093-7.745-1.508-12.082-1.98-19.802-1.285.163-1.673-.165-1.65-1.65-.083-3.37.332-5.245 1.65-8.58.593-7.328-7.59-3.631-11.22 5.94-.239 2.556-1.981 2.31-1.65-.66-.412 1.261-.76 1.788-1.651 2.31-.44.11-.532.405-.66.99-.454 2.046-1.65 1.32-2.64 0-5.75-.344-6.435-3.27-7.261-8.91-3.22-.567-5.61 0-6.93 4.29-.523 5.595.66 8.25 3.63 9.24 3.064.97 5.28-.66 5.28-4.62-.19-1.782.99-1.65 1.98 0 .463 3.284-.287 4.561-2.64 6.27-.362.027-.516.149-.66.66.09 1.886-1.32 1.65-2.31.33-1.024-.488-1.696-.596-2.97-.66-3.082 22.874-4.29 36.304-1.98 58.086h-2.31Zm29.374-78.547c-4.707 2.609-5.969 4.814-7.92 8.91.473-4.515.165-6.954-2.971-10.89-1.32-4.29-.202-5.33 2.97-5.61 4.01 2.24 5.781 3.876 7.92 7.59Zm-10.232 3.63c-1.32-5.94-5.665-5.564-7.92.99-.09 3.508.228 5.238 2.97 6.93 1.814.3 2.827.292 4.62-.33.995-1.575.905-3.497.33-7.59ZM36.898 17.182a6095.455 6095.455 0 0 1-18.57 11.9c-3.11 1.987-5.798 3.725-5.972 3.86-.341.267-.308.767.06.915.11.044 1.76.065 3.665.046 8.15-.084 13.142-.137 18.516-.197 3.148-.036 6.011-.063 6.363-.061 3.23.014 4.38-.067 4.823-.337.4-.244 9.943-6.35 17.714-11.333l6.07-3.89c1.834-1.174 3.39-2.215 3.458-2.313.227-.327-.02-.763-.45-.798-.22-.018-3.421 0-7.113.043a13685.704 13685.704 0 0 1-20.64.222c-2.57.027-4.827.104-5.02.17-.191.067-1.498.865-2.904 1.773ZM15.746 39.909l1.267 4.245-.18 1.34c-.232 1.714-.09 2.554.516 3.04.992.797 1.979.796 2.81-.003 1.02-.982.895-2.036-.422-3.53l-.837-.948-1.287-4.176-1.287-4.175-.808.009c-.445.004-.86-.004-.924-.019-.063-.015.456 1.883 1.152 4.217Zm46.318-14.897C52.63 31.1 46.269 35.108 45.834 35.237c-.43.128-5.95.232-18.193.343-.816.008-1.528.026-1.582.042-.054.016.71 2.732 1.696 6.036l1.794 6.007.499.562c1.747 1.965 6.975 2.469 14.036 1.351 2.262-.358 10.46-2.757 12.323-3.606 6.141-2.799 9.692-5.288 11.02-7.726.758-1.393.807-1.086-1.325-8.243-1.038-3.484-1.93-6.317-1.981-6.295-.053.02-.978.608-2.057 1.304Z" clip-rule="evenodd"/>
    <rect width="119" height="119" x="1" y="1" stroke="#FF6501" stroke-width="2" rx="14"/>
    <path fill="#3F455B" d="M20.539 66.527c-2.142-.95-3.562-2.59-4.483-4.712-.678-1.564-.367-2.315 1.127-3.026.789-.375 1.586-.92 2.485-.485.414.201.901.553 1.062.964.604 1.545 1.533 2.852 2.865 3.644.941.56 2.143.63 3.224.936 1.222.346 2.462.64 3.653 1.083 2.542.948 3.29 3.598 1.68 5.88-.45.638-1 1.21-1.553 1.756-.876.867-1.553.596-1.844-.657-.153-.653-.317-1.332-.625-1.91-.67-1.256-1.961-1.508-3.125-1.926-1.466-.523-2.94-1.012-4.466-1.547ZM42.628 86.224c1.655-.6 2.752-1.636 3.464-2.976.524-.988.283-1.463-.871-1.911-.61-.237-1.225-.582-1.92-.307-.32.128-.697.35-.821.609-.467.976-1.185 1.801-2.214 2.302-.727.354-1.655.398-2.49.59-.945.22-1.903.405-2.824.685-1.964.598-2.542 2.273-1.298 3.713.347.404.772.764 1.2 1.11.677.547 1.2.376 1.425-.415.118-.413.245-.841.483-1.207.518-.793 1.515-.952 2.415-1.216 1.132-.33 2.271-.64 3.45-.977ZM23.864 80.035c1.266-.7 2.105-1.909 2.65-3.472.4-1.152.216-1.706-.667-2.23-.466-.276-.937-.678-1.468-.357-.245.148-.533.407-.628.71-.357 1.139-.906 2.102-1.693 2.685-.556.413-1.266.465-1.905.69-.721.255-1.454.472-2.159.798-1.501.698-1.943 2.651-.992 4.332.266.471.59.892.918 1.294.517.64.917.44 1.09-.484.09-.481.186-.98.368-1.407.396-.926 1.16-1.111 1.847-1.419.866-.385 1.737-.746 2.64-1.14ZM26.202 99.678c-1.169-.7-1.943-1.909-2.445-3.472-.37-1.153-.2-1.706.614-2.23.43-.276.865-.678 1.355-.358.226.15.492.408.58.71.33 1.14.836 2.102 1.563 2.686.513.413 1.168.465 1.758.69.666.255 1.343.472 1.993.798 1.386.698 1.794 2.651.916 4.332-.245.471-.545.892-.847 1.294-.478.639-.847.439-1.006-.484-.083-.481-.173-.981-.34-1.407-.366-.926-1.07-1.111-1.706-1.419-.799-.385-1.603-.746-2.435-1.14ZM46.254 63.727c1.036-1.195 1.432-2.583 1.386-4.106-.034-1.122-.439-1.472-1.554-1.447-.589.013-1.232-.072-1.656.451-.195.242-.392.594-.372.883.074 1.09-.119 2.135-.705 2.997-.413.61-1.127 1.008-1.7 1.508-.646.567-1.319 1.109-1.919 1.723-1.28 1.313-.977 3.096.658 3.962.458.242.958.415 1.452.573.783.25 1.119-.11.937-.935-.094-.43-.188-.878-.166-1.31.05-.939.766-1.47 1.356-2.062.745-.743 1.505-1.469 2.283-2.237Z"/>
  </g>
  <defs>
    <clipPath id="a">
      <path fill="#fff" d="M0 0h121v121H0z"/>
    </clipPath>
  </defs>
</svg>
